<svg id="Layer_1" data-name="Layer 1" xmlns="http://www.w3.org/2000/svg" viewBox="0 0 816.82 619.4"><defs><style>.cls-1{fill:#266d9e;}.cls-2{fill:#75ceee;}.cls-3{fill:#813879;}.cls-4{fill:#efa0df;}.cls-5{fill:#167579;}</style></defs><g id="Chart"><g id="Frame_1062" data-name="Frame 1062"><g id="School_of_Engineerin" data-name="School of Engineerin"><path d="M9,55.8A3.12,3.12,0,0,0,5.6,53.34a3.16,3.16,0,0,0-3.27,2.95A2.76,2.76,0,0,0,4.75,59l1.41.3a1.62,1.62,0,0,1,1.49,1.54c0,.87-.67,1.59-2.05,1.59a2.27,2.27,0,0,1-2.38-2.13l-1.31.42a3.44,3.44,0,0,0,3.71,3,3.13,3.13,0,0,0,3.43-2.94A2.87,2.87,0,0,0,6.47,58L5,57.63a1.44,1.44,0,0,1-1.28-1.44,1.76,1.76,0,0,1,1.92-1.65,2,2,0,0,1,2.1,1.69Z"/><path d="M13.49,57.75a1.77,1.77,0,0,1,1.8,1.42l1.19-.5a2.92,2.92,0,0,0-3-2.14,3.58,3.58,0,0,0,0,7.15,3.09,3.09,0,0,0,3-2.1l-1.16-.5a1.84,1.84,0,0,1-1.88,1.38,2.11,2.11,0,0,1-2.06-2.36A2.09,2.09,0,0,1,13.49,57.75Z"/><path d="M19.4,59.51c0-1,.56-1.78,1.57-1.78,1.17,0,1.56.76,1.56,1.7v4h1.32V59.2a2.48,2.48,0,0,0-4.45-1.68V53.34H18.08V63.47H19.4Z"/><path d="M28.83,62.51a2.43,2.43,0,1,1,2.1-2.41A2.15,2.15,0,0,1,28.83,62.51Zm0-6a3.58,3.58,0,1,0,3.44,3.57A3.39,3.39,0,0,0,28.83,56.53Z"/><path d="M36.84,62.51a2.43,2.43,0,1,1,2.1-2.41A2.15,2.15,0,0,1,36.84,62.51Zm0-6a3.58,3.58,0,1,0,3.44,3.57A3.39,3.39,0,0,0,36.84,56.53Z"/><path d="M43.28,63.47V53.34H42V63.47Z"/><path d="M51.91,62.51A2.43,2.43,0,1,1,54,60.1,2.15,2.15,0,0,1,51.91,62.51Zm0-6a3.58,3.58,0,1,0,3.44,3.57A3.39,3.39,0,0,0,51.91,56.53Z"/><path d="M60.42,57.93V56.74H58.8V55.67a1,1,0,0,1,1.06-1.14,1.54,1.54,0,0,1,.58.08V53.43a1.77,1.77,0,0,0-.79-.14,2.14,2.14,0,0,0-2.21,2.31v1.14H56.19v1.19h1.25v5.54H58.8V57.93Z"/><path d="M71.51,63.47V62.2H66.84v-3h4.23V57.87H66.84v-3h4.67V53.55h-6v9.92Z"/><path d="M74.58,59.58c0-1,.53-1.85,1.57-1.85s1.56.76,1.56,1.7v4H79V59.2a2.36,2.36,0,0,0-2.41-2.66,2.31,2.31,0,0,0-2.07,1.16v-1H73.26v6.73h1.32Z"/><path d="M80.63,63.84a3,3,0,0,0,3.11,2.5A3.07,3.07,0,0,0,87.11,63V56.74h-1.3v.94a2.1,2.1,0,0,0-2.07-1.07,3.28,3.28,0,0,0,0,6.54A2.24,2.24,0,0,0,85.8,62v1c0,1.46-.65,2.18-2.06,2.18a1.78,1.78,0,0,1-1.83-1.65ZM83.94,62a1.92,1.92,0,0,1-2-2.15,1.94,1.94,0,1,1,3.86,0A1.93,1.93,0,0,1,83.94,62Z"/><path d="M90.52,63.47V56.74h-1.3v6.73Zm-1.6-9.28a.95.95,0,1,0,.94-.95A.94.94,0,0,0,88.92,54.19Z"/><path d="M94.07,59.58c0-1,.54-1.85,1.57-1.85s1.57.76,1.57,1.7v4h1.32V59.2a2.36,2.36,0,0,0-2.41-2.66,2.29,2.29,0,0,0-2.07,1.16v-1H92.76v6.73h1.31Z"/><path d="M101.47,59.41a1.81,1.81,0,0,1,1.84-1.72,1.7,1.7,0,0,1,1.85,1.72Zm3.88,1.75a1.83,1.83,0,0,1-1.89,1.36,2,2,0,0,1-2-2h5.07a3.89,3.89,0,0,0,0-.42c0-2.1-1.17-3.53-3.24-3.53a3.59,3.59,0,0,0,.17,7.15,3,3,0,0,0,3-2.13Z"/><path d="M109.06,59.41a1.81,1.81,0,0,1,1.83-1.72,1.7,1.7,0,0,1,1.85,1.72Zm3.88,1.75a1.83,1.83,0,0,1-1.89,1.36,2,2,0,0,1-2-2h5.07c0-.09,0-.26,0-.42,0-2.1-1.16-3.53-3.23-3.53a3.59,3.59,0,0,0,.17,7.15,3,3,0,0,0,3-2.13Z"/><path d="M119.53,56.67a2,2,0,0,0-.43,0,2.11,2.11,0,0,0-2,1.28V56.74H115.8v6.73h1.31V60.1c0-1.49.74-2.07,1.85-2.07a3.73,3.73,0,0,1,.57,0Z"/><path d="M122.24,63.47V56.74h-1.3v6.73Zm-1.6-9.28a.95.95,0,1,0,.94-.95A.94.94,0,0,0,120.64,54.19Z"/><path d="M125.79,59.58c0-1,.54-1.85,1.57-1.85,1.18,0,1.57.76,1.57,1.7v4h1.32V59.2a2.36,2.36,0,0,0-2.41-2.66,2.28,2.28,0,0,0-2.07,1.16v-1h-1.29v6.73h1.31Z"/><path d="M131.85,63.84a3,3,0,0,0,3.11,2.5A3.07,3.07,0,0,0,138.33,63V56.74H137v.94A2.12,2.12,0,0,0,135,56.61a3.1,3.1,0,0,0-3.1,3.28,3.07,3.07,0,0,0,3.1,3.26A2.23,2.23,0,0,0,137,62v1c0,1.46-.64,2.18-2,2.18a1.79,1.79,0,0,1-1.84-1.65Zm3.3-1.8a1.92,1.92,0,0,1-1.94-2.15A1.94,1.94,0,1,1,135.15,62Z"/></g><g id="School_of_Engineerin_2" data-name="School of Engineerin_2"><path d="M9,139.8a3.12,3.12,0,0,0-3.36-2.46,3.16,3.16,0,0,0-3.27,2.95A2.76,2.76,0,0,0,4.75,143l1.41.3a1.62,1.62,0,0,1,1.49,1.54c0,.87-.67,1.59-2.05,1.59a2.27,2.27,0,0,1-2.38-2.13l-1.31.42a3.44,3.44,0,0,0,3.71,3,3.13,3.13,0,0,0,3.43-2.94A2.87,2.87,0,0,0,6.47,142L5,141.63a1.44,1.44,0,0,1-1.28-1.44,1.76,1.76,0,0,1,1.92-1.65,2,2,0,0,1,2.1,1.69Z"/><path d="M13.49,141.75a1.77,1.77,0,0,1,1.8,1.42l1.19-.5a2.92,2.92,0,0,0-3-2.14,3.58,3.58,0,0,0,0,7.15,3.09,3.09,0,0,0,3-2.1l-1.16-.5a1.84,1.84,0,0,1-1.88,1.38,2.11,2.11,0,0,1-2.06-2.36A2.09,2.09,0,0,1,13.49,141.75Z"/><path d="M19.4,143.51c0-1,.56-1.78,1.57-1.78,1.17,0,1.56.76,1.56,1.7v4h1.32V143.2a2.48,2.48,0,0,0-4.45-1.68v-4.18H18.08v10.13H19.4Z"/><path d="M28.83,146.51a2.43,2.43,0,1,1,2.1-2.41A2.15,2.15,0,0,1,28.83,146.51Zm0-6a3.58,3.58,0,1,0,3.44,3.57A3.39,3.39,0,0,0,28.83,140.53Z"/><path d="M36.84,146.51a2.43,2.43,0,1,1,2.1-2.41A2.15,2.15,0,0,1,36.84,146.51Zm0-6a3.58,3.58,0,1,0,3.44,3.57A3.39,3.39,0,0,0,36.84,140.53Z"/><path d="M43.28,147.47V137.34H42v10.13Z"/><path d="M51.91,146.51A2.43,2.43,0,1,1,54,144.1,2.15,2.15,0,0,1,51.91,146.51Zm0-6a3.58,3.58,0,1,0,3.44,3.57A3.39,3.39,0,0,0,51.91,140.53Z"/><path d="M60.42,141.93v-1.19H58.8v-1.07a1,1,0,0,1,1.06-1.14,1.54,1.54,0,0,1,.58.08v-1.18a1.77,1.77,0,0,0-.79-.14,2.14,2.14,0,0,0-2.21,2.31v1.14H56.19v1.19h1.25v5.54H58.8v-5.54Z"/><path d="M76.2,147.47v-9.92H74.36l-3.53,8.07-3.5-8.07H65.47v9.92h1.36v-7.73l3.36,7.73h1.26l3.39-7.73v7.73Z"/><path d="M79.43,143.41a1.81,1.81,0,0,1,1.84-1.72,1.7,1.7,0,0,1,1.85,1.72Zm3.88,1.75a1.83,1.83,0,0,1-1.89,1.36,2,2,0,0,1-2-2h5.07a3.89,3.89,0,0,0,0-.42c0-2.1-1.16-3.53-3.24-3.53a3.59,3.59,0,0,0,.17,7.15,3.06,3.06,0,0,0,3-2.13Z"/><path d="M87,144.08a2.09,2.09,0,0,1,2-2.36c1.2,0,1.93.95,1.93,2.34s-.74,2.43-1.94,2.43S87,145.47,87,144.08Zm3.94,2.48a5.33,5.33,0,0,0,.07.91h1.27a11.6,11.6,0,0,1-.07-1.24v-8.89h-1.3v4.35a2.07,2.07,0,0,0-2.06-1.13,3.31,3.31,0,0,0-3.19,3.52c0,2,1.22,3.57,3.19,3.57a2.27,2.27,0,0,0,2.09-1.2Z"/><path d="M95.7,147.47v-6.73H94.4v6.73Zm-1.6-9.28a1,1,0,1,0,.94-.95A.95.95,0,0,0,94.1,138.19Z"/><path d="M100.77,141.75a1.75,1.75,0,0,1,1.8,1.42l1.19-.5a2.92,2.92,0,0,0-3-2.14,3.58,3.58,0,0,0,0,7.15,3.09,3.09,0,0,0,3-2.1l-1.16-.5a1.84,1.84,0,0,1-1.88,1.38,2.11,2.11,0,0,1-2.06-2.36A2.09,2.09,0,0,1,100.77,141.75Z"/><path d="M106.67,147.47v-6.73h-1.31v6.73Zm-1.6-9.28a.95.95,0,1,0,.94-.95A.94.94,0,0,0,105.07,138.19Z"/><path d="M110.22,143.58c0-1,.53-1.85,1.57-1.85s1.57.76,1.57,1.7v4h1.31V143.2a2.36,2.36,0,0,0-2.41-2.66,2.31,2.31,0,0,0-2.07,1.16v-1H108.9v6.73h1.32Z"/><path d="M117.62,143.41a1.81,1.81,0,0,1,1.83-1.72,1.7,1.7,0,0,1,1.85,1.72Zm3.88,1.75a1.83,1.83,0,0,1-1.89,1.36,2,2,0,0,1-2-2h5.07c0-.09,0-.26,0-.42,0-2.1-1.16-3.53-3.23-3.53a3.59,3.59,0,0,0,.17,7.15,3,3,0,0,0,3-2.13Z"/></g><g id="School_of_Engineerin_3" data-name="School of Engineerin_3"><path d="M9,223.8a3.12,3.12,0,0,0-3.36-2.46,3.16,3.16,0,0,0-3.27,2.95A2.76,2.76,0,0,0,4.75,227l1.41.3a1.62,1.62,0,0,1,1.49,1.54c0,.87-.67,1.59-2.05,1.59a2.27,2.27,0,0,1-2.38-2.13l-1.31.42a3.44,3.44,0,0,0,3.71,3,3.13,3.13,0,0,0,3.43-2.94A2.87,2.87,0,0,0,6.47,226L5,225.63a1.44,1.44,0,0,1-1.28-1.44,1.76,1.76,0,0,1,1.92-1.65,2,2,0,0,1,2.1,1.69Z"/><path d="M13.49,225.75a1.77,1.77,0,0,1,1.8,1.42l1.19-.5a2.92,2.92,0,0,0-3-2.14,3.58,3.58,0,0,0,0,7.15,3.09,3.09,0,0,0,3-2.1l-1.16-.5a1.84,1.84,0,0,1-1.88,1.38,2.11,2.11,0,0,1-2.06-2.36A2.09,2.09,0,0,1,13.49,225.75Z"/><path d="M19.4,227.51c0-1,.56-1.78,1.57-1.78,1.17,0,1.56.76,1.56,1.7v4h1.32V227.2a2.48,2.48,0,0,0-4.45-1.68v-4.18H18.08v10.13H19.4Z"/><path d="M28.83,230.51a2.43,2.43,0,1,1,2.1-2.41A2.15,2.15,0,0,1,28.83,230.51Zm0-6a3.58,3.58,0,1,0,3.44,3.57A3.39,3.39,0,0,0,28.83,224.53Z"/><path d="M36.84,230.51a2.43,2.43,0,1,1,2.1-2.41A2.15,2.15,0,0,1,36.84,230.51Zm0-6a3.58,3.58,0,1,0,3.44,3.57A3.39,3.39,0,0,0,36.84,224.53Z"/><path d="M43.28,231.47V221.34H42v10.13Z"/><path d="M51.91,230.51A2.43,2.43,0,1,1,54,228.1,2.15,2.15,0,0,1,51.91,230.51Zm0-6a3.58,3.58,0,1,0,3.44,3.57A3.39,3.39,0,0,0,51.91,224.53Z"/><path d="M60.42,225.93v-1.19H58.8v-1.07a1,1,0,0,1,1.06-1.14,1.54,1.54,0,0,1,.58.08v-1.18a1.77,1.77,0,0,0-.79-.14,2.14,2.14,0,0,0-2.21,2.31v1.14H56.19v1.19h1.25v5.54H58.8v-5.54Z"/><path d="M73.28,231.47v-9.92H71.91v4.24H66.84v-4.24H65.47v9.92h1.37v-4.41h5.07v4.41Z"/><path d="M80.11,230.66a5.71,5.71,0,0,0,0,.81h1.26a10.78,10.78,0,0,1-.07-1.24v-5.49H80v4.06a1.53,1.53,0,0,1-1.6,1.72c-1.11,0-1.53-.81-1.53-1.74v-4H75.6V229a2.49,2.49,0,0,0,2.52,2.7A2.21,2.21,0,0,0,80.11,230.66Z"/><path d="M84.9,231.47v-4.06a1.56,1.56,0,0,1,1.57-1.71,1.36,1.36,0,0,1,1.43,1.54v4.23h1.31V227.4a1.57,1.57,0,0,1,1.56-1.7,1.35,1.35,0,0,1,1.42,1.54v4.23H93.5V227.1a2.31,2.31,0,0,0-2.33-2.56,2.41,2.41,0,0,0-2.25,1.28,2.12,2.12,0,0,0-2-1.28,2.32,2.32,0,0,0-2,1.09v-.89H83.6v6.73Z"/><path d="M95.18,229.67a2.1,2.1,0,0,0,2.26,2,2.46,2.46,0,0,0,2.17-1.12,4.77,4.77,0,0,0,.07.91H101a7.54,7.54,0,0,1-.08-1.1V227c0-1.31-.78-2.46-2.8-2.46a2.59,2.59,0,0,0-2.76,2.18l1.26.3a1.43,1.43,0,0,1,1.53-1.36c1,0,1.45.54,1.45,1.2,0,.24-.11.45-.51.51l-1.82.26A2.09,2.09,0,0,0,95.18,229.67Zm2.44.91a1,1,0,0,1-1.09-1,1,1,0,0,1,1-1l2-.31v.31A1.76,1.76,0,0,1,97.62,230.58Z"/><path d="M104.25,227.58c0-1,.53-1.85,1.56-1.85s1.57.76,1.57,1.7v4h1.32V227.2a2.36,2.36,0,0,0-2.41-2.66,2.31,2.31,0,0,0-2.07,1.16v-1h-1.29v6.73h1.32Z"/><path d="M112.09,231.47v-6.73h-1.3v6.73Zm-1.59-9.28a.95.95,0,1,0,.94-.95A.94.94,0,0,0,110.5,222.19Z"/><path d="M116.1,222.61h-1.21v1.09a.94.94,0,0,1-1,1h-.37v1.19h1.29v3.69a1.75,1.75,0,0,0,1.88,1.92,3,3,0,0,0,.89-.12V230.3a3.53,3.53,0,0,1-.52,0c-.68,0-.93-.31-.93-.92v-3.5h1.45v-1.19H116.1Z"/><path d="M120.61,231.47v-6.73h-1.3v6.73ZM119,222.19a.94.94,0,0,0,.93.94.95.95,0,1,0,0-1.89A.94.94,0,0,0,119,222.19Z"/><path d="M123.7,227.41a1.81,1.81,0,0,1,1.84-1.72,1.7,1.7,0,0,1,1.85,1.72Zm3.88,1.75a1.83,1.83,0,0,1-1.89,1.36,2,2,0,0,1-2-2h5.07a3.89,3.89,0,0,0,0-.42c0-2.1-1.16-3.53-3.24-3.53a3.59,3.59,0,0,0,.17,7.15,3.06,3.06,0,0,0,3-2.13Z"/><path d="M129.81,229.72a2.53,2.53,0,0,0,2.74,2A2.23,2.23,0,0,0,135,229.6a2.06,2.06,0,0,0-1.87-2l-1.09-.23c-.52-.12-.77-.41-.77-.82a1,1,0,0,1,1.12-.89,1.3,1.3,0,0,1,1.4,1.12l1.16-.44a2.38,2.38,0,0,0-2.56-1.8,2.3,2.3,0,0,0-2.39,2.13,1.92,1.92,0,0,0,1.68,1.89l1.15.25c.56.12.86.45.86.87s-.4.89-1.14.89A1.43,1.43,0,0,1,131,229.3Z"/><path d="M139.85,229.67a2.09,2.09,0,0,0,2.25,2,2.43,2.43,0,0,0,2.17-1.12,4.77,4.77,0,0,0,.07.91h1.29a6.29,6.29,0,0,1-.08-1.1V227c0-1.31-.79-2.46-2.8-2.46a2.59,2.59,0,0,0-2.76,2.18l1.26.3a1.42,1.42,0,0,1,1.52-1.36c1,0,1.46.54,1.46,1.2,0,.24-.11.45-.52.51l-1.82.26A2.08,2.08,0,0,0,139.85,229.67Zm2.43.91a1,1,0,0,1-1.09-1,1,1,0,0,1,1-1l2.06-.31v.31A1.77,1.77,0,0,1,142.28,230.58Z"/><path d="M148.91,227.58c0-1,.53-1.85,1.57-1.85s1.57.76,1.57,1.7v4h1.31V227.2a2.36,2.36,0,0,0-2.4-2.66,2.31,2.31,0,0,0-2.08,1.16v-1H147.6v6.73h1.31Z"/><path d="M156.24,228.08a2.09,2.09,0,0,1,2-2.36c1.2,0,1.93.95,1.93,2.34s-.74,2.43-1.94,2.43S156.24,229.47,156.24,228.08Zm3.93,2.48a5.06,5.06,0,0,0,.08.91h1.27a9.28,9.28,0,0,1-.07-1.24v-8.89h-1.3v4.35a2.07,2.07,0,0,0-2.06-1.13,3.31,3.31,0,0,0-3.19,3.52c0,2,1.21,3.57,3.19,3.57a2.25,2.25,0,0,0,2.08-1.2Z"/><path d="M173.66,223.8a3.13,3.13,0,0,0-3.36-2.46,3.16,3.16,0,0,0-3.28,2.95,2.76,2.76,0,0,0,2.42,2.72l1.42.3a1.62,1.62,0,0,1,1.48,1.54c0,.87-.67,1.59-2,1.59a2.25,2.25,0,0,1-2.38-2.13l-1.32.42a3.45,3.45,0,0,0,3.71,3,3.13,3.13,0,0,0,3.43-2.94,2.86,2.86,0,0,0-2.58-2.78l-1.48-.33a1.43,1.43,0,0,1-1.27-1.44,1.75,1.75,0,0,1,1.91-1.65,2,2,0,0,1,2.1,1.69Z"/><path d="M178.18,225.75a1.75,1.75,0,0,1,1.8,1.42l1.19-.5a2.92,2.92,0,0,0-3-2.14,3.58,3.58,0,0,0,0,7.15,3.09,3.09,0,0,0,3-2.1l-1.16-.5a1.84,1.84,0,0,1-1.88,1.38,2.11,2.11,0,0,1-2.06-2.36A2.09,2.09,0,0,1,178.18,225.75Z"/><path d="M184.08,231.47v-6.73h-1.31v6.73Zm-1.6-9.28a.95.95,0,1,0,.94-.95A.94.94,0,0,0,182.48,222.19Z"/><path d="M187.17,227.41a1.8,1.8,0,0,1,1.83-1.72,1.7,1.7,0,0,1,1.85,1.72Zm3.88,1.75a1.83,1.83,0,0,1-1.89,1.36,2,2,0,0,1-2-2h5.06a2.34,2.34,0,0,0,0-.42c0-2.1-1.16-3.53-3.23-3.53a3.59,3.59,0,0,0,.17,7.15,3.06,3.06,0,0,0,3-2.13Z"/><path d="M195.22,227.58c0-1,.53-1.85,1.57-1.85s1.56.76,1.56,1.7v4h1.32V227.2a2.36,2.36,0,0,0-2.41-2.66,2.31,2.31,0,0,0-2.07,1.16v-1H193.9v6.73h1.32Z"/><path d="M204.59,225.75a1.77,1.77,0,0,1,1.81,1.42l1.19-.5a2.94,2.94,0,0,0-3-2.14,3.38,3.38,0,0,0-3.39,3.57,3.41,3.41,0,0,0,3.41,3.58,3.08,3.08,0,0,0,3-2.1l-1.16-.5a1.82,1.82,0,0,1-1.87,1.38,2.38,2.38,0,0,1,0-4.71Z"/><path d="M210,227.41a1.81,1.81,0,0,1,1.84-1.72,1.7,1.7,0,0,1,1.85,1.72Zm3.88,1.75a1.83,1.83,0,0,1-1.89,1.36,2,2,0,0,1-2-2H215a3.89,3.89,0,0,0,0-.42c0-2.1-1.17-3.53-3.24-3.53a3.59,3.59,0,0,0,.17,7.15,3,3,0,0,0,3-2.13Z"/><path d="M216.08,229.72a2.53,2.53,0,0,0,2.74,2,2.22,2.22,0,0,0,2.46-2.08,2,2,0,0,0-1.86-2l-1.09-.23c-.52-.12-.77-.41-.77-.82a1,1,0,0,1,1.12-.89,1.3,1.3,0,0,1,1.4,1.12l1.16-.44a2.38,2.38,0,0,0-2.56-1.8,2.29,2.29,0,0,0-2.39,2.13,1.92,1.92,0,0,0,1.68,1.89l1.14.25c.56.12.87.45.87.87s-.4.89-1.15.89a1.43,1.43,0,0,1-1.56-1.26Z"/></g><g id="School_of_Engineerin_4" data-name="School of Engineerin_4"><path d="M9,307.8a3.12,3.12,0,0,0-3.36-2.46,3.16,3.16,0,0,0-3.27,3A2.76,2.76,0,0,0,4.75,311l1.41.3a1.62,1.62,0,0,1,1.49,1.54c0,.87-.67,1.59-2.05,1.59a2.27,2.27,0,0,1-2.38-2.13l-1.31.42a3.44,3.44,0,0,0,3.71,2.95,3.13,3.13,0,0,0,3.43-2.94A2.87,2.87,0,0,0,6.47,310L5,309.63a1.44,1.44,0,0,1-1.28-1.44,1.76,1.76,0,0,1,1.92-1.65,2,2,0,0,1,2.1,1.69Z"/><path d="M13.49,309.75a1.77,1.77,0,0,1,1.8,1.42l1.19-.5a2.92,2.92,0,0,0-3-2.14,3.58,3.58,0,0,0,0,7.15,3.09,3.09,0,0,0,3-2.1l-1.16-.5a1.84,1.84,0,0,1-1.88,1.38,2.11,2.11,0,0,1-2.06-2.36A2.09,2.09,0,0,1,13.49,309.75Z"/><path d="M19.4,311.51c0-1,.56-1.78,1.57-1.78,1.17,0,1.56.76,1.56,1.7v4h1.32V311.2a2.48,2.48,0,0,0-4.45-1.68v-4.18H18.08v10.13H19.4Z"/><path d="M28.83,314.51a2.43,2.43,0,1,1,2.1-2.41A2.15,2.15,0,0,1,28.83,314.51Zm0-6a3.58,3.58,0,1,0,3.44,3.57A3.39,3.39,0,0,0,28.83,308.53Z"/><path d="M36.84,314.51a2.43,2.43,0,1,1,2.1-2.41A2.15,2.15,0,0,1,36.84,314.51Zm0-6a3.58,3.58,0,1,0,3.44,3.57A3.39,3.39,0,0,0,36.84,308.53Z"/><path d="M43.28,315.47V305.34H42v10.13Z"/><path d="M51.91,314.51A2.43,2.43,0,1,1,54,312.1,2.15,2.15,0,0,1,51.91,314.51Zm0-6a3.58,3.58,0,1,0,3.44,3.57A3.39,3.39,0,0,0,51.91,308.53Z"/><path d="M60.42,309.93v-1.19H58.8v-1.07a1,1,0,0,1,1.06-1.14,1.54,1.54,0,0,1,.58.08v-1.18a1.77,1.77,0,0,0-.79-.14,2.14,2.14,0,0,0-2.21,2.31v1.14H56.19v1.19h1.25v5.54H58.8v-5.54Z"/><path d="M71.51,315.47V314.2H66.84v-3h4.23v-1.29H66.84v-3.05h4.67v-1.27h-6v9.92Z"/><path d="M72.84,313.67a2.1,2.1,0,0,0,2.26,2,2.46,2.46,0,0,0,2.17-1.12,4.77,4.77,0,0,0,.07.91h1.28a7.54,7.54,0,0,1-.08-1.1V311c0-1.31-.78-2.46-2.8-2.46A2.59,2.59,0,0,0,73,310.71l1.26.3a1.43,1.43,0,0,1,1.53-1.36c1,0,1.45.54,1.45,1.2,0,.24-.11.45-.51.51l-1.82.26A2.09,2.09,0,0,0,72.84,313.67Zm2.44.91a1,1,0,0,1-1.09-1,1,1,0,0,1,1-1l2-.31v.31A1.76,1.76,0,0,1,75.28,314.58Z"/><path d="M84.33,308.67a2,2,0,0,0-.44,0,2.11,2.11,0,0,0-2,1.28v-1.17H80.59v6.73h1.32V312.1c0-1.49.74-2.07,1.84-2.07a3.86,3.86,0,0,1,.58,0Z"/><path d="M87.85,306.61h-1.2v1.09a1,1,0,0,1-1,1h-.36v1.19h1.28v3.69a1.75,1.75,0,0,0,1.88,1.92,3.09,3.09,0,0,0,.9-.12V314.3a3.67,3.67,0,0,1-.52.05c-.69,0-.94-.31-.94-.92v-3.5h1.46v-1.19H87.85Z"/><path d="M92.38,311.51c0-1,.56-1.78,1.57-1.78,1.17,0,1.56.76,1.56,1.7v4h1.32V311.2a2.48,2.48,0,0,0-4.45-1.68v-4.18H91.06v10.13h1.32Z"/><path d="M98.78,314.58a.9.9,0,0,0,.94.95.58.58,0,0,0,.31-.07A1.58,1.58,0,0,1,98.87,317v.73a2.51,2.51,0,0,0,2.07-2.73,1.17,1.17,0,0,0-1.13-1.33A1,1,0,0,0,98.78,314.58Z"/><path d="M112.71,315.47V314.2h-4.66v-3h4.23v-1.29h-4.23v-3.05h4.66v-1.27h-6v9.92Z"/><path d="M115.78,311.58c0-1,.54-1.85,1.57-1.85,1.18,0,1.57.76,1.57,1.7v4h1.32V311.2a2.36,2.36,0,0,0-2.41-2.66,2.31,2.31,0,0,0-2.07,1.16v-1h-1.29v6.73h1.31Z"/><path d="M123.18,311.41a1.81,1.81,0,0,1,1.84-1.72,1.7,1.7,0,0,1,1.85,1.72Zm3.88,1.75a1.83,1.83,0,0,1-1.89,1.36,2,2,0,0,1-2-2h5.07a3.89,3.89,0,0,0,0-.42c0-2.1-1.16-3.53-3.24-3.53a3.59,3.59,0,0,0,.17,7.15,3.06,3.06,0,0,0,3-2.13Z"/><path d="M133.66,308.67a2.25,2.25,0,0,0-2.45,1.24v-1.17h-1.29v6.73h1.31V312.1c0-1.49.75-2.07,1.85-2.07a4,4,0,0,1,.58,0Z"/><path d="M134.5,315.84a3,3,0,0,0,3.11,2.5A3.07,3.07,0,0,0,141,315v-6.23h-1.3v.94a2.12,2.12,0,0,0-2.07-1.07,3.27,3.27,0,0,0,0,6.54,2.25,2.25,0,0,0,2.06-1.11v1c0,1.46-.65,2.18-2.06,2.18a1.8,1.8,0,0,1-1.84-1.65Zm3.3-1.8a1.92,1.92,0,0,1-1.94-2.15A1.94,1.94,0,1,1,137.8,314Z"/><path d="M144.7,318.29l4.38-9.55h-1.42l-2,4.65-2.1-4.65H142l2.89,6-1.68,3.56Z"/><path d="M153.42,313.67a2.1,2.1,0,0,0,2.26,2,2.46,2.46,0,0,0,2.17-1.12,4.77,4.77,0,0,0,.07.91h1.29a5.94,5.94,0,0,1-.09-1.1V311c0-1.31-.78-2.46-2.8-2.46a2.6,2.6,0,0,0-2.76,2.18l1.26.3a1.44,1.44,0,0,1,1.53-1.36c1,0,1.46.54,1.46,1.2,0,.24-.12.45-.52.51l-1.82.26A2.09,2.09,0,0,0,153.42,313.67Zm2.44.91a1,1,0,0,1-1.09-1,1,1,0,0,1,1-1l2.06-.31v.31A1.77,1.77,0,0,1,155.86,314.58Z"/><path d="M162.49,311.58c0-1,.53-1.85,1.57-1.85s1.56.76,1.56,1.7v4h1.32V311.2a2.36,2.36,0,0,0-2.41-2.66,2.31,2.31,0,0,0-2.07,1.16v-1h-1.29v6.73h1.32Z"/><path d="M169.82,312.08a2.09,2.09,0,0,1,2-2.36c1.2,0,1.93.95,1.93,2.34s-.74,2.43-2,2.43S169.82,313.47,169.82,312.08Zm3.93,2.48a5.33,5.33,0,0,0,.07.91h1.27c0-.11-.06-.6-.06-1.24v-8.89h-1.31v4.35a2,2,0,0,0-2.05-1.13,3.31,3.31,0,0,0-3.2,3.52c0,2,1.22,3.57,3.2,3.57a2.25,2.25,0,0,0,2.08-1.2Z"/><path d="M186.94,315.47V314.2h-4.66v-3h4.22v-1.29h-4.22v-3.05h4.66v-1.27h-6v9.92Z"/><path d="M190,311.58c0-1,.53-1.85,1.57-1.85s1.57.76,1.57,1.7v4h1.31V311.2a2.36,2.36,0,0,0-2.41-2.66A2.31,2.31,0,0,0,190,309.7v-1h-1.29v6.73H190Z"/><path d="M202.32,308.74h-1.41L199,313.93l-1.92-5.19h-1.48l2.73,6.73h1.33Z"/><path d="M204.88,315.47v-6.73h-1.3v6.73Zm-1.59-9.28a.95.95,0,1,0,.94-.95A.94.94,0,0,0,203.29,306.19Z"/><path d="M210.86,308.67a2,2,0,0,0-.43,0,2.11,2.11,0,0,0-2,1.28v-1.17h-1.29v6.73h1.32V312.1c0-1.49.74-2.07,1.85-2.07a3.73,3.73,0,0,1,.57,0Z"/><path d="M215.08,314.51a2.43,2.43,0,1,1,2.1-2.41A2.15,2.15,0,0,1,215.08,314.51Zm0-6a3.58,3.58,0,1,0,3.44,3.57A3.39,3.39,0,0,0,215.08,308.53Z"/><path d="M221.52,311.58c0-1,.54-1.85,1.57-1.85,1.18,0,1.57.76,1.57,1.7v4H226V311.2a2.36,2.36,0,0,0-2.4-2.66,2.28,2.28,0,0,0-2.07,1.16v-1h-1.29v6.73h1.31Z"/><path d="M229.37,315.47v-4.06a1.56,1.56,0,0,1,1.57-1.71,1.36,1.36,0,0,1,1.43,1.54v4.23h1.31V311.4a1.57,1.57,0,0,1,1.56-1.7,1.35,1.35,0,0,1,1.42,1.54v4.23H238V311.1a2.31,2.31,0,0,0-2.33-2.56,2.41,2.41,0,0,0-2.25,1.28,2.12,2.12,0,0,0-2-1.28,2.32,2.32,0,0,0-2,1.09v-.89h-1.26v6.73Z"/><path d="M240.93,311.41a1.8,1.8,0,0,1,1.83-1.72,1.7,1.7,0,0,1,1.85,1.72Zm3.87,1.75a1.82,1.82,0,0,1-1.89,1.36,2,2,0,0,1-2-2H246a2.34,2.34,0,0,0,0-.42c0-2.1-1.16-3.53-3.23-3.53a3.59,3.59,0,0,0,.16,7.15,3.06,3.06,0,0,0,3-2.13Z"/><path d="M249,311.58c0-1,.53-1.85,1.56-1.85,1.18,0,1.57.76,1.57,1.7v4h1.32V311.2a2.36,2.36,0,0,0-2.41-2.66A2.31,2.31,0,0,0,249,309.7v-1h-1.29v6.73H249Z"/><path d="M257.29,306.61h-1.21v1.09a.94.94,0,0,1-1,1h-.37v1.19H256v3.69a1.75,1.75,0,0,0,1.88,1.92,3,3,0,0,0,.89-.12V314.3a3.53,3.53,0,0,1-.52.05c-.68,0-.93-.31-.93-.92v-3.5h1.45v-1.19h-1.45Z"/><path d="M260.08,313.67a2.09,2.09,0,0,0,2.25,2,2.43,2.43,0,0,0,2.17-1.12,4.77,4.77,0,0,0,.07.91h1.29a6.29,6.29,0,0,1-.08-1.1V311c0-1.31-.79-2.46-2.8-2.46a2.59,2.59,0,0,0-2.76,2.18l1.26.3a1.42,1.42,0,0,1,1.52-1.36c1,0,1.46.54,1.46,1.2,0,.24-.11.45-.52.51l-1.82.26A2.08,2.08,0,0,0,260.08,313.67Zm2.43.91a1,1,0,0,1-1.09-1,1,1,0,0,1,1-1l2.06-.31v.31A1.77,1.77,0,0,1,262.51,314.58Z"/><path d="M269.14,315.47V305.34h-1.31v10.13Z"/><path d="M281.35,307.8a3.13,3.13,0,0,0-3.36-2.46,3.16,3.16,0,0,0-3.28,3,2.76,2.76,0,0,0,2.43,2.72l1.41.3a1.62,1.62,0,0,1,1.48,1.54c0,.87-.67,1.59-2,1.59a2.26,2.26,0,0,1-2.38-2.13l-1.32.42a3.45,3.45,0,0,0,3.71,2.95,3.13,3.13,0,0,0,3.43-2.94,2.86,2.86,0,0,0-2.57-2.78l-1.49-.33a1.43,1.43,0,0,1-1.27-1.44,1.76,1.76,0,0,1,1.92-1.65,2,2,0,0,1,2.1,1.69Z"/><path d="M285.87,309.75a1.77,1.77,0,0,1,1.81,1.42l1.19-.5a2.94,2.94,0,0,0-3-2.14,3.38,3.38,0,0,0-3.39,3.57,3.41,3.41,0,0,0,3.41,3.58,3.08,3.08,0,0,0,3-2.1l-1.16-.5a1.82,1.82,0,0,1-1.87,1.38,2.38,2.38,0,0,1,0-4.71Z"/><path d="M291.77,315.47v-6.73h-1.3v6.73Zm-1.6-9.28a.95.95,0,1,0,.94-.95A.94.94,0,0,0,290.17,306.19Z"/><path d="M294.86,311.41a1.81,1.81,0,0,1,1.84-1.72,1.69,1.69,0,0,1,1.84,1.72Zm3.88,1.75a1.83,1.83,0,0,1-1.89,1.36,2,2,0,0,1-2-2h5.07a3.89,3.89,0,0,0,0-.42c0-2.1-1.17-3.53-3.24-3.53a3.59,3.59,0,0,0,.17,7.15,3,3,0,0,0,3-2.13Z"/><path d="M302.91,311.58c0-1,.53-1.85,1.57-1.85s1.57.76,1.57,1.7v4h1.31V311.2a2.36,2.36,0,0,0-2.4-2.66,2.31,2.31,0,0,0-2.08,1.16v-1H301.6v6.73h1.31Z"/><path d="M312.28,309.75a1.77,1.77,0,0,1,1.81,1.42l1.19-.5a2.93,2.93,0,0,0-3-2.14,3.58,3.58,0,0,0,0,7.15,3.09,3.09,0,0,0,3-2.1l-1.16-.5a1.84,1.84,0,0,1-1.88,1.38,2.11,2.11,0,0,1-2.06-2.36A2.09,2.09,0,0,1,312.28,309.75Z"/><path d="M317.67,311.41a1.8,1.8,0,0,1,1.83-1.72,1.7,1.7,0,0,1,1.85,1.72Zm3.88,1.75a1.84,1.84,0,0,1-1.9,1.36,2,2,0,0,1-2-2h5.07a2.34,2.34,0,0,0,0-.42c0-2.1-1.16-3.53-3.23-3.53a3.59,3.59,0,0,0,.16,7.15,3.06,3.06,0,0,0,3-2.13Z"/><path d="M323.77,313.72a2.55,2.55,0,0,0,2.75,2A2.23,2.23,0,0,0,329,313.6a2,2,0,0,0-1.86-2l-1.1-.23c-.51-.12-.77-.41-.77-.82a1,1,0,0,1,1.12-.89,1.3,1.3,0,0,1,1.4,1.12l1.17-.44a2.4,2.4,0,0,0-2.57-1.8,2.3,2.3,0,0,0-2.39,2.13,1.92,1.92,0,0,0,1.68,1.89l1.15.25c.56.12.87.45.87.87s-.41.89-1.15.89A1.44,1.44,0,0,1,325,313.3Z"/></g><g id="School_of_Engineerin_5" data-name="School of Engineerin_5"><path d="M9,391.8a3.12,3.12,0,0,0-3.36-2.46,3.16,3.16,0,0,0-3.27,3A2.76,2.76,0,0,0,4.75,395l1.41.3a1.62,1.62,0,0,1,1.49,1.54c0,.87-.67,1.59-2.05,1.59a2.27,2.27,0,0,1-2.38-2.13l-1.31.42a3.44,3.44,0,0,0,3.71,2.95,3.13,3.13,0,0,0,3.43-2.94A2.87,2.87,0,0,0,6.47,394L5,393.63a1.44,1.44,0,0,1-1.28-1.44,1.76,1.76,0,0,1,1.92-1.65,2,2,0,0,1,2.1,1.69Z"/><path d="M13.49,393.75a1.77,1.77,0,0,1,1.8,1.42l1.19-.5a2.92,2.92,0,0,0-3-2.14,3.58,3.58,0,0,0,0,7.15,3.09,3.09,0,0,0,3-2.1l-1.16-.5a1.84,1.84,0,0,1-1.88,1.38,2.11,2.11,0,0,1-2.06-2.36A2.09,2.09,0,0,1,13.49,393.75Z"/><path d="M19.4,395.51c0-1,.56-1.78,1.57-1.78,1.17,0,1.56.76,1.56,1.7v4h1.32V395.2a2.48,2.48,0,0,0-4.45-1.68v-4.18H18.08v10.13H19.4Z"/><path d="M28.83,398.51a2.43,2.43,0,1,1,2.1-2.41A2.15,2.15,0,0,1,28.83,398.51Zm0-6a3.58,3.58,0,1,0,3.44,3.57A3.39,3.39,0,0,0,28.83,392.53Z"/><path d="M36.84,398.51a2.43,2.43,0,1,1,2.1-2.41A2.15,2.15,0,0,1,36.84,398.51Zm0-6a3.58,3.58,0,1,0,3.44,3.57A3.39,3.39,0,0,0,36.84,392.53Z"/><path d="M43.28,399.47V389.34H42v10.13Z"/><path d="M51.91,398.51A2.43,2.43,0,1,1,54,396.1,2.15,2.15,0,0,1,51.91,398.51Zm0-6a3.58,3.58,0,1,0,3.44,3.57A3.39,3.39,0,0,0,51.91,392.53Z"/><path d="M60.42,393.93v-1.19H58.8v-1.07a1,1,0,0,1,1.06-1.14,1.54,1.54,0,0,1,.58.08v-1.18a1.77,1.77,0,0,0-.79-.14,2.14,2.14,0,0,0-2.21,2.31v1.14H56.19v1.19h1.25v5.54H58.8v-5.54Z"/><path d="M71.51,399.47V398.2H66.84v-3h4.23v-1.29H66.84v-3.05h4.67v-1.27h-6v9.92Z"/><path d="M74,396.08c0-1.38.78-2.36,2-2.36s1.94.95,1.94,2.34-.75,2.43-2,2.43S74,397.47,74,396.08Zm3.93,2.48a5.33,5.33,0,0,0,.07.91h1.27a11.6,11.6,0,0,1-.07-1.24v-8.89h-1.3v4.35a2.06,2.06,0,0,0-2.06-1.13,3.31,3.31,0,0,0-3.19,3.52c0,2,1.22,3.57,3.19,3.57a2.25,2.25,0,0,0,2.09-1.2Z"/><path d="M85.79,398.66a5.49,5.49,0,0,0,.06.81h1.26a10.78,10.78,0,0,1-.07-1.24v-5.49H85.72v4.06a1.52,1.52,0,0,1-1.59,1.72c-1.11,0-1.53-.81-1.53-1.74v-4H81.29V397a2.49,2.49,0,0,0,2.52,2.7A2.18,2.18,0,0,0,85.79,398.66Z"/><path d="M92,393.75a1.77,1.77,0,0,1,1.81,1.42l1.19-.5a2.93,2.93,0,0,0-3-2.14,3.58,3.58,0,0,0,0,7.15,3.09,3.09,0,0,0,3-2.1l-1.17-.5a1.82,1.82,0,0,1-1.87,1.38A2.11,2.11,0,0,1,90,396.1,2.09,2.09,0,0,1,92,393.75Z"/><path d="M96.15,397.67a2.1,2.1,0,0,0,2.26,2,2.46,2.46,0,0,0,2.17-1.12,4.77,4.77,0,0,0,.07.91h1.28a7.54,7.54,0,0,1-.08-1.1V395c0-1.31-.78-2.46-2.8-2.46a2.59,2.59,0,0,0-2.76,2.18l1.26.3a1.43,1.43,0,0,1,1.53-1.36c1,0,1.45.54,1.45,1.2,0,.24-.11.45-.51.51l-1.82.26A2.09,2.09,0,0,0,96.15,397.67Zm2.44.91a1,1,0,0,1-1.09-1,1,1,0,0,1,1-1l2-.31v.31A1.76,1.76,0,0,1,98.59,398.58Z"/><path d="M105.67,390.61h-1.21v1.09a1,1,0,0,1-1,1h-.36v1.19h1.29v3.69a1.75,1.75,0,0,0,1.87,1.92,3,3,0,0,0,.9-.12V398.3a3.53,3.53,0,0,1-.52.05c-.68,0-.93-.31-.93-.92v-3.5h1.45v-1.19h-1.45Z"/><path d="M110.18,399.47v-6.73h-1.3v6.73Zm-1.6-9.28a.95.95,0,1,0,.94-.95A.94.94,0,0,0,108.58,390.19Z"/><path d="M115.3,398.51a2.43,2.43,0,1,1,2.1-2.41A2.15,2.15,0,0,1,115.3,398.51Zm0-6a3.58,3.58,0,1,0,3.45,3.57A3.39,3.39,0,0,0,115.3,392.53Z"/><path d="M121.75,395.58c0-1,.53-1.85,1.56-1.85s1.57.76,1.57,1.7v4h1.32V395.2a2.36,2.36,0,0,0-2.41-2.66,2.31,2.31,0,0,0-2.07,1.16v-1h-1.29v6.73h1.32Z"/></g><g id="School_of_Engineerin_6" data-name="School of Engineerin_6"><path d="M9,475.8a3.12,3.12,0,0,0-3.36-2.46,3.16,3.16,0,0,0-3.27,3A2.76,2.76,0,0,0,4.75,479l1.41.3a1.62,1.62,0,0,1,1.49,1.54c0,.87-.67,1.59-2.05,1.59a2.27,2.27,0,0,1-2.38-2.13l-1.31.42a3.44,3.44,0,0,0,3.71,2.95,3.13,3.13,0,0,0,3.43-2.94A2.87,2.87,0,0,0,6.47,478L5,477.63a1.44,1.44,0,0,1-1.28-1.44,1.76,1.76,0,0,1,1.92-1.65,2,2,0,0,1,2.1,1.69Z"/><path d="M13.49,477.75a1.77,1.77,0,0,1,1.8,1.42l1.19-.5a2.92,2.92,0,0,0-3-2.14,3.58,3.58,0,0,0,0,7.15,3.09,3.09,0,0,0,3-2.1l-1.16-.5a1.84,1.84,0,0,1-1.88,1.38,2.11,2.11,0,0,1-2.06-2.36A2.09,2.09,0,0,1,13.49,477.75Z"/><path d="M19.4,479.51c0-1,.56-1.78,1.57-1.78,1.17,0,1.56.76,1.56,1.7v4h1.32V479.2a2.48,2.48,0,0,0-4.45-1.68v-4.18H18.08v10.13H19.4Z"/><path d="M28.83,482.51a2.43,2.43,0,1,1,2.1-2.41A2.15,2.15,0,0,1,28.83,482.51Zm0-6a3.58,3.58,0,1,0,3.44,3.57A3.39,3.39,0,0,0,28.83,476.53Z"/><path d="M36.84,482.51a2.43,2.43,0,1,1,2.1-2.41A2.15,2.15,0,0,1,36.84,482.51Zm0-6a3.58,3.58,0,1,0,3.44,3.57A3.39,3.39,0,0,0,36.84,476.53Z"/><path d="M43.28,483.47V473.34H42v10.13Z"/><path d="M51.91,482.51A2.43,2.43,0,1,1,54,480.1,2.15,2.15,0,0,1,51.91,482.51Zm0-6a3.58,3.58,0,1,0,3.44,3.57A3.39,3.39,0,0,0,51.91,476.53Z"/><path d="M60.42,477.93v-1.19H58.8v-1.07a1,1,0,0,1,1.06-1.14,1.54,1.54,0,0,1,.58.08v-1.18a1.77,1.77,0,0,0-.79-.14,2.14,2.14,0,0,0-2.21,2.31v1.14H56.19v1.19h1.25v5.54H58.8v-5.54Z"/><path d="M71.53,483.47v-1.29H66.84v-8.63H65.47v9.92Z"/><path d="M72.58,481.67a2.1,2.1,0,0,0,2.26,2A2.46,2.46,0,0,0,77,482.56a4.77,4.77,0,0,0,.07.91h1.28a7.54,7.54,0,0,1-.08-1.1V479c0-1.31-.78-2.46-2.8-2.46a2.59,2.59,0,0,0-2.76,2.18L74,479a1.43,1.43,0,0,1,1.53-1.36c1,0,1.45.54,1.45,1.2,0,.24-.11.45-.51.51l-1.82.26A2.09,2.09,0,0,0,72.58,481.67Zm2.44.91a1,1,0,0,1-1.09-1,1,1,0,0,1,1-1l2-.31v.31A1.76,1.76,0,0,1,75,482.58Z"/><path d="M84.12,476.74l-1.75,5.07-1.51-5.07H79.42l2.21,6.73H83l1.75-5.12,1.79,5.12h1.36l2.18-6.73H88.72l-1.49,5.07-1.75-5.07Z"/></g><g id="School_of_Engineerin_7" data-name="School of Engineerin_7"><path d="M11.23,567.47v-4.86H6.49v1.24H9.93a2.82,2.82,0,0,1-3.07,2.59c-1.77,0-3.45-1.31-3.45-3.94s1.73-3.9,3.51-3.9a3.14,3.14,0,0,1,3.15,2.26l1.25-.53a4.42,4.42,0,0,0-4.4-3A4.88,4.88,0,0,0,2,562.5a4.8,4.8,0,0,0,4.81,5.18A3.51,3.51,0,0,0,10,566.07l.13,1.4Z"/><path d="M16.94,560.67a2,2,0,0,0-.43,0,2.11,2.11,0,0,0-2,1.28v-1.17H13.2v6.73h1.32V564.1c0-1.49.74-2.07,1.84-2.07a3.86,3.86,0,0,1,.58,0Z"/><path d="M17.92,565.67a2.1,2.1,0,0,0,2.26,2,2.46,2.46,0,0,0,2.17-1.12,4.77,4.77,0,0,0,.07.91H23.7a7.54,7.54,0,0,1-.08-1.1V563c0-1.31-.78-2.46-2.8-2.46a2.59,2.59,0,0,0-2.76,2.18l1.26.3a1.43,1.43,0,0,1,1.53-1.36c1,0,1.45.54,1.45,1.2,0,.24-.11.45-.51.51l-1.82.26A2.09,2.09,0,0,0,17.92,565.67Zm2.44.91a1,1,0,0,1-1.09-1,1,1,0,0,1,1-1l2.05-.31v.31A1.76,1.76,0,0,1,20.36,566.58Z"/><path d="M26.45,564.08a2.09,2.09,0,0,1,2-2.36c1.21,0,1.93.95,1.93,2.34s-.74,2.43-1.94,2.43S26.45,565.47,26.45,564.08Zm3.94,2.48a5.33,5.33,0,0,0,.07.91h1.27a11.6,11.6,0,0,1-.07-1.24v-8.89h-1.3v4.35a2.06,2.06,0,0,0-2.06-1.13,3.31,3.31,0,0,0-3.19,3.52c0,2,1.22,3.57,3.19,3.57a2.26,2.26,0,0,0,2.09-1.2Z"/><path d="M38.27,566.66a5.49,5.49,0,0,0,.06.81h1.26a10.78,10.78,0,0,1-.07-1.24v-5.49H38.2v4.06a1.52,1.52,0,0,1-1.6,1.72c-1.1,0-1.52-.81-1.52-1.74v-4H33.76V565a2.49,2.49,0,0,0,2.52,2.7A2.19,2.19,0,0,0,38.27,566.66Z"/><path d="M41.34,565.67a2.1,2.1,0,0,0,2.26,2,2.46,2.46,0,0,0,2.17-1.12,4.77,4.77,0,0,0,.07.91h1.28a7.54,7.54,0,0,1-.08-1.1V563c0-1.31-.78-2.46-2.8-2.46a2.59,2.59,0,0,0-2.76,2.18l1.26.3a1.43,1.43,0,0,1,1.53-1.36c1,0,1.45.54,1.45,1.2,0,.24-.11.45-.51.51l-1.82.26A2.09,2.09,0,0,0,41.34,565.67Zm2.44.91a1,1,0,0,1-1.09-1,1,1,0,0,1,1-1l2-.31v.31A1.76,1.76,0,0,1,43.78,566.58Z"/><path d="M50.85,558.61h-1.2v1.09a1,1,0,0,1-1,1h-.36v1.19h1.29v3.69a1.75,1.75,0,0,0,1.87,1.92,3,3,0,0,0,.9-.12V566.3a3.53,3.53,0,0,1-.52.05c-.68,0-.94-.31-.94-.92v-3.5h1.46v-1.19H50.85Z"/><path d="M54.85,563.41a1.81,1.81,0,0,1,1.84-1.72,1.69,1.69,0,0,1,1.84,1.72Zm3.88,1.75a1.83,1.83,0,0,1-1.89,1.36,2,2,0,0,1-2-2h5.07a3.89,3.89,0,0,0,0-.42c0-2.1-1.17-3.53-3.24-3.53a3.59,3.59,0,0,0,.17,7.15,3,3,0,0,0,3-2.13Z"/><path d="M71.55,559.8a3.12,3.12,0,0,0-3.36-2.46,3.16,3.16,0,0,0-3.27,2.95A2.76,2.76,0,0,0,67.34,563l1.41.3a1.62,1.62,0,0,1,1.49,1.54c0,.87-.67,1.59-2,1.59a2.27,2.27,0,0,1-2.38-2.13l-1.31.42a3.44,3.44,0,0,0,3.71,2.95,3.13,3.13,0,0,0,3.43-2.94A2.87,2.87,0,0,0,69.06,562l-1.48-.33a1.44,1.44,0,0,1-1.28-1.44,1.76,1.76,0,0,1,1.92-1.65,2,2,0,0,1,2.1,1.69Z"/><path d="M76.08,561.75a1.77,1.77,0,0,1,1.8,1.42l1.19-.5a2.92,2.92,0,0,0-3-2.14,3.58,3.58,0,0,0,0,7.15,3.09,3.09,0,0,0,3-2.1l-1.16-.5a1.84,1.84,0,0,1-1.88,1.38A2.11,2.11,0,0,1,74,564.1,2.09,2.09,0,0,1,76.08,561.75Z"/><path d="M82,563.51c0-1,.56-1.78,1.57-1.78,1.17,0,1.56.76,1.56,1.7v4h1.32V563.2A2.48,2.48,0,0,0,82,561.52v-4.18H80.67v10.13H82Z"/><path d="M91.42,566.51a2.43,2.43,0,1,1,2.1-2.41A2.15,2.15,0,0,1,91.42,566.51Zm0-6a3.58,3.58,0,1,0,3.44,3.57A3.39,3.39,0,0,0,91.42,560.53Z"/><path d="M99.43,566.51a2.43,2.43,0,1,1,2.1-2.41A2.15,2.15,0,0,1,99.43,566.51Zm0-6a3.58,3.58,0,1,0,3.44,3.57A3.39,3.39,0,0,0,99.43,560.53Z"/><path d="M105.87,567.47V557.34h-1.31v10.13Z"/><path d="M114.5,566.51a2.43,2.43,0,1,1,2.09-2.41A2.16,2.16,0,0,1,114.5,566.51Zm0-6a3.58,3.58,0,1,0,3.44,3.57A3.39,3.39,0,0,0,114.5,560.53Z"/><path d="M123,561.93v-1.19h-1.62v-1.07a1,1,0,0,1,1.06-1.14,1.58,1.58,0,0,1,.58.08v-1.18a1.77,1.77,0,0,0-.79-.14A2.14,2.14,0,0,0,120,559.6v1.14h-1.25v1.19H120v5.54h1.36v-5.54Z"/><path d="M128.06,557.55v9.92h3.47a2.78,2.78,0,0,0,3.07-2.7,2.38,2.38,0,0,0-1.79-2.39,2.21,2.21,0,0,0,1.48-2.15c0-1.56-1.1-2.68-3-2.68Zm1.37,4.34v-3.14h1.66c1.13,0,1.82.62,1.82,1.55a1.58,1.58,0,0,1-1.77,1.59Zm0,4.38v-3.21h2c1.21,0,1.81.67,1.81,1.63a1.64,1.64,0,0,1-1.86,1.58Z"/><path d="M140.51,566.66a7.74,7.74,0,0,0,.05.81h1.26c0-.24-.07-.71-.07-1.24v-5.49h-1.31v4.06a1.52,1.52,0,0,1-1.6,1.72c-1.1,0-1.52-.81-1.52-1.74v-4H136V565a2.49,2.49,0,0,0,2.52,2.7A2.21,2.21,0,0,0,140.51,566.66Z"/><path d="M143.37,565.72a2.54,2.54,0,0,0,2.74,2,2.23,2.23,0,0,0,2.47-2.08,2.06,2.06,0,0,0-1.86-2l-1.1-.23c-.51-.12-.77-.41-.77-.82a1,1,0,0,1,1.12-.89,1.3,1.3,0,0,1,1.4,1.12l1.17-.44a2.4,2.4,0,0,0-2.57-1.8,2.3,2.3,0,0,0-2.39,2.13,1.92,1.92,0,0,0,1.68,1.89l1.15.25c.56.12.87.45.87.87s-.41.89-1.15.89a1.44,1.44,0,0,1-1.57-1.26Z"/><path d="M151.63,567.47v-6.73h-1.3v6.73ZM150,558.19a.95.95,0,1,0,.93-1A.94.94,0,0,0,150,558.19Z"/><path d="M155.19,563.58c0-1,.53-1.85,1.56-1.85,1.18,0,1.57.76,1.57,1.7v4h1.32V563.2a2.36,2.36,0,0,0-2.41-2.66,2.31,2.31,0,0,0-2.07,1.16v-1h-1.29v6.73h1.32Z"/><path d="M162.59,563.41a1.8,1.8,0,0,1,1.83-1.72,1.7,1.7,0,0,1,1.85,1.72Zm3.87,1.75a1.82,1.82,0,0,1-1.89,1.36,2,2,0,0,1-2-2h5.07a2.34,2.34,0,0,0,0-.42c0-2.1-1.16-3.53-3.23-3.53a3.59,3.59,0,0,0,.16,7.15,3.06,3.06,0,0,0,3-2.13Z"/><path d="M168.69,565.72a2.54,2.54,0,0,0,2.74,2,2.23,2.23,0,0,0,2.47-2.08,2.06,2.06,0,0,0-1.86-2l-1.1-.23c-.51-.12-.77-.41-.77-.82a1,1,0,0,1,1.12-.89,1.3,1.3,0,0,1,1.4,1.12l1.17-.44a2.4,2.4,0,0,0-2.57-1.8,2.3,2.3,0,0,0-2.39,2.13,1.92,1.92,0,0,0,1.68,1.89l1.15.25c.56.12.87.45.87.87s-.41.89-1.15.89a1.44,1.44,0,0,1-1.57-1.26Z"/><path d="M175,565.72a2.54,2.54,0,0,0,2.74,2,2.23,2.23,0,0,0,2.47-2.08,2.06,2.06,0,0,0-1.86-2l-1.1-.23c-.51-.12-.77-.41-.77-.82a1,1,0,0,1,1.12-.89,1.3,1.3,0,0,1,1.4,1.12l1.17-.44a2.4,2.4,0,0,0-2.57-1.8,2.3,2.3,0,0,0-2.39,2.13,1.92,1.92,0,0,0,1.68,1.89l1.15.25c.56.12.87.45.87.87s-.41.89-1.15.89a1.44,1.44,0,0,1-1.57-1.26Z"/></g></g><g id="Artboard_1_2" data-name="Artboard 1 2"><g id="Frame_1045" data-name="Frame 1045"><path id="Vector" class="cls-1" d="M9.38,75.47h-8v40h8Z"/><path id="Vector_2" data-name="Vector 2" class="cls-1" d="M27.38,75.47h-8v40h8Z"/><path id="Vector_3" data-name="Vector 3" class="cls-1" d="M45.38,75.47h-8v40h8Z"/><path id="Vector_4" data-name="Vector 4" class="cls-1" d="M63.38,75.47h-8v40h8Z"/><path id="Vector_5" data-name="Vector 5" class="cls-1" d="M81.38,75.47h-8v40h8Z"/><path id="Vector_6" data-name="Vector 6" class="cls-1" d="M99.38,75.47h-8v40h8Z"/><path id="Vector_7" data-name="Vector 7" class="cls-1" d="M117.38,75.47h-8v40h8Z"/><path id="Vector_8" data-name="Vector 8" class="cls-1" d="M135.38,75.47h-8v40h8Z"/><path id="Vector_9" data-name="Vector 9" class="cls-1" d="M153.38,75.47h-8v40h8Z"/><path id="Vector_10" data-name="Vector 10" class="cls-1" d="M171.38,75.47h-8v40h8Z"/><path id="Vector_11" data-name="Vector 11" class="cls-1" d="M189.38,75.47h-8v40h8Z"/><path id="Vector_12" data-name="Vector 12" class="cls-1" d="M207.38,75.47h-8v40h8Z"/><path id="Vector_13" data-name="Vector 13" class="cls-1" d="M225.38,75.47h-8v40h8Z"/><path id="Vector_14" data-name="Vector 14" class="cls-1" d="M243.38,75.47h-8v40h8Z"/><path id="Vector_15" data-name="Vector 15" class="cls-1" d="M261.38,75.47h-8v40h8Z"/><path id="Vector_16" data-name="Vector 16" class="cls-1" d="M279.38,75.47h-8v40h8Z"/><path id="Vector_17" data-name="Vector 17" class="cls-1" d="M297.38,75.47h-8v40h8Z"/><path id="Vector_18" data-name="Vector 18" class="cls-1" d="M315.38,75.47h-8v40h8Z"/><path id="Vector_19" data-name="Vector 19" class="cls-1" d="M333.38,75.47h-8v40h8Z"/><path id="Vector_20" data-name="Vector 20" class="cls-2" d="M351.38,75.47h-8v40h8Z"/><path id="Vector_21" data-name="Vector 21" class="cls-3" d="M369.38,75.47h-8v40h8Z"/><path id="Vector_22" data-name="Vector 22" class="cls-3" d="M387.38,75.47h-8v40h8Z"/><path id="Vector_23" data-name="Vector 23" class="cls-3" d="M405.38,75.47h-8v40h8Z"/><path id="Vector_24" data-name="Vector 24" class="cls-3" d="M423.38,75.47h-8v40h8Z"/><path id="Vector_25" data-name="Vector 25" class="cls-3" d="M441.38,75.47h-8v40h8Z"/><path id="Vector_26" data-name="Vector 26" class="cls-3" d="M459.38,75.47h-8v40h8Z"/><path id="Vector_27" data-name="Vector 27" class="cls-3" d="M477.38,75.47h-8v40h8Z"/><path id="Vector_28" data-name="Vector 28" class="cls-3" d="M495.38,75.47h-8v40h8Z"/><path id="Vector_29" data-name="Vector 29" class="cls-3" d="M513.38,75.47h-8v40h8Z"/><path id="Vector_30" data-name="Vector 30" class="cls-3" d="M531.38,75.47h-8v40h8Z"/><path id="Vector_31" data-name="Vector 31" class="cls-3" d="M549.38,75.47h-8v40h8Z"/><path id="Vector_32" data-name="Vector 32" class="cls-3" d="M567.38,75.47h-8v40h8Z"/><path id="Vector_33" data-name="Vector 33" class="cls-3" d="M585.38,75.47h-8v40h8Z"/><path id="Vector_34" data-name="Vector 34" class="cls-3" d="M603.38,75.47h-8v40h8Z"/><path id="Vector_35" data-name="Vector 35" class="cls-3" d="M621.38,75.47h-8v40h8Z"/><path id="Vector_36" data-name="Vector 36" class="cls-3" d="M639.38,75.47h-8v40h8Z"/><path id="Vector_37" data-name="Vector 37" class="cls-4" d="M657.38,75.47h-8v40h8Z"/><path id="Vector_38" data-name="Vector 38" class="cls-4" d="M675.38,75.47h-8v40h8Z"/><path id="Vector_39" data-name="Vector 39" class="cls-4" d="M693.38,75.47h-8v40h8Z"/><path id="Vector_40" data-name="Vector 40" class="cls-4" d="M711.38,75.47h-8v40h8Z"/><path id="Vector_41" data-name="Vector 41" class="cls-5" d="M729.38,75.47h-8v40h8Z"/><path id="Vector_42" data-name="Vector 42" class="cls-5" d="M747.38,75.47h-8v40h8Z"/><path id="Vector_43" data-name="Vector 43" class="cls-5" d="M765.38,75.47h-8v40h8Z"/><path id="Vector_44" data-name="Vector 44" class="cls-5" d="M783.38,75.47h-8v40h8Z"/><path id="Vector_45" data-name="Vector 45" class="cls-5" d="M801.38,75.47h-8v40h8Z"/></g><g id="Frame_1046" data-name="Frame 1046"><path id="Vector_46" data-name="Vector 46" class="cls-1" d="M9.38,159.47h-8v40h8Z"/><path id="Vector_47" data-name="Vector 47" class="cls-1" d="M27.38,159.47h-8v40h8Z"/><path id="Vector_48" data-name="Vector 48" class="cls-1" d="M45.38,159.47h-8v40h8Z"/><path id="Vector_49" data-name="Vector 49" class="cls-1" d="M63.38,159.47h-8v40h8Z"/><path id="Vector_50" data-name="Vector 50" class="cls-1" d="M81.38,159.47h-8v40h8Z"/><path id="Vector_51" data-name="Vector 51" class="cls-1" d="M99.38,159.47h-8v40h8Z"/><path id="Vector_52" data-name="Vector 52" class="cls-1" d="M117.38,159.47h-8v40h8Z"/><path id="Vector_53" data-name="Vector 53" class="cls-1" d="M135.38,159.47h-8v40h8Z"/><path id="Vector_54" data-name="Vector 54" class="cls-1" d="M153.38,159.47h-8v40h8Z"/><path id="Vector_55" data-name="Vector 55" class="cls-1" d="M171.38,159.47h-8v40h8Z"/><path id="Vector_56" data-name="Vector 56" class="cls-1" d="M189.38,159.47h-8v40h8Z"/><path id="Vector_57" data-name="Vector 57" class="cls-2" d="M207.38,159.47h-8v40h8Z"/><path id="Vector_58" data-name="Vector 58" class="cls-2" d="M225.38,159.47h-8v40h8Z"/><path id="Vector_59" data-name="Vector 59" class="cls-2" d="M243.38,159.47h-8v40h8Z"/><path id="Vector_60" data-name="Vector 60" class="cls-2" d="M261.38,159.47h-8v40h8Z"/><path id="Vector_61" data-name="Vector 61" class="cls-2" d="M279.38,159.47h-8v40h8Z"/><path id="Vector_62" data-name="Vector 62" class="cls-2" d="M297.38,159.47h-8v40h8Z"/><path id="Vector_63" data-name="Vector 63" class="cls-2" d="M315.38,159.47h-8v40h8Z"/><path id="Vector_64" data-name="Vector 64" class="cls-2" d="M333.38,159.47h-8v40h8Z"/><path id="Vector_65" data-name="Vector 65" class="cls-2" d="M351.38,159.47h-8v40h8Z"/><path id="Vector_66" data-name="Vector 66" class="cls-2" d="M369.38,159.47h-8v40h8Z"/><path id="Vector_67" data-name="Vector 67" class="cls-2" d="M387.38,159.47h-8v40h8Z"/><path id="Vector_68" data-name="Vector 68" class="cls-2" d="M405.38,159.47h-8v40h8Z"/><path id="Vector_69" data-name="Vector 69" class="cls-2" d="M423.38,159.47h-8v40h8Z"/><path id="Vector_70" data-name="Vector 70" class="cls-2" d="M441.38,159.47h-8v40h8Z"/><path id="Vector_71" data-name="Vector 71" class="cls-2" d="M459.38,159.47h-8v40h8Z"/><path id="Vector_72" data-name="Vector 72" class="cls-2" d="M477.38,159.47h-8v40h8Z"/><path id="Vector_73" data-name="Vector 73" class="cls-3" d="M495.38,159.47h-8v40h8Z"/><path id="Vector_74" data-name="Vector 74" class="cls-3" d="M513.38,159.47h-8v40h8Z"/><path id="Vector_75" data-name="Vector 75" class="cls-3" d="M531.38,159.47h-8v40h8Z"/><path id="Vector_76" data-name="Vector 76" class="cls-3" d="M549.38,159.47h-8v40h8Z"/><path id="Vector_77" data-name="Vector 77" class="cls-3" d="M567.38,159.47h-8v40h8Z"/><path id="Vector_78" data-name="Vector 78" class="cls-3" d="M585.38,159.47h-8v40h8Z"/><path id="Vector_79" data-name="Vector 79" class="cls-3" d="M603.38,159.47h-8v40h8Z"/><path id="Vector_80" data-name="Vector 80" class="cls-5" d="M621.38,159.47h-8v40h8Z"/><path id="Vector_81" data-name="Vector 81" class="cls-5" d="M639.38,159.47h-8v40h8Z"/><path id="Vector_82" data-name="Vector 82" class="cls-5" d="M657.38,159.47h-8v40h8Z"/></g><g id="Frame_1047" data-name="Frame 1047"><path id="Vector_83" data-name="Vector 83" class="cls-1" d="M9.38,243.47h-8v40h8Z"/><path id="Vector_84" data-name="Vector 84" class="cls-1" d="M27.38,243.47h-8v40h8Z"/><path id="Vector_85" data-name="Vector 85" class="cls-1" d="M45.38,243.47h-8v40h8Z"/><path id="Vector_86" data-name="Vector 86" class="cls-1" d="M63.38,243.47h-8v40h8Z"/><path id="Vector_87" data-name="Vector 87" class="cls-1" d="M81.38,243.47h-8v40h8Z"/><path id="Vector_88" data-name="Vector 88" class="cls-1" d="M99.38,243.47h-8v40h8Z"/><path id="Vector_89" data-name="Vector 89" class="cls-1" d="M117.38,243.47h-8v40h8Z"/><path id="Vector_90" data-name="Vector 90" class="cls-1" d="M135.38,243.47h-8v40h8Z"/><path id="Vector_91" data-name="Vector 91" class="cls-1" d="M153.38,243.47h-8v40h8Z"/><path id="Vector_92" data-name="Vector 92" class="cls-1" d="M171.38,243.47h-8v40h8Z"/><path id="Vector_93" data-name="Vector 93" class="cls-1" d="M189.38,243.47h-8v40h8Z"/><path id="Vector_94" data-name="Vector 94" class="cls-1" d="M207.38,243.47h-8v40h8Z"/><path id="Vector_95" data-name="Vector 95" class="cls-1" d="M225.38,243.47h-8v40h8Z"/><path id="Vector_96" data-name="Vector 96" class="cls-1" d="M243.38,243.47h-8v40h8Z"/><path id="Vector_97" data-name="Vector 97" class="cls-1" d="M261.38,243.47h-8v40h8Z"/><path id="Vector_98" data-name="Vector 98" class="cls-1" d="M279.38,243.47h-8v40h8Z"/><path id="Vector_99" data-name="Vector 99" class="cls-1" d="M297.38,243.47h-8v40h8Z"/><path id="Vector_100" data-name="Vector 100" class="cls-1" d="M315.38,243.47h-8v40h8Z"/><path id="Vector_101" data-name="Vector 101" class="cls-1" d="M333.38,243.47h-8v40h8Z"/><path id="Vector_102" data-name="Vector 102" class="cls-3" d="M351.38,243.47h-8v40h8Z"/><path id="Vector_103" data-name="Vector 103" class="cls-3" d="M369.38,243.47h-8v40h8Z"/><path id="Vector_104" data-name="Vector 104" class="cls-3" d="M387.38,243.47h-8v40h8Z"/><path id="Vector_105" data-name="Vector 105" class="cls-3" d="M405.38,243.47h-8v40h8Z"/><path id="Vector_106" data-name="Vector 106" class="cls-3" d="M423.38,243.47h-8v40h8Z"/><path id="Vector_107" data-name="Vector 107" class="cls-3" d="M441.38,243.47h-8v40h8Z"/><path id="Vector_108" data-name="Vector 108" class="cls-5" d="M459.38,243.47h-8v40h8Z"/><path id="Vector_109" data-name="Vector 109" class="cls-5" d="M477.38,243.47h-8v40h8Z"/><path id="Vector_110" data-name="Vector 110" class="cls-5" d="M495.38,243.47h-8v40h8Z"/><path id="Vector_111" data-name="Vector 111" class="cls-5" d="M513.38,243.47h-8v40h8Z"/><path id="Vector_112" data-name="Vector 112" class="cls-5" d="M531.38,243.47h-8v40h8Z"/><path id="Vector_113" data-name="Vector 113" class="cls-5" d="M549.38,243.47h-8v40h8Z"/><path id="Vector_114" data-name="Vector 114" class="cls-5" d="M567.38,243.47h-8v40h8Z"/><path id="Vector_115" data-name="Vector 115" class="cls-5" d="M585.38,243.47h-8v40h8Z"/><path id="Vector_116" data-name="Vector 116" class="cls-5" d="M603.38,243.47h-8v40h8Z"/><path id="Vector_117" data-name="Vector 117" class="cls-5" d="M621.38,243.47h-8v40h8Z"/><path id="Vector_118" data-name="Vector 118" class="cls-5" d="M639.38,243.47h-8v40h8Z"/><path id="Vector_119" data-name="Vector 119" class="cls-5" d="M657.38,243.47h-8v40h8Z"/><path id="Vector_120" data-name="Vector 120" class="cls-5" d="M675.38,243.47h-8v40h8Z"/></g><g id="Frame_1048" data-name="Frame 1048"><path id="Vector_121" data-name="Vector 121" class="cls-1" d="M9.38,327.47h-8v40h8Z"/><path id="Vector_122" data-name="Vector 122" class="cls-1" d="M27.38,327.47h-8v40h8Z"/><path id="Vector_123" data-name="Vector 123" class="cls-1" d="M45.38,327.47h-8v40h8Z"/><path id="Vector_124" data-name="Vector 124" class="cls-3" d="M63.38,327.47h-8v40h8Z"/><path id="Vector_125" data-name="Vector 125" class="cls-4" d="M81.38,327.47h-8v40h8Z"/><path id="Vector_126" data-name="Vector 126" class="cls-4" d="M99.38,327.47h-8v40h8Z"/><path id="Vector_127" data-name="Vector 127" class="cls-4" d="M117.38,327.47h-8v40h8Z"/></g><g id="Frame_1049" data-name="Frame 1049"><path id="Vector_128" data-name="Vector 128" class="cls-1" d="M9.38,411.47h-8v40h8Z"/><path id="Vector_129" data-name="Vector 129" class="cls-1" d="M27.38,411.47h-8v40h8Z"/><path id="Vector_130" data-name="Vector 130" class="cls-3" d="M45.38,411.47h-8v40h8Z"/><path id="Vector_131" data-name="Vector 131" class="cls-5" d="M63.38,411.47h-8v40h8Z"/><path id="Vector_132" data-name="Vector 132" class="cls-5" d="M81.38,411.47h-8v40h8Z"/><path id="Vector_133" data-name="Vector 133" class="cls-5" d="M99.38,411.47h-8v40h8Z"/></g><g id="Frame_1050" data-name="Frame 1050"><path id="Vector_134" data-name="Vector 134" class="cls-1" d="M9.38,495.47h-8v40h8Z"/><path id="Vector_135" data-name="Vector 135" class="cls-3" d="M27.38,495.47h-8v40h8Z"/><path id="Vector_136" data-name="Vector 136" class="cls-3" d="M45.38,495.47h-8v40h8Z"/></g><path id="Vector_137" data-name="Vector 137" class="cls-1" d="M9.38,579.4h-8v40h8Z"/><g id="Leyend"><g id="Seed_grant-funded" data-name="Seed grant-funded"><path d="M753.88,428.9a2.68,2.68,0,0,0-2.88-2.12,2.72,2.72,0,0,0-2.81,2.54,2.35,2.35,0,0,0,2.08,2.32l1.21.27a1.39,1.39,0,0,1,1.27,1.32c0,.74-.57,1.35-1.75,1.35a1.93,1.93,0,0,1-2-1.82l-1.13.36a3,3,0,0,0,3.18,2.53,2.69,2.69,0,0,0,2.94-2.52,2.46,2.46,0,0,0-2.21-2.39l-1.27-.27a1.24,1.24,0,0,1-1.09-1.24,1.5,1.5,0,0,1,1.64-1.41,1.72,1.72,0,0,1,1.8,1.45Z"/><path d="M756.06,432a1.56,1.56,0,0,1,1.58-1.47,1.44,1.44,0,0,1,1.58,1.47Zm3.33,1.5a1.58,1.58,0,0,1-1.62,1.17A1.71,1.71,0,0,1,756,432.9h4.34a2.55,2.55,0,0,0,0-.36,2.69,2.69,0,0,0-2.78-3,3.08,3.08,0,0,0,.15,6.13,2.61,2.61,0,0,0,2.59-1.82Z"/><path d="M762.57,432a1.55,1.55,0,0,1,1.57-1.47,1.44,1.44,0,0,1,1.58,1.47Zm3.32,1.5a1.57,1.57,0,0,1-1.62,1.17,1.72,1.72,0,0,1-1.74-1.76h4.35a2.93,2.93,0,0,0,0-.36c0-1.8-1-3-2.77-3a3.08,3.08,0,0,0,.14,6.13,2.6,2.6,0,0,0,2.59-1.82Z"/><path d="M769,432.57c0-1.19.67-2,1.71-2s1.65.82,1.65,2-.63,2.09-1.67,2.09S769,433.76,769,432.57Zm3.37,2.12a5.31,5.31,0,0,0,.06.78h1.1a7.39,7.39,0,0,1-.06-1.07v-7.62h-1.12v3.74a1.77,1.77,0,0,0-1.76-1,2.84,2.84,0,0,0-2.74,3,2.79,2.79,0,0,0,2.74,3.06,1.91,1.91,0,0,0,1.78-1Z"/></g><g id="Hoffman_Yee-funded" data-name="Hoffman Yee-funded"><path d="M754.35,463.47h1.27L752.24,455h-1.36l-3.38,8.51h1.26l.9-2.37h3.76Zm-2.82-7.28L753,460h-2.92Z"/><path d="M758,463.47V455h-1.2v8.51Z"/><path d="M769.38,463.47V455h-1.57l-3,6.93-3-6.93h-1.59v8.51h1.16v-6.62l2.88,6.62h1.08l2.9-6.62v6.62Z"/><path d="M772.74,463.47V455h-1.2v8.51Z"/><path d="M777.62,460.52v-1h-3.25v1Z"/><path d="M785.94,463.47V455h-1.18v3.64h-4.34V455h-1.18v8.51h1.18v-3.78h4.34v3.78Z"/><path d="M794,463.47h1.27L791.88,455h-1.36l-3.38,8.51h1.26l.9-2.37h3.77Zm-2.82-7.28,1.48,3.81h-2.93Z"/><path d="M797.67,463.47V455h-1.2v8.51Z"/></g><g id="Cloud_Credit-funded" data-name="Cloud Credit-funded"><path d="M752.14,491.65a3.72,3.72,0,0,0,3.76-2.73l-1-.39a2.7,2.7,0,0,1-2.71,2,3.37,3.37,0,0,1,0-6.71,2.52,2.52,0,0,1,2.65,2l1.09-.39a3.61,3.61,0,0,0-3.74-2.7,4.22,4.22,0,0,0-4.22,4.43A4.17,4.17,0,0,0,752.14,491.65Z"/><path d="M758.35,491.47v-8.69h-1.13v8.69Z"/><path d="M762.74,490.64a2.07,2.07,0,1,1,1.8-2.06A1.84,1.84,0,0,1,762.74,490.64Zm0-5.12a3.07,3.07,0,1,0,3,3.06A2.91,2.91,0,0,0,762.74,485.52Z"/><path d="M770.88,490.78a4.16,4.16,0,0,0,0,.69H772a8.33,8.33,0,0,1-.06-1.07v-4.7h-1.13v3.48a1.31,1.31,0,0,1-1.37,1.48c-1,0-1.31-.7-1.31-1.49V485.7H767v3.64a2.14,2.14,0,0,0,2.16,2.31A1.88,1.88,0,0,0,770.88,490.78Z"/><path d="M774.49,488.57c0-1.19.67-2,1.7-2s1.65.82,1.65,2-.63,2.09-1.66,2.09S774.49,489.76,774.49,488.57Zm3.37,2.12a4.18,4.18,0,0,0,.06.78H779a9.42,9.42,0,0,1-.06-1.07v-7.62h-1.12v3.74a1.77,1.77,0,0,0-1.76-1,2.85,2.85,0,0,0-2.74,3,2.79,2.79,0,0,0,2.74,3.06,1.94,1.94,0,0,0,1.79-1Z"/></g><rect id="Rectangle_4" data-name="Rectangle 4" class="cls-1" x="729.38" y="425.47" width="12" height="12"/><rect id="Rectangle_5" data-name="Rectangle 5" class="cls-2" x="729.38" y="453.47" width="12" height="12"/><rect id="Rectangle_6" data-name="Rectangle 6" class="cls-3" x="729.38" y="481.47" width="12" height="12"/><g id="Cloud_Credit-funded_2" data-name="Cloud Credit-funded_2"><path d="M749.63,516.94V514h1.71a1.47,1.47,0,1,1,0,2.92Zm1.92,1a2.52,2.52,0,1,0,0-5h-3.09v8.51h1.17V518Z"/><path d="M758.52,515.64a2.15,2.15,0,0,0-.37,0,1.81,1.81,0,0,0-1.73,1.11v-1h-1.1v5.77h1.13v-2.89c0-1.27.63-1.78,1.58-1.78a4,4,0,0,1,.49,0Z"/><path d="M760.4,518a1.55,1.55,0,0,1,1.57-1.47,1.46,1.46,0,0,1,1.59,1.47Zm3.32,1.5a1.57,1.57,0,0,1-1.62,1.17,1.72,1.72,0,0,1-1.74-1.76h4.35a2.93,2.93,0,0,0,0-.36c0-1.8-1-3-2.77-3a3.08,3.08,0,0,0,.14,6.13,2.62,2.62,0,0,0,2.6-1.82Z"/><path d="M768.6,516.56a1.5,1.5,0,0,1,1.54,1.23l1-.43a2.5,2.5,0,0,0-2.56-1.84,3.07,3.07,0,0,0,0,6.13,2.64,2.64,0,0,0,2.6-1.8l-1-.43a1.58,1.58,0,0,1-1.61,1.19,2,2,0,0,1,0-4.05Z"/><path d="M775,520.64a2.07,2.07,0,1,1,1.8-2.06A1.84,1.84,0,0,1,775,520.64Zm0-5.12a3.07,3.07,0,1,0,2.95,3.06A2.91,2.91,0,0,0,775,515.52Z"/><path d="M783.09,520.78a4.16,4.16,0,0,0,0,.69h1.08a8.33,8.33,0,0,1-.06-1.07v-4.7H783v3.48a1.31,1.31,0,0,1-1.37,1.48c-.95,0-1.31-.7-1.31-1.49V515.7h-1.13v3.64a2.14,2.14,0,0,0,2.16,2.31A1.88,1.88,0,0,0,783.09,520.78Z"/><path d="M789.29,515.64a2.3,2.3,0,0,0-.38,0,1.81,1.81,0,0,0-1.72,1.11v-1h-1.11v5.77h1.13v-2.89c0-1.27.64-1.78,1.58-1.78a4.38,4.38,0,0,1,.5,0Z"/><path d="M792.31,513.88h-1v.93a.81.81,0,0,1-.89.89h-.31v1h1.11v3.17a1.49,1.49,0,0,0,1.6,1.64,2.28,2.28,0,0,0,.77-.11v-1a1.84,1.84,0,0,1-.44,0c-.59,0-.8-.26-.8-.79v-3h1.24v-1h-1.24Z"/></g><rect id="Rectangle_6_2" data-name="Rectangle 6_2" class="cls-4" x="729.38" y="511.47" width="12" height="12"/><g id="Cloud_Credit-funded_3" data-name="Cloud Credit-funded_3"><path d="M755.15,551.47V543H754v3.64h-4.35V543h-1.17v8.51h1.17v-3.78H754v3.78Z"/><path d="M759.67,550.64a2.07,2.07,0,1,1,1.8-2.06A1.84,1.84,0,0,1,759.67,550.64Zm0-5.12a3.07,3.07,0,1,0,3,3.06A2.92,2.92,0,0,0,759.67,545.52Z"/><path d="M767,546.72v-1h-1.4v-.91a.87.87,0,0,1,.92-1,1.15,1.15,0,0,1,.49.08v-1a1.41,1.41,0,0,0-.67-.12,1.83,1.83,0,0,0-1.9,2v1h-1.07v1h1.07v4.75h1.16v-4.75Z"/><path d="M771,546.72v-1h-1.39v-.91a.87.87,0,0,1,.91-1,1.11,1.11,0,0,1,.49.08v-1a1.34,1.34,0,0,0-.67-.12,1.83,1.83,0,0,0-1.9,2v1H767.4v1h1.06v4.75h1.17v-4.75Z"/><path d="M773.35,551.47V548a1.34,1.34,0,0,1,1.34-1.46,1.16,1.16,0,0,1,1.23,1.32v3.62H777V548a1.34,1.34,0,0,1,1.34-1.45,1.16,1.16,0,0,1,1.22,1.32v3.62h1.11v-3.74a2,2,0,0,0-2-2.2,2.09,2.09,0,0,0-1.93,1.09,1.81,1.81,0,0,0-1.73-1.09,2,2,0,0,0-1.75.94v-.77h-1.08v5.77Z"/><path d="M782.16,549.92a1.8,1.8,0,0,0,1.93,1.73,2.1,2.1,0,0,0,1.86-1,4.59,4.59,0,0,0,.06.78h1.11a4.57,4.57,0,0,1-.08-1v-2.89c0-1.13-.67-2.11-2.4-2.11a2.23,2.23,0,0,0-2.36,1.87l1.08.25a1.22,1.22,0,0,1,1.31-1.16c.87,0,1.25.47,1.25,1,0,.21-.1.39-.45.43l-1.56.23A1.79,1.79,0,0,0,782.16,549.92Zm2.09.78a.87.87,0,0,1-.94-.84.86.86,0,0,1,.84-.86l1.77-.26V549A1.51,1.51,0,0,1,784.25,550.7Z"/><path d="M789.93,548.14c0-.88.45-1.59,1.34-1.59s1.35.65,1.35,1.45v3.47h1.13v-3.66a2,2,0,0,0-2.07-2.28,2,2,0,0,0-1.78,1v-.83h-1.1v5.77h1.13Z"/><path d="M798.37,548.52v-1h-3.25v1Z"/><path d="M801.07,547.84v3.63h1.18v-3.63l3-4.88h-1.34l-2.21,3.8-2.21-3.8h-1.42Z"/><path d="M806,548a1.54,1.54,0,0,1,1.57-1.47,1.44,1.44,0,0,1,1.58,1.47Zm3.32,1.5a1.57,1.57,0,0,1-1.62,1.17A1.71,1.71,0,0,1,806,548.9h4.34a1.6,1.6,0,0,0,0-.36c0-1.8-1-3-2.77-3a3.08,3.08,0,0,0,.14,6.13,2.61,2.61,0,0,0,2.59-1.82Z"/><path d="M812.49,548a1.55,1.55,0,0,1,1.57-1.47,1.46,1.46,0,0,1,1.59,1.47Zm3.32,1.5a1.57,1.57,0,0,1-1.62,1.17,1.72,1.72,0,0,1-1.74-1.76h4.35a2.93,2.93,0,0,0,0-.36c0-1.8-1-3-2.77-3a3.08,3.08,0,0,0,.14,6.13,2.62,2.62,0,0,0,2.6-1.82Z"/></g><rect id="Rectangle_7" data-name="Rectangle 7" class="cls-5" x="729.38" y="541.47" width="12" height="12"/></g></g><g id="Chart_Title" data-name="Chart Title"><path d="M5.78,17.47V1.92H4A4.06,4.06,0,0,1,0,5V6.12H3.82V17.47Z"/><path d="M14.92,16a3.39,3.39,0,0,1-2.61-1.1c-1-1.08-1.47-2.88-1.47-5.23s.44-4.16,1.47-5.24a3.39,3.39,0,0,1,2.61-1.1,3.4,3.4,0,0,1,2.62,1.1C18.57,5.54,19,7.34,19,9.7s-.43,4.15-1.46,5.23A3.4,3.4,0,0,1,14.92,16Zm0,1.78a5.3,5.3,0,0,0,4.61-2.38A10.06,10.06,0,0,0,21,9.7,10.07,10.07,0,0,0,19.53,4a5.3,5.3,0,0,0-4.61-2.38A5.3,5.3,0,0,0,10.32,4,10.07,10.07,0,0,0,8.88,9.7a10.06,10.06,0,0,0,1.44,5.73A5.3,5.3,0,0,0,14.92,17.81Z"/><path d="M29.09,8.66c-1.85,0-3.17-1.1-3.17-2.71s1.23-2.69,3.17-2.69S32.26,4.42,32.26,6,30.91,8.66,29.09,8.66Zm0,7.42c-2.26,0-3.53-1.27-3.53-2.86s1.27-2.88,3.53-2.88,3.53,1.3,3.53,2.88S31.32,16.08,29.09,16.08Zm0,1.73c3.5,0,5.54-2,5.54-4.42A4.1,4.1,0,0,0,31.56,9.5a3.91,3.91,0,0,0,2.69-3.67c0-2.47-2.18-4.25-5.16-4.25s-5.16,1.78-5.16,4.25A3.91,3.91,0,0,0,26.59,9.5a4.12,4.12,0,0,0-3,3.89C23.55,15.84,25.59,17.81,29.09,17.81Z"/><path d="M50.38,7.7V6h-3V3.89a1.91,1.91,0,0,1,2-2.16,2.4,2.4,0,0,1,1,.17V.24A2.87,2.87,0,0,0,49.1,0a3.48,3.48,0,0,0-3.62,3.84V6H43.22V7.7h2.26v9.77H47.4V7.7Z"/><path d="M51.91,14.42a3.5,3.5,0,0,0,3.79,3.39,4.23,4.23,0,0,0,3.82-2.07,9.27,9.27,0,0,0,.14,1.73h1.87a10.33,10.33,0,0,1-.14-1.92V9.74c0-2.23-1.37-4.1-4.63-4.1-2.48,0-4.4,1.49-4.64,3.67L54,9.74A2.66,2.66,0,0,1,56.8,7.27c1.8,0,2.67,1,2.67,2.28,0,.51-.19.87-1,1l-3.1.45C53.32,11.28,51.91,12.41,51.91,14.42Zm4,1.76a2,2,0,0,1-2.11-1.85,1.93,1.93,0,0,1,1.89-1.92l3.75-.55v.76A3.25,3.25,0,0,1,55.94,16.18Z"/><path d="M69.9,7.37A3.26,3.26,0,0,1,73.21,10l1.73-.75a4.9,4.9,0,0,0-5-3.62c-3.24,0-5.69,2.5-5.69,6.07s2.4,6.1,5.72,6.1A5.14,5.14,0,0,0,75,14.23l-1.68-.74a3.47,3.47,0,0,1-3.43,2.59c-2,0-3.8-1.61-3.8-4.37S67.89,7.37,69.9,7.37Z"/><path d="M85.41,15.91V16a7.35,7.35,0,0,0,.12,1.46h1.85a15.54,15.54,0,0,1-.14-2.16V6H85.32v6.93a2.85,2.85,0,0,1-2.93,3.17c-2,0-2.83-1.51-2.83-3.19V6H77.64V13.2c0,2.54,1.53,4.61,4.32,4.61A3.73,3.73,0,0,0,85.41,15.91Z"/><path d="M92.89,17.47V.12H91V17.47Z"/><path d="M99.43,2.33h-1.8V4.22A1.53,1.53,0,0,1,96,6h-.74V7.7h2.3v6.63a2.94,2.94,0,0,0,3.12,3.26,5.12,5.12,0,0,0,1.51-.21V15.74a4.53,4.53,0,0,1-1,.12c-1.22,0-1.75-.6-1.75-1.8V7.7h2.71V6H99.43Z"/><path d="M107.71,22l7.37-16H113l-3.58,8.13L105.62,6h-2.21l5,10.12L105.57,22Z"/><path d="M128.26,7.7V6h-3V3.89a1.91,1.91,0,0,1,2-2.16,2.46,2.46,0,0,1,1,.17V.24A2.94,2.94,0,0,0,127,0a3.49,3.49,0,0,0-3.63,3.84V6h-2.25V7.7h2.25v9.77h1.92V7.7Z"/><path d="M138.24,15.91V16a7.35,7.35,0,0,0,.12,1.46h1.85a15.25,15.25,0,0,1-.15-2.16V6h-1.92v6.93a2.85,2.85,0,0,1-2.92,3.17c-2.05,0-2.84-1.51-2.84-3.19V6h-1.92V13.2c0,2.54,1.54,4.61,4.32,4.61A3.73,3.73,0,0,0,138.24,15.91Z"/><path d="M145.72,10.7c0-1.8,1-3.33,2.88-3.33,2.09,0,2.86,1.34,2.86,3v7.08h1.92V10.1c0-2.49-1.35-4.46-4.1-4.46a4,4,0,0,0-3.61,2.06V6H143.8V17.47h1.92Z"/><path d="M165.3,15.82a10.29,10.29,0,0,0,.12,1.65h1.88a13.48,13.48,0,0,1-.13-2.16V.12h-1.92v7.7a3.76,3.76,0,0,0-3.72-2.18c-3.21,0-5.32,2.74-5.32,6.07s2,6.1,5.32,6.1a4,4,0,0,0,3.77-2.31Zm-3.6.26c-2.16,0-3.57-1.82-3.57-4.37s1.39-4.34,3.57-4.34,3.6,1.8,3.6,4.34S163.86,16.08,161.7,16.08Z"/><path d="M172.14,10.61a3.46,3.46,0,0,1,3.46-3.27A3.18,3.18,0,0,1,179,10.61Zm7.13,3a3.39,3.39,0,0,1-3.45,2.47,3.65,3.65,0,0,1-3.72-3.74v-.1H181a4.27,4.27,0,0,0,.05-.67c0-3.51-1.94-5.93-5.42-5.93-2.91,0-5.45,2.42-5.45,6.05,0,3.86,2.61,6.12,5.69,6.12a5.19,5.19,0,0,0,5.11-3.6Z"/><path d="M192.23,15.82a10.29,10.29,0,0,0,.12,1.65h1.87a15.57,15.57,0,0,1-.12-2.16V.12h-1.92v7.7a3.76,3.76,0,0,0-3.72-2.18c-3.21,0-5.32,2.74-5.32,6.07s2,6.1,5.32,6.1a4,4,0,0,0,3.77-2.31Zm-3.6.26c-2.16,0-3.57-1.82-3.57-4.37s1.39-4.34,3.57-4.34,3.6,1.8,3.6,4.34S190.79,16.08,188.63,16.08Z"/><path d="M205.89,17.47V6H204V17.47Zm-2.4-16A1.44,1.44,0,1,0,204.93,0,1.45,1.45,0,0,0,203.49,1.44Z"/><path d="M211.56,10.7c0-1.8,1-3.33,2.88-3.33,2.09,0,2.86,1.34,2.86,3v7.08h1.92V10.1c0-2.49-1.35-4.46-4.11-4.46a4,4,0,0,0-3.6,2.06V6h-1.87V17.47h1.92Z"/><path d="M240.66,17.47h2.18L236,.46h-2.35l-6.82,17H229l1.89-5h7.8ZM234.8,2.52,238,10.66h-6.36Z"/><path d="M248.12,10.2v7.27h2V10.2l6-9.74h-2.35l-4.64,7.89L244.49.46h-2.35Z"/><path d="M265.34,7.49a3.3,3.3,0,0,1-.07-.75,3.11,3.11,0,0,1,3.26-3.38,2.94,2.94,0,0,1,3.17,2.95c0,1.37-.75,2.47-2.26,3.43l-2.78,1.8a6.75,6.75,0,0,0-3.51,5.93h10.71V15.65H265.6a4,4,0,0,1,2-2.55l3.2-2a5.61,5.61,0,0,0,2.92-4.77c0-2.57-1.92-4.71-5.13-4.71a4.93,4.93,0,0,0-5.28,5,3.33,3.33,0,0,0,.07.7Z"/><path d="M282.47,16a3.43,3.43,0,0,1-2.62-1.1c-1-1.08-1.46-2.88-1.46-5.23s.43-4.16,1.46-5.24a3.67,3.67,0,0,1,5.24,0c1,1.08,1.46,2.88,1.46,5.24s-.43,4.15-1.46,5.23A3.43,3.43,0,0,1,282.47,16Zm0,1.78a5.33,5.33,0,0,0,4.61-2.38,10.06,10.06,0,0,0,1.44-5.73A10.07,10.07,0,0,0,287.08,4a5.65,5.65,0,0,0-9.22,0,10.07,10.07,0,0,0-1.44,5.74,10.06,10.06,0,0,0,1.44,5.73A5.33,5.33,0,0,0,282.47,17.81Z"/><path d="M293.18,7.49a3.3,3.3,0,0,1-.07-.75,3.11,3.11,0,0,1,3.26-3.38,2.93,2.93,0,0,1,3.17,2.95c0,1.37-.74,2.47-2.26,3.43l-2.78,1.8a6.74,6.74,0,0,0-3.5,5.93h10.7V15.65h-8.26a4,4,0,0,1,2-2.55l3.19-2a5.62,5.62,0,0,0,2.93-4.77c0-2.57-1.92-4.71-5.14-4.71a4.93,4.93,0,0,0-5.28,5,4.15,4.15,0,0,0,.07.7Z"/><path d="M310.31,16a3.39,3.39,0,0,1-2.61-1.1c-1-1.08-1.47-2.88-1.47-5.23s.44-4.16,1.47-5.24a3.66,3.66,0,0,1,5.23,0c1,1.08,1.46,2.88,1.46,5.24s-.43,4.15-1.46,5.23A3.4,3.4,0,0,1,310.31,16Zm0,1.78a5.3,5.3,0,0,0,4.61-2.38,10.06,10.06,0,0,0,1.44-5.73A10.07,10.07,0,0,0,314.92,4a5.65,5.65,0,0,0-9.21,0,10.07,10.07,0,0,0-1.44,5.74,10.06,10.06,0,0,0,1.44,5.73A5.3,5.3,0,0,0,310.31,17.81Z"/><path d="M325.71,11.42V9.74H319.3v1.68Z"/><path d="M330,7.49a4,4,0,0,1-.07-.75,3.12,3.12,0,0,1,3.27-3.38,2.94,2.94,0,0,1,3.17,2.95c0,1.37-.75,2.47-2.26,3.43l-2.79,1.8a6.76,6.76,0,0,0-3.5,5.93h10.71V15.65h-8.26a4,4,0,0,1,2-2.55l3.19-2a5.6,5.6,0,0,0,2.93-4.77c0-2.57-1.92-4.71-5.13-4.71a4.93,4.93,0,0,0-5.28,5,3.33,3.33,0,0,0,.07.7Z"/><path d="M346.22,17.47V1.92h-1.77a4.06,4.06,0,0,1-4,3.05V6.12h3.81V17.47Z"/></g></g></svg>