<svg width="488" height="811" viewBox="0 0 488 811" fill="none" xmlns="http://www.w3.org/2000/svg">
<g opacity="0.2" clip-path="url(#clip0_214_17399)">
<rect x="3" width="1" height="7" fill="black"/>
<rect y="3" width="7" height="1" fill="black"/>
<rect x="70" width="1" height="7" fill="black"/>
<rect x="67" y="3" width="7" height="1" fill="black"/>
<rect x="137" width="1" height="7" fill="black"/>
<rect x="134" y="3" width="7" height="1" fill="black"/>
<rect x="204" width="1" height="7" fill="black"/>
<rect x="201" y="3" width="7" height="1" fill="black"/>
<rect x="271" width="1" height="7" fill="black"/>
<rect x="268" y="3" width="7" height="1" fill="black"/>
<rect x="338" width="1" height="7" fill="black"/>
<rect x="335" y="3" width="7" height="1" fill="black"/>
<rect x="405" width="1" height="7" fill="black"/>
<rect x="402" y="3" width="7" height="1" fill="black"/>
<rect x="472" width="1" height="7" fill="black"/>
<rect x="469" y="3" width="7" height="1" fill="black"/>
<rect x="3" y="67" width="1" height="7" fill="black"/>
<rect y="70" width="7" height="1" fill="black"/>
<rect x="70" y="67" width="1" height="7" fill="black"/>
<rect x="67" y="70" width="7" height="1" fill="black"/>
<rect x="137" y="67" width="1" height="7" fill="black"/>
<rect x="134" y="70" width="7" height="1" fill="black"/>
<rect x="204" y="67" width="1" height="7" fill="black"/>
<rect x="201" y="70" width="7" height="1" fill="black"/>
<rect x="271" y="67" width="1" height="7" fill="black"/>
<rect x="268" y="70" width="7" height="1" fill="black"/>
<rect x="338" y="67" width="1" height="7" fill="black"/>
<rect x="335" y="70" width="7" height="1" fill="black"/>
<rect x="405" y="67" width="1" height="7" fill="black"/>
<rect x="402" y="70" width="7" height="1" fill="black"/>
<rect x="472" y="67" width="1" height="7" fill="black"/>
<rect x="469" y="70" width="7" height="1" fill="black"/>
<rect x="3" y="134" width="1" height="7" fill="black"/>
<rect y="137" width="7" height="1" fill="black"/>
<rect x="70" y="134" width="1" height="7" fill="black"/>
<rect x="67" y="137" width="7" height="1" fill="black"/>
<rect x="137" y="134" width="1" height="7" fill="black"/>
<rect x="134" y="137" width="7" height="1" fill="black"/>
<rect x="204" y="134" width="1" height="7" fill="black"/>
<rect x="201" y="137" width="7" height="1" fill="black"/>
<rect x="271" y="134" width="1" height="7" fill="black"/>
<rect x="268" y="137" width="7" height="1" fill="black"/>
<rect x="338" y="134" width="1" height="7" fill="black"/>
<rect x="335" y="137" width="7" height="1" fill="black"/>
<rect x="405" y="134" width="1" height="7" fill="black"/>
<rect x="402" y="137" width="7" height="1" fill="black"/>
<rect x="472" y="134" width="1" height="7" fill="black"/>
<rect x="469" y="137" width="7" height="1" fill="black"/>
<rect x="3" y="201" width="1" height="7" fill="black"/>
<rect y="204" width="7" height="1" fill="black"/>
<rect x="70" y="201" width="1" height="7" fill="black"/>
<rect x="67" y="204" width="7" height="1" fill="black"/>
<rect x="137" y="201" width="1" height="7" fill="black"/>
<rect x="134" y="204" width="7" height="1" fill="black"/>
<rect x="204" y="201" width="1" height="7" fill="black"/>
<rect x="201" y="204" width="7" height="1" fill="black"/>
<rect x="271" y="201" width="1" height="7" fill="black"/>
<rect x="268" y="204" width="7" height="1" fill="black"/>
<rect x="338" y="201" width="1" height="7" fill="black"/>
<rect x="335" y="204" width="7" height="1" fill="black"/>
<rect x="405" y="201" width="1" height="7" fill="black"/>
<rect x="402" y="204" width="7" height="1" fill="black"/>
<rect x="472" y="201" width="1" height="7" fill="black"/>
<rect x="469" y="204" width="7" height="1" fill="black"/>
<rect x="3" y="268" width="1" height="7" fill="black"/>
<rect y="271" width="7" height="1" fill="black"/>
<rect x="70" y="268" width="1" height="7" fill="black"/>
<rect x="67" y="271" width="7" height="1" fill="black"/>
<rect x="137" y="268" width="1" height="7" fill="black"/>
<rect x="134" y="271" width="7" height="1" fill="black"/>
<rect x="204" y="268" width="1" height="7" fill="black"/>
<rect x="201" y="271" width="7" height="1" fill="black"/>
<rect x="271" y="268" width="1" height="7" fill="black"/>
<rect x="268" y="271" width="7" height="1" fill="black"/>
<rect x="338" y="268" width="1" height="7" fill="black"/>
<rect x="335" y="271" width="7" height="1" fill="black"/>
<rect x="405" y="268" width="1" height="7" fill="black"/>
<rect x="402" y="271" width="7" height="1" fill="black"/>
<rect x="472" y="268" width="1" height="7" fill="black"/>
<rect x="469" y="271" width="7" height="1" fill="black"/>
<rect x="3" y="335" width="1" height="7" fill="black"/>
<rect y="338" width="7" height="1" fill="black"/>
<rect x="70" y="335" width="1" height="7" fill="black"/>
<rect x="67" y="338" width="7" height="1" fill="black"/>
<rect x="137" y="335" width="1" height="7" fill="black"/>
<rect x="134" y="338" width="7" height="1" fill="black"/>
<rect x="204" y="335" width="1" height="7" fill="black"/>
<rect x="201" y="338" width="7" height="1" fill="black"/>
<rect x="271" y="335" width="1" height="7" fill="black"/>
<rect x="268" y="338" width="7" height="1" fill="black"/>
<rect x="338" y="335" width="1" height="7" fill="black"/>
<rect x="335" y="338" width="7" height="1" fill="black"/>
<rect x="405" y="335" width="1" height="7" fill="black"/>
<rect x="402" y="338" width="7" height="1" fill="black"/>
<rect x="472" y="335" width="1" height="7" fill="black"/>
<rect x="469" y="338" width="7" height="1" fill="black"/>
<rect x="3" y="402" width="1" height="7" fill="black"/>
<rect y="405" width="7" height="1" fill="black"/>
<rect x="70" y="402" width="1" height="7" fill="black"/>
<rect x="67" y="405" width="7" height="1" fill="black"/>
<rect x="137" y="402" width="1" height="7" fill="black"/>
<rect x="134" y="405" width="7" height="1" fill="black"/>
<rect x="204" y="402" width="1" height="7" fill="black"/>
<rect x="201" y="405" width="7" height="1" fill="black"/>
<rect x="271" y="402" width="1" height="7" fill="black"/>
<rect x="268" y="405" width="7" height="1" fill="black"/>
<rect x="338" y="402" width="1" height="7" fill="black"/>
<rect x="335" y="405" width="7" height="1" fill="black"/>
<rect x="405" y="402" width="1" height="7" fill="black"/>
<rect x="402" y="405" width="7" height="1" fill="black"/>
<rect x="472" y="402" width="1" height="7" fill="black"/>
<rect x="469" y="405" width="7" height="1" fill="black"/>
<rect x="3" y="469" width="1" height="7" fill="black"/>
<rect y="472" width="7" height="1" fill="black"/>
<rect x="70" y="469" width="1" height="7" fill="black"/>
<rect x="67" y="472" width="7" height="1" fill="black"/>
<rect x="137" y="469" width="1" height="7" fill="black"/>
<rect x="134" y="472" width="7" height="1" fill="black"/>
<rect x="204" y="469" width="1" height="7" fill="black"/>
<rect x="201" y="472" width="7" height="1" fill="black"/>
<rect x="271" y="469" width="1" height="7" fill="black"/>
<rect x="268" y="472" width="7" height="1" fill="black"/>
<rect x="338" y="469" width="1" height="7" fill="black"/>
<rect x="335" y="472" width="7" height="1" fill="black"/>
<rect x="405" y="469" width="1" height="7" fill="black"/>
<rect x="402" y="472" width="7" height="1" fill="black"/>
<rect x="472" y="469" width="1" height="7" fill="black"/>
<rect x="469" y="472" width="7" height="1" fill="black"/>
<rect x="3" y="536" width="1" height="7" fill="black"/>
<rect y="539" width="7" height="1" fill="black"/>
<rect x="70" y="536" width="1" height="7" fill="black"/>
<rect x="67" y="539" width="7" height="1" fill="black"/>
<rect x="137" y="536" width="1" height="7" fill="black"/>
<rect x="134" y="539" width="7" height="1" fill="black"/>
<rect x="204" y="536" width="1" height="7" fill="black"/>
<rect x="201" y="539" width="7" height="1" fill="black"/>
<rect x="271" y="536" width="1" height="7" fill="black"/>
<rect x="268" y="539" width="7" height="1" fill="black"/>
<rect x="338" y="536" width="1" height="7" fill="black"/>
<rect x="335" y="539" width="7" height="1" fill="black"/>
<rect x="405" y="536" width="1" height="7" fill="black"/>
<rect x="402" y="539" width="7" height="1" fill="black"/>
<rect x="472" y="536" width="1" height="7" fill="black"/>
<rect x="469" y="539" width="7" height="1" fill="black"/>
<rect x="3" y="603" width="1" height="7" fill="black"/>
<rect y="606" width="7" height="1" fill="black"/>
<rect x="70" y="603" width="1" height="7" fill="black"/>
<rect x="67" y="606" width="7" height="1" fill="black"/>
<rect x="137" y="603" width="1" height="7" fill="black"/>
<rect x="134" y="606" width="7" height="1" fill="black"/>
<rect x="204" y="603" width="1" height="7" fill="black"/>
<rect x="201" y="606" width="7" height="1" fill="black"/>
<rect x="271" y="603" width="1" height="7" fill="black"/>
<rect x="268" y="606" width="7" height="1" fill="black"/>
<rect x="338" y="603" width="1" height="7" fill="black"/>
<rect x="335" y="606" width="7" height="1" fill="black"/>
<rect x="405" y="603" width="1" height="7" fill="black"/>
<rect x="402" y="606" width="7" height="1" fill="black"/>
<rect x="472" y="603" width="1" height="7" fill="black"/>
<rect x="469" y="606" width="7" height="1" fill="black"/>
<rect x="3" y="670" width="1" height="7" fill="black"/>
<rect y="673" width="7" height="1" fill="black"/>
<rect x="70" y="670" width="1" height="7" fill="black"/>
<rect x="67" y="673" width="7" height="1" fill="black"/>
<rect x="137" y="670" width="1" height="7" fill="black"/>
<rect x="134" y="673" width="7" height="1" fill="black"/>
<rect x="204" y="670" width="1" height="7" fill="black"/>
<rect x="201" y="673" width="7" height="1" fill="black"/>
<rect x="271" y="670" width="1" height="7" fill="black"/>
<rect x="268" y="673" width="7" height="1" fill="black"/>
<rect x="338" y="670" width="1" height="7" fill="black"/>
<rect x="335" y="673" width="7" height="1" fill="black"/>
<rect x="405" y="670" width="1" height="7" fill="black"/>
<rect x="402" y="673" width="7" height="1" fill="black"/>
<rect x="472" y="670" width="1" height="7" fill="black"/>
<rect x="469" y="673" width="7" height="1" fill="black"/>
<rect x="3" y="737" width="1" height="7" fill="black"/>
<rect y="740" width="7" height="1" fill="black"/>
<rect x="70" y="737" width="1" height="7" fill="black"/>
<rect x="67" y="740" width="7" height="1" fill="black"/>
<rect x="137" y="737" width="1" height="7" fill="black"/>
<rect x="134" y="740" width="7" height="1" fill="black"/>
<rect x="204" y="737" width="1" height="7" fill="black"/>
<rect x="201" y="740" width="7" height="1" fill="black"/>
<rect x="271" y="737" width="1" height="7" fill="black"/>
<rect x="268" y="740" width="7" height="1" fill="black"/>
<rect x="338" y="737" width="1" height="7" fill="black"/>
<rect x="335" y="740" width="7" height="1" fill="black"/>
<rect x="405" y="737" width="1" height="7" fill="black"/>
<rect x="402" y="740" width="7" height="1" fill="black"/>
<rect x="472" y="737" width="1" height="7" fill="black"/>
<rect x="469" y="740" width="7" height="1" fill="black"/>
<rect x="3" y="804" width="1" height="7" fill="black"/>
<rect y="807" width="7" height="1" fill="black"/>
<rect x="70" y="804" width="1" height="7" fill="black"/>
<rect x="67" y="807" width="7" height="1" fill="black"/>
<rect x="137" y="804" width="1" height="7" fill="black"/>
<rect x="134" y="807" width="7" height="1" fill="black"/>
<rect x="204" y="804" width="1" height="7" fill="black"/>
<rect x="201" y="807" width="7" height="1" fill="black"/>
<rect x="271" y="804" width="1" height="7" fill="black"/>
<rect x="268" y="807" width="7" height="1" fill="black"/>
<rect x="338" y="804" width="1" height="7" fill="black"/>
<rect x="335" y="807" width="7" height="1" fill="black"/>
<rect x="405" y="804" width="1" height="7" fill="black"/>
<rect x="402" y="807" width="7" height="1" fill="black"/>
<rect x="472" y="804" width="1" height="7" fill="black"/>
<rect x="469" y="807" width="7" height="1" fill="black"/>
</g>
<defs>
<clipPath id="clip0_214_17399">
<rect width="488" height="851" fill="white"/>
</clipPath>
</defs>
</svg>
