<svg width="680" height="899" viewBox="0 0 680 899" fill="none" xmlns="http://www.w3.org/2000/svg">
<g opacity="0.2" clip-path="url(#clip0_549_41806)">
<rect x="3" width="1" height="7" fill="white"/>
<rect y="3" width="7" height="1" fill="white"/>
<rect x="70" width="1" height="7" fill="white"/>
<rect x="67" y="3" width="7" height="1" fill="white"/>
<rect x="137" width="1" height="7" fill="white"/>
<rect x="134" y="3" width="7" height="1" fill="white"/>
<rect x="204" width="1" height="7" fill="white"/>
<rect x="201" y="3" width="7" height="1" fill="white"/>
<rect x="271" width="1" height="7" fill="white"/>
<rect x="268" y="3" width="7" height="1" fill="white"/>
<rect x="338" width="1" height="7" fill="white"/>
<rect x="335" y="3" width="7" height="1" fill="white"/>
<rect x="405" width="1" height="7" fill="white"/>
<rect x="402" y="3" width="7" height="1" fill="white"/>
<rect x="472" width="1" height="7" fill="white"/>
<rect x="469" y="3" width="7" height="1" fill="white"/>
<rect x="539" width="1" height="7" fill="white"/>
<rect x="536" y="3" width="7" height="1" fill="white"/>
<rect x="606" width="1" height="7" fill="white"/>
<rect x="603" y="3" width="7" height="1" fill="white"/>
<rect x="673" width="1" height="7" fill="white"/>
<rect x="670" y="3" width="7" height="1" fill="white"/>
<rect x="3" y="67" width="1" height="7" fill="white"/>
<rect y="70" width="7" height="1" fill="white"/>
<rect x="70" y="67" width="1" height="7" fill="white"/>
<rect x="67" y="70" width="7" height="1" fill="white"/>
<rect x="137" y="67" width="1" height="7" fill="white"/>
<rect x="134" y="70" width="7" height="1" fill="white"/>
<rect x="204" y="67" width="1" height="7" fill="white"/>
<rect x="201" y="70" width="7" height="1" fill="white"/>
<rect x="271" y="67" width="1" height="7" fill="white"/>
<rect x="268" y="70" width="7" height="1" fill="white"/>
<rect x="338" y="67" width="1" height="7" fill="white"/>
<rect x="335" y="70" width="7" height="1" fill="white"/>
<rect x="405" y="67" width="1" height="7" fill="white"/>
<rect x="402" y="70" width="7" height="1" fill="white"/>
<rect x="472" y="67" width="1" height="7" fill="white"/>
<rect x="469" y="70" width="7" height="1" fill="white"/>
<rect x="539" y="67" width="1" height="7" fill="white"/>
<rect x="536" y="70" width="7" height="1" fill="white"/>
<rect x="606" y="67" width="1" height="7" fill="white"/>
<rect x="603" y="70" width="7" height="1" fill="white"/>
<rect x="673" y="67" width="1" height="7" fill="white"/>
<rect x="670" y="70" width="7" height="1" fill="white"/>
<rect x="3" y="134" width="1" height="7" fill="white"/>
<rect y="137" width="7" height="1" fill="white"/>
<rect x="70" y="134" width="1" height="7" fill="white"/>
<rect x="67" y="137" width="7" height="1" fill="white"/>
<rect x="137" y="134" width="1" height="7" fill="white"/>
<rect x="134" y="137" width="7" height="1" fill="white"/>
<rect x="204" y="134" width="1" height="7" fill="white"/>
<rect x="201" y="137" width="7" height="1" fill="white"/>
<rect x="271" y="134" width="1" height="7" fill="white"/>
<rect x="268" y="137" width="7" height="1" fill="white"/>
<rect x="338" y="134" width="1" height="7" fill="white"/>
<rect x="335" y="137" width="7" height="1" fill="white"/>
<rect x="405" y="134" width="1" height="7" fill="white"/>
<rect x="402" y="137" width="7" height="1" fill="white"/>
<rect x="472" y="134" width="1" height="7" fill="white"/>
<rect x="469" y="137" width="7" height="1" fill="white"/>
<rect x="539" y="134" width="1" height="7" fill="white"/>
<rect x="536" y="137" width="7" height="1" fill="white"/>
<rect x="606" y="134" width="1" height="7" fill="white"/>
<rect x="603" y="137" width="7" height="1" fill="white"/>
<rect x="673" y="134" width="1" height="7" fill="white"/>
<rect x="670" y="137" width="7" height="1" fill="white"/>
<rect x="3" y="201" width="1" height="7" fill="white"/>
<rect y="204" width="7" height="1" fill="white"/>
<rect x="70" y="201" width="1" height="7" fill="white"/>
<rect x="67" y="204" width="7" height="1" fill="white"/>
<rect x="137" y="201" width="1" height="7" fill="white"/>
<rect x="134" y="204" width="7" height="1" fill="white"/>
<rect x="204" y="201" width="1" height="7" fill="white"/>
<rect x="201" y="204" width="7" height="1" fill="white"/>
<rect x="271" y="201" width="1" height="7" fill="white"/>
<rect x="268" y="204" width="7" height="1" fill="white"/>
<rect x="338" y="201" width="1" height="7" fill="white"/>
<rect x="335" y="204" width="7" height="1" fill="white"/>
<rect x="405" y="201" width="1" height="7" fill="white"/>
<rect x="402" y="204" width="7" height="1" fill="white"/>
<rect x="472" y="201" width="1" height="7" fill="white"/>
<rect x="469" y="204" width="7" height="1" fill="white"/>
<rect x="539" y="201" width="1" height="7" fill="white"/>
<rect x="536" y="204" width="7" height="1" fill="white"/>
<rect x="606" y="201" width="1" height="7" fill="white"/>
<rect x="603" y="204" width="7" height="1" fill="white"/>
<rect x="673" y="201" width="1" height="7" fill="white"/>
<rect x="670" y="204" width="7" height="1" fill="white"/>
<rect x="3" y="268" width="1" height="7" fill="white"/>
<rect y="271" width="7" height="1" fill="white"/>
<rect x="70" y="268" width="1" height="7" fill="white"/>
<rect x="67" y="271" width="7" height="1" fill="white"/>
<rect x="137" y="268" width="1" height="7" fill="white"/>
<rect x="134" y="271" width="7" height="1" fill="white"/>
<rect x="204" y="268" width="1" height="7" fill="white"/>
<rect x="201" y="271" width="7" height="1" fill="white"/>
<rect x="271" y="268" width="1" height="7" fill="white"/>
<rect x="268" y="271" width="7" height="1" fill="white"/>
<rect x="338" y="268" width="1" height="7" fill="white"/>
<rect x="335" y="271" width="7" height="1" fill="white"/>
<rect x="405" y="268" width="1" height="7" fill="white"/>
<rect x="402" y="271" width="7" height="1" fill="white"/>
<rect x="472" y="268" width="1" height="7" fill="white"/>
<rect x="469" y="271" width="7" height="1" fill="white"/>
<rect x="539" y="268" width="1" height="7" fill="white"/>
<rect x="536" y="271" width="7" height="1" fill="white"/>
<rect x="606" y="268" width="1" height="7" fill="white"/>
<rect x="603" y="271" width="7" height="1" fill="white"/>
<rect x="673" y="268" width="1" height="7" fill="white"/>
<rect x="670" y="271" width="7" height="1" fill="white"/>
<rect x="3" y="335" width="1" height="7" fill="white"/>
<rect y="338" width="7" height="1" fill="white"/>
<rect x="70" y="335" width="1" height="7" fill="white"/>
<rect x="67" y="338" width="7" height="1" fill="white"/>
<rect x="137" y="335" width="1" height="7" fill="white"/>
<rect x="134" y="338" width="7" height="1" fill="white"/>
<rect x="204" y="335" width="1" height="7" fill="white"/>
<rect x="201" y="338" width="7" height="1" fill="white"/>
<rect x="271" y="335" width="1" height="7" fill="white"/>
<rect x="268" y="338" width="7" height="1" fill="white"/>
<rect x="338" y="335" width="1" height="7" fill="white"/>
<rect x="335" y="338" width="7" height="1" fill="white"/>
<rect x="405" y="335" width="1" height="7" fill="white"/>
<rect x="402" y="338" width="7" height="1" fill="white"/>
<rect x="472" y="335" width="1" height="7" fill="white"/>
<rect x="469" y="338" width="7" height="1" fill="white"/>
<rect x="539" y="335" width="1" height="7" fill="white"/>
<rect x="536" y="338" width="7" height="1" fill="white"/>
<rect x="606" y="335" width="1" height="7" fill="white"/>
<rect x="603" y="338" width="7" height="1" fill="white"/>
<rect x="673" y="335" width="1" height="7" fill="white"/>
<rect x="670" y="338" width="7" height="1" fill="white"/>
<rect x="3" y="402" width="1" height="7" fill="white"/>
<rect y="405" width="7" height="1" fill="white"/>
<rect x="70" y="402" width="1" height="7" fill="white"/>
<rect x="67" y="405" width="7" height="1" fill="white"/>
<rect x="137" y="402" width="1" height="7" fill="white"/>
<rect x="134" y="405" width="7" height="1" fill="white"/>
<rect x="204" y="402" width="1" height="7" fill="white"/>
<rect x="201" y="405" width="7" height="1" fill="white"/>
<rect x="271" y="402" width="1" height="7" fill="white"/>
<rect x="268" y="405" width="7" height="1" fill="white"/>
<rect x="338" y="402" width="1" height="7" fill="white"/>
<rect x="335" y="405" width="7" height="1" fill="white"/>
<rect x="405" y="402" width="1" height="7" fill="white"/>
<rect x="402" y="405" width="7" height="1" fill="white"/>
<rect x="472" y="402" width="1" height="7" fill="white"/>
<rect x="469" y="405" width="7" height="1" fill="white"/>
<rect x="539" y="402" width="1" height="7" fill="white"/>
<rect x="536" y="405" width="7" height="1" fill="white"/>
<rect x="606" y="402" width="1" height="7" fill="white"/>
<rect x="603" y="405" width="7" height="1" fill="white"/>
<rect x="673" y="402" width="1" height="7" fill="white"/>
<rect x="670" y="405" width="7" height="1" fill="white"/>
<rect x="3" y="469" width="1" height="7" fill="white"/>
<rect y="472" width="7" height="1" fill="white"/>
<rect x="70" y="469" width="1" height="7" fill="white"/>
<rect x="67" y="472" width="7" height="1" fill="white"/>
<rect x="137" y="469" width="1" height="7" fill="white"/>
<rect x="134" y="472" width="7" height="1" fill="white"/>
<rect x="204" y="469" width="1" height="7" fill="white"/>
<rect x="201" y="472" width="7" height="1" fill="white"/>
<rect x="271" y="469" width="1" height="7" fill="white"/>
<rect x="268" y="472" width="7" height="1" fill="white"/>
<rect x="338" y="469" width="1" height="7" fill="white"/>
<rect x="335" y="472" width="7" height="1" fill="white"/>
<rect x="405" y="469" width="1" height="7" fill="white"/>
<rect x="402" y="472" width="7" height="1" fill="white"/>
<rect x="472" y="469" width="1" height="7" fill="white"/>
<rect x="469" y="472" width="7" height="1" fill="white"/>
<rect x="539" y="469" width="1" height="7" fill="white"/>
<rect x="536" y="472" width="7" height="1" fill="white"/>
<rect x="606" y="469" width="1" height="7" fill="white"/>
<rect x="603" y="472" width="7" height="1" fill="white"/>
<rect x="673" y="469" width="1" height="7" fill="white"/>
<rect x="670" y="472" width="7" height="1" fill="white"/>
<rect x="3" y="536" width="1" height="7" fill="white"/>
<rect y="539" width="7" height="1" fill="white"/>
<rect x="70" y="536" width="1" height="7" fill="white"/>
<rect x="67" y="539" width="7" height="1" fill="white"/>
<rect x="137" y="536" width="1" height="7" fill="white"/>
<rect x="134" y="539" width="7" height="1" fill="white"/>
<rect x="204" y="536" width="1" height="7" fill="white"/>
<rect x="201" y="539" width="7" height="1" fill="white"/>
<rect x="271" y="536" width="1" height="7" fill="white"/>
<rect x="268" y="539" width="7" height="1" fill="white"/>
<rect x="338" y="536" width="1" height="7" fill="white"/>
<rect x="335" y="539" width="7" height="1" fill="white"/>
<rect x="405" y="536" width="1" height="7" fill="white"/>
<rect x="402" y="539" width="7" height="1" fill="white"/>
<rect x="472" y="536" width="1" height="7" fill="white"/>
<rect x="469" y="539" width="7" height="1" fill="white"/>
<rect x="539" y="536" width="1" height="7" fill="white"/>
<rect x="536" y="539" width="7" height="1" fill="white"/>
<rect x="606" y="536" width="1" height="7" fill="white"/>
<rect x="603" y="539" width="7" height="1" fill="white"/>
<rect x="673" y="536" width="1" height="7" fill="white"/>
<rect x="670" y="539" width="7" height="1" fill="white"/>
<rect x="3" y="603" width="1" height="7" fill="white"/>
<rect y="606" width="7" height="1" fill="white"/>
<rect x="70" y="603" width="1" height="7" fill="white"/>
<rect x="67" y="606" width="7" height="1" fill="white"/>
<rect x="137" y="603" width="1" height="7" fill="white"/>
<rect x="134" y="606" width="7" height="1" fill="white"/>
<rect x="204" y="603" width="1" height="7" fill="white"/>
<rect x="201" y="606" width="7" height="1" fill="white"/>
<rect x="271" y="603" width="1" height="7" fill="white"/>
<rect x="268" y="606" width="7" height="1" fill="white"/>
<rect x="338" y="603" width="1" height="7" fill="white"/>
<rect x="335" y="606" width="7" height="1" fill="white"/>
<rect x="405" y="603" width="1" height="7" fill="white"/>
<rect x="402" y="606" width="7" height="1" fill="white"/>
<rect x="472" y="603" width="1" height="7" fill="white"/>
<rect x="469" y="606" width="7" height="1" fill="white"/>
<rect x="539" y="603" width="1" height="7" fill="white"/>
<rect x="536" y="606" width="7" height="1" fill="white"/>
<rect x="606" y="603" width="1" height="7" fill="white"/>
<rect x="603" y="606" width="7" height="1" fill="white"/>
<rect x="673" y="603" width="1" height="7" fill="white"/>
<rect x="670" y="606" width="7" height="1" fill="white"/>
<rect x="3" y="670" width="1" height="7" fill="white"/>
<rect y="673" width="7" height="1" fill="white"/>
<rect x="70" y="670" width="1" height="7" fill="white"/>
<rect x="67" y="673" width="7" height="1" fill="white"/>
<rect x="137" y="670" width="1" height="7" fill="white"/>
<rect x="134" y="673" width="7" height="1" fill="white"/>
<rect x="204" y="670" width="1" height="7" fill="white"/>
<rect x="201" y="673" width="7" height="1" fill="white"/>
<rect x="271" y="670" width="1" height="7" fill="white"/>
<rect x="268" y="673" width="7" height="1" fill="white"/>
<rect x="338" y="670" width="1" height="7" fill="white"/>
<rect x="335" y="673" width="7" height="1" fill="white"/>
<rect x="405" y="670" width="1" height="7" fill="white"/>
<rect x="402" y="673" width="7" height="1" fill="white"/>
<rect x="472" y="670" width="1" height="7" fill="white"/>
<rect x="469" y="673" width="7" height="1" fill="white"/>
<rect x="539" y="670" width="1" height="7" fill="white"/>
<rect x="536" y="673" width="7" height="1" fill="white"/>
<rect x="606" y="670" width="1" height="7" fill="white"/>
<rect x="603" y="673" width="7" height="1" fill="white"/>
<rect x="673" y="670" width="1" height="7" fill="white"/>
<rect x="670" y="673" width="7" height="1" fill="white"/>
<rect x="3" y="737" width="1" height="7" fill="white"/>
<rect y="740" width="7" height="1" fill="white"/>
<rect x="70" y="737" width="1" height="7" fill="white"/>
<rect x="67" y="740" width="7" height="1" fill="white"/>
<rect x="137" y="737" width="1" height="7" fill="white"/>
<rect x="134" y="740" width="7" height="1" fill="white"/>
<rect x="204" y="737" width="1" height="7" fill="white"/>
<rect x="201" y="740" width="7" height="1" fill="white"/>
<rect x="271" y="737" width="1" height="7" fill="white"/>
<rect x="268" y="740" width="7" height="1" fill="white"/>
<rect x="338" y="737" width="1" height="7" fill="white"/>
<rect x="335" y="740" width="7" height="1" fill="white"/>
<rect x="405" y="737" width="1" height="7" fill="white"/>
<rect x="402" y="740" width="7" height="1" fill="white"/>
<rect x="472" y="737" width="1" height="7" fill="white"/>
<rect x="469" y="740" width="7" height="1" fill="white"/>
<rect x="539" y="737" width="1" height="7" fill="white"/>
<rect x="536" y="740" width="7" height="1" fill="white"/>
<rect x="606" y="737" width="1" height="7" fill="white"/>
<rect x="603" y="740" width="7" height="1" fill="white"/>
<rect x="673" y="737" width="1" height="7" fill="white"/>
<rect x="670" y="740" width="7" height="1" fill="white"/>
<rect x="3" y="804" width="1" height="7" fill="white"/>
<rect y="807" width="7" height="1" fill="white"/>
<rect x="70" y="804" width="1" height="7" fill="white"/>
<rect x="67" y="807" width="7" height="1" fill="white"/>
<rect x="137" y="804" width="1" height="7" fill="white"/>
<rect x="134" y="807" width="7" height="1" fill="white"/>
<rect x="204" y="804" width="1" height="7" fill="white"/>
<rect x="201" y="807" width="7" height="1" fill="white"/>
<rect x="271" y="804" width="1" height="7" fill="white"/>
<rect x="268" y="807" width="7" height="1" fill="white"/>
<rect x="338" y="804" width="1" height="7" fill="white"/>
<rect x="335" y="807" width="7" height="1" fill="white"/>
<rect x="405" y="804" width="1" height="7" fill="white"/>
<rect x="402" y="807" width="7" height="1" fill="white"/>
<rect x="472" y="804" width="1" height="7" fill="white"/>
<rect x="469" y="807" width="7" height="1" fill="white"/>
<rect x="539" y="804" width="1" height="7" fill="white"/>
<rect x="536" y="807" width="7" height="1" fill="white"/>
<rect x="606" y="804" width="1" height="7" fill="white"/>
<rect x="603" y="807" width="7" height="1" fill="white"/>
<rect x="673" y="804" width="1" height="7" fill="white"/>
<rect x="670" y="807" width="7" height="1" fill="white"/>
<rect x="3" y="871" width="1" height="7" fill="white"/>
<rect y="874" width="7" height="1" fill="white"/>
<rect x="70" y="871" width="1" height="7" fill="white"/>
<rect x="67" y="874" width="7" height="1" fill="white"/>
<rect x="137" y="871" width="1" height="7" fill="white"/>
<rect x="134" y="874" width="7" height="1" fill="white"/>
<rect x="204" y="871" width="1" height="7" fill="white"/>
<rect x="201" y="874" width="7" height="1" fill="white"/>
<rect x="271" y="871" width="1" height="7" fill="white"/>
<rect x="268" y="874" width="7" height="1" fill="white"/>
<rect x="338" y="871" width="1" height="7" fill="white"/>
<rect x="335" y="874" width="7" height="1" fill="white"/>
<rect x="405" y="871" width="1" height="7" fill="white"/>
<rect x="402" y="874" width="7" height="1" fill="white"/>
<rect x="472" y="871" width="1" height="7" fill="white"/>
<rect x="469" y="874" width="7" height="1" fill="white"/>
<rect x="539" y="871" width="1" height="7" fill="white"/>
<rect x="536" y="874" width="7" height="1" fill="white"/>
<rect x="606" y="871" width="1" height="7" fill="white"/>
<rect x="603" y="874" width="7" height="1" fill="white"/>
<rect x="673" y="871" width="1" height="7" fill="white"/>
<rect x="670" y="874" width="7" height="1" fill="white"/>
</g>
<defs>
<clipPath id="clip0_549_41806">
<rect width="680" height="899" fill="white"/>
</clipPath>
</defs>
</svg>
