<svg width="734" height="771" viewBox="0 0 734 771" fill="none" xmlns="http://www.w3.org/2000/svg">
<g clip-path="url(#clip0_549_18813)">
<g style="mix-blend-mode:screen">
<path d="M1.5 116.18H107C130.015 116.176 152.806 120.706 174.071 129.511C195.335 138.316 214.657 151.223 230.933 167.496C247.209 183.769 260.119 203.089 268.928 224.352C277.736 245.615 282.27 268.405 282.27 291.42V593.83" stroke="#75CEEE" stroke-width="3" stroke-miterlimit="10" stroke-linecap="round"/>
</g>
<g style="mix-blend-mode:screen">
<path d="M1.5 134.67H106.7C127.328 134.671 147.754 138.736 166.811 146.631C185.868 154.526 203.184 166.098 217.769 180.685C232.355 195.272 243.924 212.589 251.817 231.647C259.71 250.706 263.771 271.132 263.77 291.76V585.83" stroke="#75CEEE" stroke-width="3" stroke-miterlimit="10" stroke-linecap="round"/>
</g>
<g style="mix-blend-mode:screen">
<path d="M1.5 153.17H106.68C143.439 153.17 178.692 167.772 204.685 193.765C230.678 219.758 245.28 255.011 245.28 291.77V565.83" stroke="#75CEEE" stroke-width="3" stroke-miterlimit="10" stroke-linecap="round"/>
</g>
<g style="mix-blend-mode:screen">
<path d="M1.5 171.66H106.74C138.566 171.66 169.088 184.303 191.593 206.807C214.097 229.312 226.74 259.834 226.74 291.66V532.25" stroke="#75CEEE" stroke-width="3" stroke-miterlimit="10" stroke-linecap="round"/>
</g>
<g style="mix-blend-mode:screen">
<path d="M1.5 97.68H106.59C213.83 97.68 300.77 184.62 300.77 291.86V595.86" stroke="#75CEEE" stroke-width="3" stroke-miterlimit="10" stroke-linecap="round"/>
</g>
<g style="mix-blend-mode:screen">
<path d="M208.1 270.87V769.39" stroke="#75CEEE" stroke-width="3" stroke-miterlimit="10" stroke-linecap="round"/>
</g>
<g style="mix-blend-mode:screen">
<path d="M189.61 233.76V769.39" stroke="#75CEEE" stroke-width="3" stroke-miterlimit="10" stroke-linecap="round"/>
</g>
<g style="mix-blend-mode:screen">
<path d="M171.11 213.12V769.39" stroke="#75CEEE" stroke-width="3" stroke-miterlimit="10" stroke-linecap="round"/>
</g>
<g style="mix-blend-mode:screen">
<path d="M152.62 201.39V769.39" stroke="#75CEEE" stroke-width="3" stroke-miterlimit="10" stroke-linecap="round"/>
</g>
<g style="mix-blend-mode:screen">
<path d="M134.12 193.85V769.39" stroke="#75CEEE" stroke-width="3" stroke-miterlimit="10" stroke-linecap="round"/>
</g>
<g style="mix-blend-mode:screen">
<path d="M300.77 103.78V595.83" stroke="#DB91D8" stroke-width="3" stroke-miterlimit="10" stroke-linecap="round"/>
</g>
<g style="mix-blend-mode:screen">
<path d="M282.27 30.43V593.83" stroke="#DB91D8" stroke-width="3" stroke-miterlimit="10" stroke-linecap="round"/>
</g>
<g style="mix-blend-mode:screen">
<path d="M263.77 46.03V585.83" stroke="#DB91D8" stroke-width="3" stroke-miterlimit="10" stroke-linecap="round"/>
</g>
<g style="mix-blend-mode:screen">
<path d="M245.28 1.5V565.83" stroke="#DB91D8" stroke-width="3" stroke-miterlimit="10" stroke-linecap="round"/>
</g>
<g style="mix-blend-mode:screen">
<path d="M226.78 46.03V532.25" stroke="#DB91D8" stroke-width="3" stroke-miterlimit="10" stroke-linecap="round"/>
</g>
<g style="mix-blend-mode:screen">
<path d="M134.14 193.85V522.2C134.14 566.348 151.678 608.688 182.895 639.905C214.112 671.122 256.452 688.66 300.6 688.66H504.5" stroke="#DB91D8" stroke-width="3" stroke-linecap="round" stroke-linejoin="round"/>
</g>
<g style="mix-blend-mode:screen">
<path d="M152.64 201.39V522.2C152.64 541.636 156.468 560.881 163.906 578.837C171.344 596.793 182.245 613.109 195.988 626.852C223.744 654.607 261.388 670.2 300.64 670.2H622.38" stroke="#DB91D8" stroke-width="3" stroke-miterlimit="10" stroke-linecap="round"/>
</g>
<g style="mix-blend-mode:screen">
<path d="M171.13 213.12V522.2C171.133 556.537 184.774 589.466 209.054 613.746C233.333 638.026 266.263 651.667 300.6 651.67H475.33" stroke="#DB91D8" stroke-width="3" stroke-miterlimit="10" stroke-linecap="round"/>
</g>
<g style="mix-blend-mode:screen">
<path d="M189.63 233.76V522.2C189.643 536.718 192.515 551.091 198.083 564.498C203.651 577.906 211.805 590.085 222.08 600.341C232.355 610.598 244.549 618.73 257.967 624.273C271.384 629.817 285.762 632.663 300.28 632.65H731.92" stroke="#DB91D8" stroke-width="3" stroke-miterlimit="10" stroke-linecap="round"/>
</g>
<g style="mix-blend-mode:screen">
<path d="M579.57 614.57H300.57C288.43 614.581 276.407 612.199 265.188 607.563C253.968 602.926 243.772 596.125 235.182 587.547C226.591 578.97 219.774 568.784 215.121 557.571C210.467 546.359 208.068 534.34 208.06 522.2V270.87" stroke="#DB91D8" stroke-width="3" stroke-miterlimit="10" stroke-linecap="round"/>
</g>
<g style="mix-blend-mode:screen">
<path d="M2.20996 577.51H23.15C47.4425 577.518 71.4986 572.74 93.9442 563.449C116.39 554.157 136.785 540.535 153.965 523.36C171.144 506.185 184.772 485.793 194.069 463.35C203.367 440.907 208.151 416.853 208.15 392.56V270.87" stroke="#69C7B7" stroke-width="3" stroke-miterlimit="10" stroke-linecap="round"/>
</g>
<g style="mix-blend-mode:screen">
<path d="M1.8999 559H23.1499C67.2944 559 109.631 541.465 140.848 510.252C172.065 479.039 189.605 436.704 189.61 392.56V233.76" stroke="#69C7B7" stroke-width="3" stroke-miterlimit="10" stroke-linecap="round"/>
</g>
<g style="mix-blend-mode:screen">
<path d="M2.43018 540.52H23.1702C42.6058 540.52 61.8511 536.692 79.8073 529.254C97.7635 521.816 114.079 510.915 127.822 497.172C141.565 483.429 152.467 467.113 159.904 449.157C167.342 431.201 171.17 411.956 171.17 392.52V213.12" stroke="#69C7B7" stroke-width="3" stroke-miterlimit="10" stroke-linecap="round"/>
</g>
<g style="mix-blend-mode:screen">
<path d="M2.43018 522H23.1702C57.5017 521.997 90.4269 508.36 114.706 484.087C138.985 459.814 152.63 426.892 152.64 392.56V201.39" stroke="#69C7B7" stroke-width="3" stroke-miterlimit="10" stroke-linecap="round"/>
</g>
<g style="mix-blend-mode:screen">
<path d="M2.43018 503.53H23.5002C38.0296 503.529 52.4165 500.666 65.8395 495.104C79.2625 489.543 91.4586 481.392 101.732 471.117C112.004 460.842 120.153 448.645 125.712 435.221C131.271 421.797 134.132 407.409 134.13 392.88V193.88" stroke="#69C7B7" stroke-width="3" stroke-miterlimit="10" stroke-linecap="round"/>
</g>
</g>
<defs>
<clipPath id="clip0_549_18813">
<rect width="733.42" height="770.89" fill="white"/>
</clipPath>
</defs>
</svg>
