<svg class="lines-scroller-multiply" width="909" height="729" viewBox="0 0 909 729" fill="none" xmlns="http://www.w3.org/2000/svg">
<g clip-path="url(#clip0_549_33734)">
<g style="mix-blend-mode:multiply">
<path d="M1.5 564H230.43C253.444 563.999 276.233 559.464 297.495 550.656C318.756 541.848 338.075 528.938 354.348 512.663C370.62 496.389 383.528 477.069 392.334 455.806C401.14 434.543 405.671 411.754 405.67 388.74V96.3301" stroke="#75CEEE" stroke-width="3" stroke-miterlimit="10" stroke-linecap="round"/>
</g>
<g style="mix-blend-mode:multiply">
<path d="M87.9399 545.49H230.09C250.719 545.49 271.146 541.427 290.204 533.532C309.263 525.637 326.579 514.066 341.166 499.479C355.752 484.892 367.322 467.574 375.216 448.515C383.109 429.456 387.171 409.029 387.17 388.4V104.33" stroke="#75CEEE" stroke-width="3" stroke-miterlimit="10" stroke-linecap="round"/>
</g>
<g style="mix-blend-mode:multiply">
<path d="M51.8599 527H230.08C248.281 527 266.304 523.415 283.12 516.45C299.936 509.484 315.215 499.275 328.085 486.405C340.955 473.535 351.164 458.256 358.13 441.44C365.095 424.624 368.68 406.601 368.68 388.4V124.33" stroke="#75CEEE" stroke-width="3" stroke-miterlimit="10" stroke-linecap="round"/>
</g>
<g style="mix-blend-mode:multiply">
<path d="M124.9 508.5H230.14C261.966 508.5 292.488 495.857 314.993 473.353C337.497 450.848 350.14 420.326 350.14 388.5V157.92" stroke="#75CEEE" stroke-width="3" stroke-miterlimit="10" stroke-linecap="round"/>
</g>
<g style="mix-blend-mode:multiply">
<path d="M1.5 582.48H230C337.24 582.48 424.17 495.54 424.17 388.3V94.2998" stroke="#75CEEE" stroke-width="3" stroke-miterlimit="10" stroke-linecap="round"/>
</g>
<g style="mix-blend-mode:multiply">
<path d="M424.16 727.42V94.3301" stroke="#D5A4CB" stroke-width="3" stroke-miterlimit="10" stroke-linecap="round"/>
</g>
<g style="mix-blend-mode:multiply">
<path d="M405.67 727.42V96.3301" stroke="#D5A4CB" stroke-width="3" stroke-miterlimit="10" stroke-linecap="round"/>
</g>
<g style="mix-blend-mode:multiply">
<path d="M387.17 727.42V104.33" stroke="#D5A4CB" stroke-width="3" stroke-miterlimit="10" stroke-linecap="round"/>
</g>
<g style="mix-blend-mode:multiply">
<path d="M368.68 727.42V124.33" stroke="#D5A4CB" stroke-width="3" stroke-miterlimit="10" stroke-linecap="round"/>
</g>
<g style="mix-blend-mode:multiply">
<path d="M350.18 727.42V157.92" stroke="#D5A4CB" stroke-width="3" stroke-miterlimit="10" stroke-linecap="round"/>
</g>
<g style="mix-blend-mode:multiply">
<path d="M257.54 486.31V168C257.535 146.137 261.837 124.487 270.2 104.286C278.563 84.0858 290.823 65.7306 306.281 50.2691C321.739 34.8077 340.091 22.5427 360.289 14.1748C380.488 5.80694 402.137 1.5 424 1.5H667.9" stroke="#D5A4CB" stroke-width="3" stroke-linecap="round" stroke-linejoin="round"/>
</g>
<g style="mix-blend-mode:multiply">
<path d="M276 478.77V168C276 128.748 291.593 91.1036 319.348 63.3482C347.104 35.5928 384.748 20 424 20H907" stroke="#D5A4CB" stroke-width="3" stroke-miterlimit="10" stroke-linecap="round"/>
</g>
<g style="mix-blend-mode:multiply">
<path d="M294.53 467V168C294.525 150.995 297.87 134.155 304.374 118.442C310.878 102.729 320.414 88.4519 332.437 76.4253C344.459 64.3986 358.734 54.8584 374.445 48.3494C390.155 41.8404 406.994 38.4902 424 38.4902H591.5" stroke="#D5A4CB" stroke-width="3" stroke-miterlimit="10" stroke-linecap="round"/>
</g>
<g style="mix-blend-mode:multiply">
<path d="M313 446.4V168C313.008 153.478 315.877 139.1 321.444 125.687C327.011 112.274 335.166 100.089 345.444 89.8293C355.721 79.5694 367.92 71.4351 381.342 65.8914C394.765 60.3476 409.148 57.503 423.67 57.5201H495" stroke="#D5A4CB" stroke-width="3" stroke-miterlimit="10" stroke-linecap="round"/>
</g>
<g style="mix-blend-mode:multiply">
<path d="M541.48 75.5899H424C411.857 75.5794 399.831 77.9617 388.609 82.6008C377.387 87.2399 367.189 94.0448 358.598 102.627C350.007 111.208 343.191 121.399 338.539 132.616C333.888 143.833 331.493 155.857 331.49 168V409.33" stroke="#D5A4CB" stroke-width="3" stroke-miterlimit="10" stroke-linecap="round"/>
</g>
<g style="mix-blend-mode:multiply">
<path d="M88.6201 112.65H146.54C248.69 112.65 331.54 195.45 331.54 297.65V409.29" stroke="#69C7B7" stroke-width="3" stroke-miterlimit="10" stroke-linecap="round"/>
</g>
<g style="mix-blend-mode:multiply">
<path d="M47.27 131.14H146.55C190.696 131.143 233.033 148.682 264.249 179.899C295.464 211.116 313 253.454 313 297.6V446.4" stroke="#69C7B7" stroke-width="3" stroke-miterlimit="10" stroke-linecap="round"/>
</g>
<g style="mix-blend-mode:multiply">
<path d="M67.9399 149.64H146.57C185.822 149.64 223.466 165.233 251.222 192.988C278.977 220.744 294.57 258.388 294.57 297.64V467" stroke="#69C7B7" stroke-width="3" stroke-miterlimit="10" stroke-linecap="round"/>
</g>
<g style="mix-blend-mode:multiply">
<path d="M105.82 168.13H146.57C180.9 168.143 213.819 181.789 238.09 206.068C262.361 230.346 275.997 263.27 276 297.6V478.77" stroke="#69C7B7" stroke-width="3" stroke-miterlimit="10" stroke-linecap="round"/>
</g>
<g style="mix-blend-mode:multiply">
<path d="M67.9399 186.63H146.89C176.234 186.633 204.376 198.291 225.125 219.042C245.874 239.793 257.53 267.935 257.53 297.28V486.28" stroke="#69C7B7" stroke-width="3" stroke-miterlimit="10" stroke-linecap="round"/>
</g>
</g>
<defs>
<clipPath id="clip0_549_33734">
<rect width="908.47" height="728.92" fill="white"/>
</clipPath>
</defs>
</svg>
