<svg width="970" height="1005" viewBox="0 0 970 1005" fill="none" xmlns="http://www.w3.org/2000/svg">
<g style="mix-blend-mode:screen">
<path d="M321.717 265.021V1002.95" stroke="#87CBBF" stroke-width="3" stroke-miterlimit="10" stroke-linecap="round"/>
</g>
<g style="mix-blend-mode:screen">
<path d="M339.74 233.828V1002.95" stroke="#87CBBF" stroke-width="3" stroke-miterlimit="10" stroke-linecap="round"/>
</g>
<g style="mix-blend-mode:screen">
<path d="M357.762 219.134V1002.95" stroke="#87CBBF" stroke-width="3" stroke-miterlimit="10" stroke-linecap="round"/>
</g>
<g style="mix-blend-mode:screen">
<path d="M375.783 211.119V1002.95" stroke="#87CBBF" stroke-width="3" stroke-miterlimit="10" stroke-linecap="round"/>
</g>
<g style="mix-blend-mode:screen">
<path d="M393.807 207.111V1002.95" stroke="#87CBBF" stroke-width="3" stroke-miterlimit="10" stroke-linecap="round"/>
</g>
<g style="mix-blend-mode:screen">
<path d="M375.824 211.119V431.856C375.824 470.119 360.634 506.816 333.596 533.872C306.557 560.929 269.885 576.129 231.647 576.129H-123" stroke="#E3B6DD" stroke-width="3" stroke-miterlimit="10" stroke-linecap="round"/>
</g>
<g style="mix-blend-mode:screen">
<path d="M357.735 219.134V431.856C357.735 465.336 344.444 497.446 320.785 521.12C297.127 544.794 265.039 558.095 231.581 558.095H-123" stroke="#E3B6DD" stroke-width="3" stroke-miterlimit="10" stroke-linecap="round"/>
</g>
<g style="mix-blend-mode:screen">
<path d="M339.78 233.828V431.856C339.751 460.441 328.377 487.845 308.159 508.039C287.941 528.234 260.534 539.564 231.968 539.54H-123" stroke="#E3B6DD" stroke-width="3" stroke-miterlimit="10" stroke-linecap="round"/>
</g>
<g style="mix-blend-mode:screen">
<path d="M-123 521.919H231.647C243.476 521.928 255.19 519.606 266.121 515.084C277.052 510.563 286.986 503.931 295.356 495.568C303.726 487.205 310.368 477.274 314.903 466.342C319.437 455.41 321.776 443.692 321.784 431.856V265.021" stroke="#87CBBF" stroke-width="3" stroke-miterlimit="10" stroke-linecap="round"/>
</g>
<g style="mix-blend-mode:screen">
<path d="M231.646 502.002V287.142C231.654 241.82 249.652 198.357 281.682 166.313C313.712 134.269 357.15 116.269 402.442 116.273H500.215H967.988" stroke="#8DCCE2" stroke-width="3" stroke-miterlimit="10" stroke-linecap="round"/>
</g>
<g style="mix-blend-mode:screen">
<path d="M249.723 499.33V287.476C249.73 246.858 265.857 207.905 294.558 179.182C323.259 150.459 362.185 134.318 402.777 134.307H717.952" stroke="#8DCCE2" stroke-width="3" stroke-miterlimit="10" stroke-linecap="round"/>
</g>
<g style="mix-blend-mode:screen">
<path d="M267.691 492.651V287.49C267.698 251.641 281.936 217.264 307.271 191.919C332.607 166.574 366.966 152.338 402.79 152.341H643.084" stroke="#8DCCE2" stroke-width="3" stroke-miterlimit="10" stroke-linecap="round"/>
</g>
<g style="mix-blend-mode:screen">
<path d="M285.768 478.664V287.423C285.775 256.384 298.099 226.619 320.03 204.67C341.962 182.721 371.706 170.386 402.724 170.375H517.99" stroke="#8DCCE2" stroke-width="3" stroke-miterlimit="10" stroke-linecap="round"/>
</g>
<g style="mix-blend-mode:screen">
<path d="M303.736 446.243V287.276C303.736 261.058 314.144 235.915 332.671 217.376C351.197 198.837 376.324 188.422 402.524 188.422H472.915" stroke="#8DCCE2" stroke-width="3" stroke-miterlimit="10" stroke-linecap="round"/>
</g>
<g style="mix-blend-mode:screen">
<path d="M-47.2139 20.0342H115.011C137.435 20.0342 159.64 24.4539 180.357 33.0409C201.074 41.6279 219.898 54.214 235.754 70.0807C251.61 85.9475 264.188 104.784 272.769 125.515C281.35 146.246 285.767 168.465 285.767 190.904V478.665" stroke="#E3B6DD" stroke-width="3" stroke-miterlimit="10" stroke-linecap="round"/>
</g>
<g style="mix-blend-mode:screen">
<path d="M-83.6855 38.0681H114.677C155.264 38.0823 194.184 54.226 222.878 82.9493C251.572 111.673 267.691 150.624 267.691 191.238V492.651" stroke="#E3B6DD" stroke-width="3" stroke-miterlimit="10" stroke-linecap="round"/>
</g>
<g style="mix-blend-mode:screen">
<path d="M-83.6855 56.1023H114.664C132.4 56.1023 149.963 59.598 166.349 66.3899C182.735 73.1818 197.623 83.1367 210.165 95.6865C222.706 108.236 232.655 123.135 239.442 139.532C246.229 155.929 249.723 173.503 249.723 191.251V499.33" stroke="#E3B6DD" stroke-width="3" stroke-miterlimit="10" stroke-linecap="round"/>
</g>
<g style="mix-blend-mode:screen">
<path d="M-44.0234 74.1365H114.731C145.744 74.1506 175.482 86.4887 197.407 108.438C219.331 130.387 231.647 160.151 231.647 191.184V502.002" stroke="#E3B6DD" stroke-width="3" stroke-miterlimit="10" stroke-linecap="round"/>
</g>
<g style="mix-blend-mode:screen">
<path d="M-104.764 2H114.571C164.744 2.01417 212.856 21.9673 248.33 57.4719C283.803 92.9765 303.733 141.125 303.736 191.331V446.243" stroke="#E3B6DD" stroke-width="3" stroke-miterlimit="10" stroke-linecap="round"/>
</g>
<g style="mix-blend-mode:screen">
<path d="M-48.0156 789.559V702.194C-48.0156 654.364 -29.0282 608.494 4.76976 574.673C38.5677 540.853 84.4075 521.853 132.205 521.853" stroke="#87CBBF" stroke-width="3" stroke-miterlimit="10" stroke-linecap="round"/>
</g>
<g style="mix-blend-mode:screen">
<path d="M-30.0059 819.108V701.886C-30.0059 658.84 -12.9171 617.557 17.501 587.118C47.9191 556.68 89.1749 539.58 132.193 539.58" stroke="#87CBBF" stroke-width="3" stroke-miterlimit="10" stroke-linecap="round"/>
</g>
<g style="mix-blend-mode:screen">
<path d="M-11.9707 879.716V702.381C-11.9707 664.117 3.21928 627.421 30.2576 600.364C57.296 573.308 93.9678 558.108 132.206 558.108" stroke="#87CBBF" stroke-width="3" stroke-miterlimit="10" stroke-linecap="round"/>
</g>
<g style="mix-blend-mode:screen">
<path d="M6.03809 872.957V702.381C6.03809 668.9 19.3293 636.791 42.9879 613.117C66.6464 589.442 98.7343 576.142 132.193 576.142" stroke="#87CBBF" stroke-width="3" stroke-miterlimit="10" stroke-linecap="round"/>
</g>
<g style="mix-blend-mode:screen">
<path d="M24.0732 798.576V702.047C24.075 687.879 26.8654 673.851 32.285 660.762C37.7047 647.674 45.6476 635.782 55.6601 625.765C65.6726 615.748 77.5586 607.803 90.6397 602.383C103.721 596.963 117.74 594.174 131.899 594.176" stroke="#87CBBF" stroke-width="3" stroke-miterlimit="10" stroke-linecap="round"/>
</g>
</svg>
