<svg width="286" height="754" viewBox="0 0 286 754" fill="none" xmlns="http://www.w3.org/2000/svg">
<g clip-path="url(#clip0_564_1914)">
<g style="mix-blend-mode:multiply">
<path d="M-15.5 114.18H90C113.015 114.176 135.806 118.706 157.071 127.51C178.335 136.315 197.657 149.223 213.933 165.496C230.209 181.769 243.119 201.088 251.928 222.351C260.736 243.614 265.27 266.404 265.27 289.42V296.83" stroke="#75CEEE" stroke-width="3" stroke-miterlimit="10" stroke-linecap="square"/>
</g>
<g style="mix-blend-mode:multiply">
<path d="M-15.5 132.67H89.7C110.328 132.671 130.754 136.736 149.811 144.631C168.868 152.526 186.184 164.098 200.769 178.685C215.355 193.272 226.924 210.589 234.817 229.647C242.71 248.706 246.771 269.132 246.77 289.76V296.83" stroke="#75CEEE" stroke-width="3" stroke-miterlimit="10" stroke-linecap="square"/>
</g>
<g style="mix-blend-mode:multiply">
<path d="M-15.5 151.17H89.68C126.439 151.17 161.692 165.772 187.685 191.765C213.678 217.757 228.28 253.011 228.28 289.77V296.83" stroke="#75CEEE" stroke-width="3" stroke-miterlimit="10" stroke-linecap="square"/>
</g>
<g style="mix-blend-mode:multiply">
<path d="M-15.5 169.66H89.74C121.566 169.66 152.088 182.303 174.593 204.807C197.097 227.312 209.74 257.834 209.74 289.66V296.78" stroke="#75CEEE" stroke-width="3" stroke-miterlimit="10" stroke-linecap="square"/>
</g>
<g style="mix-blend-mode:multiply">
<path d="M-15.5 95.6797H89.59C196.83 95.6797 283.77 182.62 283.77 289.86V296.86" stroke="#75CEEE" stroke-width="3" stroke-miterlimit="10" stroke-linecap="square"/>
</g>
<g style="mix-blend-mode:multiply">
<path d="M283.77 103.78V771.83" stroke="#D5A4CB" stroke-width="3" stroke-miterlimit="10" stroke-linecap="round"/>
</g>
<g style="mix-blend-mode:multiply">
<path d="M265.27 30.4302V728.83" stroke="#D5A4CB" stroke-width="3" stroke-miterlimit="10" stroke-linecap="round"/>
</g>
<g style="mix-blend-mode:multiply">
<path d="M246.77 46.0298V688.83" stroke="#D5A4CB" stroke-width="3" stroke-miterlimit="10" stroke-linecap="round"/>
</g>
<g style="mix-blend-mode:multiply">
<path d="M228.28 1.5V728.83" stroke="#D5A4CB" stroke-width="3" stroke-miterlimit="10" stroke-linecap="round"/>
</g>
<g style="mix-blend-mode:multiply">
<path d="M209.78 46.0298V658.83" stroke="#D5A4CB" stroke-width="3" stroke-miterlimit="10" stroke-linecap="round"/>
</g>
<g style="mix-blend-mode:multiply">
<path d="M283.721 299.54C283.721 401.69 200.911 484.54 98.7207 484.54H36.4707" stroke="#69C7B7" stroke-width="3" stroke-miterlimit="10" stroke-linecap="round"/>
</g>
<g style="mix-blend-mode:multiply">
<path d="M265.22 299.54C265.22 343.686 247.683 386.024 216.468 417.241C185.253 448.459 142.916 465.997 98.7695 466H73.2695" stroke="#69C7B7" stroke-width="3" stroke-miterlimit="10" stroke-linecap="round"/>
</g>
<g style="mix-blend-mode:multiply">
<path d="M246.75 299.54C246.75 318.976 242.922 338.221 235.485 356.177C228.047 374.133 217.145 390.449 203.402 404.192C189.659 417.935 173.344 428.837 155.388 436.274C137.431 443.712 118.186 447.54 98.7505 447.54H42.2305" stroke="#69C7B7" stroke-width="3" stroke-miterlimit="10" stroke-linecap="round"/>
</g>
<g style="mix-blend-mode:multiply">
<path d="M228.249 299.54C228.247 333.876 214.605 366.805 190.325 391.083C166.045 415.361 133.115 429 98.7793 429H53.7793" stroke="#69C7B7" stroke-width="3" stroke-miterlimit="10" stroke-linecap="round"/>
</g>
<g style="mix-blend-mode:multiply">
<path d="M209.74 299.86C209.742 314.39 206.881 328.777 201.322 342.201C195.763 355.625 187.615 367.823 177.342 378.098C167.069 388.372 154.872 396.523 141.45 402.085C128.027 407.646 113.64 410.509 99.1102 410.51H77.7002" stroke="#69C7B7" stroke-width="3" stroke-miterlimit="10" stroke-linecap="round"/>
</g>
</g>
<defs>
<clipPath id="clip0_564_1914">
<rect width="302.27" height="773.33" fill="white" transform="translate(-17)"/>
</clipPath>
</defs>
</svg>
