<svg width="206" height="44" viewBox="0 0 206 44" fill="none" xmlns="http://www.w3.org/2000/svg">
<path fill-rule="evenodd" clip-rule="evenodd" d="M89.3116 43.1947H90.5027V0.330963H89.3116V43.1947Z" fill="#E3B6DD"/>
<path fill-rule="evenodd" clip-rule="evenodd" d="M59.4019 0.331573L41.8911 43.1953H43.0821L60.5945 0.331573H59.4019Z" fill="#E3B6DD"/>
<path fill-rule="evenodd" clip-rule="evenodd" d="M29.5372 43.1947H30.7458V0.330963H29.5372V43.1947Z" fill="#E3B6DD"/>
<path fill-rule="evenodd" clip-rule="evenodd" d="M4.1336 43.1947H5.32621V0.330963H4.1336V43.1947Z" fill="#E3B6DD"/>
<path fill-rule="evenodd" clip-rule="evenodd" d="M61.7285 5.89891L76.961 43.1967H78.152L62.324 4.43961L61.7285 5.89891Z" fill="#E3B6DD"/>
<path fill-rule="evenodd" clip-rule="evenodd" d="M8.85596 22.3835H26.0091V21.1986H8.85596V22.3835Z" fill="#E3B6DD"/>
<path fill-rule="evenodd" clip-rule="evenodd" d="M52.2679 29.464L51.7251 30.6651H68.3354L67.7894 29.464H52.2679Z" fill="#E3B6DD"/>
<path fill-rule="evenodd" clip-rule="evenodd" d="M93.4468 43.1947H94.6378V0.330963H93.4468V43.1947ZM85.1782 43.1947H86.3692V0.330963H85.1782V43.1947ZM63.5342 0.330963L46.0266 43.1947H47.2352L50.6374 34.8425H69.4046L72.826 43.1947H74.0154L60.6588 10.3701L64.1967 1.72408L81.0928 43.1947H82.2855L64.7938 0.330963H63.5342ZM60.0649 11.8811L65.5745 25.3554H54.6015L60.0649 11.8811ZM54.0571 26.5579H66.0534L68.9272 33.6914H51.1307L54.0571 26.5579ZM55.2658 0.330963L37.7566 43.1947H38.9476L56.4568 0.330963H55.2658ZM33.6739 43.1947H34.8825V0.330963H33.6739V43.1947ZM25.404 0.330963V16.9677H9.46103V0.330963H8.27002V43.1947H9.46103V26.558H25.404V43.1947H26.6126V0.330963H25.404ZM9.46091 25.3554H25.4023V18.2235H9.46091V25.3554ZM0 43.1947H1.18942V0.330963H0V43.1947Z" fill="#8DCCE2"/>
<path fill-rule="evenodd" clip-rule="evenodd" d="M111.914 25.072V21.6594H108.032V25.072H106.982V17.3864H108.032V20.6715H111.914V17.3864H112.964V25.072H111.914Z" fill="#F4EEF4"/>
<path fill-rule="evenodd" clip-rule="evenodd" d="M116.665 25.2342C115.464 25.2342 114.734 24.3254 114.734 23.1421V19.8603H115.743V22.9904C115.743 23.7071 116.064 24.3351 116.91 24.3351C117.726 24.3351 118.133 23.7927 118.133 23.0017V19.8603H119.142V24.1091C119.142 24.5207 119.173 24.8872 119.195 25.0712H118.229C118.208 24.9517 118.188 24.6612 118.188 24.4449C117.908 24.9872 117.265 25.2342 116.665 25.2342Z" fill="#F4EEF4"/>
<path fill-rule="evenodd" clip-rule="evenodd" d="M120.859 25.0721V19.8596H121.823V20.5522C122.146 19.9791 122.787 19.7079 123.388 19.7079C124.031 19.7079 124.654 20.0211 124.933 20.6926C125.34 19.9452 126.005 19.7079 126.659 19.7079C127.558 19.7079 128.439 20.3262 128.439 21.6902V25.0721H127.441V21.8C127.441 21.1171 127.109 20.6054 126.348 20.6054C125.641 20.6054 125.157 21.1704 125.157 21.9194V25.0721H124.151V21.8C124.151 21.1284 123.827 20.6054 123.056 20.6054C122.339 20.6054 121.855 21.1478 121.855 21.9307V25.0721H120.859Z" fill="#F4EEF4"/>
<path fill-rule="evenodd" clip-rule="evenodd" d="M133.081 22.8397V22.6008L131.506 22.8397C131.076 22.9043 130.755 23.1545 130.755 23.6194C130.755 24.0101 131.076 24.3798 131.59 24.3798C132.417 24.3798 133.081 23.9778 133.081 22.8397ZM131.292 22.0924L132.686 21.8858C132.995 21.8422 133.081 21.6807 133.081 21.4951C133.081 20.9866 132.749 20.5637 131.967 20.5637C131.258 20.5637 130.862 21.0076 130.797 21.6146L129.833 21.387C129.94 20.3893 130.83 19.6968 131.945 19.6968C133.49 19.6968 134.091 20.5863 134.091 21.6033V24.2168C134.091 24.672 134.132 24.9432 134.154 25.0723H133.168C133.147 24.9432 133.115 24.7479 133.115 24.3685C132.888 24.7366 132.374 25.2354 131.451 25.2354C130.401 25.2354 129.726 24.4977 129.726 23.6744C129.726 22.7413 130.401 22.2215 131.292 22.0924Z" fill="#F4EEF4"/>
<path fill-rule="evenodd" clip-rule="evenodd" d="M136.664 25.0721H135.656V19.8596H136.643V20.6054C137.018 19.9565 137.628 19.7079 138.227 19.7079C139.462 19.7079 140.074 20.6054 140.074 21.7661V25.0721H139.066V21.942C139.066 21.2124 138.765 20.628 137.866 20.628C137.072 20.628 136.664 21.2689 136.664 22.0598V25.0721Z" fill="#F4EEF4"/>
<path fill-rule="evenodd" clip-rule="evenodd" d="M141.306 22.4061H144.21V21.5167H141.306V22.4061Z" fill="#F4EEF4"/>
<path fill-rule="evenodd" clip-rule="evenodd" d="M145.179 21.224C145.179 18.6557 147.066 17.2238 148.952 17.2238C150.689 17.2238 151.912 18.1779 152.298 19.663L151.323 20.0101C151.032 18.851 150.197 18.2021 148.952 18.2021C147.569 18.2021 146.25 19.2207 146.25 21.224C146.25 23.2289 147.569 24.2605 148.952 24.2605C150.25 24.2605 151.066 23.4695 151.375 22.417L152.309 22.764C151.901 24.2072 150.7 25.2339 148.952 25.2339C146.991 25.2339 145.179 23.7939 145.179 21.224Z" fill="#F4EEF4"/>
<path fill-rule="evenodd" clip-rule="evenodd" d="M156.856 21.9302C156.833 21.1812 156.353 20.5968 155.441 20.5968C154.593 20.5968 154.079 21.2571 154.036 21.9302H156.856ZM157.874 23.5865C157.585 24.5098 156.757 25.2363 155.559 25.2363C154.175 25.2363 152.963 24.2177 152.963 22.4484C152.963 20.8148 154.134 19.6961 155.427 19.6961C157.017 19.6961 157.906 20.8035 157.906 22.429C157.906 22.5582 157.893 22.6889 157.885 22.7535H154.004C154.027 23.6866 154.691 24.3355 155.559 24.3355C156.396 24.3355 156.814 23.869 157.006 23.2846L157.874 23.5865Z" fill="#F4EEF4"/>
<path fill-rule="evenodd" clip-rule="evenodd" d="M160.201 25.0721H159.194V19.8596H160.181V20.6054C160.556 19.9565 161.166 19.7079 161.764 19.7079C163 19.7079 163.611 20.6054 163.611 21.7661V25.0721H162.604V21.942C162.604 21.2124 162.302 20.628 161.403 20.628C160.61 20.628 160.201 21.2689 160.201 22.0598V25.0721Z" fill="#F4EEF4"/>
<path fill-rule="evenodd" clip-rule="evenodd" d="M166.572 19.8588H167.686V20.7789H166.572V23.4893C166.572 23.9655 166.765 24.2044 167.29 24.2044C167.418 24.2044 167.601 24.1851 167.686 24.1625V25.0293C167.601 25.0632 167.343 25.1278 167.001 25.1278C166.121 25.1278 165.563 24.5854 165.563 23.6427V20.7789H164.578V19.8588H164.855C165.413 19.8588 165.649 19.5117 165.649 19.0581V18.2106H166.572V19.8588Z" fill="#F4EEF4"/>
<path fill-rule="evenodd" clip-rule="evenodd" d="M172.448 21.9302C172.426 21.1812 171.944 20.5968 171.032 20.5968C170.186 20.5968 169.672 21.257 169.627 21.9302H172.448ZM173.467 23.5865C173.177 24.5098 172.35 25.2363 171.152 25.2363C169.768 25.2363 168.556 24.2177 168.556 22.4484C168.556 20.8148 169.725 19.6961 171.02 19.6961C172.61 19.6961 173.499 20.8035 173.499 22.429C173.499 22.5582 173.488 22.6889 173.478 22.7535H169.597C169.618 23.6866 170.284 24.3355 171.152 24.3355C171.987 24.3355 172.405 23.869 172.599 23.2846L173.467 23.5865Z" fill="#F4EEF4"/>
<path fill-rule="evenodd" clip-rule="evenodd" d="M177.648 20.8882C177.499 20.8656 177.349 20.8559 177.21 20.8559C176.361 20.8559 175.794 21.3128 175.794 22.4621V25.074H174.787V19.8583H175.772V20.7704C176.148 19.9681 176.79 19.7744 177.316 19.7744C177.456 19.7744 177.595 19.7937 177.648 19.805V20.8882Z" fill="#F4EEF4"/>
<path fill-rule="evenodd" clip-rule="evenodd" d="M182.141 21.9302C182.121 21.1812 181.638 20.5968 180.727 20.5968C179.879 20.5968 179.365 21.2571 179.322 21.9302H182.141ZM183.16 23.5865C182.871 24.5098 182.042 25.2363 180.845 25.2363C179.461 25.2363 178.249 24.2177 178.249 22.4484C178.249 20.8148 179.419 19.6961 180.716 19.6961C182.303 19.6961 183.192 20.8035 183.192 22.429C183.192 22.5582 183.179 22.6889 183.171 22.7535H179.29C179.312 23.6866 179.976 24.3355 180.845 24.3355C181.682 24.3355 182.1 23.869 182.293 23.2846L183.16 23.5865Z" fill="#F4EEF4"/>
<path fill-rule="evenodd" clip-rule="evenodd" d="M186.592 24.3137C187.514 24.3137 188.083 23.5017 188.083 22.4282C188.083 21.3547 187.525 20.617 186.604 20.617C185.681 20.617 185.08 21.3773 185.08 22.4492C185.08 23.5227 185.628 24.3137 186.592 24.3137ZM188.09 24.2798C187.846 24.7802 187.3 25.2128 186.493 25.2128C184.983 25.2128 184.051 23.9989 184.051 22.4492C184.051 20.9754 185.037 19.7178 186.493 19.7178C187.407 19.7178 187.9 20.1731 188.072 20.596V17.2254H189.069V24.1087C189.069 24.6059 189.112 24.9868 189.121 25.0724H188.147C188.125 24.9529 188.09 24.6833 188.09 24.3686V24.2798Z" fill="#F4EEF4"/>
<path fill-rule="evenodd" clip-rule="evenodd" d="M110.701 6.89105C110.648 6.53268 110.358 5.92571 109.437 5.92571C108.804 5.92571 108.397 6.32767 108.397 6.75061C108.397 7.12027 108.621 7.39147 109.146 7.48671L110.166 7.68204C111.613 7.95324 112.363 8.89597 112.363 9.99206C112.363 11.1947 111.367 12.4199 109.555 12.4199C107.454 12.4199 106.552 11.0413 106.445 9.95817L108 9.57881C108.065 10.2859 108.536 10.9009 109.576 10.9009C110.241 10.9009 110.648 10.5764 110.648 10.0986C110.648 9.70957 110.337 9.42707 109.833 9.33183L108.795 9.1365C107.507 8.88467 106.724 8.01781 106.724 6.87975C106.724 5.42852 107.99 4.40991 109.448 4.40991C111.345 4.40991 112.065 5.55927 112.224 6.45681L110.701 6.89105Z" fill="#F4EEF4"/>
<path fill-rule="evenodd" clip-rule="evenodd" d="M115.506 6.87042H116.545V8.31197H115.506V10.3282C115.506 10.7721 115.739 10.89 116.095 10.89C116.268 10.89 116.427 10.8593 116.525 10.8383V12.204C116.461 12.2347 116.192 12.3525 115.675 12.3525C114.574 12.3525 113.897 11.6923 113.897 10.6188V8.31197H112.953V6.87042H113.221C113.78 6.87042 114.047 6.49107 114.047 5.99065V5.29651H115.506V6.87042Z" fill="#F4EEF4"/>
<path fill-rule="evenodd" clip-rule="evenodd" d="M120.642 10.1429V9.90403L119.634 10.0671C119.291 10.1203 119.034 10.2834 119.034 10.6627C119.034 10.9452 119.216 11.2164 119.666 11.2164C120.148 11.2164 120.642 10.9775 120.642 10.1429ZM119.002 9.14541L120.255 8.95008C120.543 8.90649 120.642 8.76605 120.642 8.58203C120.642 8.26724 120.374 7.99604 119.86 7.99604C119.291 7.99604 118.98 8.3867 118.946 8.78865L117.533 8.49485C117.597 7.72485 118.304 6.70786 119.871 6.70786C121.597 6.70786 122.229 7.68288 122.229 8.78865V11.4215C122.229 11.8445 122.281 12.2028 122.293 12.2561H120.824C120.813 12.2125 120.771 12.0188 120.771 11.6491C120.492 12.1044 119.978 12.4078 119.27 12.4078C118.1 12.4078 117.425 11.6282 117.425 10.771C117.425 9.81694 118.122 9.27616 119.002 9.14541Z" fill="#F4EEF4"/>
<path fill-rule="evenodd" clip-rule="evenodd" d="M125.232 12.2556H123.602V6.8688H125.179V7.48869C125.466 6.97696 126.122 6.72836 126.669 6.72836C128.008 6.72836 128.608 7.6937 128.608 8.87373V12.2556H126.98V9.15623C126.98 8.62675 126.7 8.22479 126.111 8.22479C125.575 8.22479 125.232 8.62675 125.232 9.16753V12.2556Z" fill="#F4EEF4"/>
<path fill-rule="evenodd" clip-rule="evenodd" d="M131.858 8.25622V12.258H130.228V8.25622H129.382V6.87117H130.228V6.40465C130.228 5.16811 130.967 4.32224 132.267 4.32224C132.599 4.32224 132.888 4.36743 133.038 4.44331V5.78638C132.953 5.76378 132.813 5.73311 132.556 5.73311C132.267 5.73311 131.858 5.86225 131.858 6.45953V6.87117H133.017V8.25622H131.858Z" fill="#F4EEF4"/>
<path fill-rule="evenodd" clip-rule="evenodd" d="M137.446 9.55666C137.446 8.64782 136.866 8.22488 136.244 8.22488C135.634 8.22488 135.043 8.64782 135.043 9.55666C135.043 10.459 135.634 10.903 136.244 10.903C136.866 10.903 137.446 10.4671 137.446 9.55666ZM139.076 9.55668C139.076 11.2258 137.842 12.4188 136.244 12.4188C134.658 12.4188 133.415 11.2258 133.415 9.55668C133.415 7.88913 134.658 6.70587 136.244 6.70587C137.842 6.70587 139.076 7.88913 139.076 9.55668Z" fill="#F4EEF4"/>
<path fill-rule="evenodd" clip-rule="evenodd" d="M143.516 8.49573C143.334 8.45215 143.161 8.44085 143.002 8.44085C142.347 8.44085 141.756 8.8315 141.756 9.90499V12.257H140.128V6.87016H141.702V7.59497C141.982 6.988 142.658 6.81528 143.085 6.81528C143.248 6.81528 143.409 6.83788 143.516 6.87016V8.49573Z" fill="#F4EEF4"/>
<path fill-rule="evenodd" clip-rule="evenodd" d="M146.893 10.9013C147.525 10.9013 148.093 10.4461 148.093 9.55664C148.093 8.65749 147.525 8.22487 146.893 8.22487C146.261 8.22487 145.692 8.65749 145.692 9.55664C145.692 10.4461 146.261 10.9013 146.893 10.9013ZM149.681 11.292C149.681 11.7795 149.714 12.1379 149.724 12.2557H148.159C148.148 12.1911 148.116 11.9522 148.116 11.7359C147.868 12.1056 147.332 12.3768 146.69 12.3768C145.189 12.3768 144.053 11.2048 144.053 9.54695C144.053 7.94237 145.124 6.73973 146.636 6.73973C147.548 6.73973 147.943 7.0868 148.073 7.29182V4.41034H149.681V11.292Z" fill="#F4EEF4"/>
<path fill-rule="evenodd" clip-rule="evenodd" d="M153.833 9.48114V4.57053H155.526V9.3407C155.526 10.2721 156.041 10.7387 156.845 10.7387C157.65 10.7387 158.164 10.2721 158.164 9.3407V4.57053H159.855V9.48114C159.855 11.4102 158.518 12.4288 156.845 12.4288C155.172 12.4288 153.833 11.4102 153.833 9.48114Z" fill="#F4EEF4"/>
<path fill-rule="evenodd" clip-rule="evenodd" d="M162.914 12.2556H161.284V6.8688H162.86V7.48869C163.149 6.97696 163.805 6.72836 164.35 6.72836C165.691 6.72836 166.291 7.6937 166.291 8.87373V12.2556H164.662V9.15623C164.662 8.62675 164.383 8.22479 163.794 8.22479C163.257 8.22479 162.914 8.62675 162.914 9.16753V12.2556Z" fill="#F4EEF4"/>
<path fill-rule="evenodd" clip-rule="evenodd" d="M167.665 12.2557H169.295V6.86889H167.665V12.2557ZM168.469 4.25696C169.006 4.25696 169.434 4.6912 169.434 5.22391C169.434 5.755 169.006 6.18763 168.469 6.18763C167.955 6.18763 167.526 5.755 167.526 5.22391C167.526 4.6912 167.955 4.25696 168.469 4.25696Z" fill="#F4EEF4"/>
<path fill-rule="evenodd" clip-rule="evenodd" d="M173.937 12.2555H172.297L170.112 6.86865H171.879L173.11 10.2183L174.247 6.86865H175.965L173.937 12.2555Z" fill="#F4EEF4"/>
<path fill-rule="evenodd" clip-rule="evenodd" d="M179.996 8.91836C179.974 8.50672 179.698 8.00791 178.925 8.00791C178.237 8.00791 177.895 8.5164 177.863 8.91836H179.996ZM181.476 10.7069C181.219 11.6384 180.371 12.4197 179.021 12.4197C177.552 12.4197 176.243 11.3575 176.243 9.54788C176.243 7.81253 177.52 6.70676 178.901 6.70676C180.555 6.70676 181.572 7.73666 181.572 9.47039C181.572 9.698 181.551 9.94822 181.54 9.9805H177.831C177.863 10.5875 178.409 11.0217 179.041 11.0217C179.631 11.0217 179.963 10.7392 180.114 10.3163L181.476 10.7069Z" fill="#F4EEF4"/>
<path fill-rule="evenodd" clip-rule="evenodd" d="M186.011 8.49576C185.829 8.45218 185.656 8.44088 185.497 8.44088C184.845 8.44088 184.252 8.83153 184.252 9.90502V12.257H182.623V6.87019H184.199V7.595C184.478 6.98803 185.154 6.81531 185.581 6.81531C185.743 6.81531 185.906 6.83791 186.011 6.87019V8.49576Z" fill="#F4EEF4"/>
<path fill-rule="evenodd" clip-rule="evenodd" d="M187.985 10.4788C188.007 10.8485 188.264 11.2052 188.821 11.2052C189.24 11.2052 189.442 10.9776 189.442 10.7387C189.442 10.545 189.315 10.3803 188.919 10.2948L188.307 10.1543C187.17 9.90411 186.72 9.25356 186.72 8.49485C186.72 7.50853 187.578 6.70786 188.767 6.70786C190.312 6.70786 190.847 7.68288 190.902 8.31083L189.549 8.56104C189.508 8.20267 189.281 7.89919 188.789 7.89919C188.48 7.89919 188.211 8.08322 188.211 8.36571C188.211 8.59333 188.393 8.72408 188.628 8.76605L189.337 8.90649C190.44 9.13411 190.977 9.80726 190.977 10.5983C190.977 11.5216 190.279 12.4192 188.853 12.4192C187.182 12.4192 186.645 11.3247 186.602 10.7274L187.985 10.4788Z" fill="#F4EEF4"/>
<path fill-rule="evenodd" clip-rule="evenodd" d="M192.039 12.2557H193.669V6.86889H192.039V12.2557ZM192.843 4.25696C193.38 4.25696 193.808 4.6912 193.808 5.22391C193.808 5.755 193.38 6.18763 192.843 6.18763C192.328 6.18763 191.9 5.755 191.9 5.22391C191.9 4.6912 192.328 4.25696 192.843 4.25696Z" fill="#F4EEF4"/>
<path fill-rule="evenodd" clip-rule="evenodd" d="M197.047 6.87042H198.086V8.31197H197.047V10.3282C197.047 10.7721 197.28 10.89 197.636 10.89C197.808 10.89 197.968 10.8593 198.065 10.8383V12.204C198.001 12.2347 197.733 12.3525 197.217 12.3525C196.114 12.3525 195.439 11.6923 195.439 10.6188V8.31197H194.494V6.87042H194.762C195.321 6.87042 195.589 6.49107 195.589 5.99065V5.29651H197.047V6.87042Z" fill="#F4EEF4"/>
<path fill-rule="evenodd" clip-rule="evenodd" d="M199.77 14.327L200.982 11.5311L198.739 6.86911H200.564L201.862 9.75381L203.04 6.86911H204.766L201.485 14.327H199.77Z" fill="#F4EEF4"/>
<path fill-rule="evenodd" clip-rule="evenodd" d="M108.579 34.9136H111.195L109.875 31.4672L108.579 34.9136ZM111.569 35.9H108.204L107.399 38.0454H106.273L109.297 30.3614H110.509L113.534 38.0454H112.396L111.569 35.9Z" fill="#F4EEF4"/>
<path fill-rule="evenodd" clip-rule="evenodd" d="M117.309 33.8623C117.157 33.8413 117.008 33.83 116.868 33.83C116.02 33.83 115.453 34.2852 115.453 35.4346V38.0465H114.444V32.8324H115.431V33.7428C115.808 32.9405 116.45 32.7468 116.975 32.7468C117.114 32.7468 117.254 32.7678 117.309 32.7791V33.8623Z" fill="#F4EEF4"/>
<path fill-rule="evenodd" clip-rule="evenodd" d="M119.999 32.8329H121.114V33.7547H119.999V36.4634C119.999 36.9396 120.193 37.1785 120.718 37.1785C120.846 37.1785 121.029 37.1576 121.114 37.1366V38.0034C121.029 38.0357 120.771 38.1003 120.429 38.1003C119.549 38.1003 118.99 37.5579 118.99 36.6152V33.7547H118.005V32.8329H118.283C118.84 32.8329 119.077 32.4859 119.077 32.0306V31.1848H119.999V32.8329Z" fill="#F4EEF4"/>
<path fill-rule="evenodd" clip-rule="evenodd" d="M122.455 38.0451H123.453V32.8326H122.455V38.0451ZM122.947 30.1223C123.356 30.1223 123.677 30.45 123.677 30.86C123.677 31.2603 123.356 31.5864 122.947 31.5864C122.551 31.5864 122.229 31.2603 122.229 30.86C122.229 30.45 122.551 30.1223 122.947 30.1223Z" fill="#F4EEF4"/>
<path fill-rule="evenodd" clip-rule="evenodd" d="M129.425 30.1025C129.832 30.1025 130.154 30.4254 130.154 30.8386C130.154 31.239 129.832 31.5635 129.425 31.5635C129.029 31.5635 128.706 31.239 128.706 30.8386C128.706 30.4254 129.029 30.1025 129.425 30.1025ZM127.774 30.2736V31.1857C127.721 31.1631 127.592 31.1211 127.332 31.1211C126.98 31.1211 126.519 31.2809 126.519 31.9993V32.8322H129.926V38.0463H128.928V33.7556H126.519V38.0463H125.48V33.7556H124.525V32.8322H125.48V31.9541C125.48 30.7966 126.241 30.1671 127.174 30.1671C127.517 30.1671 127.729 30.2429 127.774 30.2736Z" fill="#F4EEF4"/>
<path fill-rule="evenodd" clip-rule="evenodd" d="M132.245 35.4339C132.245 36.6268 132.986 37.2661 133.821 37.2661C134.787 37.2661 135.14 36.6042 135.259 36.1926L136.147 36.5832C135.901 37.3306 135.162 38.2088 133.821 38.2088C132.32 38.2088 131.214 37.0158 131.214 35.4339C131.214 33.8083 132.343 32.6702 133.808 32.6702C135.183 32.6702 135.89 33.5371 136.106 34.3281L135.194 34.7187C135.066 34.2086 134.69 33.613 133.808 33.613C132.997 33.613 132.245 34.2199 132.245 35.4339Z" fill="#F4EEF4"/>
<path fill-rule="evenodd" clip-rule="evenodd" d="M137.327 38.0451H138.325V32.8326H137.327V38.0451ZM137.822 30.1223C138.229 30.1223 138.55 30.45 138.55 30.86C138.55 31.2603 138.229 31.5864 137.822 31.5864C137.425 31.5864 137.102 31.2603 137.102 30.86C137.102 30.45 137.425 30.1223 137.822 30.1223Z" fill="#F4EEF4"/>
<path fill-rule="evenodd" clip-rule="evenodd" d="M143.076 35.8139V35.5766L141.501 35.8139C141.071 35.8801 140.749 36.1271 140.749 36.592C140.749 36.9843 141.071 37.3523 141.585 37.3523C142.412 37.3523 143.076 36.9504 143.076 35.8139ZM141.285 35.0649L142.679 34.8583C142.99 34.8163 143.076 34.6533 143.076 34.4693C143.076 33.9608 142.744 33.5378 141.96 33.5378C141.253 33.5378 140.856 33.9801 140.792 34.5871L139.827 34.3627C139.934 33.3635 140.825 32.671 141.94 32.671C143.484 32.671 144.084 33.5604 144.084 34.5774V37.1909C144.084 37.6461 144.127 37.9173 144.148 38.0465H143.163C143.14 37.9173 143.108 37.722 143.108 37.341C142.883 37.7107 142.369 38.2079 141.446 38.2079C140.396 38.2079 139.717 37.4702 139.717 36.6485C139.717 35.7139 140.396 35.1941 141.285 35.0649Z" fill="#F4EEF4"/>
<path fill-rule="evenodd" clip-rule="evenodd" d="M145.65 38.0451H146.657V30.1982H145.65V38.0451Z" fill="#F4EEF4"/>
<path fill-rule="evenodd" clip-rule="evenodd" d="M151.161 38.0467H152.234V30.3612H151.161V38.0467Z" fill="#F4EEF4"/>
<path fill-rule="evenodd" clip-rule="evenodd" d="M155.064 38.0462H154.057V32.8337H155.043V33.5811C155.418 32.9305 156.028 32.6803 156.627 32.6803C157.863 32.6803 158.474 33.5811 158.474 34.7401V38.0462H157.467V34.9161C157.467 34.1881 157.165 33.6021 156.265 33.6021C155.473 33.6021 155.064 34.2413 155.064 35.0323V38.0462Z" fill="#F4EEF4"/>
<path fill-rule="evenodd" clip-rule="evenodd" d="M161.434 32.8329H162.549V33.7546H161.434V36.4634C161.434 36.9396 161.626 37.1785 162.153 37.1785C162.281 37.1785 162.464 37.1575 162.549 37.1365V38.0034C162.464 38.0357 162.206 38.1002 161.864 38.1002C160.984 38.1002 160.425 37.5578 160.425 36.6151V33.7546H159.44V32.8329H159.718C160.275 32.8329 160.512 32.4858 160.512 32.0306V31.1847H161.434V32.8329Z" fill="#F4EEF4"/>
<path fill-rule="evenodd" clip-rule="evenodd" d="M167.311 34.9027C167.288 34.1553 166.806 33.5693 165.895 33.5693C165.048 33.5693 164.533 34.2312 164.49 34.9027H167.311ZM168.329 36.5606C168.039 37.4823 167.213 38.2087 166.014 38.2087C164.63 38.2087 163.418 37.1901 163.418 35.4225C163.418 33.7872 164.587 32.6702 165.882 32.6702C167.472 32.6702 168.361 33.7759 168.361 35.4015C168.361 35.5323 168.35 35.6614 168.341 35.726H164.459C164.48 36.659 165.146 37.3096 166.014 37.3096C166.849 37.3096 167.268 36.8431 167.461 36.2571L168.329 36.5606Z" fill="#F4EEF4"/>
<path fill-rule="evenodd" clip-rule="evenodd" d="M169.648 38.0451H170.657V30.1982H169.648V38.0451Z" fill="#F4EEF4"/>
<path fill-rule="evenodd" clip-rule="evenodd" d="M172.371 38.0451H173.38V30.1982H172.371V38.0451Z" fill="#F4EEF4"/>
<path fill-rule="evenodd" clip-rule="evenodd" d="M175.095 38.0451H176.093V32.8326H175.095V38.0451ZM175.59 30.1223C175.997 30.1223 176.318 30.45 176.318 30.86C176.318 31.2604 175.997 31.5865 175.59 31.5865C175.192 31.5865 174.871 31.2604 174.871 30.86C174.871 30.45 175.192 30.1223 175.59 30.1223Z" fill="#F4EEF4"/>
<path fill-rule="evenodd" clip-rule="evenodd" d="M181.433 35.2715C181.433 34.2626 180.833 33.6024 179.964 33.6024C179.072 33.6024 178.473 34.2626 178.473 35.2715C178.473 36.2901 179.053 36.9407 179.964 36.9407C180.833 36.9407 181.433 36.2804 181.433 35.2715ZM178.407 38.0998C178.483 38.8262 179.03 39.3783 179.812 39.3783C180.896 39.3783 181.39 38.8149 181.39 37.6881V36.9407C181.142 37.4169 180.585 37.7963 179.812 37.7963C178.441 37.7963 177.445 36.7454 177.445 35.2716C177.445 33.8623 178.398 32.7355 179.812 32.7355C180.606 32.7355 181.142 33.039 181.399 33.5588V32.8324H182.397V37.6558C182.397 38.9779 181.754 40.2677 179.812 40.2677C178.527 40.2677 177.561 39.4444 177.434 38.3274L178.407 38.0998Z" fill="#F4EEF4"/>
<path fill-rule="evenodd" clip-rule="evenodd" d="M187.481 34.9027C187.459 34.1553 186.976 33.5693 186.065 33.5693C185.219 33.5693 184.705 34.2312 184.66 34.9027H187.481ZM188.5 36.5606C188.209 37.4823 187.384 38.2087 186.185 38.2087C184.801 38.2087 183.589 37.1901 183.589 35.4225C183.589 33.7872 184.758 32.6702 186.054 32.6702C187.642 32.6702 188.532 33.7759 188.532 35.4015C188.532 35.5323 188.521 35.6614 188.513 35.726H184.63C184.652 36.659 185.316 37.3096 186.185 37.3096C187.02 37.3096 187.438 36.8431 187.631 36.2571L188.5 36.5606Z" fill="#F4EEF4"/>
<path fill-rule="evenodd" clip-rule="evenodd" d="M190.827 38.0462H189.82V32.8337H190.805V33.5811C191.182 32.9306 191.792 32.6804 192.392 32.6804C193.626 32.6804 194.237 33.5811 194.237 34.7402V38.0462H193.228V34.9161C193.228 34.1881 192.928 33.6021 192.028 33.6021C191.234 33.6021 190.827 34.2414 190.827 35.0324V38.0462Z" fill="#F4EEF4"/>
<path fill-rule="evenodd" clip-rule="evenodd" d="M196.446 35.4339C196.446 36.6268 197.185 37.2661 198.022 37.2661C198.988 37.2661 199.34 36.6042 199.459 36.1926L200.348 36.5832C200.102 37.3306 199.361 38.2088 198.022 38.2088C196.521 38.2088 195.415 37.0158 195.415 35.4339C195.415 33.8083 196.543 32.6702 198.009 32.6702C199.384 32.6702 200.091 33.5371 200.306 34.3281L199.395 34.7187C199.267 34.2086 198.89 33.613 198.009 33.613C197.196 33.613 196.446 34.2199 196.446 35.4339Z" fill="#F4EEF4"/>
<path fill-rule="evenodd" clip-rule="evenodd" d="M204.949 34.9027C204.927 34.1553 204.446 33.5693 203.533 33.5693C202.687 33.5693 202.173 34.2312 202.128 34.9027H204.949ZM205.968 36.5606C205.679 37.4823 204.85 38.2087 203.653 38.2087C202.269 38.2087 201.057 37.1901 201.057 35.4225C201.057 33.7872 202.226 32.6702 203.524 32.6702C205.111 32.6702 206 33.7759 206 35.4015C206 35.5323 205.989 35.6614 205.979 35.726H202.098C202.12 36.659 202.785 37.3096 203.653 37.3096C204.488 37.3096 204.906 36.8431 205.1 36.2571L205.968 36.5606Z" fill="#F4EEF4"/>
</svg>
