<svg width="105" height="22" viewBox="0 0 105 22" fill="none" xmlns="http://www.w3.org/2000/svg">
<path fill-rule="evenodd" clip-rule="evenodd" d="M55.0398 21.4073V20.7548L55.307 20.7333C55.5393 20.7176 56.1187 20.6289 56.5224 20.1796C56.9464 19.7132 56.9667 18.5757 56.9667 16.2806V9.60006H55.185V8.84459L55.3636 8.77161C56.139 8.4554 56.6153 8.20644 56.9667 7.93601C56.9696 6.7427 57.0059 5.20169 57.1714 4.36466C57.7116 1.58313 59.5558 0.170898 62.6574 0.170898C63.989 0.170898 65.2581 0.608732 65.9958 1.19823L66.1003 1.28265L66.1424 1.56882L64.7862 3.42747L64.4595 3.43176L64.3868 3.26149C63.867 2.11969 63.1134 1.67327 62.0824 1.67327C61.654 1.67327 61.0674 1.79918 60.7044 2.15689C60.1119 2.73781 60.0132 3.60775 60.0132 5.32475V7.93029H63.0582V9.60006H60.0132V17.0733C60.0132 18.8518 60.0727 19.7175 60.3079 20.0666C60.6913 20.6332 61.8515 20.6761 62.1957 20.6761H62.4846V21.3944L62.1811 21.3772C60.6768 21.3 59.5558 21.2642 58.7469 21.2642C57.7319 21.2642 56.579 21.2642 55.3549 21.3772L55.0398 21.4073ZM1.28596 20.8558C2.6727 21.2994 4.02314 21.4911 5.79759 21.4911C7.78405 21.4911 12.406 20.9646 12.406 16.0812C12.406 13.1966 10.742 12.102 8.97621 10.9416L6.90554 9.58949L6.90094 9.58649C5.09919 8.41243 4.2729 7.874 4.2729 6.28713C4.2729 5.13388 4.62721 3.59431 7.66498 3.59431C8.95734 3.59431 10.1771 3.85043 10.7289 4.39414C11.1282 4.78905 11.3402 5.30558 11.3925 6.02243L11.4085 6.28713H12.104L12.0808 5.86504C12.0644 5.43944 12.0661 5.02358 12.0679 4.5753C12.0685 4.42828 12.0692 4.27777 12.0692 4.12229C12.0692 3.3862 12.0864 2.70242 12.0891 2.59567L12.0895 2.58128L12.0982 2.3409L11.8513 2.29798L11.8323 2.295C11.6199 2.26139 9.86114 1.9832 7.60835 1.9832C1.87551 1.9832 1.42972 5.77632 1.42972 6.93816C1.42972 9.3119 2.58703 10.5009 4.861 11.9861L6.4975 13.0592L6.74581 13.2295C8.29518 14.2583 9.41619 15.0037 9.41619 16.7908C9.41619 18.8799 8.2037 19.8514 5.59575 19.8514C4.35277 19.8514 3.01249 19.4608 2.43166 18.8126C2.05411 18.3919 1.84646 17.7953 1.81307 17.1858L1.79564 16.9039L0.988281 16.901L1.02894 17.5792C1.05653 17.9942 1.08557 18.5064 1.08557 19.8099V20.79L1.28596 20.8558ZM24.4531 17.9017C24.4531 18.7544 24.7391 21.526 28.4463 21.526C30.167 21.526 31.2663 20.7547 31.8703 20.1323C32.1244 20.9894 32.8781 21.4973 33.9657 21.4973C35.2217 21.4973 35.9274 20.8764 36.6666 19.9978L36.8176 19.8061L36.366 19.2996L36.1453 19.4856C36.0349 19.5786 35.8984 19.6201 35.698 19.6201C34.8936 19.6201 34.7396 18.8804 34.7396 17.9289C34.7396 17.5511 34.7542 16.9301 34.7716 16.2147C34.7963 15.1731 34.8253 13.8796 34.8253 12.7206C34.8253 11.4 34.7803 10.1366 34.2067 9.22369C33.4371 8.0733 32.1941 7.53817 30.2875 7.53817C27.3514 7.53817 26.0082 9.32098 25.6743 10.3684L25.606 10.5773L26.2929 10.9793L26.4395 10.7075C26.4453 10.6931 27.2048 9.30095 29.0547 9.30095C30.3122 9.30095 31.2401 9.89904 31.5639 10.852C31.7251 11.3485 31.7251 11.5445 31.7251 12.3458V12.7736C31.3019 12.9043 30.9521 13.0086 30.6266 13.1056L30.6262 13.1058L30.6255 13.106L30.6253 13.106L30.6253 13.106C29.6615 13.3934 28.9094 13.6177 27.0886 14.2774C24.7261 15.133 24.4531 16.9015 24.4531 17.9017ZM28.7206 15.558C29.284 15.2776 29.9026 14.9786 31.725 14.4391V19.0049C30.9931 19.5214 30.1553 19.6288 29.5686 19.6288C27.7913 19.6288 27.527 18.404 27.527 17.6757C27.527 16.7442 27.9365 15.9501 28.7206 15.558ZM19.3795 21.5764C17.2638 21.5764 16.0919 20.8309 15.5721 19.1683C15.3557 18.5058 15.3557 17.2023 15.3557 16.4225C15.3557 14.2918 15.3756 12.5771 15.3986 10.602L15.3993 10.539L15.4109 9.60035H13.6045V9.07094L13.7817 8.9994C14.6224 8.65743 14.9419 8.42564 15.3136 8.1409C16.5988 7.1586 17.5007 5.51534 17.5534 5.41928L17.5557 5.41517L17.8635 4.9015H18.4589V7.93057H23.1171V9.60035H18.4589V16.6758C18.4589 18.7891 18.8596 19.9968 20.8911 19.9968C21.8335 19.9968 22.5595 19.6376 22.5654 19.6305L22.8471 19.4874L23.0867 20.0354L22.969 20.167C22.9671 20.1691 22.9635 20.1733 22.9584 20.1793C22.8339 20.3252 21.767 21.5764 19.3795 21.5764ZM37.9847 20.7676V21.4072L38.294 21.3771C39.5181 21.2641 40.4445 21.2641 41.4334 21.2641C42.2557 21.2641 43.0397 21.3044 43.9326 21.3503L43.9327 21.3503L44.0646 21.3571L44.7906 21.3943V20.7647L44.5235 20.7461C44.1256 20.7218 43.6812 20.5616 43.4649 20.3684C43.0423 19.9778 42.9508 19.3525 42.9508 17.1304V10.0521C43.5273 9.76023 44.2911 9.48551 45.5123 9.48551C47.2882 9.48551 48.2103 10.2954 48.4151 12.0381C48.5269 13.0683 48.5269 14.1114 48.5269 15.1201C48.5269 15.8942 48.5269 16.9544 48.5007 17.4567C48.492 17.6198 48.4862 17.7743 48.4818 17.9217L48.478 18.0217C48.4447 18.8934 48.4074 19.8709 47.9809 20.2911C47.7456 20.5215 47.3768 20.6703 46.8468 20.7504L46.6014 20.7833V21.4072L46.9165 21.3771C48.1362 21.2641 49.0119 21.2641 50.0211 21.2641C50.8001 21.2641 51.5478 21.3006 52.3855 21.3415L52.735 21.3585L53.4131 21.3943V20.7647L53.143 20.7461C52.7495 20.7218 52.2979 20.5616 52.0859 20.3684C51.6619 19.9778 51.5733 19.3525 51.5733 17.1304V13.1971C51.5733 12.536 51.5254 11.2969 51.3947 10.7847C50.9359 8.72573 49.327 7.58966 46.8599 7.58966C44.9751 7.58966 43.5869 8.38091 42.8971 8.88456V7.8143L42.627 7.65691L42.4717 7.72702C42.4495 7.73728 42.4222 7.75091 42.3898 7.76713L42.3897 7.76719C42.1735 7.87527 41.7278 8.09812 41.0297 8.20634C39.977 8.40809 38.9808 8.46246 38.5583 8.46246C38.4697 8.46246 38.4015 8.46246 38.3477 8.45531L38.0384 8.43385V9.20363L38.2998 9.22939L38.3245 9.23162C38.3515 9.23414 38.381 9.23688 38.4131 9.23797L38.4242 9.2388C38.7551 9.26327 39.363 9.30824 39.6401 9.70013C39.884 10.0607 39.9087 10.7718 39.9087 12.4302V16.2805C39.9087 18.5756 39.884 19.7245 39.4615 20.1895C39.0564 20.6388 38.4784 20.729 38.249 20.7476L37.9847 20.7676ZM64.1024 14.7828C64.1024 19.0724 66.5956 21.6336 70.7675 21.6336C75.902 21.6336 77.7244 17.7446 77.7244 14.4108C77.7244 10.124 75.2312 7.55999 71.0564 7.55999C65.9219 7.55999 64.1024 11.4504 64.1024 14.7828ZM69.0045 9.73049C69.4808 9.3227 70.1328 9.11666 70.9402 9.11666C74.3061 9.11666 74.4774 13.6481 74.4774 14.5567C74.4774 16.9047 73.9213 18.5587 72.825 19.4644C72.3429 19.8693 71.6894 20.0768 70.8864 20.0768C67.5205 20.0768 67.3491 15.5454 67.3491 14.6368C67.3491 12.2888 67.9053 10.6362 69.0045 9.73049ZM79.0425 21.4073V20.7248L79.3097 20.7047C79.5406 20.689 80.1243 20.6003 80.5251 20.1481C80.9491 19.6831 80.9666 18.5757 80.9666 16.2806V12.4302C80.9666 10.7719 80.9448 10.0608 80.7037 9.70022C80.4248 9.30772 79.8182 9.26322 79.485 9.23878L79.4753 9.23806C79.4371 9.23667 79.3976 9.23257 79.3701 9.22972L79.3678 9.22948L79.1021 9.20372V8.38672L79.3954 8.39244C79.4462 8.39674 79.5348 8.3996 79.619 8.3996C80.0445 8.3996 81.0406 8.34666 82.0919 8.14348C82.7555 8.03474 83.3262 7.86733 83.5556 7.76002L83.7154 7.68991L83.9564 7.81439V8.98481C84.6113 8.37671 85.651 7.72997 87.119 7.72997C88.0745 7.72997 88.847 7.9818 89.409 8.48116L89.5019 8.56701V8.99053L88.3504 11.0695H87.7957L87.7115 10.9408C87.3906 10.4443 86.7502 9.85618 85.5087 9.85618C84.9409 9.85618 84.4501 9.99354 84.0159 10.284V17.0733C84.0159 18.8518 84.0755 19.6917 84.3107 20.0394C84.6984 20.6031 85.8543 20.6475 86.1984 20.6475H86.4845V21.3944L86.1839 21.3772C84.6795 21.3 83.5556 21.2642 82.7497 21.2642C81.7347 21.2642 80.5818 21.2642 79.3591 21.3772L79.0425 21.4073ZM100.175 21.474L100.54 21.5956L100.665 21.5413C100.906 21.4325 101.396 21.3367 102.059 21.2308C103.215 21.0362 104.409 20.9532 104.715 20.9532H105V20.2292L104.743 20.2192C104.712 20.2149 104.673 20.212 104.63 20.2106C104.307 20.1863 103.71 20.119 103.427 19.7184C103.186 19.3907 103.163 18.3748 103.163 16.7337V5.74777C103.163 3.96925 103.177 1.5955 103.269 0.485177L103.281 0.352109L103.044 0.21475L102.909 0.264829C102.629 0.364987 102.096 0.485177 101.557 0.571026C100.273 0.819991 98.6919 0.948765 98.6266 0.948765H98.3376L98.2781 1.55258L98.5366 1.57833C98.567 1.58262 98.6048 1.58548 98.6469 1.58692C98.9707 1.60981 99.5704 1.65703 99.8478 2.04764C100.092 2.40964 100.115 3.30534 100.115 4.98513V7.84822C99.5283 7.72374 98.5424 7.58924 97.4431 7.58924C94.4446 7.58924 92.0631 8.99146 90.9189 11.4382C90.4339 12.4927 90.1711 13.7461 90.1711 15.0639C90.1711 19.0387 92.599 21.6042 96.3541 21.6042C98.1503 21.6042 99.4964 20.8344 100.175 20.3394V21.474ZM93.4193 14.6962C93.4193 11.0004 94.7189 9.20328 97.3835 9.20328C99.0607 9.20328 99.8913 9.88722 100.115 10.1047V19.1289C99.3293 19.6068 98.429 19.6784 97.9469 19.6784H97.8191C93.8491 19.6784 93.4193 16.1943 93.4193 14.6962Z" fill="#8C1515"/>
</svg>
