<svg width="114" height="49" viewBox="0 0 114 49" fill="none" xmlns="http://www.w3.org/2000/svg">
<g clip-path="url(#clip0_205_3912)">
<path d="M31.3499 25.7359C27.6082 25.7359 27.311 22.8859 27.311 22.0467C27.311 21.05 27.5383 19.1967 29.9686 18.3049C32.399 17.4132 32.9235 17.3083 34.6545 16.7663V16.3467C34.6545 15.5074 34.6545 15.35 34.4622 14.808C34.1649 13.8463 33.2208 13.1994 31.9094 13.1994C30.668 13.1994 29.6014 13.8988 29.1119 14.9304L28.4125 14.5108C28.8321 12.9721 30.4232 11.4335 33.1508 11.4335C35.0392 11.4335 36.3505 11.9755 37.1199 13.1644C37.6968 14.1261 37.7668 15.42 37.7668 16.7313C37.7668 17.9203 37.6968 19.2316 37.6968 20.2982C37.6968 20.9976 37.6269 21.6795 37.6269 22.0641C37.6269 23.0258 37.8192 23.7951 38.5886 23.7951C38.9383 23.7951 39.0082 23.6727 39.2879 23.4979L39.7076 24.0399C39.0082 25.0016 38.1689 25.7709 36.7876 25.7709C35.7211 25.7709 34.9518 25.2289 34.637 24.3546C34.1999 24.9666 33.0634 25.7359 31.3499 25.7359ZM34.6545 18.4798C32.8186 19.0218 32.1542 19.319 31.6297 19.5988C30.7904 20.0184 30.4407 20.7878 30.4407 21.7844C30.4407 22.5537 30.7379 23.7951 32.5214 23.7951C33.0984 23.7951 33.9376 23.6727 34.707 23.1482V18.4623H34.6545V18.4798ZM3.75911 25.0016C3.75911 23.6203 3.75911 22.4488 3.63672 21.0325H4.47598C4.47598 21.9243 4.70328 22.5712 5.12292 22.9908C5.69991 23.6378 7.0812 24.0574 8.32261 24.0574C10.9278 24.0574 12.1692 23.0608 12.1692 20.9101C12.1692 19.0743 11.0502 18.3049 9.51157 17.2209L9.28427 17.0286L7.62322 15.9095C5.31525 14.3709 4.12629 13.1819 4.12629 10.7516C4.12629 9.5626 4.59838 5.64604 10.3508 5.64604C11.837 5.64604 13.7254 5.83837 14.8619 5.99573C14.8619 6.18807 14.7919 7.0623 14.7919 7.83162C14.7919 8.72334 14.7919 8.95064 14.8619 10.0172H14.1625C14.1625 9.05555 13.8652 8.47856 13.4631 8.05892C12.9211 7.5169 11.6971 7.21966 10.3858 7.21966C7.3085 7.21966 6.9588 8.75831 6.9588 9.94727C6.9588 11.5559 7.79807 12.1328 9.61647 13.3218L11.6971 14.7031C13.4631 15.8921 15.1241 17.0111 15.1241 19.9835C15.1241 24.9666 10.4383 25.4911 8.47997 25.4911C6.67905 25.7359 5.17537 25.4736 3.75911 25.0016ZM41.0014 12.3252C41.7008 12.3951 42.7674 12.3252 43.799 12.1329C44.6907 11.9405 44.9879 11.8356 45.6349 11.5559L45.9321 11.7482V12.8148C46.6315 12.2727 48.0128 11.5034 49.9711 11.5034C52.4714 11.5034 54.08 12.6924 54.5346 14.773C54.657 15.3151 54.7269 16.539 54.7269 17.2733V21.3123C54.7269 23.5678 54.8493 24.2322 55.2689 24.6344C55.4962 24.8267 55.9683 25.054 56.6502 25.054V25.701C55.7585 25.631 54.1499 25.5786 53.2232 25.5786C51.9818 25.5786 50.5656 25.6485 49.7962 25.701V25.054C50.4956 24.9841 50.9153 24.7568 51.1775 24.5819C51.5972 24.1623 51.6496 23.393 51.7195 21.662C51.7195 21.12 51.7895 20.0534 51.7895 19.2841C51.7895 18.2875 51.7895 17.2034 51.6671 16.1368C51.4748 14.3709 50.5481 13.5316 48.7472 13.5316C47.5057 13.5316 46.7364 13.8289 46.1419 14.1086V21.3473C46.1419 23.6028 46.2643 24.2672 46.684 24.6693C46.9113 24.8617 47.4533 25.089 47.9953 25.089V25.7359C46.8763 25.666 45.495 25.6135 44.6208 25.6135C42.7849 25.6135 42.1904 25.6835 41.1238 25.7359V25.054C41.7008 25.054 42.3128 24.8267 42.61 24.477C43.0297 24.0049 43.0821 22.816 43.0821 20.508V16.3991C43.0821 14.6681 43.0122 13.9687 42.7849 13.6016C42.5925 13.3043 42.1379 13.0595 41.1763 13.0595V12.2902H41.0539V12.3252H41.0014ZM58.1539 24.9666C58.7309 24.9666 59.3429 24.7743 59.6401 24.3896C60.0597 23.9175 60.1122 22.7286 60.1122 20.4206V13.5141H58.3462V12.7448C59.1156 12.4476 59.7625 12.0979 60.1122 11.7832C60.1122 10.5417 60.1821 8.98561 60.3395 8.09389C60.8815 5.24389 62.7174 3.82764 65.8472 3.82764C67.2284 3.82764 68.5048 4.29972 69.3441 4.94665L69.414 5.24389L68.0327 7.13224H67.683C67.211 6.01322 66.4941 5.36628 65.2527 5.36628C64.833 5.36628 64.256 5.48868 63.8714 5.83837C63.2944 6.41537 63.172 7.32457 63.172 9.108V11.7657H66.2493V13.4967H63.172V21.1549C63.172 22.9908 63.2419 23.8825 63.4692 24.2322C63.8189 24.8092 65.0778 24.8792 65.6548 24.8792V25.5786C64.6582 25.5086 63.0496 25.4562 61.9131 25.4562C60.1821 25.4562 59.0631 25.5261 58.1714 25.5786L58.1539 24.9666ZM74.0475 25.8408C69.8511 25.8408 67.3508 23.2356 67.3508 18.847C67.3508 15.42 69.1867 11.4335 74.3447 11.4335C78.541 11.4335 81.0413 14.0387 81.0413 18.4273C81.0413 21.8543 79.188 25.8408 74.0475 25.8408ZM74.2223 13.0246C73.383 13.0246 72.7361 13.2519 72.264 13.6715C71.145 14.6332 70.603 16.2767 70.603 18.7071C70.603 19.6687 70.7953 24.2847 74.1699 24.2847C75.0091 24.2847 75.6561 24.0574 76.1281 23.6378C77.2472 22.6761 77.7892 21.0325 77.7892 18.6022C77.7717 17.658 77.6143 13.0246 74.2223 13.0246ZM82.4576 12.2552C83.4192 12.3252 84.4159 12.1853 85.4824 12.0279C86.3217 11.9055 86.8637 11.7307 87.1435 11.5559L87.3708 11.6782V12.8672C88.0177 12.2203 89.1018 11.5559 90.5705 11.5559C91.637 11.5559 92.3364 11.8531 93.0008 12.3951V12.8148L91.8119 14.9654H91.2349C90.8852 14.3184 90.1683 13.724 88.9269 13.724C88.3499 13.724 87.8603 13.8463 87.4407 14.1436V21.2074C87.4407 23.0433 87.5107 23.8651 87.738 24.2322C88.0876 24.8092 89.2766 24.8792 89.9235 24.8092V25.5786C88.9619 25.5086 87.3183 25.4562 86.1818 25.4562C84.8705 25.4562 83.5241 25.4562 82.4401 25.5786V24.8792C83.2094 24.8092 83.6291 24.6519 83.9263 24.3022C84.3459 23.8301 84.3984 22.6936 84.3984 20.3332V16.4865C84.3984 14.7555 84.3984 14.0562 84.1011 13.689C83.8738 13.3917 83.4018 13.2169 82.4926 13.2169V12.3252L82.4576 12.2552ZM101.866 4.6669C102.705 4.6669 103.754 4.47457 105.135 4.24727C105.905 4.12487 106.377 3.95003 106.621 3.89757L106.849 4.01997C106.726 5.13898 106.726 7.70923 106.726 9.52764V20.7878C106.726 22.4488 106.726 23.5154 106.954 23.8651C107.181 24.1623 107.653 24.4071 108.562 24.4071V25.1065C107.67 25.1065 106.674 25.2289 105.607 25.4037C104.908 25.5261 104.366 25.631 104.069 25.7534L103.719 25.631V24.4421C103.02 24.9841 101.708 25.7534 99.8723 25.7534C96.0781 25.7534 93.6478 23.1482 93.6478 19.0568C93.6478 17.6755 93.8751 16.4516 94.3472 15.3151C95.5361 12.8148 97.914 11.3985 100.921 11.3985C102.04 11.3985 103.002 11.5209 103.579 11.6258V8.70586C103.579 6.97487 103.579 6.10064 103.282 5.68101C103.089 5.38377 102.81 5.26138 101.796 5.20892V4.64942H101.866V4.6669ZM101.376 23.8126C102.338 23.8126 102.985 23.6902 103.632 23.2706V14.0387C103.404 13.8114 102.565 13.077 100.904 13.077C98.2462 13.077 96.9349 14.9129 96.9349 18.7246C96.8824 20.3157 97.3545 23.8126 101.376 23.8126ZM25.9471 24.2322C25.5275 24.7743 24.461 25.8408 22.2054 25.8408C20.0548 25.8408 18.8833 25.0715 18.3588 23.3405C18.1315 22.6936 18.1315 21.3298 18.1315 20.543C18.1315 18.3574 18.1315 16.574 18.2014 14.4933V13.5316H16.3481V12.9896C17.0475 12.6924 17.5895 12.4126 18.0791 12.0279C19.1456 11.1887 19.845 10.1921 20.6318 8.70586H21.2088V11.7832H25.8947V13.5141H21.2088V20.7528C21.2088 22.9384 21.6284 24.1273 23.6392 24.1273C24.6008 24.1273 25.2478 23.8301 25.5975 23.5853L25.9471 24.2322Z" fill="white"/>
<path d="M91.6721 37.1709C91.4448 37.1709 91.13 37.2408 90.9727 37.3982C90.7803 37.5206 90.7803 37.6954 90.7803 37.8178C90.7803 38.0451 90.8503 38.2375 91.0076 38.7096L92.319 42.1366C92.5113 42.6786 92.6687 43.0982 92.7386 43.378L94.3472 38.6921C94.5395 38.15 94.5745 38.0451 94.5745 37.8004C94.5745 37.678 94.5046 37.5731 94.3822 37.4507C94.1898 37.3283 93.9625 37.2234 93.6828 37.2234V36.6813C93.8751 36.6813 94.2598 36.6813 94.4521 36.7513C94.6444 36.7513 94.9941 36.8212 95.2914 36.8212C95.8684 36.8212 96.7076 36.7513 97.0573 36.7513V37.2933C96.83 37.3632 96.288 37.2234 95.8159 38.6046L92.4414 47.6092C91.9693 48.9206 91.3224 50.5292 89.0144 50.5292C88.0527 50.5292 87.4058 50.3019 86.8638 49.8298V49.6025L87.703 48.6059H87.9303C88.1576 49.1479 88.6297 49.3752 89.3116 49.3752C90.3782 49.3752 90.8503 48.4135 91.5672 46.5252L91.7595 45.9832L88.927 38.5872C88.927 38.5172 88.857 38.3948 88.8046 38.2899C88.7346 38.0976 88.5773 37.7479 88.5773 37.7479C88.3849 37.3982 88.1052 37.2758 87.738 37.2758V36.7338C88.28 36.8037 89.2242 36.8037 89.6963 36.8037C89.9935 36.8037 90.4656 36.8037 90.9377 36.7338C91.165 36.7338 91.5846 36.6638 91.777 36.6638V37.1359H91.707V37.1709H91.6721ZM60.2696 37.0485C60.8466 37.1185 61.511 36.9786 62.1579 36.8562C62.7 36.7338 62.9972 36.6638 63.2245 36.5589L63.4168 36.6289V37.3982C63.8365 36.9786 64.4834 36.5589 65.4276 36.5589C66.127 36.5589 66.5466 36.7513 66.9662 37.101V37.3982L66.2668 38.7795H65.9171C65.6898 38.3599 65.2702 38.0102 64.431 38.0102C64.0813 38.0102 63.784 38.1326 63.4693 38.3074V42.766C63.4693 43.955 63.5392 44.497 63.6616 44.7243C63.8889 45.074 64.6233 45.1439 65.0429 45.1439V45.616C64.4659 45.5461 63.3819 45.5461 62.665 45.5461C61.8257 45.5461 60.934 45.5461 60.2871 45.6685V45.1964C60.7592 45.1964 61.0564 45.004 61.2487 44.8467C61.546 44.5494 61.546 43.85 61.546 42.2939V39.7936C61.546 38.727 61.546 38.255 61.3536 38.0277C61.2313 37.8353 60.8816 37.7304 60.357 37.7304V37.0835H60.2696V37.0485ZM20.7892 45.651C18.2889 45.651 16.8202 44.8816 16.2782 43.2206C15.9809 42.3813 15.9809 41.3323 15.9809 40.493V35.7546C15.9809 34.3384 15.911 34.0936 15.6313 33.8663C15.5089 33.7439 15.2116 33.639 14.792 33.5691V33.097C15.369 33.1669 16.4006 33.2194 16.9776 33.2194C17.9742 33.2194 18.5862 33.2194 19.2331 33.097V33.639C18.8135 33.639 18.5337 33.7614 18.2714 33.9887C17.9742 34.2859 17.9742 34.828 17.9742 36.3666V40.5629C17.9742 43.0632 18.2015 44.6718 20.999 44.6718C23.849 44.6718 24.0239 43.0108 24.0239 40.4755V35.8596C24.0239 34.4433 23.954 34.1985 23.6742 33.9712C23.4819 33.8488 23.2021 33.7439 22.8349 33.674V33.2019C23.377 33.2019 24.0763 33.2718 24.7932 33.2718C25.4402 33.2718 26.1046 33.2718 26.8739 33.1494V33.6915C26.4543 33.6915 26.1745 33.8138 25.9122 34.0411C25.615 34.3384 25.615 34.8804 25.615 36.4191V39.9859C25.615 41.105 25.615 42.3639 25.2653 43.3605C24.7058 44.8816 23.2721 45.651 20.7892 45.651ZM37.6969 45.1089C38.169 45.039 38.4662 44.9866 38.6935 44.7593C38.9908 44.462 38.9908 43.7626 38.9908 42.2065V39.7062C38.9908 38.6396 38.9908 38.0976 38.7984 37.8703C38.676 37.678 38.4487 37.5731 37.8018 37.5206V36.9786C38.1515 37.0485 39.1132 36.9086 39.8125 36.7862C40.1622 36.7163 40.5119 36.5939 40.7742 36.489L40.9665 36.6813C40.8966 37.2583 40.8966 38.5172 40.8966 40.1783V42.731C40.8966 43.92 40.9665 44.462 41.0889 44.6893C41.2813 44.9166 41.631 45.1089 42.1555 45.1089V45.5286C41.6834 45.4586 40.7742 45.4586 40.0049 45.4586C39.1132 45.4586 38.169 45.5286 37.6969 45.581V45.1089ZM39.8825 34.9678C39.1831 34.9678 38.7635 34.5482 38.7635 33.9013C38.7635 33.2543 39.2355 32.7823 39.9524 32.7823C40.6518 32.7823 41.0714 33.2019 41.0714 33.8488C41.054 34.5482 40.5819 34.9678 39.8825 34.9678ZM75.184 45.1089C75.6561 45.039 75.9533 44.9866 76.1806 44.7593C76.4779 44.462 76.4779 43.7626 76.4779 42.2065V39.7062C76.4779 38.6396 76.4779 38.0976 76.2855 37.8703C76.1632 37.678 75.9359 37.5731 75.2889 37.5206V36.9786C75.6386 37.0485 76.6003 36.9086 77.2997 36.7862C77.6494 36.7163 78.069 36.5939 78.2613 36.489L78.4537 36.6813C78.3837 37.2583 78.3837 38.5172 78.3837 40.1783V42.731C78.3837 43.92 78.4537 44.462 78.576 44.6893C78.7684 44.9166 79.1181 45.1089 79.6426 45.1089V45.5286C79.1006 45.4586 78.2263 45.4586 77.457 45.4586C76.5653 45.4586 75.6211 45.5286 75.149 45.581V45.1089H75.184ZM77.3696 34.9678C76.6702 34.9678 76.2506 34.5482 76.2506 33.9013C76.2506 33.2543 76.7227 32.7823 77.4395 32.7823C78.1389 32.7823 78.5586 33.2019 78.5586 33.8488C78.5586 34.5482 78.069 34.9678 77.3696 34.9678ZM67.9978 45.2313C67.9978 44.3396 67.9279 43.3954 67.8754 42.9234H68.4524C68.4524 43.3954 68.5748 43.8151 68.8021 44.0424C69.1518 44.462 69.5714 44.6194 70.3408 44.6194H70.4632C71.4248 44.6194 71.9494 44.1997 71.9494 43.378C71.9494 42.731 71.5297 42.4163 70.8303 41.9967L69.5889 41.2273C68.942 40.8077 68.1727 40.2307 68.1727 38.9718C68.1727 37.9752 68.5923 37.2059 69.4141 36.7862C69.9561 36.489 70.7954 36.489 71.18 36.489C71.8794 36.489 72.911 36.6114 73.488 36.7163C73.4181 36.9436 73.4181 37.5556 73.4181 37.7829C73.4181 37.9752 73.4181 38.7795 73.488 38.9718H72.911C72.911 38.6221 72.7886 38.2724 72.5613 37.9752C72.334 37.678 71.792 37.5031 71.1451 37.5031C70.2533 37.5031 69.7638 37.8528 69.7638 38.6221C69.7638 39.1991 70.2359 39.5138 70.6555 39.8111H70.7254L71.9144 40.5105C72.6837 40.9826 73.6803 41.577 73.6803 42.9408C73.6803 45.2488 71.5297 45.5985 70.3058 45.5985C69.6064 45.581 68.8371 45.5286 67.9978 45.2313ZM86.619 44.6543C86.3217 44.9516 85.6573 45.651 84.2411 45.651C82.8598 45.651 82.0905 45.1789 81.8107 44.0424C81.6883 43.6227 81.6883 42.731 81.6883 42.2764C81.6883 40.8602 81.6883 39.7237 81.6883 38.4298V37.8528H80.4994V37.5031C80.9714 37.3108 81.2687 37.1534 81.6184 36.9261C82.2653 36.3841 82.7374 35.7372 83.2794 34.7755H83.6991V36.7338H86.654V37.8004H83.6991V42.4163C83.6991 43.7976 83.9264 44.6019 85.2377 44.6019C85.8147 44.6019 86.2343 44.4096 86.4791 44.2522L86.619 44.6543ZM46.5092 36.6988C46.3168 36.6988 45.9322 36.6988 45.6699 36.7688C45.1978 36.7688 44.7083 36.8387 44.3586 36.8387C43.7116 36.8387 42.75 36.7688 42.4702 36.7688V37.3108C42.5926 37.3108 43.0472 37.2408 43.3619 37.8528C43.4843 38.0801 43.5543 38.2724 43.5892 38.3948C43.6592 38.5172 43.7116 38.6221 43.7116 38.6921L46.5616 45.8083L47.4533 45.616L50.6006 38.6221C50.6006 38.5522 50.6705 38.4997 50.723 38.3948C50.7929 38.3249 50.7929 38.2025 51.0202 37.8528C51.2125 37.5031 51.5972 37.3108 51.9119 37.3108V36.7688C51.5622 36.7688 50.7929 36.8387 50.181 36.8387C49.8837 36.8387 49.604 36.8387 49.2892 36.7688C49.0619 36.7688 48.7122 36.6988 48.45 36.6988V37.1709C48.7472 37.1709 49.027 37.2933 49.1494 37.3982C49.2193 37.4681 49.3417 37.6255 49.3417 37.7479C49.3417 37.9402 49.2717 38.0976 49.1144 38.6396L47.3834 42.8359C47.3135 42.6086 47.1911 42.2589 47.0337 41.7694L45.8448 38.6221C45.6524 38.15 45.6175 37.9752 45.6175 37.7304C45.6175 37.608 45.6175 37.5031 45.7398 37.4332C45.9322 37.2408 46.2119 37.1359 46.5092 37.1359V36.6638V36.6988ZM27.1362 37.0485C27.6083 37.1185 28.2552 37.0485 28.9021 36.9261C29.4441 36.8037 29.6714 36.7338 30.0911 36.5764L30.2834 36.6988V37.3982C30.703 37.0485 31.6647 36.5589 32.8362 36.5589C34.4448 36.5589 35.4414 37.3283 35.7561 38.6396C35.826 38.9893 35.8785 39.7586 35.8785 40.2482V42.801C35.8785 44.2172 35.9484 44.6369 36.2282 44.9516C36.3506 45.074 36.7003 45.1789 37.0675 45.1789V45.5985C36.4905 45.5985 35.4589 45.5286 34.8819 45.5286C34.0426 45.5286 33.1509 45.5985 32.6963 45.651V45.2313C33.1159 45.1614 33.3957 45.039 33.588 44.9341C33.8153 44.7068 33.8852 44.1648 33.9377 43.0982C33.9377 42.7485 33.9377 42.1016 33.9377 41.5596C33.9377 40.9126 33.9377 40.1783 33.8678 39.5488C33.7454 38.4298 33.1684 37.8878 32.0319 37.8878C31.2625 37.8878 30.7205 38.0801 30.3708 38.2375V42.8884C30.3708 44.3046 30.4408 44.7243 30.7205 45.039C30.8429 45.1614 31.1926 45.2663 31.5598 45.2663V45.6859C30.7905 45.4936 29.8987 45.4936 29.3043 45.4936C28.1153 45.4936 27.7656 45.4936 27.1187 45.616V45.1964C27.4684 45.1964 27.888 45.074 28.0803 44.8467C28.3076 44.5494 28.3776 43.7801 28.3776 42.2939V39.7936C28.3776 38.727 28.3776 38.255 28.1852 38.0277C28.0629 37.8353 27.7656 37.678 27.1886 37.7304V37.066H27.1362V37.0485ZM55.9509 45.651C53.2932 45.651 51.842 44.1123 51.842 41.3148C51.842 40.8427 51.9644 36.5065 55.9859 36.5065C57.1748 36.5065 58.2414 36.9786 58.7135 37.8178C59.2555 38.6571 59.2905 39.4789 59.2905 40.1958V40.7378H53.7828C53.7828 41.2099 53.8527 41.577 53.9052 41.8568C54.2024 43.5878 55.1466 44.4096 56.8251 44.4096C57.7868 44.4096 58.3638 44.2172 58.9058 43.8675L59.1331 44.2872C58.5736 45.074 57.3846 45.651 55.9509 45.651ZM53.8178 39.7237H57.2448C57.2448 38.6571 57.0524 37.4681 55.5138 37.4681C54.1675 37.5381 53.8877 38.8145 53.8178 39.7237Z" fill="white"/>
</g>
<defs>
<clipPath id="clip0_205_3912">
<rect width="114" height="47.908" fill="white" transform="translate(0 0.750366)"/>
</clipPath>
</defs>
</svg>
