<svg width="206" height="44" viewBox="0 0 206 44" fill="none" xmlns="http://www.w3.org/2000/svg">
<path fill-rule="evenodd" clip-rule="evenodd" d="M89.3116 43.1948H90.5027V0.331055H89.3116V43.1948Z" fill="#9D5DA3"/>
<path fill-rule="evenodd" clip-rule="evenodd" d="M59.4019 0.332031L41.8911 43.1958H43.0821L60.5945 0.332031H59.4019Z" fill="#9D5DA3"/>
<path fill-rule="evenodd" clip-rule="evenodd" d="M29.5372 43.1948H30.7458V0.331055H29.5372V43.1948Z" fill="#9D5DA3"/>
<path fill-rule="evenodd" clip-rule="evenodd" d="M4.1336 43.1948H5.32621V0.331055H4.1336V43.1948Z" fill="#9D5DA3"/>
<path fill-rule="evenodd" clip-rule="evenodd" d="M61.7285 5.89876L76.961 43.1965H78.152L62.324 4.43945L61.7285 5.89876Z" fill="#9D5DA3"/>
<path fill-rule="evenodd" clip-rule="evenodd" d="M8.85596 22.3839H26.0091V21.1991H8.85596V22.3839Z" fill="#9D5DA3"/>
<path fill-rule="evenodd" clip-rule="evenodd" d="M52.2679 29.4644L51.7251 30.6655H68.3354L67.7894 29.4644H52.2679Z" fill="#9D5DA3"/>
<path fill-rule="evenodd" clip-rule="evenodd" d="M93.4468 43.1948H94.6378V0.331055H93.4468V43.1948ZM85.1782 43.1948H86.3692V0.331055H85.1782V43.1948ZM63.5342 0.331055L46.0266 43.1948H47.2352L50.6374 34.8426H69.4046L72.826 43.1948H74.0154L60.6588 10.3702L64.1967 1.72417L81.0928 43.1948H82.2855L64.7938 0.331055H63.5342ZM60.0649 11.8812L65.5745 25.3555H54.6015L60.0649 11.8812ZM54.0571 26.558H66.0534L68.9272 33.6915H51.1307L54.0571 26.558ZM55.2658 0.331055L37.7566 43.1948H38.9476L56.4568 0.331055H55.2658ZM33.6739 43.1948H34.8825V0.331055H33.6739V43.1948ZM25.404 0.331055V16.9677H9.46103V0.331055H8.27002V43.1948H9.46103V26.5581H25.404V43.1948H26.6126V0.331055H25.404ZM9.46091 25.3555H25.4023V18.2236H9.46091V25.3555ZM0 43.1948H1.18942V0.331055H0V43.1948Z" fill="#3A8DC7"/>
<path fill-rule="evenodd" clip-rule="evenodd" d="M111.914 25.0723V21.6597H108.032V25.0723H106.982V17.3867H108.032V20.6718H111.914V17.3867H112.964V25.0723H111.914Z" fill="black"/>
<path fill-rule="evenodd" clip-rule="evenodd" d="M116.665 25.2343C115.464 25.2343 114.734 24.3254 114.734 23.1422V19.8604H115.743V22.9904C115.743 23.7072 116.064 24.3351 116.91 24.3351C117.726 24.3351 118.133 23.7927 118.133 23.0017V19.8604H119.142V24.1091C119.142 24.5208 119.173 24.8872 119.195 25.0712H118.229C118.208 24.9518 118.188 24.6612 118.188 24.4449C117.908 24.9873 117.265 25.2343 116.665 25.2343Z" fill="black"/>
<path fill-rule="evenodd" clip-rule="evenodd" d="M120.859 25.0722V19.8597H121.823V20.5523C122.146 19.9792 122.787 19.708 123.388 19.708C124.031 19.708 124.654 20.0212 124.933 20.6927C125.34 19.9453 126.005 19.708 126.659 19.708C127.558 19.708 128.439 20.3263 128.439 21.6903V25.0722H127.441V21.8001C127.441 21.1173 127.109 20.6055 126.348 20.6055C125.641 20.6055 125.157 21.1705 125.157 21.9196V25.0722H124.151V21.8001C124.151 21.1286 123.827 20.6055 123.056 20.6055C122.339 20.6055 121.855 21.1479 121.855 21.9309V25.0722H120.859Z" fill="black"/>
<path fill-rule="evenodd" clip-rule="evenodd" d="M133.081 22.8402V22.6013L131.506 22.8402C131.076 22.9048 130.755 23.155 130.755 23.6199C130.755 24.0105 131.076 24.3802 131.59 24.3802C132.417 24.3802 133.081 23.9783 133.081 22.8402ZM131.292 22.0928L132.686 21.8862C132.995 21.8426 133.081 21.6812 133.081 21.4956C133.081 20.9871 132.749 20.5641 131.967 20.5641C131.258 20.5641 130.862 21.0081 130.797 21.615L129.833 21.3874C129.94 20.3898 130.83 19.6973 131.945 19.6973C133.49 19.6973 134.091 20.5867 134.091 21.6037V24.2172C134.091 24.6725 134.132 24.9436 134.154 25.0728H133.168C133.147 24.9436 133.115 24.7483 133.115 24.369C132.888 24.737 132.374 25.2358 131.451 25.2358C130.401 25.2358 129.726 24.4981 129.726 23.6748C129.726 22.7418 130.401 22.222 131.292 22.0928Z" fill="black"/>
<path fill-rule="evenodd" clip-rule="evenodd" d="M136.664 25.0722H135.656V19.8597H136.643V20.6055C137.018 19.9566 137.628 19.708 138.227 19.708C139.462 19.708 140.074 20.6055 140.074 21.7662V25.0722H139.066V21.9422C139.066 21.2125 138.765 20.6281 137.866 20.6281C137.072 20.6281 136.664 21.269 136.664 22.06V25.0722Z" fill="black"/>
<path fill-rule="evenodd" clip-rule="evenodd" d="M141.306 22.4062H144.21V21.5167H141.306V22.4062Z" fill="black"/>
<path fill-rule="evenodd" clip-rule="evenodd" d="M145.179 21.2238C145.179 18.6555 147.066 17.2236 148.952 17.2236C150.689 17.2236 151.912 18.1777 152.298 19.6628L151.323 20.0099C151.032 18.8508 150.197 18.2019 148.952 18.2019C147.569 18.2019 146.25 19.2205 146.25 21.2238C146.25 23.2287 147.569 24.2602 148.952 24.2602C150.25 24.2602 151.066 23.4693 151.375 22.4167L152.309 22.7638C151.901 24.207 150.7 25.2337 148.952 25.2337C146.991 25.2337 145.179 23.7937 145.179 21.2238Z" fill="black"/>
<path fill-rule="evenodd" clip-rule="evenodd" d="M156.856 21.9304C156.833 21.1814 156.353 20.5971 155.441 20.5971C154.593 20.5971 154.079 21.2573 154.036 21.9304H156.856ZM157.874 23.5867C157.585 24.51 156.757 25.2365 155.559 25.2365C154.175 25.2365 152.963 24.2179 152.963 22.4486C152.963 20.815 154.134 19.6963 155.427 19.6963C157.017 19.6963 157.906 20.8037 157.906 22.4293C157.906 22.5584 157.893 22.6891 157.885 22.7537H154.004C154.027 23.6868 154.691 24.3357 155.559 24.3357C156.396 24.3357 156.814 23.8692 157.006 23.2848L157.874 23.5867Z" fill="black"/>
<path fill-rule="evenodd" clip-rule="evenodd" d="M160.201 25.0722H159.194V19.8597H160.181V20.6055C160.556 19.9566 161.166 19.708 161.764 19.708C163 19.708 163.611 20.6055 163.611 21.7662V25.0722H162.604V21.9422C162.604 21.2125 162.302 20.6281 161.403 20.6281C160.61 20.6281 160.201 21.269 160.201 22.06V25.0722Z" fill="black"/>
<path fill-rule="evenodd" clip-rule="evenodd" d="M166.572 19.8591H167.686V20.7792H166.572V23.4896C166.572 23.9658 166.765 24.2047 167.29 24.2047C167.418 24.2047 167.601 24.1854 167.686 24.1628V25.0296C167.601 25.0635 167.343 25.1281 167.001 25.1281C166.121 25.1281 165.563 24.5857 165.563 23.643V20.7792H164.578V19.8591H164.855C165.413 19.8591 165.649 19.512 165.649 19.0584V18.2109H166.572V19.8591Z" fill="black"/>
<path fill-rule="evenodd" clip-rule="evenodd" d="M172.448 21.9304C172.426 21.1814 171.944 20.597 171.032 20.597C170.186 20.597 169.672 21.2573 169.627 21.9304H172.448ZM173.467 23.5867C173.177 24.51 172.35 25.2365 171.152 25.2365C169.768 25.2365 168.556 24.2179 168.556 22.4486C168.556 20.815 169.725 19.6963 171.02 19.6963C172.61 19.6963 173.499 20.8037 173.499 22.4293C173.499 22.5584 173.488 22.6891 173.478 22.7537H169.597C169.618 23.6868 170.284 24.3357 171.152 24.3357C171.987 24.3357 172.405 23.8692 172.599 23.2848L173.467 23.5867Z" fill="black"/>
<path fill-rule="evenodd" clip-rule="evenodd" d="M177.648 20.8883C177.499 20.8657 177.349 20.856 177.21 20.856C176.361 20.856 175.794 21.3128 175.794 22.4622V25.0741H174.787V19.8584H175.772V20.7704C176.148 19.9681 176.79 19.7744 177.316 19.7744C177.456 19.7744 177.595 19.7938 177.648 19.8051V20.8883Z" fill="black"/>
<path fill-rule="evenodd" clip-rule="evenodd" d="M182.141 21.9304C182.121 21.1814 181.638 20.5971 180.727 20.5971C179.879 20.5971 179.365 21.2573 179.322 21.9304H182.141ZM183.16 23.5867C182.871 24.51 182.042 25.2365 180.845 25.2365C179.461 25.2365 178.249 24.2179 178.249 22.4486C178.249 20.815 179.419 19.6963 180.716 19.6963C182.303 19.6963 183.192 20.8037 183.192 22.4293C183.192 22.5584 183.179 22.6891 183.171 22.7537H179.29C179.312 23.6868 179.976 24.3357 180.845 24.3357C181.682 24.3357 182.1 23.8692 182.293 23.2848L183.16 23.5867Z" fill="black"/>
<path fill-rule="evenodd" clip-rule="evenodd" d="M186.592 24.3139C187.514 24.3139 188.083 23.5019 188.083 22.4284C188.083 21.3549 187.525 20.6172 186.604 20.6172C185.681 20.6172 185.08 21.3775 185.08 22.4494C185.08 23.5229 185.628 24.3139 186.592 24.3139ZM188.09 24.28C187.846 24.7804 187.3 25.213 186.493 25.213C184.983 25.213 184.051 23.9991 184.051 22.4494C184.051 20.9755 185.037 19.718 186.493 19.718C187.407 19.718 187.9 20.1732 188.072 20.5962V17.2256H189.069V24.1088C189.069 24.606 189.112 24.987 189.121 25.0726H188.147C188.125 24.9531 188.09 24.6835 188.09 24.3687V24.28Z" fill="black"/>
<path fill-rule="evenodd" clip-rule="evenodd" d="M110.701 6.89129C110.648 6.53292 110.358 5.92596 109.437 5.92596C108.804 5.92596 108.397 6.32791 108.397 6.75085C108.397 7.12052 108.621 7.39172 109.146 7.48696L110.166 7.68229C111.613 7.95348 112.363 8.89622 112.363 9.99231C112.363 11.1949 111.367 12.4202 109.555 12.4202C107.454 12.4202 106.552 11.0416 106.445 9.95841L108 9.57906C108.065 10.2861 108.536 10.9011 109.576 10.9011C110.241 10.9011 110.648 10.5767 110.648 10.0989C110.648 9.70981 110.337 9.42731 109.833 9.33207L108.795 9.13674C107.507 8.88492 106.724 8.01805 106.724 6.87999C106.724 5.42876 107.99 4.41016 109.448 4.41016C111.345 4.41016 112.065 5.55952 112.224 6.45705L110.701 6.89129Z" fill="black"/>
<path fill-rule="evenodd" clip-rule="evenodd" d="M115.506 6.87079H116.545V8.31234H115.506V10.3286C115.506 10.7725 115.739 10.8903 116.095 10.8903C116.268 10.8903 116.427 10.8597 116.525 10.8387V12.2043C116.461 12.235 116.192 12.3529 115.675 12.3529C114.574 12.3529 113.897 11.6926 113.897 10.6191V8.31234H112.953V6.87079H113.221C113.78 6.87079 114.047 6.49144 114.047 5.99101V5.29688H115.506V6.87079Z" fill="black"/>
<path fill-rule="evenodd" clip-rule="evenodd" d="M120.642 10.1431V9.90418L119.634 10.0672C119.291 10.1205 119.034 10.2835 119.034 10.6629C119.034 10.9454 119.216 11.2166 119.666 11.2166C120.148 11.2166 120.642 10.9777 120.642 10.1431ZM119.002 9.14556L120.255 8.95023C120.543 8.90665 120.642 8.7662 120.642 8.58218C120.642 8.26739 120.374 7.9962 119.86 7.9962C119.291 7.9962 118.98 8.38685 118.946 8.7888L117.533 8.49501C117.597 7.725 118.304 6.70801 119.871 6.70801C121.597 6.70801 122.229 7.68303 122.229 8.7888V11.4217C122.229 11.8446 122.281 12.203 122.293 12.2563H120.824C120.813 12.2127 120.771 12.019 120.771 11.6493C120.492 12.1045 119.978 12.408 119.27 12.408C118.1 12.408 117.425 11.6283 117.425 10.7711C117.425 9.8171 118.122 9.27631 119.002 9.14556Z" fill="black"/>
<path fill-rule="evenodd" clip-rule="evenodd" d="M125.232 12.2558H123.602V6.86896H125.179V7.48884C125.466 6.97711 126.122 6.72852 126.669 6.72852C128.008 6.72852 128.608 7.69385 128.608 8.87388V12.2558H126.98V9.15638C126.98 8.6269 126.7 8.22495 126.111 8.22495C125.575 8.22495 125.232 8.6269 125.232 9.16768V12.2558Z" fill="black"/>
<path fill-rule="evenodd" clip-rule="evenodd" d="M131.858 8.25625V12.258H130.228V8.25625H129.382V6.8712H130.228V6.40468C130.228 5.16814 130.967 4.32227 132.267 4.32227C132.599 4.32227 132.888 4.36747 133.038 4.44334V5.78641C132.953 5.76381 132.813 5.73314 132.556 5.73314C132.267 5.73314 131.858 5.86228 131.858 6.45956V6.8712H133.017V8.25625H131.858Z" fill="black"/>
<path fill-rule="evenodd" clip-rule="evenodd" d="M137.446 9.55684C137.446 8.648 136.866 8.22506 136.244 8.22506C135.634 8.22506 135.043 8.648 135.043 9.55684C135.043 10.4592 135.634 10.9031 136.244 10.9031C136.866 10.9031 137.446 10.4673 137.446 9.55684ZM139.076 9.55686C139.076 11.226 137.842 12.419 136.244 12.419C134.658 12.419 133.415 11.226 133.415 9.55686C133.415 7.88932 134.658 6.70605 136.244 6.70605C137.842 6.70605 139.076 7.88932 139.076 9.55686Z" fill="black"/>
<path fill-rule="evenodd" clip-rule="evenodd" d="M143.516 8.49589C143.334 8.4523 143.161 8.441 143.002 8.441C142.347 8.441 141.756 8.83166 141.756 9.90515V12.2571H140.128V6.87031H141.702V7.59512C141.982 6.98816 142.658 6.81543 143.085 6.81543C143.248 6.81543 143.409 6.83803 143.516 6.87031V8.49589Z" fill="black"/>
<path fill-rule="evenodd" clip-rule="evenodd" d="M146.893 10.9011C147.525 10.9011 148.093 10.4459 148.093 9.55646C148.093 8.65731 147.525 8.22468 146.893 8.22468C146.261 8.22468 145.692 8.65731 145.692 9.55646C145.692 10.4459 146.261 10.9011 146.893 10.9011ZM149.681 11.2918C149.681 11.7793 149.714 12.1377 149.724 12.2555H148.159C148.148 12.1909 148.116 11.952 148.116 11.7357C147.868 12.1054 147.332 12.3766 146.69 12.3766C145.189 12.3766 144.053 11.2046 144.053 9.54677C144.053 7.94218 145.124 6.73955 146.636 6.73955C147.548 6.73955 147.943 7.08662 148.073 7.29163V4.41016H149.681V11.2918Z" fill="black"/>
<path fill-rule="evenodd" clip-rule="evenodd" d="M153.833 9.48093V4.57031H155.526V9.34049C155.526 10.2719 156.041 10.7384 156.845 10.7384C157.65 10.7384 158.164 10.2719 158.164 9.34049V4.57031H159.855V9.48093C159.855 11.41 158.518 12.4286 156.845 12.4286C155.172 12.4286 153.833 11.41 153.833 9.48093Z" fill="black"/>
<path fill-rule="evenodd" clip-rule="evenodd" d="M162.914 12.2558H161.284V6.86896H162.86V7.48884C163.149 6.97711 163.805 6.72852 164.35 6.72852C165.691 6.72852 166.291 7.69385 166.291 8.87388V12.2558H164.662V9.15638C164.662 8.6269 164.383 8.22495 163.794 8.22495C163.257 8.22495 162.914 8.6269 162.914 9.16768V12.2558Z" fill="black"/>
<path fill-rule="evenodd" clip-rule="evenodd" d="M167.665 12.2556H169.295V6.86877H167.665V12.2556ZM168.469 4.25684C169.006 4.25684 169.434 4.69108 169.434 5.22378C169.434 5.75488 169.006 6.18751 168.469 6.18751C167.955 6.18751 167.526 5.75488 167.526 5.22378C167.526 4.69108 167.955 4.25684 168.469 4.25684Z" fill="black"/>
<path fill-rule="evenodd" clip-rule="evenodd" d="M173.937 12.256H172.297L170.112 6.86914H171.879L173.11 10.2188L174.247 6.86914H175.965L173.937 12.256Z" fill="black"/>
<path fill-rule="evenodd" clip-rule="evenodd" d="M179.996 8.91863C179.974 8.50699 179.698 8.00818 178.925 8.00818C178.237 8.00818 177.895 8.51668 177.863 8.91863H179.996ZM181.476 10.7072C181.219 11.6386 180.371 12.4199 179.021 12.4199C177.552 12.4199 176.243 11.3577 176.243 9.54815C176.243 7.81281 177.52 6.70703 178.901 6.70703C180.555 6.70703 181.572 7.73694 181.572 9.47067C181.572 9.69828 181.551 9.94849 181.54 9.98078H177.831C177.863 10.5877 178.409 11.022 179.041 11.022C179.631 11.022 179.963 10.7395 180.114 10.3165L181.476 10.7072Z" fill="black"/>
<path fill-rule="evenodd" clip-rule="evenodd" d="M186.011 8.49589C185.829 8.4523 185.656 8.441 185.497 8.441C184.845 8.441 184.252 8.83166 184.252 9.90515V12.2571H182.623V6.87031H184.199V7.59512C184.478 6.98816 185.154 6.81543 185.581 6.81543C185.743 6.81543 185.906 6.83803 186.011 6.87031V8.49589Z" fill="black"/>
<path fill-rule="evenodd" clip-rule="evenodd" d="M187.985 10.4789C188.007 10.8486 188.264 11.2054 188.821 11.2054C189.24 11.2054 189.442 10.9778 189.442 10.7388C189.442 10.5451 189.315 10.3805 188.919 10.2949L188.307 10.1545C187.17 9.90427 186.72 9.25372 186.72 8.49501C186.72 7.50869 187.578 6.70801 188.767 6.70801C190.312 6.70801 190.847 7.68303 190.902 8.31098L189.549 8.56119C189.508 8.20282 189.281 7.89934 188.789 7.89934C188.48 7.89934 188.211 8.08337 188.211 8.36587C188.211 8.59348 188.393 8.72423 188.628 8.7662L189.337 8.90665C190.44 9.13426 190.977 9.80741 190.977 10.5984C190.977 11.5218 190.279 12.4193 188.853 12.4193C187.182 12.4193 186.645 11.3248 186.602 10.7275L187.985 10.4789Z" fill="black"/>
<path fill-rule="evenodd" clip-rule="evenodd" d="M192.039 12.2556H193.669V6.86877H192.039V12.2556ZM192.843 4.25684C193.38 4.25684 193.808 4.69108 193.808 5.22378C193.808 5.75488 193.38 6.18751 192.843 6.18751C192.328 6.18751 191.9 5.75488 191.9 5.22378C191.9 4.69108 192.328 4.25684 192.843 4.25684Z" fill="black"/>
<path fill-rule="evenodd" clip-rule="evenodd" d="M197.047 6.87079H198.086V8.31234H197.047V10.3286C197.047 10.7725 197.28 10.8903 197.636 10.8903C197.808 10.8903 197.968 10.8597 198.065 10.8387V12.2043C198.001 12.235 197.733 12.3529 197.217 12.3529C196.114 12.3529 195.439 11.6926 195.439 10.6191V8.31234H194.494V6.87079H194.762C195.321 6.87079 195.589 6.49144 195.589 5.99101V5.29688H197.047V6.87079Z" fill="black"/>
<path fill-rule="evenodd" clip-rule="evenodd" d="M199.77 14.3271L200.982 11.5312L198.739 6.86914H200.564L201.862 9.75384L203.04 6.86914H204.766L201.485 14.3271H199.77Z" fill="black"/>
<path fill-rule="evenodd" clip-rule="evenodd" d="M108.579 34.9136H111.195L109.875 31.4671L108.579 34.9136ZM111.569 35.8999H108.204L107.399 38.0453H106.273L109.297 30.3613H110.509L113.534 38.0453H112.396L111.569 35.8999Z" fill="black"/>
<path fill-rule="evenodd" clip-rule="evenodd" d="M117.309 33.8625C117.157 33.8415 117.008 33.8302 116.868 33.8302C116.02 33.8302 115.453 34.2855 115.453 35.4348V38.0467H114.444V32.8326H115.431V33.7431C115.808 32.9408 116.45 32.7471 116.975 32.7471C117.114 32.7471 117.254 32.7681 117.309 32.7794V33.8625Z" fill="black"/>
<path fill-rule="evenodd" clip-rule="evenodd" d="M119.999 32.8327H121.114V33.7545H119.999V36.4632C119.999 36.9395 120.193 37.1784 120.718 37.1784C120.846 37.1784 121.029 37.1574 121.114 37.1364V38.0033C121.029 38.0355 120.771 38.1001 120.429 38.1001C119.549 38.1001 118.99 37.5577 118.99 36.615V33.7545H118.005V32.8327H118.283C118.84 32.8327 119.077 32.4857 119.077 32.0304V31.1846H119.999V32.8327Z" fill="black"/>
<path fill-rule="evenodd" clip-rule="evenodd" d="M122.455 38.0449H123.453V32.8324H122.455V38.0449ZM122.947 30.1221C123.356 30.1221 123.677 30.4498 123.677 30.8598C123.677 31.2601 123.356 31.5862 122.947 31.5862C122.551 31.5862 122.229 31.2601 122.229 30.8598C122.229 30.4498 122.551 30.1221 122.947 30.1221Z" fill="black"/>
<path fill-rule="evenodd" clip-rule="evenodd" d="M129.425 30.1025C129.832 30.1025 130.154 30.4254 130.154 30.8386C130.154 31.239 129.832 31.5635 129.425 31.5635C129.029 31.5635 128.706 31.239 128.706 30.8386C128.706 30.4254 129.029 30.1025 129.425 30.1025ZM127.774 30.2736V31.1857C127.721 31.1631 127.592 31.1211 127.332 31.1211C126.98 31.1211 126.519 31.2809 126.519 31.9993V32.8322H129.926V38.0463H128.928V33.7556H126.519V38.0463H125.48V33.7556H124.525V32.8322H125.48V31.9541C125.48 30.7966 126.241 30.1671 127.174 30.1671C127.517 30.1671 127.729 30.2429 127.774 30.2736Z" fill="black"/>
<path fill-rule="evenodd" clip-rule="evenodd" d="M132.245 35.4336C132.245 36.6265 132.986 37.2658 133.821 37.2658C134.787 37.2658 135.14 36.6039 135.259 36.1923L136.147 36.5829C135.901 37.3303 135.162 38.2085 133.821 38.2085C132.32 38.2085 131.214 37.0155 131.214 35.4336C131.214 33.808 132.343 32.6699 133.808 32.6699C135.183 32.6699 135.89 33.5368 136.106 34.3278L135.194 34.7184C135.066 34.2083 134.69 33.6127 133.808 33.6127C132.997 33.6127 132.245 34.2196 132.245 35.4336Z" fill="black"/>
<path fill-rule="evenodd" clip-rule="evenodd" d="M137.327 38.0449H138.325V32.8324H137.327V38.0449ZM137.822 30.1221C138.229 30.1221 138.55 30.4498 138.55 30.8598C138.55 31.2601 138.229 31.5862 137.822 31.5862C137.425 31.5862 137.102 31.2601 137.102 30.8598C137.102 30.4498 137.425 30.1221 137.822 30.1221Z" fill="black"/>
<path fill-rule="evenodd" clip-rule="evenodd" d="M143.076 35.8139V35.5766L141.501 35.8139C141.071 35.8801 140.749 36.127 140.749 36.592C140.749 36.9842 141.071 37.3523 141.585 37.3523C142.412 37.3523 143.076 36.9503 143.076 35.8139ZM141.285 35.0649L142.679 34.8582C142.99 34.8163 143.076 34.6532 143.076 34.4692C143.076 33.9607 142.744 33.5378 141.96 33.5378C141.253 33.5378 140.856 33.9801 140.792 34.587L139.827 34.3627C139.934 33.3634 140.825 32.6709 141.94 32.6709C143.484 32.6709 144.084 33.5604 144.084 34.5774V37.1909C144.084 37.6461 144.127 37.9173 144.148 38.0464H143.163C143.14 37.9173 143.108 37.722 143.108 37.341C142.883 37.7107 142.369 38.2079 141.446 38.2079C140.396 38.2079 139.717 37.4701 139.717 36.6485C139.717 35.7138 140.396 35.194 141.285 35.0649Z" fill="black"/>
<path fill-rule="evenodd" clip-rule="evenodd" d="M145.65 38.0452H146.657V30.1982H145.65V38.0452Z" fill="black"/>
<path fill-rule="evenodd" clip-rule="evenodd" d="M151.161 38.0469H152.234V30.3613H151.161V38.0469Z" fill="black"/>
<path fill-rule="evenodd" clip-rule="evenodd" d="M155.064 38.0465H154.057V32.834H155.043V33.5814C155.418 32.9309 156.028 32.6807 156.627 32.6807C157.863 32.6807 158.474 33.5814 158.474 34.7405V38.0465H157.467V34.9164C157.467 34.1884 157.165 33.6024 156.265 33.6024C155.473 33.6024 155.064 34.2417 155.064 35.0327V38.0465Z" fill="black"/>
<path fill-rule="evenodd" clip-rule="evenodd" d="M161.434 32.8327H162.549V33.7545H161.434V36.4632C161.434 36.9395 161.626 37.1784 162.153 37.1784C162.281 37.1784 162.464 37.1574 162.549 37.1364V38.0033C162.464 38.0355 162.206 38.1001 161.864 38.1001C160.984 38.1001 160.425 37.5577 160.425 36.615V33.7545H159.44V32.8327H159.718C160.275 32.8327 160.512 32.4857 160.512 32.0304V31.1846H161.434V32.8327Z" fill="black"/>
<path fill-rule="evenodd" clip-rule="evenodd" d="M167.311 34.9025C167.288 34.1551 166.806 33.5691 165.895 33.5691C165.048 33.5691 164.533 34.2309 164.49 34.9025H167.311ZM168.329 36.5603C168.039 37.4821 167.213 38.2085 166.014 38.2085C164.63 38.2085 163.418 37.1899 163.418 35.4223C163.418 33.787 164.587 32.6699 165.882 32.6699C167.472 32.6699 168.361 33.7757 168.361 35.4013C168.361 35.532 168.35 35.6612 168.341 35.7257H164.459C164.48 36.6588 165.146 37.3093 166.014 37.3093C166.849 37.3093 167.268 36.8428 167.461 36.2568L168.329 36.5603Z" fill="black"/>
<path fill-rule="evenodd" clip-rule="evenodd" d="M169.648 38.0452H170.657V30.1982H169.648V38.0452Z" fill="black"/>
<path fill-rule="evenodd" clip-rule="evenodd" d="M172.371 38.0452H173.38V30.1982H172.371V38.0452Z" fill="black"/>
<path fill-rule="evenodd" clip-rule="evenodd" d="M175.095 38.0448H176.093V32.8323H175.095V38.0448ZM175.59 30.1221C175.997 30.1221 176.318 30.4498 176.318 30.8598C176.318 31.2601 175.997 31.5862 175.59 31.5862C175.192 31.5862 174.871 31.2601 174.871 30.8598C174.871 30.4498 175.192 30.1221 175.59 30.1221Z" fill="black"/>
<path fill-rule="evenodd" clip-rule="evenodd" d="M181.433 35.2713C181.433 34.2624 180.833 33.6022 179.964 33.6022C179.072 33.6022 178.473 34.2624 178.473 35.2713C178.473 36.2899 179.053 36.9405 179.964 36.9405C180.833 36.9405 181.433 36.2802 181.433 35.2713ZM178.407 38.0996C178.483 38.826 179.03 39.3781 179.812 39.3781C180.896 39.3781 181.39 38.8147 181.39 37.6879V36.9405C181.142 37.4167 180.585 37.7961 179.812 37.7961C178.441 37.7961 177.445 36.7452 177.445 35.2714C177.445 33.8621 178.398 32.7354 179.812 32.7354C180.606 32.7354 181.142 33.0388 181.399 33.5586V32.8322H182.397V37.6557C182.397 38.9777 181.754 40.2675 179.812 40.2675C178.527 40.2675 177.561 39.4443 177.434 38.3272L178.407 38.0996Z" fill="black"/>
<path fill-rule="evenodd" clip-rule="evenodd" d="M187.481 34.9025C187.459 34.1551 186.976 33.5691 186.065 33.5691C185.219 33.5691 184.705 34.2309 184.66 34.9025H187.481ZM188.5 36.5603C188.209 37.4821 187.384 38.2085 186.185 38.2085C184.801 38.2085 183.589 37.1899 183.589 35.4223C183.589 33.787 184.758 32.6699 186.054 32.6699C187.642 32.6699 188.532 33.7757 188.532 35.4013C188.532 35.532 188.521 35.6612 188.513 35.7257H184.63C184.652 36.6588 185.316 37.3093 186.185 37.3093C187.02 37.3093 187.438 36.8428 187.631 36.2568L188.5 36.5603Z" fill="black"/>
<path fill-rule="evenodd" clip-rule="evenodd" d="M190.827 38.0465H189.82V32.834H190.805V33.5814C191.182 32.9309 191.792 32.6807 192.392 32.6807C193.626 32.6807 194.237 33.5814 194.237 34.7405V38.0465H193.228V34.9164C193.228 34.1884 192.928 33.6024 192.028 33.6024C191.234 33.6024 190.827 34.2417 190.827 35.0327V38.0465Z" fill="black"/>
<path fill-rule="evenodd" clip-rule="evenodd" d="M196.446 35.4336C196.446 36.6265 197.185 37.2658 198.022 37.2658C198.988 37.2658 199.34 36.6039 199.459 36.1923L200.348 36.5829C200.102 37.3303 199.361 38.2085 198.022 38.2085C196.521 38.2085 195.415 37.0155 195.415 35.4336C195.415 33.808 196.543 32.6699 198.009 32.6699C199.384 32.6699 200.091 33.5368 200.306 34.3278L199.395 34.7184C199.267 34.2083 198.89 33.6127 198.009 33.6127C197.196 33.6127 196.446 34.2196 196.446 35.4336Z" fill="black"/>
<path fill-rule="evenodd" clip-rule="evenodd" d="M204.949 34.9025C204.927 34.1551 204.446 33.5691 203.533 33.5691C202.687 33.5691 202.173 34.2309 202.128 34.9025H204.949ZM205.968 36.5603C205.679 37.4821 204.85 38.2085 203.653 38.2085C202.269 38.2085 201.057 37.1899 201.057 35.4223C201.057 33.787 202.226 32.6699 203.524 32.6699C205.111 32.6699 206 33.7757 206 35.4013C206 35.532 205.989 35.6612 205.979 35.7257H202.098C202.12 36.6588 202.785 37.3093 203.653 37.3093C204.488 37.3093 204.906 36.8428 205.1 36.2568L205.968 36.5603Z" fill="black"/>
</svg>
