<svg width="198" height="124" viewBox="0 0 198 124" fill="none" xmlns="http://www.w3.org/2000/svg">
<path d="M6.09121 111V105.28H11.8512V103.06H6.09121V99.08H12.5112V96.82H3.69121V111H6.09121ZM15.58 105.06C15.66 104.02 16.5 102.9 17.96 102.9C19.56 102.9 20.32 103.92 20.36 105.06H15.58ZM20.62 107.6C20.3 108.56 19.58 109.3 18.18 109.3C16.74 109.3 15.58 108.24 15.52 106.76H22.64C22.66 106.72 22.7 106.4 22.7 106.02C22.7 102.94 20.94 100.96 17.94 100.96C15.48 100.96 13.2 103 13.2 106.08C13.2 109.38 15.54 111.3 18.18 111.3C20.52 111.3 22.06 109.92 22.58 108.22L20.62 107.6ZM27.217 111V101.26H24.917V111H27.217ZM24.557 97.84C24.557 98.68 25.237 99.34 26.057 99.34C26.897 99.34 27.577 98.68 27.577 97.84C27.577 97 26.897 96.32 26.057 96.32C25.237 96.32 24.557 97 24.557 97.84ZM35.25 106.18V104.12H29.61V106.18H35.25ZM40.2514 111V105.28H46.0114V103.06H40.2514V99.08H46.6714V96.82H37.8514V111H40.2514ZM49.7401 105.06C49.8201 104.02 50.6601 102.9 52.1201 102.9C53.7201 102.9 54.4801 103.92 54.5201 105.06H49.7401ZM54.7801 107.6C54.4601 108.56 53.7401 109.3 52.3401 109.3C50.9001 109.3 49.7401 108.24 49.6801 106.76H56.8001C56.8201 106.72 56.8601 106.4 56.8601 106.02C56.8601 102.94 55.1001 100.96 52.1001 100.96C49.6401 100.96 47.3601 103 47.3601 106.08C47.3601 109.38 49.7001 111.3 52.3401 111.3C54.6801 111.3 56.2201 109.92 56.7401 108.22L54.7801 107.6ZM61.3771 111V101.26H59.0771V111H61.3771ZM58.7171 97.84C58.7171 98.68 59.3971 99.34 60.2171 99.34C61.0571 99.34 61.7371 98.68 61.7371 97.84C61.7371 97 61.0571 96.32 60.2171 96.32C59.3971 96.32 58.7171 97 58.7171 97.84ZM78.4311 111V108.72H71.9311V96.82H69.5311V111H78.4311ZM82.7248 111V101.26H80.4248V111H82.7248ZM80.0648 97.84C80.0648 98.68 80.7448 99.34 81.5648 99.34C82.4048 99.34 83.0848 98.68 83.0848 97.84C83.0848 97 82.4048 96.32 81.5648 96.32C80.7448 96.32 80.0648 97 80.0648 97.84Z" fill="#3A8DC7"/>
<path fill-rule="evenodd" clip-rule="evenodd" d="M28.7697 39.5883L28.7698 39.5882C29.2135 39.2343 29.6571 38.8805 30.053 38.4791C31.2578 37.2582 32.4222 35.9956 33.5785 34.7277L33.6572 34.6416C34.2455 33.9981 34.8438 33.3436 35.1261 32.3451C34.8936 32.5633 34.6612 32.7803 34.4294 32.9967L34.4293 32.9967C32.0846 35.1857 29.806 37.3129 28.1705 40.0742C28.3673 39.9092 28.5685 39.7487 28.7697 39.5883ZM8.05327 52.8722L8.05307 52.8726L8.05302 52.8727C7.24991 54.7082 6.45141 56.5332 5.69312 58.3747C5.32973 59.2571 5.06071 60.1797 4.79221 61.1005L4.79219 61.1006C4.72542 61.3296 4.65868 61.5585 4.59052 61.7866C4.03636 63.6412 3.5012 65.5016 2.97176 67.3635L2.94139 67.4699C2.71015 68.279 2.47824 69.0905 2.75407 69.9518C2.78332 70.0438 2.62051 70.287 2.51197 70.3127C2.35639 70.3496 2.08052 70.306 2.01419 70.1988C1.90233 70.0172 1.87821 69.758 1.88002 69.5321C1.88941 68.3982 2.21139 67.3297 2.53307 66.2622L2.53317 66.2619L2.53319 66.2619C2.60403 66.0268 2.67485 65.7918 2.74232 65.5561C2.88366 65.0622 3.02328 64.5676 3.1629 64.073C3.62074 62.4513 4.07868 60.8291 4.59806 59.2274C4.93122 58.2001 5.3654 57.2043 5.79876 56.2104L5.79902 56.2098L5.79909 56.2097L5.79915 56.2095L5.79921 56.2094L5.79928 56.2092C5.90147 55.9749 6.00361 55.7406 6.10437 55.5061C6.50264 54.5792 6.91667 53.6591 7.33068 52.739L7.33082 52.7387L7.33085 52.7387C7.54424 52.2644 7.75763 51.7902 7.96886 51.3151C8.03325 51.1699 8.09099 51.0218 8.1532 50.8622C8.18361 50.7842 8.2151 50.7035 8.24895 50.619C8.18763 50.5983 8.13025 50.5761 8.07524 50.5548C7.96362 50.5117 7.86172 50.4723 7.7563 50.4567C5.69764 50.1518 3.97516 49.2046 2.53217 47.7188C2.49517 47.6808 2.45889 47.6418 2.4226 47.6028C2.32787 47.501 2.23304 47.3991 2.12514 47.3146C1.25643 46.6335 0.779094 45.6869 0.301344 44.7396C0.230922 44.5999 0.160491 44.4603 0.0887952 44.3215C-0.0242681 44.1031 -0.0592424 43.9066 0.165678 43.7561C0.408689 43.5938 0.56547 43.7504 0.694513 43.9424C0.746974 44.0211 0.794009 44.1059 0.829888 44.1934C1.58214 46.0419 3.03809 47.3055 4.54379 48.4691C5.6886 49.3533 7.09299 49.7227 8.59297 49.8253L8.99933 48.9357C9.37464 48.1138 9.74602 47.3005 10.1189 46.4879C10.1633 46.391 10.2066 46.2933 10.2498 46.1956L10.2498 46.1955C10.3713 45.9209 10.4929 45.6462 10.6423 45.3876C11.352 44.1595 11.8421 42.8401 12.3326 41.5194L12.3327 41.5193C12.4665 41.1591 12.6003 40.7988 12.7386 40.4402C13.0524 39.6272 13.398 38.8265 13.7436 38.0259L13.7436 38.0258C14.0423 37.3338 14.341 36.6419 14.6191 35.9419C14.9583 35.0884 15.2762 34.2264 15.5942 33.3643C15.8629 32.6356 16.1317 31.9069 16.4133 31.1832C16.9083 29.9117 17.415 28.6447 17.9216 27.3778L17.9217 27.3775L17.922 27.3767L17.9223 27.376L17.9226 27.3753L17.9229 27.3745L17.9232 27.3738C18.2591 26.5338 18.595 25.6938 18.9276 24.8524C19.071 24.4889 19.2066 24.1222 19.3422 23.7555L19.3423 23.7553L19.3423 23.7552L19.3424 23.755L19.3424 23.7549L19.3425 23.7548C19.4966 23.338 19.6507 22.9212 19.8164 22.5091C20.1928 21.5729 20.5736 20.6383 20.9544 19.7038C21.4745 18.4273 21.9945 17.1508 22.5037 15.87C22.7673 15.207 23.0086 14.5351 23.2498 13.8631C23.3963 13.4552 23.5428 13.0473 23.6943 12.6413C23.9659 11.9137 24.2412 11.1876 24.5165 10.4614L24.5166 10.461L24.5167 10.4607L24.5168 10.4603L24.517 10.46L24.5171 10.4596C24.7071 9.9586 24.897 9.45755 25.0857 8.95601C25.1252 8.85063 25.1442 8.73739 25.0577 8.55904C24.9715 8.67433 24.8864 8.79041 24.8013 8.90649L24.8012 8.90661C24.6147 9.16093 24.4282 9.4152 24.231 9.66091C24.0626 9.87034 23.8962 10.0816 23.7297 10.293C23.2465 10.9063 22.7631 11.5199 22.2323 12.089C21.3688 13.015 20.4806 13.9315 19.5079 14.7363C18.8066 15.3168 18.0303 15.8082 17.256 16.2983C17.0617 16.4213 16.8676 16.5443 16.6747 16.6685C14.8003 17.876 12.6898 18.1422 10.5223 18.2297C9.15738 18.2848 7.8163 18.1643 6.48034 17.9275C6.19205 17.8765 5.9099 17.7903 5.6277 17.7042L5.62767 17.7042C5.49964 17.6651 5.3716 17.626 5.24298 17.5902C5.15865 17.5666 5.0734 17.5452 4.98814 17.5238C4.7783 17.4711 4.56841 17.4184 4.37224 17.334C4.22601 17.2713 4.02099 17.0888 4.03214 16.9794C4.04601 16.8411 4.23535 16.6473 4.38038 16.6137C4.57334 16.5686 4.82328 16.6016 5.00238 16.693C6.11582 17.2607 7.32244 17.3803 8.53568 17.4757C10.6441 17.641 12.7229 17.4775 14.7436 16.8314C15.2357 16.6742 15.7009 16.4099 16.151 16.1471C17.4288 15.4013 18.702 14.6534 19.7314 13.5506C20.1498 13.1024 20.5861 12.67 21.0222 12.2377C21.6898 11.5761 22.3571 10.9148 22.9592 10.1978C23.8361 9.15353 24.6347 8.04253 25.4329 6.93218L25.4329 6.93217L25.4329 6.93215L25.433 6.93214L25.433 6.93211L25.433 6.93208L25.4333 6.93162C25.6675 6.60586 25.9016 6.28016 26.1377 5.95622C26.8954 4.91673 27.2997 3.71979 27.6129 2.48317C27.7414 1.97509 27.9075 1.47275 28.1035 0.986766C28.3326 0.418118 28.6854 0.221908 29.0641 0.3836C29.4654 0.555284 29.6044 0.944374 29.3761 1.48062C29.3029 1.65258 29.231 1.82568 29.1591 1.99894L29.1589 1.99931L29.1589 1.99933L29.1589 1.99935C28.8634 2.71102 28.5667 3.4255 28.1689 4.07557C27.5796 5.03857 27.1306 6.06353 26.6817 7.08816C26.4611 7.59159 26.2406 8.09494 26.0035 8.59083C25.3824 9.88961 24.9258 11.2476 24.4693 12.6051L24.4693 12.6052L24.4693 12.6053C24.1642 13.5125 23.8593 14.4195 23.5053 15.3086C23.2891 15.852 23.056 16.3886 22.823 16.9253C22.5799 17.485 22.3369 18.0448 22.1129 18.6121C21.67 19.7343 21.2409 20.862 20.8117 21.9898C20.5362 22.7138 20.2607 23.4377 19.9816 24.1602C19.8033 24.6217 19.6165 25.0799 19.4296 25.5381L19.4295 25.5386C19.3007 25.8544 19.172 26.1701 19.046 26.4869C18.8569 26.9627 18.667 27.4383 18.4772 27.9139C17.9138 29.3257 17.3503 30.7375 16.8032 32.1558C16.6175 32.6371 16.4507 33.1267 16.2839 33.6161L16.2839 33.6162C16.0111 34.4167 15.7386 35.2168 15.384 35.9789C14.5032 37.8713 13.7615 39.8164 13.0195 41.762L13.0195 41.7621L13.0194 41.7622L13.0194 41.7623L13.0194 41.7625L13.0193 41.7626C12.7995 42.3389 12.5797 42.9152 12.3563 43.4903C12.1808 43.9421 11.9619 44.3771 11.7431 44.8121L11.743 44.8121L11.743 44.8122C11.6281 45.0406 11.5132 45.269 11.4045 45.4999C10.7529 46.8831 10.1056 48.2684 9.45948 49.6543C9.44795 49.6788 9.45036 49.7101 9.45347 49.7506C9.45517 49.7727 9.45707 49.7974 9.45707 49.8253C10.2256 49.8353 10.9634 49.6951 11.6969 49.5032C15.3041 48.5588 18.6746 47.0626 21.7864 45.0164C23.1784 44.1013 24.4876 43.0524 25.784 42.002C26.1135 41.7353 26.3528 41.3476 26.5875 40.9675L26.5876 40.9674C26.6456 40.8734 26.7033 40.7799 26.7621 40.6888C28.1258 38.5723 29.6417 36.5775 31.4396 34.8131C32.5814 33.6928 33.7542 32.6039 34.9355 31.5257C35.1906 31.2931 35.5247 31.1148 35.8533 31.0058C36.2133 30.8868 36.4183 31.0875 36.3604 31.4609C36.3209 31.7161 36.2281 31.9723 36.1135 32.2054C35.553 33.3446 34.8882 34.4089 34.0024 35.3357C33.3368 36.0321 32.6919 36.7482 32.0469 37.4643L32.0465 37.4648L32.0464 37.4649L32.0463 37.4649L32.0463 37.465L32.0462 37.4651C31.7002 37.8492 31.3543 38.2333 31.0051 38.6144C30.8119 38.8254 30.6078 39.0313 30.3861 39.2115L30.0638 39.4735C29.0422 40.3036 28.0205 41.1339 26.9822 41.9427C26.371 42.419 26.0327 43.0828 25.6994 43.7368L25.6688 43.7967C24.5928 45.9057 24.0627 48.1348 24.3263 50.5215C24.4776 51.8943 25.3788 52.7146 26.7497 52.7491C28.4493 52.7924 29.9131 52.1172 31.2825 51.2276C31.9794 50.775 32.6311 50.2511 33.2823 49.7277L33.2823 49.7277C33.4876 49.5627 33.6927 49.3978 33.8993 49.2352C34.1776 49.0161 34.4493 48.7883 34.721 48.5604L34.7211 48.5603L34.7212 48.5603L34.7213 48.5602L34.7214 48.5601L34.7215 48.56C35.0906 48.2505 35.4597 47.9411 35.8451 47.6537C37.0154 46.781 37.9959 45.7168 38.9762 44.6527L38.9763 44.6526L38.9763 44.6525L38.9764 44.6524L38.9765 44.6523L38.9766 44.6522L38.9767 44.6521C39.2904 44.3117 39.604 43.9713 39.9239 43.6371C40.5175 43.017 41.1043 42.3802 41.6117 41.6899C41.9497 41.2299 42.2378 40.7329 42.5258 40.2358C42.6576 40.0085 42.7894 39.7811 42.9259 39.5573C42.9486 39.5202 42.9699 39.4804 42.9913 39.4404C43.0514 39.3281 43.1124 39.2143 43.206 39.1534C43.3239 39.0768 43.55 39.0422 43.6553 39.1079C43.7548 39.1697 43.8181 39.398 43.7909 39.5309C43.7662 39.6506 43.6931 39.7598 43.6196 39.8693L43.6196 39.8694L43.6196 39.8694L43.6195 39.8695L43.6195 39.8695L43.6195 39.8696C43.5845 39.9218 43.5494 39.974 43.5196 40.0275C43.2717 40.4705 43.0136 40.9089 42.7556 41.3474L42.7555 41.3474C42.1758 42.3326 41.596 43.3178 41.1305 44.3548C39.9869 46.9034 38.9485 49.5041 38.2674 52.2283C38.2486 52.3035 38.234 52.3795 38.2169 52.4681L38.2168 52.4685L38.2168 52.4686C38.2079 52.5148 38.1984 52.5645 38.1872 52.6192C38.2324 52.6313 38.2761 52.6414 38.3183 52.6511L38.3184 52.6512L38.3185 52.6512L38.3186 52.6512L38.3186 52.6512L38.3187 52.6512C38.414 52.6733 38.5016 52.6935 38.5816 52.7307C38.6603 52.767 38.7435 52.8406 38.777 52.9181C38.8768 53.1506 38.4574 53.7692 38.148 53.8661C37.8595 53.9567 37.6246 53.8274 37.5336 53.4434C37.4654 53.1552 37.4217 52.8266 37.4895 52.5462C37.7253 51.5734 37.9632 50.5953 38.2955 49.653C38.677 48.5695 39.0949 47.4989 39.5127 46.4284C39.6945 45.9627 39.8763 45.497 40.055 45.0303C40.0867 44.9475 40.115 44.8635 40.1536 44.7485L40.1537 44.7484L40.1538 44.7479L40.1539 44.7476L40.1539 44.7476C40.1763 44.681 40.2021 44.6042 40.2341 44.5113C40.1728 44.5484 40.1236 44.5751 40.0835 44.5968C40.018 44.6323 39.977 44.6545 39.948 44.6872C38.5165 46.302 36.9453 47.7618 35.2265 49.0668C34.694 49.4711 34.1739 49.8919 33.6538 50.3127L33.6536 50.3129L33.6534 50.313L33.6531 50.3132L33.6529 50.3134L33.6527 50.3135L33.6526 50.3136C33.0976 50.7627 32.5426 51.2117 31.9727 51.6406C30.8327 52.4987 29.5229 53.0456 28.1475 53.3574C27.1001 53.5945 26.0192 53.6187 25.0342 52.9977C24.1845 52.4621 23.7272 51.6863 23.6235 50.7065C23.3928 48.5224 23.6813 46.4135 24.5967 44.4044C24.6751 44.2327 24.739 44.0547 24.7342 43.7794C24.5985 43.8713 24.4592 43.9592 24.32 44.047C24.0117 44.2416 23.7034 44.4361 23.4332 44.6739C22.4193 45.5662 21.2708 46.2493 20.0938 46.8786C17.9462 48.0261 15.7591 49.0926 13.401 49.7512C13.1594 49.8187 12.9192 49.8925 12.6791 49.9663C12.212 50.1098 11.7451 50.2532 11.2688 50.3504C10.7715 50.452 10.2642 50.5051 9.73976 50.5601L9.73964 50.5602L9.73957 50.5602C9.50573 50.5847 9.26847 50.6096 9.02713 50.6393C8.70332 51.3865 8.37792 52.1302 8.05327 52.8722ZM84.8285 13.3494C84.9191 13.3305 84.9811 13.3196 85.0253 13.3119C85.0892 13.3006 85.1156 13.296 85.137 13.2831C85.2802 13.1968 85.4213 13.1069 85.5588 13.0121C88.1523 11.2241 90.4395 9.10756 92.263 6.52746C92.8361 5.71627 93.2778 4.80183 93.7008 3.89739C93.9405 3.38476 94.1528 2.81823 94.0177 2.10515C93.8957 2.17809 93.7761 2.2412 93.6619 2.3015C93.4289 2.42443 93.2181 2.53573 93.0532 2.69499C92.8073 2.93314 92.5581 3.16893 92.3087 3.40485L92.3086 3.40491L92.3085 3.40497C91.4805 4.18833 90.6508 4.9732 89.936 5.85071C88.6425 7.43856 87.3747 9.05942 86.3641 10.8604C86.0576 11.4065 85.7215 11.9359 85.3607 12.5043L85.3606 12.5044L85.3603 12.5049L85.3602 12.5051L85.3597 12.506C85.188 12.7763 85.0108 13.0555 84.8285 13.3494ZM81.3192 46.9297L81.3196 46.9295C81.6687 46.7576 81.9964 46.5963 82.3023 46.4009C83.0856 45.9002 83.8637 45.3913 84.6417 44.8825L84.6428 44.8818C85.5983 44.2569 86.5537 43.632 87.5189 43.0223C88.4002 42.4651 89.1283 41.7608 89.7877 40.9663C89.9243 40.8018 90.0725 40.647 90.2207 40.4921L90.2208 40.492L90.221 40.4918C90.3368 40.3709 90.4526 40.2499 90.5629 40.1242C91.1294 39.4781 91.67 38.8247 91.9592 37.9823C92.194 37.2977 92.0339 36.8365 91.2461 36.795C90.3736 36.7493 89.4865 36.7666 88.6209 36.8762C88.1261 36.9386 87.6432 37.156 87.1748 37.3668C87.1254 37.389 87.0762 37.4111 87.0272 37.433C86.7908 37.5385 86.5729 37.6852 86.3547 37.8321L86.3546 37.8322C86.2364 37.9118 86.118 37.9914 85.9966 38.0646C85.8659 38.1435 85.7308 38.2163 85.5958 38.289L85.5956 38.2891C85.3517 38.4205 85.108 38.5517 84.891 38.7184C82.6319 40.4516 81.3077 42.7622 80.8156 45.5533C80.7563 45.8897 80.7711 46.239 80.7871 46.6167V46.6169C80.7949 46.8002 80.8029 46.9903 80.8029 47.1887C80.9799 47.0967 81.152 47.012 81.3192 46.9297ZM82.7982 15.8265C82.2206 16.1396 81.6552 16.4521 81.0965 16.7608C79.8539 17.4474 78.6447 18.1156 77.4094 18.7312C75.2241 19.8201 72.9384 20.6473 70.5023 20.981C69.5779 21.1076 68.6453 21.1996 67.7333 20.9434C66.6753 20.6458 65.933 20.0151 65.693 18.8711C65.5272 18.0823 65.5236 17.3102 65.7045 16.5272C65.763 16.2744 65.8703 16.1211 66.1365 16.1853C66.4001 16.2489 66.4405 16.4497 66.3871 16.6916C66.2409 17.355 66.2481 18.0151 66.3901 18.6828C66.5695 19.5255 67.1035 20.0005 67.8931 20.2349C68.7087 20.4774 69.5343 20.3757 70.3527 20.275L70.3781 20.2718C72.0216 20.0693 73.5885 19.5685 75.1186 18.9538C77.8514 17.8559 80.4012 16.4103 82.8732 14.8173C83.2676 14.5633 83.5537 14.245 83.7886 13.8414C84.0299 13.4272 84.2678 13.0106 84.5057 12.5939C85.2171 11.348 85.9287 10.1016 86.7322 8.91827C87.7636 7.39975 88.9316 5.96784 90.1183 4.56499C90.7567 3.81047 91.4986 3.14019 92.2361 2.4739L92.2398 2.47049L92.2552 2.45666L92.2555 2.45631L92.2559 2.45596C92.3449 2.37554 92.4339 2.29517 92.5225 2.2147C92.8515 1.91614 93.2546 1.66725 93.6661 1.4995C94.3544 1.21911 94.8302 1.53523 94.7859 2.27829C94.7494 2.88751 94.6107 3.51036 94.403 4.08567C93.7505 5.89093 92.625 7.41095 91.3548 8.81622C90.5076 9.75368 89.6272 10.6733 88.672 11.4969C87.6442 12.3834 86.5573 13.2201 85.4119 13.9447C84.4224 14.5702 83.7057 15.31 83.2978 16.4309C83.0471 17.1197 82.6683 17.765 82.2923 18.4056L82.2921 18.4058L82.292 18.406L82.2919 18.4062C82.2184 18.5314 82.145 18.6564 82.0728 18.7815C80.7821 21.0164 79.7019 23.3551 78.6216 25.6939L78.6216 25.6939L78.6213 25.6945C78.4078 26.1567 78.1944 26.6188 77.9793 27.0802C77.5063 28.0945 77.0405 29.1123 76.5746 30.1301L76.5743 30.1307L76.5741 30.1312L76.5738 30.1317L76.5736 30.1323L76.5733 30.1328C75.8056 31.81 75.0379 33.4872 74.2385 35.1491C72.4337 38.901 70.6033 42.6411 68.7237 46.3558C68.0824 47.6234 67.3787 48.8591 66.675 50.0949L66.6747 50.0954C66.3492 50.6669 66.0238 51.2384 65.7045 51.813C65.6845 51.8491 65.6692 51.8876 65.6457 51.9468C65.6317 51.982 65.6149 52.0246 65.5923 52.0783C70.7794 51.6268 75.538 50.029 80.0442 47.5533L80.0443 47.5396C80.0443 47.5136 80.0445 47.4877 80.0448 47.4618L80.0458 47.3744C80.0475 47.2464 80.0492 47.1187 80.043 46.9913C79.9131 44.2807 81.0054 42.011 82.5956 39.932C83.4048 38.8734 84.4049 38.0338 85.619 37.46C85.7978 37.3754 85.9631 37.2625 86.1287 37.1494C86.2387 37.0742 86.3489 36.999 86.4632 36.9319C86.5194 36.899 86.5754 36.8652 86.6315 36.8314L86.6321 36.831L86.6322 36.831C86.8616 36.6927 87.0927 36.5534 87.3406 36.4644C88.786 35.946 90.2706 35.8328 91.7679 36.1779C92.5997 36.3696 92.935 36.931 92.7152 37.7834C92.5741 38.3308 92.3965 38.9167 92.0669 39.3591C90.882 40.9509 89.5983 42.4443 87.9484 43.6076C85.7589 45.151 83.5278 46.6144 81.148 47.8446C81.1092 47.8648 81.076 47.8962 81.0317 47.9382C81.0069 47.9617 80.9786 47.9885 80.9439 48.0184C81.414 49.6623 82.2796 50.9153 84.0211 51.4612C85.4616 51.913 86.8618 51.87 88.3093 51.5069C90.2932 51.0091 92.1315 50.1979 93.8962 49.1799C96.4882 47.6844 98.8661 45.8967 101.199 44.0261C102.458 43.0166 103.802 42.0818 105.303 41.429C105.34 41.4128 105.378 41.3955 105.416 41.3781C105.711 41.2428 106.029 41.0967 106.3 41.3769C106.575 41.6619 106.586 42.0488 106.448 42.4419C105.807 44.2683 105.094 46.063 104.331 47.844C104.213 48.1188 104.091 48.3925 103.969 48.6667L103.969 48.6667C103.479 49.7649 102.987 50.8691 102.763 52.0704C102.601 52.9355 102.446 53.7915 102.567 54.679C102.587 54.8271 102.477 55.0796 102.355 55.1429C102.116 55.2661 101.959 55.0766 101.886 54.8483C101.872 54.8049 101.856 54.7609 101.84 54.7167C101.79 54.5762 101.738 54.433 101.748 54.296C101.859 52.6663 102.176 51.0848 102.823 49.5733C103.021 49.1113 103.222 48.6506 103.423 48.1899L103.423 48.1896L103.423 48.1894L103.423 48.1891L103.423 48.1889L103.423 48.1886L103.423 48.1884C104.224 46.3528 105.024 44.5168 105.621 42.599C105.651 42.5028 105.671 42.4037 105.699 42.2713C105.714 42.1973 105.732 42.113 105.754 42.0131C104.764 42.4703 103.926 42.9478 103.146 43.5292C102.496 44.013 101.852 44.5033 101.207 44.9936L101.207 44.9939L101.206 44.9948C99.8181 46.05 98.4306 47.1052 96.9986 48.0956C94.198 50.0326 91.236 51.671 87.8489 52.3656C85.8717 52.7711 83.9994 52.4989 82.2868 51.4149C81.3859 50.8444 80.9029 49.9203 80.5043 48.9589C80.4489 48.8253 80.4039 48.6873 80.3543 48.5352L80.3542 48.5349C80.3307 48.4627 80.3061 48.3873 80.2788 48.3076C80.0006 48.4358 79.7234 48.5606 79.4476 48.6847C78.8499 48.9536 78.259 49.2195 77.6808 49.5106C74.0317 51.3476 70.1357 52.286 66.1067 52.7457L66.0691 52.7499C64.973 52.8748 64.9688 52.8753 64.4325 53.9232C64.1971 54.3831 63.9646 54.8445 63.732 55.3058L63.7319 55.3059L63.7319 55.3061L63.7318 55.3062L63.7317 55.3063L63.7317 55.3064C62.6628 57.4266 61.5948 59.5451 60.2669 61.5103L60.2803 61.5236C60.7333 61.972 60.747 61.9855 60.4786 62.4944C60.1532 63.111 59.8214 63.7242 59.4895 64.3374C59.1956 64.8806 58.9017 65.4237 58.6123 65.9693C58.4705 66.2364 58.2996 66.4056 57.993 66.2715C57.7047 66.1455 57.6354 65.8963 57.7295 65.612C57.7778 65.4664 57.8246 65.32 57.8713 65.1735L57.8714 65.1733C58.0137 64.7274 58.1562 64.2811 58.3454 63.8561C59.0178 62.3473 59.818 60.9081 60.6745 59.4931C61.2719 58.5063 61.8012 57.4775 62.3303 56.4492C62.5015 56.1166 62.6726 55.784 62.8459 55.4529C63.1441 54.8834 63.4294 54.3071 63.7229 53.7144L63.7233 53.7135L63.7234 53.7133L63.7241 53.712C63.8557 53.4461 63.989 53.1768 64.1258 52.9034C64.075 52.8852 64.0257 52.8644 63.9773 52.8439C63.8757 52.8009 63.7779 52.7595 63.6766 52.7478C61.6936 52.5213 60.1225 51.4945 58.8589 50.0429C58.1472 49.2256 57.5487 48.3068 56.9522 47.3909C56.8039 47.1632 56.6557 46.9357 56.506 46.71C56.1327 46.1469 56.2171 45.9367 56.8289 45.6654C57.2187 45.4928 57.6272 45.349 58.0412 45.2536C58.1335 45.2322 58.2468 45.3021 58.36 45.3721C58.4117 45.404 58.4634 45.436 58.5131 45.4592C58.4843 45.5049 58.4588 45.5572 58.4333 45.6095L58.4333 45.6095L58.4332 45.6096L58.4332 45.6096L58.4332 45.6097L58.4332 45.6097C58.3768 45.7252 58.3204 45.8407 58.2293 45.8861C57.992 46.0047 57.7383 46.0904 57.4572 46.1853L57.4569 46.1854L57.456 46.1857C57.339 46.2253 57.2172 46.2664 57.09 46.3122C57.2069 46.4872 57.3235 46.6562 57.438 46.8221C57.6849 47.18 57.9222 47.5239 58.1323 47.8837C58.807 49.0394 59.7191 49.9736 60.7505 50.8014C61.7729 51.6226 62.975 51.9617 64.2509 52.1077C64.6067 52.1485 64.7753 51.9414 64.9257 51.6865C65.1237 51.3505 65.3261 51.0168 65.5285 50.6831C65.9957 49.9128 66.4628 49.1424 66.8764 48.3442C68.4611 45.2851 70.0407 42.222 71.5428 39.1214C72.5012 37.143 73.4226 35.1465 74.3439 33.15C74.9654 31.8034 75.5868 30.4567 76.2197 29.1156C77.669 26.0434 79.1364 22.9797 80.627 19.9279C80.9489 19.2691 81.312 18.6309 81.6751 17.9926C81.8799 17.6328 82.0846 17.2729 82.282 16.9093C82.4019 16.6881 82.5069 16.4586 82.6212 16.2086L82.6214 16.2082C82.6772 16.0863 82.7351 15.9596 82.7982 15.8265ZM125.472 43.3165C126.405 43.0513 127.625 42.7739 128.723 43.1539C128.642 43.2536 128.567 43.3468 128.497 43.4353C128.354 43.6138 128.227 43.7728 128.093 43.9254C126.231 46.0386 124.316 48.0982 122.029 49.7666C121.726 49.9885 121.388 50.1741 121.045 50.3292C120.802 50.4388 120.612 50.3119 120.616 50.0318C120.62 49.7969 120.651 49.5531 120.722 49.3297C121.458 47.0012 122.844 45.133 124.77 43.6617C124.974 43.5057 125.225 43.3871 125.472 43.3165ZM139.83 29.9911L139.83 29.9912L139.827 29.9918C139.769 30.0078 139.7 30.0268 139.614 30.0514C139.683 29.9462 139.743 29.8525 139.798 29.7668L139.801 29.762L139.802 29.7613L139.805 29.756C139.915 29.5851 140.005 29.4458 140.099 29.3092C143.071 24.9662 146.285 20.8098 149.736 16.8398C150.361 16.1207 151.057 15.4579 151.765 14.819C152.72 13.9569 153.692 13.1091 154.705 12.3176C155.812 11.4528 157.098 10.9441 158.464 10.6386C158.579 10.6126 158.699 10.6017 158.818 10.5929C159.358 10.5529 159.59 10.7679 159.639 11.3226C159.717 12.2061 159.501 13.0419 159.284 13.8774C159.243 14.0376 159.202 14.1977 159.162 14.3581C158.492 17.0872 156.967 19.3085 155.089 21.3318C153.162 23.4084 150.883 24.9947 148.382 26.2813C145.684 27.6684 142.928 28.921 140.064 29.9221C139.997 29.9451 139.93 29.9637 139.83 29.9911L139.83 29.9911ZM131.717 42.9474C131.254 42.804 130.789 42.6596 130.319 42.5135C130.339 42.4777 130.357 42.4425 130.375 42.4083L130.376 42.4078C130.413 42.3366 130.448 42.2698 130.494 42.2116C130.687 41.9666 130.883 41.7239 131.08 41.4812L131.08 41.4803C131.44 41.0359 131.8 40.5915 132.14 40.1326C134.261 37.2727 136.369 34.4037 138.477 31.5338C138.683 31.2522 138.932 31.0872 139.267 30.9721C142.563 29.8403 145.752 28.455 148.848 26.8472C151.498 25.471 153.894 23.7614 155.887 21.5204C156.505 20.8264 157.104 20.1079 157.639 19.3491C158.753 17.7721 159.508 16.0256 159.971 14.1456C160.213 13.1642 160.417 12.188 160.356 11.1703C160.304 10.3113 159.697 9.7614 158.856 9.86677C157.613 10.0224 156.45 10.4318 155.359 11.0468C153.082 12.3309 151.226 14.1492 149.498 16.0501C146.865 18.9467 144.418 22.0122 142.135 25.2018C141.702 25.8075 141.27 26.4147 140.839 27.0218C140.122 28.0319 139.404 29.042 138.677 30.0453C138.504 30.2842 138.265 30.5319 138.002 30.6373C137.338 30.9019 136.654 31.1311 135.959 31.2958C134.628 31.6117 133.291 31.8993 131.953 32.1868L131.95 32.1875C131.635 32.2554 131.319 32.3232 131.004 32.3913C130.78 32.4398 130.545 32.4961 130.57 32.7647C130.598 33.0614 130.839 33.1302 131.106 33.0911C131.231 33.0728 131.357 33.0569 131.483 33.0411C131.783 33.0033 132.083 32.9655 132.375 32.894C133.414 32.64 134.451 32.3764 135.488 32.1128L135.49 32.1125L135.494 32.1115L135.496 32.111C136.05 31.9701 136.604 31.8292 137.159 31.6898C137.203 31.6786 137.251 31.6805 137.326 31.6834L137.35 31.6843L137.396 31.6859C137.426 31.6867 137.459 31.6873 137.496 31.6873C137.273 31.9829 137.055 32.2694 136.843 32.5498C136.392 33.1442 135.962 33.7116 135.535 34.2817C134.931 35.0888 134.328 35.897 133.726 36.7053L133.722 36.7108L133.717 36.7163L133.717 36.7175C132.538 38.2992 131.359 39.8809 130.168 41.4537C130.108 41.5325 130.053 41.6053 130.003 41.6724L130 41.6759L130 41.676C129.655 42.1356 129.51 42.3279 129.323 42.3887C129.188 42.4325 129.031 42.4081 128.761 42.3661C128.604 42.3417 128.408 42.3112 128.156 42.2848C127.18 42.1825 126.256 42.3518 125.338 42.6004C124.957 42.7042 124.578 42.9092 124.261 43.1514C122.396 44.577 121.026 46.3895 120.208 48.5978C120.029 49.0805 119.916 49.6158 119.911 50.1284C119.904 50.8866 120.539 51.2887 121.252 51.028C121.607 50.8981 121.975 50.7389 122.265 50.503C122.475 50.331 122.687 50.16 122.9 49.989L122.9 49.9888C123.821 49.2454 124.745 48.5006 125.583 47.6703C126.609 46.6531 127.566 45.5641 128.521 44.4758C128.748 44.2175 128.975 43.9592 129.203 43.7019C129.518 43.3458 129.814 43.1633 130.304 43.3156C131.11 43.5659 131.918 43.8072 132.726 44.0484L132.728 44.0488C133.722 44.3454 134.715 44.642 135.703 44.9555C135.908 45.0205 136.113 45.0861 136.317 45.1516C137.814 45.6315 139.306 46.11 140.874 46.3471C143.59 46.758 146.31 47.0629 149.061 46.9875C149.689 46.9701 150.318 46.9433 150.947 46.9164L150.947 46.9163C151.533 46.8913 152.118 46.8662 152.704 46.8489C154.151 46.8056 155.549 46.4931 156.879 45.9583C157.979 45.516 159.058 45.0214 160.137 44.5269C160.598 44.316 161.058 44.105 161.52 43.8981C161.621 43.8528 161.721 43.805 161.837 43.7497L161.957 43.6928L162.054 43.6468C162.041 43.7105 162.031 43.7598 162.024 43.7999C162.011 43.8659 162.003 43.9071 161.99 43.9469C161.52 45.4133 161.229 46.8758 161.447 48.4537C161.759 50.7222 163.417 52.4469 165.552 52.8687C165.613 52.8806 165.673 52.8921 165.734 52.9037C166.001 52.9547 166.27 53.0059 166.527 53.0904C167.755 53.4934 168.99 53.3629 170.19 53.0486C171.086 52.814 171.965 52.514 172.844 52.214C173.207 52.0904 173.569 51.9667 173.932 51.8477C176.892 50.8782 179.362 49.0971 181.711 47.1159C181.903 46.9539 182.113 46.7671 181.928 46.5206C181.72 46.2424 181.469 46.3868 181.248 46.5688C180.898 46.8567 180.543 47.1383 180.188 47.4196L180.126 47.4682C178.836 48.4914 177.54 49.5189 176.027 50.1899C174.129 51.0311 172.21 51.8307 170.184 52.3192C168.968 52.6123 167.746 52.7664 166.518 52.3473C166.269 52.2623 166.005 52.2154 165.743 52.1689C165.699 52.1611 165.655 52.1533 165.611 52.1454C164.264 51.9004 163.31 51.0632 162.672 49.9362C162.018 48.7837 161.947 47.479 162.159 46.1691C162.421 44.5504 163.072 43.1151 164.135 41.8643C164.341 41.6225 164.52 41.3581 164.699 41.094C164.762 41.0011 164.825 40.9083 164.889 40.8166C165.002 40.6561 165.107 40.4832 164.922 40.304C164.73 40.1184 164.516 40.1526 164.347 40.3149C164.29 40.3702 164.23 40.425 164.17 40.4801L164.169 40.4804C163.943 40.6875 163.711 40.8989 163.585 41.1578C163.194 41.9554 162.541 42.4577 161.826 42.8916C160.116 43.9296 158.256 44.6456 156.401 45.36L156.229 45.4263C154.514 46.087 152.695 46.216 150.884 46.259C148.046 46.3259 145.207 46.3014 142.392 45.8375C142.108 45.7907 141.824 45.7465 141.54 45.7022C140.106 45.4788 138.675 45.2558 137.306 44.7145C136.69 44.4705 136.052 44.2807 135.414 44.091L135.413 44.0909C135.159 44.0152 134.905 43.9396 134.652 43.8606C133.679 43.5561 132.705 43.254 131.717 42.9474ZM60.7522 39.1038C60.2705 39.076 59.7985 39.065 59.3347 39.0542C58.1005 39.0254 56.9246 38.998 55.7795 38.6593C55.3957 38.5457 55.0242 38.3897 54.6526 38.2336L54.6525 38.2336L54.6525 38.2336L54.6525 38.2336C54.4555 38.1509 54.2584 38.0681 54.0595 37.9916C53.8761 37.9212 53.691 37.8554 53.5059 37.7896C53.3332 37.7282 53.1604 37.6668 52.9891 37.6016C52.7871 37.5244 52.548 37.4321 52.6041 37.1632C52.6662 36.8655 52.9153 36.8204 53.1685 36.9058C53.2583 36.9362 53.3491 36.9652 53.44 36.9942C53.7591 37.0962 54.08 37.1987 54.3646 37.3624C55.5172 38.0243 56.7805 38.2372 58.0682 38.2835C59.2224 38.325 60.3786 38.3131 61.5345 38.3011C61.8555 38.2978 62.1764 38.2945 62.4973 38.2923C62.7788 38.2906 63.0601 38.2705 63.3415 38.2505L63.3417 38.2505C63.5113 38.2383 63.681 38.2262 63.8508 38.2181C64.0905 38.2066 64.2913 38.2872 64.3036 38.5606C64.316 38.8349 64.1302 38.9203 63.8836 38.933C63.1113 38.973 62.339 39.0159 61.619 39.0559C61.3198 39.0725 61.0296 39.0886 60.7522 39.1038ZM46.1378 24.6382C46.1287 24.5885 46.1203 24.543 46.1112 24.504C46.121 24.458 46.1278 24.4224 46.1332 24.3935C46.1426 24.344 46.1482 24.3143 46.1589 24.2866C46.2568 24.0286 46.1592 23.8294 45.9071 23.8179C45.7672 23.8112 45.5363 23.9623 45.4922 24.0922C45.4136 24.3241 45.3813 24.6112 45.4431 24.8446C45.5893 25.3975 45.7729 25.9453 45.996 26.4722C46.2375 27.0426 46.5237 27.5967 46.8315 28.1345C46.893 28.2423 47.1604 28.315 47.2967 28.2762C47.5014 28.2178 47.5479 28.0173 47.4309 27.8078C47.3498 27.6621 47.2792 27.5098 47.2138 27.356L47.0647 27.0063C46.7874 26.3563 46.5101 25.7062 46.2445 25.0515C46.1883 24.9128 46.1607 24.7626 46.1379 24.6383L46.1378 24.6382ZM106.798 30.5358C106.839 30.3726 106.878 30.22 106.915 30.0746L106.915 30.0742C106.995 29.7616 107.066 29.4819 107.127 29.1999C107.196 28.884 107.443 28.7868 107.696 28.7487C107.827 28.7287 108.044 28.8123 108.104 28.9171C108.162 29.0194 108.121 29.2955 108.037 29.3443C107.712 29.5321 107.67 29.8288 107.628 30.1308C107.625 30.1553 107.621 30.1798 107.618 30.2043C107.615 30.2234 107.612 30.2426 107.609 30.2617C107.598 30.3338 107.588 30.4062 107.577 30.4785L107.568 30.5424C107.533 30.7941 107.445 31.0651 107.15 30.9821C107.04 30.9508 106.96 30.8099 106.888 30.6819C106.857 30.6278 106.828 30.576 106.798 30.5358ZM170.924 29.5195C170.941 29.4837 170.957 29.4496 170.973 29.4235C170.943 29.3326 170.915 29.2421 170.887 29.1525C170.713 28.5984 170.549 28.077 170.077 27.7142C169.876 27.56 169.664 27.4208 169.45 27.6276C169.23 27.841 169.354 28.08 169.54 28.2429C169.875 28.5357 170.074 28.8963 170.186 29.3193C170.216 29.4308 170.259 29.5767 170.343 29.6267C170.466 29.7002 170.645 29.7508 170.776 29.7169C170.84 29.7002 170.885 29.6052 170.924 29.5195Z" fill="black"/>
</svg>
