<svg width="211" height="113" viewBox="0 0 211 113" fill="none" xmlns="http://www.w3.org/2000/svg">
<path d="M24.4 103.72C24.4 106.48 26.16 108.3 28.94 108.3C31.64 108.3 33.4 106.2 33.4 103.68V93.82H31V103.74C31 105.18 30.2 106.04 28.92 106.04C27.68 106.04 26.74 105.3 26.74 103.64V102.32L24.4 102.8V103.72ZM40.6198 106.22C39.1998 106.22 37.8998 105.14 37.8998 103.12C37.8998 101.1 39.1998 100.06 40.6198 100.06C42.0598 100.06 43.3398 101.1 43.3398 103.12C43.3398 105.16 42.0598 106.22 40.6198 106.22ZM40.6198 97.96C37.7198 97.96 35.5798 100.14 35.5798 103.12C35.5798 106.12 37.7198 108.3 40.6198 108.3C43.5398 108.3 45.6798 106.12 45.6798 103.12C45.6798 100.14 43.5398 97.96 40.6198 97.96ZM50.2419 102.28C50.2819 101.04 50.9819 100.08 52.2619 100.08C53.7219 100.08 54.2619 101.04 54.2619 102.24V108H56.5819V101.84C56.5819 99.7 55.4219 97.98 53.0219 97.98C52.0019 97.98 50.9019 98.34 50.2419 99.2V93.52H47.9219V108H50.2419V102.28ZM61.7263 102.38C61.7263 101.1 62.4263 100.08 63.7463 100.08C65.2063 100.08 65.7463 101.04 65.7463 102.24V108H68.0663V101.84C68.0663 99.7 66.9263 97.98 64.5463 97.98C63.4663 97.98 62.3063 98.44 61.6663 99.56V98.26H59.4063V108H61.7263V102.38ZM84.8116 108V105.76H78.4516V102H84.2116V99.82H78.4516V96.06H84.8116V93.82H76.0516V108H84.8116ZM90.4322 95.28H88.3322V96.74C88.3322 97.6 87.8722 98.26 86.8322 98.26H86.3322V100.32H88.1322V105.22C88.1322 107.04 89.2522 108.12 91.0522 108.12C91.8922 108.12 92.3322 107.96 92.4722 107.9V105.98C92.3722 106 91.9922 106.06 91.6722 106.06C90.8122 106.06 90.4322 105.7 90.4322 104.84V100.32H92.4522V98.26H90.4322V95.28ZM98.9783 100.1C100.458 100.1 101.118 101.06 101.338 101.92L103.418 101.16C103.018 99.6 101.578 97.96 98.9583 97.96C96.1583 97.96 93.9783 100.12 93.9783 103.12C93.9783 106.08 96.1583 108.3 99.0183 108.3C101.578 108.3 103.038 106.64 103.498 105.12L101.458 104.38C101.238 105.12 100.538 106.18 99.0183 106.18C97.5583 106.18 96.2983 105.08 96.2983 103.12C96.2983 101.16 97.5583 100.1 98.9783 100.1ZM107.879 102.28C107.919 101.04 108.619 100.08 109.899 100.08C111.359 100.08 111.899 101.04 111.899 102.24V108H114.219V101.84C114.219 99.7 113.059 97.98 110.659 97.98C109.639 97.98 108.539 98.34 107.879 99.2V93.52H105.559V108H107.879V102.28ZM118.663 102.06C118.743 101.02 119.583 99.9 121.043 99.9C122.643 99.9 123.403 100.92 123.443 102.06H118.663ZM123.703 104.6C123.383 105.56 122.663 106.3 121.263 106.3C119.823 106.3 118.663 105.24 118.603 103.76H125.723C125.743 103.72 125.783 103.4 125.783 103.02C125.783 99.94 124.023 97.96 121.023 97.96C118.563 97.96 116.283 100 116.283 103.08C116.283 106.38 118.623 108.3 121.263 108.3C123.603 108.3 125.143 106.92 125.663 105.22L123.703 104.6ZM130.3 108V102.22C130.3 100.98 131.08 100.06 132.32 100.06C133.64 100.06 134.2 100.94 134.2 102.06V108H136.48V102.22C136.48 101.02 137.28 100.06 138.5 100.06C139.8 100.06 140.38 100.92 140.38 102.06V108H142.62V101.68C142.62 99.1 140.94 97.98 139.18 97.98C137.92 97.98 136.78 98.42 136.02 99.7C135.5 98.56 134.38 97.98 133.1 97.98C132 97.98 130.78 98.5 130.22 99.5V98.26H128V108H130.3ZM147.081 102.06C147.161 101.02 148.001 99.9 149.461 99.9C151.061 99.9 151.821 100.92 151.861 102.06H147.081ZM152.121 104.6C151.801 105.56 151.081 106.3 149.681 106.3C148.241 106.3 147.081 105.24 147.021 103.76H154.141C154.161 103.72 154.201 103.4 154.201 103.02C154.201 99.94 152.441 97.96 149.441 97.96C146.981 97.96 144.701 100 144.701 103.08C144.701 106.38 147.041 108.3 149.681 108.3C152.021 108.3 153.561 106.92 154.081 105.22L152.121 104.6ZM158.738 102.38C158.738 101.1 159.438 100.08 160.758 100.08C162.218 100.08 162.758 101.04 162.758 102.24V108H165.078V101.84C165.078 99.7 163.938 97.98 161.558 97.98C160.478 97.98 159.318 98.44 158.678 99.56V98.26H156.418V108H158.738V102.38ZM169.462 103.1C169.462 101.24 170.582 100.06 172.102 100.06C173.622 100.06 174.662 101.22 174.662 103.08C174.662 104.94 173.602 106.2 172.082 106.2C170.502 106.2 169.462 104.96 169.462 103.1ZM176.902 93.52H174.642V99.4C174.342 98.78 173.482 98 171.782 98C169.042 98 167.142 100.3 167.142 103.1C167.142 106.04 169.022 108.24 171.822 108.24C173.202 108.24 174.222 107.56 174.682 106.74C174.682 107.14 174.742 107.78 174.782 108H177.002C176.982 107.84 176.902 107.1 176.902 106.22V93.52ZM182.894 111.94L189.094 98.26H186.634L184.014 104.42L181.214 98.26H178.594L182.754 106.84L180.414 111.94H182.894Z" fill="#3A8DC7"/>
<path fill-rule="evenodd" clip-rule="evenodd" d="M95.8201 46.629C95.4835 46.6607 95.1484 46.6923 94.8342 46.7779C94.6519 46.7251 94.4439 46.7387 94.2409 46.752C93.8507 46.7776 93.4794 46.802 93.3462 46.3505C93.1314 45.6204 93.7555 45.4128 94.2745 45.2401L94.3429 45.2173C94.3666 45.2093 94.3901 45.2013 94.4131 45.1934C94.4263 45.1888 94.4393 45.1842 94.4522 45.1796C94.5206 45.1553 94.589 45.1307 94.6576 45.106L94.6588 45.1055C95.6777 44.7385 96.7229 44.3619 97.7636 45.0847C97.9121 45.1871 98.0384 45.6026 97.9586 45.7131C97.4014 46.48 96.6066 46.5549 95.8201 46.629ZM103.267 47.0537C101.97 48.9598 100.669 50.8723 98.6981 52.6647C98.5438 51.2942 98.7306 50.2667 98.9018 49.3247C98.9691 48.9544 99.034 48.5974 99.0749 48.238C99.1732 47.3758 102.317 45.9757 103.076 46.3779C103.32 46.5077 103.471 46.7548 103.317 46.9796L103.267 47.0537ZM191.739 5.31398C191.771 5.40297 191.821 5.53923 191.898 5.75735C191.921 5.51163 191.944 5.32408 191.962 5.17327C191.992 4.92423 192.01 4.77538 191.994 4.63027C191.953 4.27737 191.954 3.89231 191.955 3.50339C191.958 2.3215 191.961 1.10399 190.792 0.645085C189.439 0.113941 188.326 1.30779 187.381 2.32258C187.287 2.42345 187.194 2.52255 187.104 2.61802C183.9 5.98588 181.217 9.74328 179.018 13.8479C173.608 23.9441 166.673 32.8716 158.405 40.753C158.126 41.0185 157.85 41.3008 157.57 41.5858L157.569 41.5863L157.569 41.5868C156.386 42.7931 155.154 44.049 153.54 44.3004C150.124 44.8316 146.761 45.5818 143.471 46.533C139.341 47.7283 135.109 48.243 130.879 48.7576C127.853 49.1256 124.829 49.4935 121.844 50.1101C121.353 50.211 120.817 50.2986 120.53 49.7606C120.318 49.3613 120.567 49.0122 120.793 48.696C120.806 48.6771 120.82 48.6583 120.833 48.6396C120.846 48.6206 120.859 48.6018 120.872 48.5831C121.046 48.3307 121.253 48.1007 121.459 47.8708L121.46 47.87C121.541 47.7792 121.623 47.6884 121.702 47.5963C123.629 45.3553 125.837 43.4132 128.045 41.4714C129.725 39.9942 131.404 38.5171 132.959 36.9087C134.332 35.4882 135.663 34.0249 136.993 32.5616L136.993 32.5608L136.994 32.5605C137.607 31.8857 138.221 31.2109 138.838 30.5403C137.874 31.1029 137.1 31.8671 136.329 32.6288C135.501 33.4471 134.675 34.2624 133.62 34.8216C133.69 34.3177 133.865 33.9215 134.121 33.5884C138.096 28.3923 141.679 22.9246 145.193 17.4117C146.369 15.5665 147.509 13.6982 148.649 11.8298C149.47 10.4857 150.29 9.14155 151.124 7.80596C151.702 6.88071 152.377 6.14169 152.952 8.04562C152.995 7.91059 153.042 7.77472 153.089 7.63923L153.089 7.63857L153.089 7.63802C153.421 6.67352 153.746 5.7285 152.805 5.24464C152.034 4.84881 151.528 5.6643 151.113 6.33323C151.047 6.44048 150.983 6.54396 150.92 6.63808C149.381 8.9501 147.849 11.2688 146.413 13.6454C140.311 23.7527 133.809 33.5557 125.57 42.0878C121.44 46.3633 116.309 49.0681 111.173 51.7762L111.171 51.7769C110.65 52.052 110.128 52.3271 109.607 52.6039C109.232 52.8035 108.782 53.009 108.414 52.6113C108.008 52.1728 108.138 51.6356 108.456 51.2528C109.277 50.2578 110.145 49.2969 111.043 48.3709C111.386 48.0177 111.817 47.8523 112.364 48.2121C113.254 48.799 114.34 48.3976 114.48 47.6282C114.654 46.6621 114.432 44.9044 113.469 44.8272C112.893 44.7808 112.364 44.5813 111.839 44.3833C111.12 44.1123 110.41 43.8444 109.599 43.9769C108.976 44.0778 108.09 44.1987 107.772 43.4768C107.529 42.9287 107.911 42.4588 108.266 42.0205C108.358 41.9071 108.449 41.7957 108.526 41.6856C112.613 35.8663 116.095 29.6841 119.455 23.4262C120.237 21.9714 120.986 20.4997 121.735 19.0278L121.735 19.0277L121.735 19.0275C123.363 15.8301 124.991 12.6326 126.948 9.60898C128.319 7.48913 130.069 5.7336 132.126 3.74657C130.173 3.80056 129.316 4.92666 128.516 5.97806C128.414 6.11151 128.314 6.24375 128.212 6.37245C125.75 9.48358 123.921 12.9998 122.164 16.5361C117.791 25.3375 112.898 33.811 107.386 41.9579C105.766 44.3532 103.595 44.8057 101.364 45.2708C100.829 45.3821 100.292 45.4941 99.7577 45.6337C99.3547 45.7395 99.1069 45.4287 98.8669 45.1278C98.824 45.0739 98.7814 45.0204 98.7381 44.9696C97.1193 43.0717 94.1138 43.0887 92.4995 44.9926C91.9543 45.6352 91.5435 46.372 91.9698 47.1882C92.385 47.9843 93.0603 48.5416 94.0621 48.4058C94.2538 48.3799 94.446 48.3557 94.6383 48.3315L94.6385 48.3314L94.6387 48.3314C95.3001 48.2481 95.9625 48.1647 96.6081 48.0118C98.3886 47.5888 98.6746 47.81 98.3295 49.6501C97.9764 51.5384 97.3255 53.34 96.5992 55.117C96.5768 55.1715 96.5508 55.2288 96.524 55.288C96.3464 55.6801 96.1322 56.1528 96.6613 56.4333C97.1486 56.6927 97.4076 56.324 97.6506 55.9781C97.7009 55.9066 97.7505 55.836 97.8013 55.7722C98.434 54.9764 99.069 54.1823 99.7039 53.3882L99.7041 53.388L99.7042 53.3879C101.379 51.293 103.054 49.1981 104.689 47.0724C105.65 45.8229 106.823 45.2664 108.36 45.4007C108.42 45.406 108.48 45.4104 108.541 45.4148C109.042 45.4513 109.56 45.4891 109.829 45.9899C110.178 46.6376 109.807 47.183 109.389 47.6579C109.242 47.8245 109.092 47.9889 108.941 48.1534L108.941 48.1536C108.298 48.8566 107.653 49.5615 107.293 50.4574C106.781 51.7336 106.308 53.2019 107.339 54.3053C108.349 55.3872 109.478 54.7107 110.461 54.121C110.596 54.0402 110.728 53.9611 110.857 53.8883C112.394 53.0198 113.888 52.0747 115.382 51.1297L115.382 51.1296L115.382 51.1296C116.023 50.7239 116.664 50.3182 117.309 49.9187C117.327 49.9078 117.344 49.8967 117.362 49.8855C117.38 49.8745 117.397 49.8634 117.415 49.8522C117.925 49.5304 118.532 49.1477 118.572 50.234C118.646 52.2849 119.938 52.1157 121.286 51.8575C121.947 51.7311 122.604 51.5798 123.261 51.4286C124.162 51.221 125.063 51.0136 125.975 50.8706C127.384 50.6495 128.797 50.4599 130.211 50.2703L130.211 50.2703L130.212 50.2702C133.669 49.8064 137.127 49.3427 140.518 48.4184C142.555 47.8638 144.629 47.4467 146.704 47.0295C147.829 46.8031 148.955 46.5767 150.076 46.3282C150.975 46.1286 151.6 46.2436 151.98 47.2186C152.796 49.3132 152.944 49.3933 154.779 48.2166C157.306 46.5961 160.01 45.8637 163.005 46.0247C164.282 46.0945 164.362 46.5938 163.803 47.5287C163.653 47.7787 163.504 48.0293 163.356 48.2799L163.356 48.2801L163.355 48.2803C162.843 49.1434 162.331 50.007 161.781 50.8447C158.644 55.6238 155.439 60.3569 152.233 65.0901L152.233 65.0913C146.961 72.876 141.689 80.6608 136.723 88.6502C135.484 90.6432 134.254 92.6411 133.024 94.639L133.018 94.6491L133.017 94.6511C132.352 95.7308 131.687 96.8105 131.021 97.8893C132.45 96.533 133.73 95.0683 134.765 93.4456C135.479 92.328 136.19 91.2088 136.901 90.0897L136.903 90.0858L136.906 90.0819C139.633 85.7893 142.36 81.4971 145.23 77.2963C149.718 70.7273 154.181 64.1408 158.645 57.5542L160.935 54.1762C162.803 51.4197 164.661 48.6551 166.497 45.8771C166.872 45.3117 167.24 44.6276 166.816 43.9717C166.485 43.4587 166.023 43.6029 165.573 43.7432C165.421 43.7908 165.269 43.838 165.125 43.8589C164.086 44.0105 163.035 44.076 161.979 44.1419C159.99 44.2659 157.982 44.3911 155.998 45.0943C156.237 44.5701 156.601 44.2512 156.956 43.9398C157.054 43.854 157.151 43.7688 157.245 43.6801C159.94 41.1255 162.997 39.0697 166.055 37.0139L166.055 37.0138L166.055 37.0136C167.494 36.0458 168.934 35.0779 170.335 34.0581C175.869 30.0321 181.389 25.992 185.465 20.3336C187.593 17.379 189.014 14.857 189.269 12.9412C183.927 24.18 174.595 30.5433 164.685 36.7225C164.62 35.6443 165.095 35.1679 165.522 34.7405C165.603 34.6597 165.681 34.5806 165.755 34.4995C170.442 29.3123 174.434 23.6347 177.856 17.5341C180.544 12.7431 183.356 8.0241 187.047 3.91649C187.123 3.83245 187.199 3.74629 187.276 3.65912L187.278 3.6573C188.153 2.66896 189.142 1.55069 190.517 1.89755C191.572 2.16334 191.577 3.07889 191.583 3.99318V3.99338C191.585 4.38839 191.587 4.78315 191.674 5.12518C191.683 5.15868 191.695 5.19168 191.739 5.31398ZM74.059 28.8941C73.5816 29.4361 73.0884 29.9962 72.0986 30.0562C72.2767 29.0374 72.819 28.4602 73.43 27.9445L73.4444 27.9323C73.7122 27.7058 74.0602 27.4116 74.3882 27.776C74.6956 28.1188 74.42 28.4884 74.1843 28.7525C74.1597 28.78 74.1352 28.8077 74.1106 28.8355L74.059 28.8941ZM62.4551 44.8083C62.6612 41.695 69.0822 33.3306 71.5306 32.9848C69.0266 36.934 66.153 40.3771 63.1353 43.9929L63.1351 43.9931L63.135 43.9932C62.9092 44.2639 62.6825 44.5355 62.4551 44.8083ZM101.913 6.61947C102.007 6.60116 102.092 6.58456 102.163 6.57088C102.585 6.54788 102.92 6.55159 103.062 6.88177C103.312 7.46349 102.907 7.82335 102.516 8.11866C100.748 9.45497 98.9732 10.7839 97.1845 12.0905C93.1457 15.0391 89.1038 17.9832 85.0622 20.9272C82.6873 22.6571 80.3125 24.387 77.9384 26.1177C77.8338 26.194 77.7296 26.2771 77.6262 26.3597L77.6261 26.3597C76.9613 26.8906 76.3272 27.3969 75.7965 25.8995C75.6088 25.3689 75.1613 25.5657 74.761 25.7418C74.676 25.7791 74.5932 25.8156 74.5154 25.8439C73.3311 26.2742 72.6521 27.2759 72.0456 28.2576C69.0278 33.1431 64.7153 36.7109 60.4027 40.2786C59.5987 40.9437 58.7948 41.6089 57.9992 42.2825C55.8308 44.1186 53.6583 45.9498 51.4857 47.7808L51.484 47.7823L51.4823 47.7837C47.0628 51.5087 42.6434 55.2336 38.2595 59.0001C37.0153 60.0679 36.2381 60.1109 35.0501 58.9156C30.7627 54.598 26.8625 50.017 24.5057 44.3148C23.444 41.7439 22.6882 39.0697 22.2471 36.3133C21.6332 32.4757 23.1197 29.5998 26.1835 27.3724C32.6999 22.637 39.9721 19.5229 47.6713 17.4179C55.0152 15.4107 62.4946 14.0417 69.9738 12.6728L69.9741 12.6727C72.9566 12.1268 75.939 11.5809 78.9129 10.9946C84.0789 9.97602 89.2538 9.00426 94.4287 8.03248C96.7405 7.59836 99.0523 7.16425 101.363 6.72596C101.556 6.68949 101.748 6.65182 101.913 6.6195L101.913 6.61947ZM46.4379 60.1558C47.9042 59.1867 49.4235 58.1825 51.3329 57.3403C51.191 57.6998 51.0633 58.0069 50.9496 58.2804C50.7223 58.827 50.5509 59.2391 50.4337 59.6664L50.4265 59.6931C50.2867 60.2054 50.1218 60.8096 50.6243 61.2253C51.0149 61.5485 51.4447 61.3728 51.8513 61.2066L51.9259 61.1762C51.9572 61.1636 51.9883 61.1512 52.0192 61.1393L52.1011 61.1078L52.1012 61.1078C52.4181 60.9862 52.741 60.8624 53.0225 60.6807C55.1681 59.2984 57.4828 58.7167 60.042 58.9311C61.0429 59.0147 62.0606 58.9312 63.0728 58.8481C63.2913 58.8302 63.5095 58.8123 63.7273 58.7961C64.6766 58.7264 65.5071 58.3175 66.155 57.6074C66.4616 57.2721 66.6131 56.8195 66.3116 56.4247C66.0256 56.0493 65.7093 56.2754 65.4315 56.474C65.4051 56.4929 65.379 56.5115 65.3534 56.5293C64.4454 57.16 63.4177 57.2335 62.3568 57.2602C61.9493 57.2706 61.5411 57.276 61.1328 57.2814C58.5933 57.3151 56.051 57.3488 53.6897 58.578C53.3654 58.7471 52.973 58.9452 52.6975 58.5564C52.5134 58.2966 52.6883 58.0299 52.8503 57.7828L52.8504 57.7825L52.8506 57.7823C52.8648 57.7607 52.8788 57.7393 52.8925 57.718C53.0886 57.4134 53.283 57.1075 53.4774 56.8015C54.6404 54.9711 55.8045 53.1388 57.3402 51.587C61.8148 47.0636 65.6315 42.001 69.4515 36.9339L69.4516 36.9338L69.8025 36.4683C70.4436 35.6183 71.0063 34.7023 71.5688 33.7866C72.694 31.9551 73.8185 30.1247 75.5675 28.8252C77.2778 27.5551 78.9852 26.2807 80.6926 25.0063L80.694 25.0053L80.6941 25.0052L80.6942 25.0051C87.0795 20.2392 93.4656 15.4728 100.01 10.9248C101.602 9.818 103.125 8.60888 104.646 7.40058C105.056 7.07555 105.465 6.75058 105.875 6.42768C106.349 6.05521 106.976 5.5603 106.614 4.89697C106.352 4.41581 105.959 4.59265 105.576 4.76497C105.424 4.83341 105.274 4.90113 105.133 4.92665C104.759 4.99512 104.39 5.09829 104.021 5.20152C103.678 5.29742 103.336 5.39337 102.987 5.46162C100.205 6.00678 97.4236 6.55511 94.642 7.10344L94.642 7.10345L94.6419 7.10347C86.9861 8.61265 79.3303 10.1218 71.6621 11.5652C70.2294 11.8347 68.795 12.0981 67.3606 12.3615L67.3605 12.3616L67.3597 12.3617C59.1747 13.8649 50.9875 15.3686 43.07 18.0056C36.8654 20.072 30.9571 22.8767 25.7055 26.8612C22.8907 28.9958 21.3569 31.8191 21.7765 35.5297C22.2612 39.8162 23.5216 43.8444 25.4285 47.6975C27.6797 52.2474 30.9312 56.0248 34.4376 59.6056C35.3597 60.5479 35.7365 61.304 34.5115 62.3398C26.5101 69.1045 18.6299 76.0101 10.9566 83.1487C8.15793 85.7517 5.40752 88.407 2.65715 91.0622C2.03707 91.6609 1.41698 92.2595 0.796351 92.8576C0.742303 92.9097 0.681774 92.9642 0.618871 93.0209C0.204552 93.394 -0.312699 93.8598 0.2415 94.3475C0.636415 94.6955 0.927899 94.2958 1.20107 93.9212C1.29075 93.7982 1.37845 93.6779 1.4672 93.5877C2.09497 92.95 2.71837 92.3077 3.34179 91.6655C4.56508 90.4053 5.78847 89.145 7.04526 87.9182C12.429 82.6635 17.9953 77.6061 23.6745 72.6756C27.3997 69.4428 31.1336 66.2219 34.8994 63.038C34.9756 62.9736 35.0537 62.9034 35.1334 62.8317C35.7635 62.2651 36.4947 61.6075 37.2207 63.0091C37.2651 63.0947 37.3067 63.1991 37.3502 63.3085C37.5413 63.7889 37.7703 64.3647 38.445 63.8564C39.0656 63.389 38.5809 62.6552 38.1576 62.2389C37.1129 61.2135 37.6662 60.5487 38.5181 59.8267C41.6862 57.1434 44.8519 54.4571 48.0177 51.7708C52.6533 47.8373 57.289 43.9038 61.9319 39.9794C62.0178 39.9068 62.1032 39.8304 62.1896 39.7531L62.1897 39.753L62.1897 39.753C62.6734 39.3203 63.191 38.8573 64.0265 38.8434C63.9277 40.0963 63.2602 40.9557 62.6132 41.7888L62.6131 41.7889L62.6131 41.7889C62.3991 42.0644 62.1874 42.3371 61.9992 42.6201C61.5752 43.2566 61.1581 43.8994 60.741 44.5423L60.7409 44.5425L60.7408 44.5426C58.1067 48.6025 55.4697 52.667 51.0625 55.176C50.9121 55.2616 50.7647 55.3669 50.6171 55.4724C50.2404 55.7416 49.8618 56.0122 49.426 55.961C47.0358 55.6827 45.5944 57.0947 44.1488 58.5109L44.1487 58.511C43.891 58.7634 43.6332 59.016 43.3699 59.2591C42.6673 59.9068 42.2373 60.7883 42.8771 61.5437C43.4555 62.2253 44.0559 61.7776 44.5985 61.3729C44.7233 61.2799 44.8451 61.189 44.9628 61.1148C45.457 60.8042 45.9443 60.4821 46.4377 60.156L46.4378 60.1559L46.4379 60.1558ZM92.6413 53.3417C92.5021 53.4423 92.3667 53.5508 92.2312 53.6594C91.9411 53.8919 91.6511 54.1243 91.3247 54.2781C86.5682 56.5189 81.5376 57.6378 76.3068 57.3803C71.9736 57.1674 70.3039 53.45 72.8513 49.8855C74.6527 47.3643 77.2421 45.776 79.8186 44.1957L79.8194 44.1952C80.2385 43.9381 80.6572 43.6813 81.0722 43.4206C82.7758 42.3507 84.4908 41.299 86.2058 40.2473L86.2059 40.2472C90.1554 37.8253 94.1049 35.4035 97.9142 32.7583C99.137 31.9095 100.231 30.919 101.158 29.754C102.219 28.4214 102.338 27.0755 101.11 25.7577C100.919 25.5537 100.727 25.3511 100.535 25.1485C100.091 24.6801 99.6473 24.2116 99.2249 23.7247C96.4987 20.5831 97.1074 16.1223 100.492 13.696C105.61 10.0277 111.196 7.4426 117.324 6.00909C120.365 5.29753 122.236 6.8275 121.857 9.81918C121.412 7.46932 120.242 6.63458 117.599 7.18068C111.449 8.44948 105.69 10.6725 100.742 14.6925C97.6217 17.2286 97.3778 19.6824 99.9186 22.766C99.9969 22.8618 100.083 22.9501 100.171 23.0369C104.579 27.4331 103.605 29.7437 99.0572 32.9935C95.201 35.7486 91.1685 38.2538 87.1357 40.7592L87.1356 40.7593L87.1354 40.7594C85.1578 41.988 83.18 43.2167 81.2229 44.475C80.7448 44.7824 80.2599 45.0817 79.7749 45.3812L79.7746 45.3814C77.281 46.9209 74.7836 48.4629 73.186 51.1046C71.8828 53.2586 72.442 54.9147 74.7915 55.7517C76.5247 56.369 78.3082 56.2837 80.0844 56.0581C84.1168 55.5469 88.1205 54.9058 91.8493 53.1466C91.989 53.0807 92.1487 53.0588 92.3084 53.0368C92.3826 53.0266 92.4568 53.0165 92.529 53.0019C92.548 53.0588 92.5668 53.1161 92.5857 53.1734C92.5931 53.1959 92.6004 53.2183 92.6078 53.2407L92.6413 53.3417ZM117.741 15.5334L118.331 14.2451C117.583 14.1694 117.384 14.513 117.227 14.832C116.859 15.5816 116.495 16.3337 116.132 17.0857C114.35 20.7701 112.569 24.4542 110.25 27.8501C109.974 28.2537 109.763 28.8043 110.316 29.1582C110.739 29.4278 111.024 29.1048 111.274 28.8217C111.312 28.7784 111.35 28.7359 111.387 28.6967C113.46 26.4937 115.257 24.0704 116.917 21.5447C117.084 21.2904 117.255 21.038 117.426 20.7855C118.268 19.5423 119.112 18.2963 119.515 16.8057C118.937 17.4846 118.464 18.2474 117.993 19.0092C117.22 20.2572 116.448 21.5026 115.216 22.372C115.134 22.3301 115.053 22.2884 114.971 22.2466C114.89 22.2049 114.809 22.1632 114.727 22.1212C115.725 19.939 116.724 17.7568 117.741 15.5334Z" fill="#231F20"/>
</svg>
