<?xml version="1.0" encoding="UTF-8"?>
<svg width="350px" height="574px" viewBox="0 0 350 574" version="1.1" xmlns="http://www.w3.org/2000/svg" xmlns:xlink="http://www.w3.org/1999/xlink">
    <title>Group 23</title>
    <defs>
        <polygon id="path-1" points="0.00027 0.48906 348.7104 0.48906 348.7104 349.19946 0.00027 349.19946"></polygon>
        <polygon id="path-3" points="0 0.13698 279.7632 0.13698 279.7632 279.9 0 279.9"></polygon>
        <polygon id="path-5" points="0.41049 -9e-05 22.0104 -9e-05 22.0104 159.29991 0.41049 159.29991"></polygon>
        <polygon id="path-7" points="0.76293 0 22.36293 0 22.36293 572.39991 0.76293 572.39991"></polygon>
    </defs>
    <g id="Design-Copy" stroke="none" stroke-width="1" fill="none" fill-rule="evenodd">
        <g id="People" transform="translate(120.000000, -1527.000000)">
            <g id="Co-directors" transform="translate(0.000000, 825.000000)">
                <g id="Group-23" transform="translate(-120.000000, 702.000000)">
                    <path d="M10.8,327.11031 C4.8357,327.11031 0,331.94601 0,337.91031 C0,343.87461 4.8357,348.71031 10.8,348.71031 C67.6647,348.71031 121.1256,370.85481 161.3358,411.06411 C201.5451,451.27341 223.6896,504.73521 223.6896,561.59991 C223.6896,567.56421 228.5253,572.39991 234.4896,572.39991 C240.4539,572.39991 245.2896,567.56421 245.2896,561.59991 C245.2896,498.96531 220.8978,440.08011 176.6088,395.79201 C132.3189,351.50121 73.4346,327.11031 10.8,327.11031" id="Fill-1" fill="#5A97D0"></path>
                    <g id="Group-5" transform="translate(0.000000, 223.200000)">
                        <mask id="mask-2" fill="white">
                            <use xlink:href="#path-1"></use>
                        </mask>
                        <g id="Clip-4"></g>
                        <path d="M322.15167,206.86716 C305.13177,166.62636 280.76877,130.49136 249.73857,99.46026 C218.70927,68.43186 182.57247,44.06886 142.33347,27.04896 C100.66707,9.42606 56.41227,0.48906 10.80027,0.48906 C4.83597,0.48906 0.00027,5.32386 0.00027,11.28906 C0.00027,17.25336 4.83597,22.08906 10.80027,22.08906 C95.28957,22.08906 174.72177,54.99216 234.46467,114.73506 C294.20847,174.47796 327.11067,253.91106 327.11067,338.39946 C327.11067,344.36376 331.94637,349.19946 337.91067,349.19946 C343.87497,349.19946 348.71067,344.36376 348.71067,338.39946 C348.71067,292.78746 339.77457,248.53266 322.15167,206.86716" id="Fill-3" fill="#5A97D0" mask="url(#mask-2)"></path>
                    </g>
                    <path d="M10.8,258.1632 C4.8357,258.1632 0,262.9989 0,268.9632 C0,274.9275 4.8357,279.7632 10.8,279.7632 C86.0814,279.7632 156.8565,309.0789 210.0888,362.3112 C263.3211,415.5435 292.6368,486.3186 292.6368,561.6 C292.6368,567.5643 297.4725,572.4 303.4368,572.4 C309.4011,572.4 314.2368,567.5643 314.2368,561.6 C314.2368,480.5487 282.6738,404.3493 225.3618,347.0382 C168.0507,289.7262 91.8513,258.1632 10.8,258.1632" id="Fill-6" fill="#5A97D0"></path>
                    <g id="Group-10" transform="translate(0.000000, 292.500000)">
                        <mask id="mask-4" fill="white">
                            <use xlink:href="#path-3"></use>
                        </mask>
                        <g id="Clip-9"></g>
                        <path d="M10.8,0.13698 C4.8357,0.13698 0,4.97268 0,10.93698 C0,16.90128 4.8357,21.73698 10.8,21.73698 C76.8735,21.73698 138.9915,47.46708 185.7123,94.18788 C232.4331,140.90778 258.1632,203.02758 258.1632,269.10018 C258.1632,275.06538 262.9989,279.90018 268.9632,279.90018 C274.9275,279.90018 279.7632,275.06538 279.7632,269.10018 C279.7632,197.25678 251.7858,129.71538 200.9853,78.91398 C150.1848,28.11348 82.6425,0.13698 10.8,0.13698" id="Fill-8" fill="#5A97D0" mask="url(#mask-4)"></path>
                    </g>
                    <g id="Group-13" transform="translate(326.700000, 413.100000)">
                        <mask id="mask-6" fill="white">
                            <use xlink:href="#path-5"></use>
                        </mask>
                        <g id="Clip-12"></g>
                        <path d="M11.21049,-9e-05 C5.24619,-9e-05 0.41049,4.83561 0.41049,10.79991 L0.41049,148.49991 C0.41049,154.46421 5.24619,159.29991 11.21049,159.29991 C17.17479,159.29991 22.01049,154.46421 22.01049,148.49991 L22.01049,10.79991 C22.01049,4.83561 17.17479,-9e-05 11.21049,-9e-05" id="Fill-11" fill="#AD6BB3" mask="url(#mask-6)"></path>
                    </g>
                    <path d="M303.43707,137.69991 C297.47187,137.69991 292.63707,142.53561 292.63707,148.49991 L292.63707,561.59991 C292.63707,567.56421 297.47187,572.39991 303.43707,572.39991 C309.40227,572.39991 314.23707,567.56421 314.23707,561.59991 L314.23707,148.49991 C314.23707,142.53561 309.40227,137.69991 303.43707,137.69991" id="Fill-14" fill="#AD6BB3"></path>
                    <g id="Group-18" transform="translate(257.400000, 0.000000)">
                        <mask id="mask-8" fill="white">
                            <use xlink:href="#path-7"></use>
                        </mask>
                        <g id="Clip-17"></g>
                        <path d="M11.56293,-9e-05 C5.59773,-9e-05 0.76293,4.83561 0.76293,10.79991 L0.76293,561.59991 C0.76293,567.56421 5.59773,572.39991 11.56293,572.39991 C17.52813,572.39991 22.36293,567.56421 22.36293,561.59991 L22.36293,10.79991 C22.36293,4.83561 17.52813,-9e-05 11.56293,-9e-05" id="Fill-16" fill="#AD6BB3" mask="url(#mask-8)"></path>
                    </g>
                    <path d="M234.48951,275.39991 C228.52521,275.39991 223.68951,280.23561 223.68951,286.19991 L223.68951,561.59991 C223.68951,567.56421 228.52521,572.39991 234.48951,572.39991 C240.45381,572.39991 245.28951,567.56421 245.28951,561.59991 L245.28951,286.19991 C245.28951,280.23561 240.45381,275.39991 234.48951,275.39991" id="Fill-19" fill="#AD6BB3"></path>
                    <path d="M258.16293,561.59991 C258.16293,561.97251 258.18183,562.34061 258.21873,562.70421 C258.77223,568.15011 263.37123,572.39991 268.96293,572.39991 C274.55463,572.39991 279.15363,568.15011 279.70623,562.70421 C279.74403,562.34061 279.76293,561.97251 279.76293,561.59991 C279.76293,524.57931 272.31543,488.70801 258.16293,455.67441 L258.16293,561.59991 Z M292.63743,417.69531 C301.50963,435.02571 308.73393,453.13371 314.23743,471.82851 L314.23743,412.77231 C307.83753,399.72681 300.63033,387.15741 292.63743,375.10011 L292.63743,417.69531 Z M223.68933,561.59991 C223.68933,567.56421 228.52503,572.39991 234.48933,572.39991 C240.45363,572.39991 245.28933,567.56421 245.28933,561.59991 C245.28933,526.98861 237.82743,493.52841 223.68933,463.03641 L223.68933,561.59991 Z M292.63743,561.59991 C292.63743,561.97251 292.65633,562.34061 292.69323,562.70421 C293.24583,568.15011 297.84573,572.39991 303.43743,572.39991 C309.02913,572.39991 313.62813,568.15011 314.18073,562.70421 C314.21763,562.34061 314.23743,561.97251 314.23743,561.59991 C314.23743,522.31851 306.80253,484.18551 292.63743,448.78131 L292.63743,561.59991 Z M327.11013,442.47411 L327.11013,561.59991 C327.11013,567.56421 331.94583,572.39991 337.91013,572.39991 C343.87443,572.39991 348.71013,567.56421 348.71013,561.59991 C348.71013,520.48701 341.44713,480.47931 327.11013,442.47411 L327.11013,442.47411 Z M223.68933,345.40551 L223.68933,376.90281 C231.51933,385.90101 238.73013,395.31231 245.28933,405.09531 L245.28933,368.97651 C239.04063,361.39761 232.39773,354.07341 225.36243,347.03811 C224.80983,346.48551 224.24463,345.95271 223.68933,345.40551 L223.68933,345.40551 Z M258.16293,364.43241 C265.99743,374.22261 273.20553,384.40971 279.76293,394.94871 L279.76293,357.01281 C273.01383,348.16311 265.81023,339.62751 258.16293,331.42221 L258.16293,364.43241 Z M223.68933,327.65661 C227.34603,330.99111 230.94243,334.41201 234.46503,337.93461 C238.17753,341.64711 241.78563,345.43611 245.28933,349.29711 L245.28933,318.31641 C238.33323,311.60511 231.12873,305.22231 223.68933,299.17251 L223.68933,327.65661 Z M223.68933,435.45681 C232.55163,450.35451 239.77953,466.10541 245.28933,482.48451 L245.28933,429.62391 C238.92273,418.35231 231.70923,407.51091 223.68933,397.17081 L223.68933,435.45681 Z M258.16293,426.30111 C267.02973,442.45701 274.25763,459.42291 279.76293,476.99631 L279.76293,420.84891 C273.39723,408.72051 266.18913,396.99891 258.16293,385.75791 L258.16293,426.30111 Z" id="Fill-21" fill="#C0BDEE"></path>
                </g>
            </g>
        </g>
    </g>
</svg>