<?xml version="1.0" encoding="UTF-8"?>
<svg width="326px" height="126px" viewBox="0 0 326 126" version="1.1" xmlns="http://www.w3.org/2000/svg" xmlns:xlink="http://www.w3.org/1999/xlink">
    <title>Group 22 Copy</title>
    <defs>
        <polygon id="path-1" points="0 0.0792 172.7784 0.0792 172.7784 21.67911 0 21.67911"></polygon>
        <polygon id="path-3" points="9e-05 0.35289 324.4068 0.35289 324.4068 21.95289 9e-05 21.95289"></polygon>
        <polygon id="path-5" points="0 0.0792 28.08 0.0792 28.08 21.67911 0 21.67911"></polygon>
    </defs>
    <g id="Design-Copy" stroke="none" stroke-width="1" fill="none" fill-rule="evenodd">
        <g id="People" transform="translate(-1139.000000, -1709.000000)">
            <g id="Co-directors" transform="translate(0.000000, 825.000000)">
                <g id="Group-22-Copy" transform="translate(1301.714844, 946.997070) rotate(-180.000000) translate(-1301.714844, -946.997070) translate(1139.214844, 883.997070)">
                    <g id="Group-3" transform="translate(0.000000, 0.820800)">
                        <mask id="mask-2" fill="white">
                            <use xlink:href="#path-1"></use>
                        </mask>
                        <g id="Clip-2"></g>
                        <path d="M10.8,21.67911 L161.9784,21.67911 C167.9436,21.67911 172.7784,16.84341 172.7784,10.87911 C172.7784,4.91481 167.9436,0.07911 161.9784,0.07911 L10.8,0.07911 C4.8357,0.07911 0,4.91481 0,10.87911 C0,16.84341 4.8357,21.67911 10.8,21.67911" id="Fill-1" fill="#AD6BB3" mask="url(#mask-2)"></path>
                    </g>
                    <path d="M161.97849,69.84747 L10.80009,69.84747 C4.83489,69.84747 9e-05,74.68317 9e-05,80.64747 C9e-05,86.61177 4.83489,91.44747 10.80009,91.44747 L161.97849,91.44747 C167.94279,91.44747 172.77849,86.61177 172.77849,80.64747 C172.77849,74.68317 167.94279,69.84747 161.97849,69.84747" id="Fill-4" fill="#AD6BB3"></path>
                    <g id="Group-8" transform="translate(0.000000, 35.020800)">
                        <mask id="mask-4" fill="white">
                            <use xlink:href="#path-3"></use>
                        </mask>
                        <g id="Clip-7"></g>
                        <path d="M313.60689,0.35289 L10.80009,0.35289 C4.83489,0.35289 9e-05,5.18859 9e-05,11.15289 C9e-05,17.11719 4.83489,21.95289 10.80009,21.95289 L313.60689,21.95289 C319.57119,21.95289 324.40689,17.11719 324.40689,11.15289 C324.40689,5.18859 319.57119,0.35289 313.60689,0.35289" id="Fill-6" fill="#AD6BB3" mask="url(#mask-4)"></path>
                    </g>
                    <path d="M17.28018,104.3208 L10.80018,104.3208 C4.83498,104.3208 0.00018,109.1565 0.00018,115.1208 C0.00018,121.0851 4.83498,125.9208 10.80018,125.9208 L17.28018,125.9208 C23.24448,125.9208 28.08018,121.0851 28.08018,115.1208 C28.08018,109.1565 23.24448,104.3208 17.28018,104.3208" id="Fill-9" fill="#AD6BB3"></path>
                    <path d="M161.97849,104.3208 L10.80009,104.3208 C4.83489,104.3208 9e-05,109.1565 9e-05,115.1208 C9e-05,121.0851 4.83489,125.9208 10.80009,125.9208 L161.97849,125.9208 C167.94279,125.9208 172.77849,121.0851 172.77849,115.1208 C172.77849,109.1565 167.94279,104.3208 161.97849,104.3208" id="Fill-11" fill="#5A97D0"></path>
                    <path d="M10.8,56.97369 L161.9784,56.97369 C167.9436,56.97369 172.7784,52.13799 172.7784,46.17369 C172.7784,40.20939 167.9436,35.37369 161.9784,35.37369 L10.8,35.37369 C4.8357,35.37369 0,40.20939 0,46.17369 C0,52.13799 4.8357,56.97369 10.8,56.97369" id="Fill-13" fill="#5A97D0"></path>
                    <path d="M313.15689,69.84747 L10.80009,69.84747 C4.83489,69.84747 9e-05,74.68317 9e-05,80.64747 C9e-05,86.61177 4.83489,91.44747 10.80009,91.44747 L313.15689,91.44747 C319.12119,91.44747 323.95689,86.61177 323.95689,80.64747 C323.95689,74.68317 319.12119,69.84747 313.15689,69.84747" id="Fill-15" fill="#5A97D0"></path>
                    <g id="Group-19" transform="translate(0.000000, 0.820800)">
                        <mask id="mask-6" fill="white">
                            <use xlink:href="#path-5"></use>
                        </mask>
                        <g id="Clip-18"></g>
                        <path d="M10.8,21.67911 L17.28,21.67911 C23.2452,21.67911 28.08,16.84341 28.08,10.87911 C28.08,4.91481 23.2452,0.07911 17.28,0.07911 L10.8,0.07911 C4.8357,0.07911 0,4.91481 0,10.87911 C0,16.84341 4.8357,21.67911 10.8,21.67911" id="Fill-17" fill="#5A97D0" mask="url(#mask-6)"></path>
                    </g>
                    <path d="M17.28018,104.3208 L10.80018,104.3208 C4.83498,104.3208 0.00018,109.1565 0.00018,115.1208 C0.00018,121.0851 4.83498,125.9208 10.80018,125.9208 L17.28018,125.9208 C23.24448,125.9208 28.08018,121.0851 28.08018,115.1208 C28.08018,109.1565 23.24448,104.3208 17.28018,104.3208 M161.97858,69.8472 L10.80018,69.8472 C4.83498,69.8472 0.00018,74.682 0.00018,80.6472 C0.00018,86.6115 4.83498,91.4472 10.80018,91.4472 L161.97858,91.4472 C167.94288,91.4472 172.77858,86.6115 172.77858,80.6472 C172.77858,74.682 167.94288,69.8472 161.97858,69.8472 M10.80018,22.5 L17.28018,22.5 C23.24448,22.5 28.08018,17.6643 28.08018,11.7 C28.08018,5.7348 23.24448,0.9 17.28018,0.9 L10.80018,0.9 C4.83498,0.9 0.00018,5.7348 0.00018,11.7 C0.00018,17.6643 4.83498,22.5 10.80018,22.5 M10.80018,56.9736 L161.97858,56.9736 C167.94288,56.9736 172.77858,52.1388 172.77858,46.1736 C172.77858,40.2093 167.94288,35.3736 161.97858,35.3736 L10.80018,35.3736 C4.83498,35.3736 0.00018,40.2093 0.00018,46.1736 C0.00018,52.1388 4.83498,56.9736 10.80018,56.9736" id="Fill-20" fill="#C0BDEE"></path>
                </g>
            </g>
        </g>
    </g>
</svg>