<?xml version="1.0" encoding="UTF-8"?>
<svg width="595px" height="724px" viewBox="0 0 595 724" version="1.1" xmlns="http://www.w3.org/2000/svg" xmlns:xlink="http://www.w3.org/1999/xlink">
    <title>Group 69</title>
    <g id="Design-Copy" stroke="none" stroke-width="1" fill="none" fill-rule="evenodd">
        <g id="Education" transform="translate(-738.000000, -4180.000000)">
            <g id="Footer-Copy" transform="translate(24.000000, 4180.000000)">
                <g id="Group" transform="translate(676.000000, 415.500000) scale(1, -1) translate(-676.000000, -415.500000) translate(45.000000, 67.000000)">
                    <g id="Group-69" transform="translate(669.000000, 40.000000)">
                        <path d="M235.8178,346.4614 C236.8278,408.8914 261.5378,467.4334 305.6878,511.6874 C350.7678,556.8754 410.7018,581.7614 474.4518,581.7614 C475.274856,581.7614 476.078773,581.843459 476.855814,581.999845 L595,582 L595,606 L475,606 C474.818801,606.0053 474.635779,606.0094 474.4518,606.0094 C404.2158,606.0094 338.1838,578.5934 288.5218,528.8114 C266.3518,506.5894 248.6438,481.0894 235.8178,453.4134 L235.8178,346.4614 Z" id="Combined-Shape" fill="#9C5EA2"></path>
                        <path d="M235.8174,484.828 C247.4934,504.42 261.6674,522.698 278.1854,539.256 C330.6114,591.808 400.3134,620.75 474.4514,620.75 C475.293553,620.75 476.115596,620.83603 476.909222,620.999785 L595,621 L595,645 L475,645 L475.00039,644.935768 C474.818411,644.943894 474.635385,644.948 474.4514,644.948 C393.8394,644.948 318.0534,613.482 261.0534,556.346 C251.9834,547.254 243.5674,537.68 235.8174,527.69 L235.8174,484.828 Z" id="Combined-Shape" fill="#9D5DA3"></path>
                        <path d="M235.3174,550.404 C240.2094,556.042 245.3094,561.54 250.6334,566.876 C310.4174,626.806 389.9054,659.81 474.4514,659.81 C475.1844,659.81 475.902206,659.875046 476.599359,659.999679 L595,660 L595,684 L475.6181,684.000591 C475.234143,684.037249 474.844962,684.056 474.4514,684.056 C383.4174,684.056 297.8354,648.522 233.4674,584 C233.0734,583.606 232.6954,583.202 232.3034,582.806 C233.7634,572.092 234.7674,561.286 235.3174,550.404 Z" id="Combined-Shape" fill="#9D5DA3"></path>
                        <path d="M229.424,600.7166 C295.904133,664.345414 382.770534,699.293919 474.999962,699.310594 L475,699 L595,699 L595,723 L479.011443,723.000825 C477.774123,723.424601 476.446902,723.6546 475.066,723.6546 C423.728,723.6546 373.92,713.5726 327.026,693.6906 C288.95,677.5466 254.156,655.5266 223.282,628.1266 C225.668,619.0706 227.718,609.9306 229.424,600.7166 Z" id="Combined-Shape" fill="#9D5DA3"></path>
                        <path d="M196.899,461.57 L196.899,344.51 C197.113,374.694 202.091,404.12 211.475,431.928 L211.475,491.11 C206.063,481.528 201.211,471.664 196.899,461.57" id="Fill-3" fill="#9C5EA2"></path>
                        <path d="M157.884,469.3848 L157.884,180.0528 C157.89,180.2148 157.908,180.3768 157.908,180.5408 L157.908,342.4788 C157.908,375.6008 162.958,407.9408 172.652,438.6368 L172.652,501.4468 C167.168,491.0168 162.244,480.3168 157.884,469.3848" id="Fill-9" fill="#9C5EA2"></path>
                        <path d="M133.6618,342.4778 L133.6618,180.5398 C133.6618,180.3758 133.6798,180.2158 133.6858,180.0518 L133.6858,344.5098 C133.6818,343.8318 133.6618,343.1558 133.6618,342.4778" id="Fill-11" fill="#9C5EA2"></path>
                        <path d="M196.899,530.6498 L196.899,495.3098 C201.393,503.4838 206.245,511.4778 211.475,519.2578 L211.475,530.6498 C211.475,539.9838 211.107,549.2618 210.403,558.4698 C205.637,552.6378 201.091,546.6638 196.745,540.5698 C196.839,537.2698 196.899,533.9638 196.899,530.6498" id="Fill-13" fill="#9C5EA2"></path>
                        <path d="M157.884,504.7656 C162.426,513.6616 167.35,522.3756 172.65,530.8856 C172.64,544.2096 171.814,557.4076 170.2,570.4216 C165.654,564.3296 161.318,558.0916 157.152,551.7436 C157.628,544.7556 157.884,537.7216 157.884,530.6496 L157.884,504.7656 Z" id="Fill-15" fill="#9C5EA2"></path>
                        <path d="M208.2722,578.6744 C206.9222,588.8024 205.1622,598.8324 202.9682,608.7364 C198.7882,604.4464 194.7182,600.0724 190.7602,595.6164 C192.7982,584.9464 194.3422,574.1424 195.3662,563.2284 C199.5082,568.4804 203.8142,573.6284 208.2722,578.6744" id="Fill-17" fill="#9C5EA2"></path>
                        <path d="M94.7738,342.4778 C94.7738,342.1538 94.7978,341.8378 94.8218,341.5198 L94.8218,348.3238 C94.7938,346.3778 94.7738,344.4298 94.7738,342.4778" id="Fill-21" fill="#9C5EA2"></path>
                        <path d="M124.66,490.8424 C122.7,486.1964 120.838,481.5204 119.068,476.8184 L119.068,341.5204 C119.094,341.8364 119.118,342.1544 119.118,342.4784 C119.118,377.3664 124.1,411.4844 133.686,444.0344 L133.686,510.5944 C130.508,504.1084 127.482,497.5324 124.66,490.8424" id="Fill-23" fill="#9C5EA2"></path>
                        <path d="M94.8228,348.3238 C95.4808,392.6338 103.6208,435.7618 119.0688,476.8178 L119.0688,530.6498 C119.0688,601.0358 91.7228,667.2098 42.0688,716.9838 C40.7160517,718.339762 39.3511589,719.679132 37.9743674,721.001805 L0.837709517,721.001805 C9.24783468,714.547953 17.2872732,707.493572 24.9028,699.8598 C69.9908,654.6638 94.8228,594.5718 94.8228,530.6498 L94.8228,348.3238 Z" id="Path" fill="#3B8DC7"></path>
                        <path d="M106.9454,330.3062 C100.5454,330.3062 95.3114,335.2462 94.8214,341.5202 L94.8214,180.5402 C94.8214,173.8462 100.2494,168.4182 106.9454,168.4182 C113.6414,168.4182 119.0694,173.8462 119.0694,180.5402 L119.0694,341.5202 C118.5794,335.2462 113.3454,330.3062 106.9454,330.3062" id="Fill-27" fill="#3B8DC7"></path>
                        <path d="M94.822,348.3246 L94.822,341.5206 C95.312,335.2466 100.546,330.3066 106.946,330.3066 C113.344,330.3066 118.58,335.2466 119.068,341.5206 L119.068,476.8186 C103.622,435.7626 95.48,392.6346 94.822,348.3246" id="Fill-29" fill="#BFBCDD"></path>
                        <path d="M133.6872,180.0514 L133.6872,12.5264 C133.6872,5.8444 139.1032,0.4284 145.7852,0.4284 C152.4672,0.4284 157.8832,5.8444 157.8832,12.5264 L157.8832,180.0514 C157.6252,173.5854 152.3152,168.4174 145.7852,168.4174 C139.2552,168.4174 133.9452,173.5854 133.6872,180.0514 Z" id="Fill-31" fill="#3B8DC7"></path>
                        <path d="M157.884,504.7656 C147.956,485.3196 139.862,465.0056 133.686,444.0356 L133.686,344.5096 C133.938,387.9756 142.242,430.1676 157.884,469.3856 L157.884,504.7656 Z" id="Fill-33" fill="#3B8DC7"></path>
                        <path d="M133.6868,510.5938 C140.6628,524.8258 148.4948,538.5538 157.1508,551.7438 C152.894653,614.074871 129.825711,672.715724 90.6755852,721.001476 L58.5889668,721.001476 C107.085815,669.237152 133.6868,601.993036 133.6868,530.6498 L133.6868,510.5938 Z" id="Path" fill="#3B8DC7"></path>
                        <path d="M133.6864,344.5092 L133.6864,180.0512 C133.9444,173.5852 139.2544,168.4172 145.7844,168.4172 C152.3144,168.4172 157.6264,173.5852 157.8844,180.0512 L157.8844,469.3852 C142.2424,430.1672 133.9384,387.9752 133.6864,344.5092" id="Fill-37" fill="#BFBCDD"></path>
                        <path d="M157.884,530.6498 C157.884,537.7218 157.628,544.7558 157.152,551.7438 C148.494,538.5538 140.664,524.8258 133.686,510.5938 L133.686,444.0358 C139.862,465.0038 147.956,485.3198 157.884,504.7658 L157.884,530.6498 Z" id="Fill-39" fill="#BFBCDD"></path>
                        <path d="M170.2004,570.4224 C176.6684,579.0904 183.5384,587.4844 190.7604,595.6164 C182.172677,640.557285 164.695318,683.06259 139.195703,721.000931 L109.45427,721.000931 C142.564315,676.903488 163.399816,625.286742 170.2004,570.4224 Z" id="Path" fill="#3B8DC7"></path>
                        <path d="M196.8744,180.5408 C196.8744,173.8588 191.4584,168.4428 184.7764,168.4428 C178.0924,168.4428 172.6764,173.8588 172.6764,180.5408 L172.6764,342.4788 C172.6764,384.0988 181.0284,424.4288 196.8984,461.5708 L196.8984,495.3108 C186.9684,477.2468 178.8564,458.2808 172.6524,438.6368 L172.6524,18.8008 C172.6524,12.1068 178.0804,6.6768 184.7764,6.6768 C191.4704,6.6768 196.8984,12.1068 196.8984,18.8008 L196.8984,344.5108 C196.8944,343.8328 196.8744,343.1568 196.8744,342.4788 L196.8744,180.5408 Z" id="Fill-43" fill="#3B8DC7"></path>
                        <path d="M172.6494,530.8862 C172.6494,530.8082 172.6514,530.7282 172.6514,530.6502 L172.6514,501.4482 C179.7614,514.9682 187.8034,528.0342 196.7454,540.5702 C196.5294,548.1682 196.0694,555.7242 195.3654,563.2282 C187.1634,552.8262 179.5874,542.0302 172.6494,530.8862" id="Fill-45" fill="#3B8DC7"></path>
                        <path d="M172.6768,342.4778 L172.6768,180.5398 C172.6768,173.8578 178.0928,168.4418 184.7748,168.4418 C191.4588,168.4418 196.8748,173.8578 196.8748,180.5398 L196.8748,342.4778 C196.8748,343.1558 196.8948,343.8318 196.8988,344.5098 L196.8988,461.5698 C181.0288,424.4278 172.6768,384.0998 172.6768,342.4778" id="Fill-47" fill="#BFBCDD"></path>
                        <path d="M196.899,530.6498 C196.899,533.9638 196.839,537.2698 196.745,540.5698 C187.803,528.0338 179.761,514.9678 172.653,501.4478 L172.653,438.6378 C178.855,458.2818 186.969,477.2478 196.899,495.3098 L196.899,530.6498 Z" id="Fill-49" fill="#BFBCDD"></path>
                        <path d="M195.3654,563.228 C194.3414,574.144 192.7994,584.948 190.7594,595.616 C183.5374,587.484 176.6674,579.092 170.2014,570.422 C171.8134,557.408 172.6394,544.21 172.6494,530.886 C179.5874,542.03 187.1634,552.826 195.3654,563.228" id="Fill-51" fill="#BFBCDD"></path>
                        <path d="M211.4742,491.1108 C218.6482,503.8168 226.7782,516.0388 235.8182,527.6908 L235.8182,530.6508 C235.8182,537.2608 235.6482,543.8448 235.3182,550.4028 C226.6862,540.4568 218.7302,530.0588 211.4742,519.2588 L211.4742,491.1108 Z" id="Fill-53" fill="#3B8DC7"></path>
                        <path d="M211.4742,180.5408 C211.4742,173.8188 216.9242,168.3688 223.6462,168.3688 C230.3682,168.3688 235.8182,173.8188 235.8182,180.5408 L235.8182,346.4628 C235.7962,345.1348 235.7702,343.8088 235.7702,342.4788 C235.7702,335.7828 230.3402,330.3548 223.6462,330.3548 C216.9502,330.3548 211.5222,335.7828 211.5222,342.4788 C211.5222,381.4388 219.9162,419.1008 235.8182,453.4128 L235.8182,484.8268 C225.8342,468.0748 217.6922,450.3548 211.4742,431.9288 L211.4742,180.5408 Z" id="Fill-55" fill="#3B8DC7"></path>
                        <path d="M202.9682,608.7356 L205.081978,610.916933 C205.435311,611.2796 205.7902,611.640933 206.1482,611.9996 C211.7102,617.5756 217.4342,622.9376 223.2822,628.1276 C218.7262,645.4136 212.9442,662.3976 205.9322,679.0156 C199.823365,693.493463 192.873553,707.500681 185.107556,721.000388 L156.746884,721.000388 C178.535045,686.495222 194.13341,648.608419 202.9682,608.7356 Z" id="Path" fill="#3B8DC7"></path>
                        <path d="M208.2722,578.6744 C209.1642,571.9804 209.8842,565.2464 210.4022,558.4704 C217.2722,566.8744 224.5802,574.9904 232.3042,582.8064 C231.4862,588.8064 230.5242,594.7764 229.4242,600.7164 C227.3922,598.7724 225.3762,596.8044 223.3822,594.8064 C218.1542,589.5664 213.1322,584.1764 208.2722,578.6744" id="Fill-59" fill="#3B8DC7"></path>
                        <path d="M223.6458,330.3544 C230.3418,330.3544 235.7698,335.7824 235.7698,342.4784 C235.7698,343.8084 235.7958,345.1344 235.8178,346.4624 L235.8178,453.4124 C219.9158,419.1004 211.5218,381.4384 211.5218,342.4784 C211.5218,335.7824 216.9498,330.3544 223.6458,330.3544" id="Fill-61" fill="#BFBCDD"></path>
                        <path d="M211.4742,431.9282 C217.6922,450.3542 225.8342,468.0742 235.8182,484.8262 L235.8182,527.6902 C226.7782,516.0382 218.6482,503.8182 211.4742,491.1102 L211.4742,431.9282 Z" id="Fill-63" fill="#BFBCDD"></path>
                        <path d="M210.403,558.4702 C211.107,549.2602 211.475,539.9842 211.475,530.6502 L211.475,519.2582 C218.731,530.0582 226.687,540.4562 235.317,550.4022 C234.767,561.2862 233.763,572.0922 232.305,582.8062 C224.581,574.9902 217.271,566.8742 210.403,558.4702" id="Fill-65" fill="#BFBCDD"></path>
                        <path d="M223.3824,594.8066 C225.3764,596.8046 227.3924,598.7726 229.4244,600.7166 C227.7164,609.9306 225.6684,619.0706 223.2824,628.1266 C217.4344,622.9366 211.7104,617.5746 206.1484,612.0006 C205.0744,610.9226 204.0284,609.8246 202.9684,608.7366 C205.1624,598.8326 206.9204,588.8026 208.2724,578.6746 C213.1324,584.1766 218.1544,589.5666 223.3824,594.8066" id="Fill-67" fill="#BFBCDD"></path>
                    </g>
                </g>
            </g>
        </g>
    </g>
</svg>