<?xml version="1.0" encoding="UTF-8"?>
<svg width="282px" height="168px" viewBox="0 0 282 168" version="1.1" xmlns="http://www.w3.org/2000/svg" xmlns:xlink="http://www.w3.org/1999/xlink">
    <title>Group 66</title>
    <g id="Design-Copy" stroke="none" stroke-width="1" fill="none" fill-rule="evenodd">
        <g id="Home" transform="translate(-1119.000000, -2587.000000)">
            <g id="By-the-numbers" transform="translate(-3.000000, 2144.000000)">
                <g id="Group-66" transform="translate(1122.920898, 443.956360)">
                    <path d="M280.079651,0.956829015 L280.079651,27.0437402 C272.373476,31.7556566 264.422789,36.0092344 256.2615,39.79118 L160.0065,39.79118 C203.593752,39.0860202 245.074126,25.5446111 280.079651,0.956829015 Z" id="Path" fill="#3A8DC7"></path>
                    <path d="M280.079404,61.6996401 L280.079404,67.1225435 C274.672503,69.8734909 269.176879,72.4373508 263.60334,74.81828 L158.24934,74.81828 C185.41494,74.62568 211.89834,70.14548 236.92554,61.69988 L280.079404,61.6996401 Z" id="Path" fill="#3A8DC7"></path>
                    <path d="M280.000406,96.64 L280.000406,106.016135 C276.901148,107.373131 273.779468,108.678445 270.63648,109.93196 L156.03768,109.93196 C156.18348,109.92656 156.32928,109.91036 156.47688,109.91036 L156.42108,109.91036 C186.23088,109.91036 215.33688,105.36536 242.96328,96.64076 L280.000406,96.64 Z" id="Path" fill="#3A8DC7"></path>
                    <path d="M281.000176,131.71 L281.000176,143.460361 C279.777774,143.93607 278.55332,144.404692 277.3269,144.86636 L155.5587,144.86636 C155.8431,144.84296 156.1293,144.82136 156.4209,144.82136 C187.8201,144.82136 218.5263,140.33756 247.8213,131.71016 L281.000176,131.71 Z" id="Path" fill="#3A8DC7"></path>
                    <path d="M280.07876,166.68664 L161.68176,166.68686 C201.56076,166.09466 240.37596,158.76866 277.32636,144.86546 L280.07876,144.86464 L280.07876,166.68664 Z" id="Path" fill="#9D5DA3"></path>
                    <path d="M161.6823,166.68776 L155.5587,166.68776 C149.9121,166.24676 145.4661,161.53616 145.4661,155.77616 C145.4661,150.01796 149.9121,145.30556 155.5587,144.86636 L277.3269,144.86636 C240.3765,158.76776 201.5613,166.09556 161.6823,166.68776" id="Fill-27" fill="#BFBCDD"></path>
                    <path d="M145.56582,120.82088 C145.56582,126.69788 150.21702,131.47688 156.03642,131.70908 L11.17962,131.70908 C5.16582,131.70908 0.29142,126.83468 0.29142,120.82088 C0.29142,114.80708 5.16582,109.93268 11.17962,109.93268 L156.03642,109.93268 C150.21702,110.16488 145.56582,114.94388 145.56582,120.82088" id="Fill-29" fill="#9D5DA3"></path>
                    <path d="M280.079903,109.93164 L280.079903,120.28977 C269.551596,124.669279 258.786618,128.481017 247.82238,131.71016 L158.24898,131.71016 C197.36838,131.48336 235.34118,124.00976 270.63738,109.93196 L280.079903,109.93164 Z" id="Path" fill="#9D5DA3"></path>
                    <path d="M158.24862,131.7098 L156.03642,131.7098 C150.21702,131.4776 145.56582,126.6986 145.56582,120.8216 C145.56582,114.9446 150.21702,110.1638 156.03642,109.9316 L270.63702,109.9316 C235.34082,124.0094 197.36802,131.483 158.24862,131.7098" id="Fill-35" fill="#BFBCDD"></path>
                    <path d="M280.079532,120.28977 L280.07856,131.70977 L247.82256,131.71016 C258.785753,128.481017 269.550899,124.669279 280.079532,120.28977 Z" id="Path" fill="#BFBCDD"></path>
                    <path d="M10.91088,74.819 L158.24988,74.819 L156.47688,74.8406 C150.46308,74.8406 145.58868,79.715 145.58868,85.7288 C145.58868,91.6473742 150.307109,96.4612644 156.186795,96.6150115 L156.46828,96.6186401 L157.742642,96.6156801 C194.73273,96.4409976 230.569348,88.9339647 263.60388,74.819 L280.078393,74.8186401 L280.078393,81.962787 C268.072127,87.7230499 255.675441,92.6256246 242.96328,96.6404 L10.91088,96.6404 C4.88628,96.6404 -0.00072,91.7552 -0.00072,85.7288 C-0.00072,79.7042 4.88628,74.819 10.91088,74.819 Z" id="Path" fill="#9D5DA3"></path>
                    <path d="M156.42036,96.61826 L156.47616,96.61826 C150.46236,96.61826 145.58796,91.74386 145.58796,85.73006 C145.58796,79.71446 150.46236,74.84006 156.47616,74.84006 L156.42036,74.84006 C157.03056,74.84006 157.63896,74.82206 158.24916,74.81846 L263.60316,74.81846 C230.17536,89.10146 193.88016,96.61826 156.42036,96.61826" id="Fill-46" fill="#BFBCDD"></path>
                    <path d="M280.078804,81.9623735 L280.07836,96.6393735 L242.96436,96.63968 C255.676521,92.6261988 268.073207,87.7230572 280.078804,81.9623735 Z" id="Path" fill="#BFBCDD"></path>
                    <path d="M280.000431,39.791 L280.000431,42.4284874 C266.27209,50.2203031 251.856611,56.6623538 236.92608,61.70078 L156.47688,61.70078 C153.328515,61.70078 150.490189,60.3723851 148.491864,58.2455554 L148.332731,58.0702186 C150.32918,60.2736094 153.21348,61.65758 156.42108,61.65758 C191.48508,61.65758 225.38088,54.10298 256.26168,39.791 L280.000431,39.791 Z" id="Path" fill="#9D5DA3"></path>
                    <path d="M145.5093,50.74616 C145.5093,44.71976 150.3945,39.83456 156.4209,39.83456 C157.6179,39.83456 158.8113,39.81116 160.0065,39.79136 L256.2615,39.79136 C225.3807,54.10316 191.4849,61.65776 156.4209,61.65776 C150.3945,61.65776 145.5093,56.77256 145.5093,50.74616" id="Fill-58" fill="#BFBCDD"></path>
                    <path d="M280.080017,42.3830928 L280.07872,61.7000928 L236.92572,61.70078 C251.885236,56.6525726 266.327699,50.1952856 280.080017,42.3830928 Z" id="Path" fill="#BFBCDD"></path>
                </g>
            </g>
        </g>
    </g>
</svg>