<?xml version="1.0" encoding="UTF-8"?>
<svg width="743px" height="386px" viewBox="0 0 743 386" version="1.1" xmlns="http://www.w3.org/2000/svg" xmlns:xlink="http://www.w3.org/1999/xlink">
    <title>Group 66</title>
    <g id="Design-Copy" stroke="none" stroke-width="1" fill="none" fill-rule="evenodd">
        <g id="Home" transform="translate(-657.000000, -2995.000000)">
            <g id="By-the-numbers" transform="translate(-3.000000, 2144.000000)">
                <g id="Group-66" transform="translate(1031.500000, 1044.000000) rotate(-270.000000) translate(-1031.500000, -1044.000000) translate(839.000000, 673.000000)">
                    <polygon id="Rectangle" fill="#3A8DC7" points="375.998985 613.7919 384.5 613.79118 384.5 624.018707 371.83917 635.70078 351.790825 635.70078"></polygon>
                    <path d="M385.001356,0 L385.001356,462.546259 C374.211883,501.425071 353.491616,537.057084 324.1215,566.35758 C304.1199,586.31058 281.1717,602.24778 256.2615,613.79118 L160.0065,613.79118 C216.1935,612.88218 268.8795,590.64318 308.7081,550.90818 C349.3791,510.33618 371.7765,456.39558 371.7765,399.02058 L371.7765,0 L385.001356,0 Z" id="Path" fill="#9C5EA2"></path>
                    <path d="M263.60334,648.81828 L158.24934,648.81828 C185.41494,648.62568 211.89834,644.14548 236.92554,635.69988 L290.18934,635.69988 C281.56554,640.57068 272.68794,644.93748 263.60334,648.81828" id="Fill-3" fill="#9C5EA2"></path>
                    <path d="M385.001265,501.432524 L385.001265,546.687187 C374.675658,562.527432 362.609484,577.404205 348.90156,591.0795 C340.71876,599.2425 332.10216,606.8169 323.11116,613.7919 L284.53536,613.7919 C302.16816,603.2835 318.61836,590.5269 333.52056,575.6607 C355.37579,553.857871 372.693842,528.735081 385.001265,501.432524 Z" id="Path" fill="#9C5EA2"></path>
                    <path d="M385.000842,569.910116 L385.001451,604.129235 C381.842372,607.625146 378.594589,611.060254 375.259246,614.431807 L354.766371,614.283759 L354.766371,614.283759 L349.525044,614.256955 L349.525044,614.256955 L344.846509,614.242883 L344.846509,614.242883 L343.55394,614.2419 L343.55394,614.2419 C348.62814,609.8391 353.57634,605.2491 358.37874,600.4575 C368.040918,590.818861 376.925434,580.611141 385.000842,569.910116 Z" id="Path" fill="#9C5EA2"></path>
                    <path d="M270.63648,683.93196 L156.03768,683.93196 C156.18348,683.92656 156.32928,683.91036 156.47688,683.91036 L156.42108,683.91036 C186.23088,683.91036 215.33688,679.36536 242.96328,670.64076 L299.49228,670.64076 C290.10528,675.57636 280.47528,680.00796 270.63648,683.93196" id="Fill-9" fill="#9C5EA2"></path>
                    <path d="M156.42036,705.73194 L156.47616,705.73194 C156.32856,705.73194 156.18456,705.71574 156.03696,705.71034 L158.24916,705.71034 C157.63896,705.71394 157.03056,705.73194 156.42036,705.73194" id="Fill-11" fill="#9C5EA2"></path>
                    <path d="M293.96916,648.81828 C301.32576,644.77368 308.52036,640.40688 315.52236,635.69988 C334.737429,635.70048 346.894194,635.633853 351.992657,635.5 C346.743857,639.7894 340.18776,645.04548 334.70316,648.95688 C331.73316,648.87228 328.75776,648.81828 325.77516,648.81828 L293.96916,648.81828 Z" id="Fill-13" fill="#9C5EA2"></path>
                    <path d="M302.47938,683.93196 C310.48578,679.84416 318.32838,675.41256 325.98738,670.64256 C332.35795,670.5 353.1726,670.5 365.57032,670.5 C360.08752,674.5914 350.47278,680.84136 344.75958,684.59076 C338.47038,684.16236 332.13978,683.93196 325.77498,683.93196 L302.47938,683.93196 Z" id="Fill-15" fill="#9C5EA2"></path>
                    <polygon id="Fill-17" fill="#9C5EA2" points="384.5 635.70078 384.519481 648.81828 356.932518 648.81828 371.9973 635.58258"></polygon>
                    <path d="M156.42036,740.73114 C156.12876,740.73114 155.84436,740.70954 155.55816,740.68794 L161.68176,740.68794 C159.93036,740.71314 158.17716,740.73114 156.42036,740.73114" id="Fill-19" fill="#9C5EA2"></path>
                    <path d="M289.9485,713.83356 C285.7671,715.59756 281.5587,717.27336 277.3269,718.86636 L155.5587,718.86636 C155.8431,718.84296 156.1293,718.82136 156.4209,718.82136 C187.8201,718.82136 218.5263,714.33756 247.8213,705.71016 L307.7253,705.71016 C301.8879,708.57036 295.9695,711.29376 289.9485,713.83356" id="Fill-21" fill="#9C5EA2"></path>
                    <path d="M384.24474,718.86546 L384.24474,740.68686 L161.68176,740.68686 C201.56076,740.09466 240.37596,732.76866 277.32636,718.86546 L384.24474,718.86546 Z" id="Fill-23" fill="#3B8DC7"></path>
                    <path d="M145.46574,729.7767 C145.46574,735.5367 149.91174,740.2473 155.55834,740.6883 L156.47634,740.6883 C150.45174,740.6883 145.56654,735.8031 145.56654,729.7767 C145.56654,723.7503 150.45174,718.8651 156.47634,718.8651 L155.55834,718.8651 C149.91174,719.3061 145.46574,724.0167 145.46574,729.7767" id="Fill-25" fill="#3B8DC7"></path>
                    <path d="M161.6823,740.68776 L155.5587,740.68776 C149.9121,740.24676 145.4661,735.53616 145.4661,729.77616 C145.4661,724.01796 149.9121,719.30556 155.5587,718.86636 L277.3269,718.86636 C240.3765,732.76776 201.5613,740.09556 161.6823,740.68776" id="Fill-27" fill="#BFBCDD"></path>
                    <path d="M145.56582,694.82088 C145.56582,700.69788 150.21702,705.47688 156.03642,705.70908 L11.17962,705.70908 C5.16582,705.70908 0.29142,700.83468 0.29142,694.82088 C0.29142,688.80708 5.16582,683.93268 11.17962,683.93268 L156.03642,683.93268 C150.21702,684.16488 145.56582,688.94388 145.56582,694.82088" id="Fill-29" fill="#3B8DC7"></path>
                    <path d="M302.47938,683.93196 C284.97798,692.86716 266.69538,700.15176 247.82238,705.71016 L158.24898,705.71016 C197.36838,705.48336 235.34118,698.00976 270.63738,683.93196 L302.47938,683.93196 Z" id="Fill-31" fill="#3B8DC7"></path>
                    <path d="M384.5,705.70944 L307.72476,705.70944 C320.53356,699.43104 333.67761,691.72236 345.54861,683.93196 L384.5,683.93196 L384.5,705.70944 Z" id="Fill-33" fill="#3B8DC7"></path>
                    <path d="M158.24862,705.7098 L156.03642,705.7098 C150.21702,705.4776 145.56582,700.6986 145.56582,694.8216 C145.56582,688.9446 150.21702,684.1638 156.03642,683.9316 L270.63702,683.9316 C235.34082,698.0094 197.36802,705.483 158.24862,705.7098" id="Fill-35" fill="#BFBCDD"></path>
                    <path d="M345.54861,683.93196 C333.67761,691.72416 320.53356,699.42996 307.72476,705.71016 L247.82256,705.71016 C266.69376,700.15176 284.97816,692.86716 302.47956,683.93196 C326.175326,683.93196 340.531676,683.93196 345.54861,683.93196 Z" id="Fill-37" fill="#BFBCDD"></path>
                    <polygon id="Fill-39" fill="#3B8DC7" points="384.519481 670.5 365.57032 670.5632 384.485762 655.351656"></polygon>
                    <path d="M156.47688,648.8406 C150.46308,648.8406 145.58868,653.715 145.58868,659.7288 C145.58868,665.7444 150.46308,670.6188 156.47688,670.6188 L156.42108,670.6188 C193.87908,670.6188 230.17608,663.102 263.60388,648.819 L293.96988,648.819 C277.71228,657.756 260.64288,665.0568 242.96328,670.6404 L10.91088,670.6404 C4.88628,670.6404 -0.00072,665.7552 -0.00072,659.7288 C-0.00072,653.7042 4.88628,648.819 10.91088,648.819 L158.24988,648.819 C157.63968,648.8226 157.03128,648.8406 156.42108,648.8406 L156.47688,648.8406 Z" id="Fill-41" fill="#3B8DC7"></path>
                    <path d="M325.77552,670.6413 L299.49372,670.6413 C311.66172,664.2423 323.42076,657.00468 334.70316,648.95688 C336.576355,648.81828 349.319633,648.81828 356.932518,648.81828 C347.570718,656.20008 336.01752,664.3989 325.98792,670.6431 C325.91772,670.6431 325.84572,670.6413 325.77552,670.6413 Z" id="Fill-44" fill="#3B8DC7"></path>
                    <path d="M156.42036,670.61826 L156.47616,670.61826 C150.46236,670.61826 145.58796,665.74386 145.58796,659.73006 C145.58796,653.71446 150.46236,648.84006 156.47616,648.84006 L156.42036,648.84006 C157.03056,648.84006 157.63896,648.82206 158.24916,648.81846 L263.60316,648.81846 C230.17536,663.10146 193.88016,670.61826 156.42036,670.61826" id="Fill-46" fill="#BFBCDD"></path>
                    <path d="M325.77516,648.81828 C328.75776,648.81828 331.73316,648.87228 334.70316,648.95688 C323.42076,657.00468 311.66136,664.24248 299.49336,670.63968 L242.96436,670.63968 C260.64396,665.05788 277.71336,657.75528 293.96916,648.81828 L325.77516,648.81828 Z" id="Fill-48" fill="#BFBCDD"></path>
                    <path d="M290.19006,635.70078 C301.62546,629.24418 312.62436,621.9279 323.11116,613.7919 C334.38753,613.79142 341.388799,613.79118 344.114967,613.79118 C335.163567,621.55998 325.24326,629.17038 315.52326,635.70078 L290.19006,635.70078 Z" id="Fill-52" fill="#3B8DC7"></path>
                    <path d="M156.47688,635.70078 C150.42708,635.70078 145.52208,630.79578 145.52208,624.74598 C145.52208,618.69618 150.42708,613.79118 156.47688,613.79118 L160.00668,613.79118 C158.81148,613.81098 157.61808,613.83438 156.42108,613.83438 C150.39468,613.83438 145.50948,618.72138 145.50948,624.74598 C145.50948,630.77238 150.39468,635.65758 156.42108,635.65758 C191.48508,635.65758 225.38088,628.10298 256.26168,613.79118 L284.53428,613.79118 C269.45748,622.77678 253.50948,630.10458 236.92608,635.70078 L156.47688,635.70078 Z" id="Fill-54" fill="#3B8DC7"></path>
                    <path d="M145.5093,624.74616 C145.5093,618.71976 150.3945,613.83456 156.4209,613.83456 C157.6179,613.83456 158.8113,613.81116 160.0065,613.79136 L256.2615,613.79136 C225.3807,628.10316 191.4849,635.65776 156.4209,635.65776 C150.3945,635.65776 145.5093,630.77256 145.5093,624.74616" id="Fill-58" fill="#BFBCDD"></path>
                    <path d="M236.92572,635.70078 C253.50912,630.10458 269.45712,622.77678 284.53392,613.79118 L323.11152,613.79118 C312.62472,621.92718 301.62672,629.24418 290.18952,635.70078 L236.92572,635.70078 Z" id="Fill-60" fill="#BFBCDD"></path>
                    <path d="M351.790825,635.70078 C349.741946,635.70078 337.652578,635.70054 315.52272,635.70006 C325.24272,629.16966 335.163567,621.55818 344.114967,613.79118 C346.164413,613.7919 373.930096,613.79118 375.998985,613.79118 C370.999937,618.315168 362.93055,625.618368 351.790825,635.70078 Z" id="Fill-62" fill="#BFBCDD"></path>
                    <polygon id="Fill-64" fill="#BFBCDD" points="384.5 635.70078 371.83917 635.70078 384.5 624.018707"></polygon>
                </g>
            </g>
        </g>
    </g>
</svg>