<svg width="500" height="818" xmlns="http://www.w3.org/2000/svg" xmlns:xlink="http://www.w3.org/1999/xlink"><defs><path id="a" d="M0 .697h497.587V497.86H0z"/><path id="c" d="M0 .196h399.662v399.661H0z"/><path id="e" d="M.589 0H31.58v227.002H.59z"/><path id="g" d="M.095 0h30.99v817.143H.096z"/></defs><g fill="none" fill-rule="evenodd"><path d="M16.41 467C7.9 467 1 473.9 1 482.41s6.9 15.41 15.41 15.41c81.14 0 157.422 31.598 214.798 88.972 57.374 57.374 88.971 133.658 88.971 214.798 0 8.51 6.9 15.41 15.41 15.41C344.1 817 351 810.1 351 801.59c0-89.373-34.804-173.395-98-236.59-63.196-63.197-147.217-98-236.59-98" fill="#5A97D0"/><g transform="translate(1 319)"><mask id="b" fill="#fff"><use xlink:href="#a"/></mask><path d="M459.69 294.933c-24.287-57.371-59.051-108.89-103.33-153.131C312.084 97.564 260.52 62.83 203.1 38.564 143.645 13.44 80.497.697 15.411.697 6.901.697.001 7.59.001 16.095c0 8.503 6.9 15.398 15.41 15.398 120.56 0 233.905 46.91 319.155 132.086 85.25 85.177 132.2 198.426 132.2 318.882 0 8.503 6.9 15.398 15.41 15.398s15.411-6.895 15.411-15.398c0-65.03-12.751-128.124-37.898-187.528" fill="#5A97D0" mask="url(#b)"/></g><path d="M16.397 369C7.894 369 1 375.894 1 384.397s6.894 15.398 15.397 15.398c107.327 0 208.23 41.794 284.122 117.686 75.892 75.892 117.686 176.795 117.686 284.122 0 8.503 6.895 15.397 15.398 15.397S449 810.106 449 801.603c0-115.553-44.999-224.189-126.707-305.896C240.586 413.999 131.95 369 16.397 369" fill="#5A97D0"/><g transform="translate(1 417)"><mask id="d" fill="#fff"><use xlink:href="#c"/></mask><path d="M15.429.196C6.909.196 0 7.104 0 15.624s6.908 15.429 15.429 15.429c94.39 0 183.13 36.757 249.874 103.501 66.744 66.743 103.502 155.485 103.502 249.875 0 8.522 6.908 15.428 15.428 15.428s15.429-6.906 15.429-15.428c0-102.634-39.968-199.121-112.54-271.695C214.55 40.162 118.06.196 15.429.196" fill="#5A97D0" mask="url(#d)"/></g><g transform="translate(467 590)"><mask id="f" fill="#fff"><use xlink:href="#e"/></mask><path d="M16.085 0C7.527 0 .589 6.89.589 15.39v196.222c0 8.5 6.938 15.39 15.496 15.39 8.557 0 15.495-6.89 15.495-15.39V15.39C31.58 6.89 24.642 0 16.085 0" fill="#AD6BB3" mask="url(#f)"/></g><path d="M434.5 197c-8.561 0-15.5 6.897-15.5 15.404v589.192c0 8.507 6.939 15.404 15.5 15.404s15.5-6.897 15.5-15.404V212.404c0-8.507-6.939-15.404-15.5-15.404" fill="#AD6BB3"/><g transform="translate(369)"><mask id="h" fill="#fff"><use xlink:href="#g"/></mask><path d="M15.59 0C7.032 0 .095 6.903.095 15.418v786.308c0 8.514 6.937 15.417 15.495 15.417 8.56 0 15.496-6.903 15.496-15.417V15.418C31.086 6.903 24.149 0 15.59 0" fill="#AD6BB3" mask="url(#h)"/></g><path d="M335.5 393c-8.56 0-15.5 6.903-15.5 15.418v393.164c0 8.515 6.94 15.418 15.5 15.418 8.56 0 15.5-6.903 15.5-15.418V408.418c0-8.515-6.94-15.418-15.5-15.418" fill="#AD6BB3"/><path d="M370.082 801.584c0 .532.027 1.058.08 1.577.788 7.773 7.336 13.839 15.297 13.839s14.509-6.066 15.296-13.84c.054-.518.08-1.044.08-1.576 0-52.842-10.603-104.044-30.753-151.196v151.196zm49.084-205.407a446.338 446.338 0 0130.753 77.27V589.15a479.723 479.723 0 00-30.753-53.772v60.8zM321 801.584c0 8.514 6.885 15.416 15.377 15.416 8.491 0 15.376-6.902 15.376-15.416 0-49.403-10.624-97.164-30.753-140.688v140.688zm98.166 0c0 .532.027 1.058.08 1.577.786 7.773 7.335 13.839 15.296 13.839 7.962 0 14.51-6.066 15.296-13.84.053-.518.081-1.044.081-1.576 0-56.07-10.585-110.5-30.753-161.035v161.035zm49.08-170.038v170.038c0 8.514 6.886 15.416 15.377 15.416 8.492 0 15.377-6.902 15.377-15.416 0-58.684-10.34-115.79-30.753-170.038zM321 492.992v44.959a404.14 404.14 0 0130.753 40.241v-51.555a440.816 440.816 0 00-28.37-31.314c-.788-.79-1.592-1.55-2.383-2.33zm49.082 27.159a451.282 451.282 0 0130.754 43.558V509.56a484.166 484.166 0 00-30.754-36.527v47.118zM321 467.658a460.799 460.799 0 0115.342 14.67 461.597 461.597 0 0115.411 16.219v-44.221A485.346 485.346 0 00321 427v40.658zm0 153.872a349.1 349.1 0 0130.753 67.126v-75.452A382.678 382.678 0 00321 566.881v54.649zm49.082-13.069a397.551 397.551 0 0130.754 72.362v-80.144a430.583 430.583 0 00-30.754-50.089v57.871z" fill="#C0BDEE"/></g></svg>