<?xml version="1.0" encoding="UTF-8"?>
<svg width="767px" height="519px" viewBox="0 0 767 519" version="1.1" xmlns="http://www.w3.org/2000/svg" xmlns:xlink="http://www.w3.org/1999/xlink">
    <title>Group 66</title>
    <g id="Design-Copy" stroke="none" stroke-width="1" fill="none" fill-rule="evenodd">
        <g id="People" transform="translate(-571.000000, -9853.000000)">
            <g id="Footer-Copy" transform="translate(23.000000, 9475.000000)">
                <g id="Group" transform="translate(45.000000, 360.000000)">
                    <g id="Group-66" transform="translate(503.000000, 18.000000)">
                        <polygon id="Rectangle" fill="#9D5DA3" points="748.10288 377.626258 757.488 377.625463 757.488 388.916653 743.510444 401.813661 721.377071 401.813661"></polygon>
                        <path d="M758.041497,0 L758.041497,210.651069 C746.129919,253.573279 723.254744,292.91102 690.830136,325.258768 C668.74837,347.28688 643.413557,364.881549 615.912696,377.625463 L509.647176,377.625463 C571.677624,376.621927 629.842968,352.070071 673.813742,308.202631 C718.714526,263.411143 743.441256,203.86072 743.441256,140.51872 L743.441176,0 L758.041497,0 Z" id="Path" fill="#3A8DC7"></path>
                        <path d="M624.018087,416.295381 L507.707271,416.295381 C537.698094,416.082751 566.935767,411.13661 594.565796,401.812668 L653.369031,401.812668 C643.848356,407.190031 634.047486,412.010978 624.018087,416.295381" id="Fill-3" fill="#3A8DC7"></path>
                        <path d="M758.041397,253.581506 L758.041397,303.542655 C746.641926,321.030285 733.32087,337.454242 718.187322,352.551768 C709.153511,361.56372 699.640785,369.925858 689.714721,377.626258 L647.127037,377.626258 C666.593649,366.024984 684.754669,351.941698 701.206698,335.529413 C725.334872,311.459089 744.454002,283.72353 758.041397,253.581506 Z" id="Path" fill="#3A8DC7"></path>
                        <path d="M758.04093,329.180768 L758.041602,366.958675 C754.553978,370.818161 750.968427,374.61052 747.286208,378.332715 L724.662074,378.16927 L724.662074,378.16927 L718.875649,378.139679 L718.875649,378.139679 L713.710545,378.124143 L713.710545,378.124143 L712.28355,378.123058 L712.28355,378.123058 C717.885467,373.262366 723.348279,368.195006 728.650129,362.90508 C739.317174,352.264022 749.12568,340.9947 758.04093,329.180768 Z" id="Path" fill="#3A8DC7"></path>
                        <path d="M631.782674,455.060884 L505.265599,455.060884 C505.426562,455.054922 505.587525,455.037037 505.750476,455.037037 L505.688872,455.037037 C538.598892,455.037037 570.731916,450.019357 601.231461,440.387399 L663.639477,440.387399 C653.276229,445.836301 642.644709,450.728788 631.782674,455.060884" id="Fill-9" fill="#3A8DC7"></path>
                        <path d="M505.688077,479.128062 L505.749681,479.128062 C505.58673,479.128062 505.427754,479.110177 505.264804,479.104215 L507.707073,479.104215 C507.033412,479.10819 506.361738,479.128062 505.688077,479.128062" id="Fill-11" fill="#9C5EA2"></path>
                        <path d="M657.541953,416.295381 C665.663639,411.830143 673.606477,407.009196 681.336685,401.812668 C702.550121,401.81333 715.97119,401.739774 721.599893,401.592 C715.805218,406.327498 708.567287,412.13021 702.512289,416.448396 C699.233409,416.354997 695.948567,416.295381 692.655777,416.295381 L657.541953,416.295381 Z" id="Fill-13" fill="#3A8DC7"></path>
                        <path d="M666.937236,455.060884 C675.776301,450.547953 684.434532,445.655466 692.890068,440.389386 C699.923177,440.232 722.90255,440.232 736.589633,440.232 C730.536622,444.748906 719.921949,451.648861 713.614576,455.788199 C706.6713,455.315245 699.682317,455.060884 692.655578,455.060884 L666.937236,455.060884 Z" id="Fill-15" fill="#3A8DC7"></path>
                        <polygon id="Fill-17" fill="#3A8DC7" points="757.488 401.813661 757.509507 416.295381 727.0535 416.295381 743.685019 401.683168"></polygon>
                        <path d="M505.688077,517.767179 C505.366151,517.767179 505.052173,517.743332 504.736209,517.719486 L511.496663,517.719486 C509.563117,517.747307 507.627585,517.767179 505.688077,517.767179" id="Fill-19" fill="#9C5EA2"></path>
                        <path d="M653.103144,488.07225 C648.486878,490.019706 643.840805,491.869789 639.168898,493.628461 L504.736805,493.628461 C505.050782,493.602628 505.366747,493.578781 505.688674,493.578781 C540.35339,493.578781 574.253035,488.628666 606.594715,479.104017 L672.728731,479.104017 C666.284242,482.261677 659.750328,485.268311 653.103144,488.07225" id="Fill-21" fill="#3A8DC7"></path>
                        <path d="M757.206193,493.627468 L757.206193,517.718293 L511.496663,517.718293 C555.523079,517.064505 598.37506,508.976601 639.168301,493.627468 L757.206193,493.627468 Z" id="Fill-23" fill="#9D5DA3"></path>
                        <path d="M493.594177,505.673477 C493.594177,512.032517 498.502561,517.233019 504.736407,517.719883 L505.749879,517.719883 C499.098721,517.719883 493.70546,512.326622 493.70546,505.673477 C493.70546,499.020331 499.098721,493.62707 505.749879,493.62707 L504.736407,493.62707 C498.502561,494.113934 493.594177,499.314437 493.594177,505.673477" id="Fill-25" fill="#3B8DC7"></path>
                        <path d="M511.497259,517.719287 L504.736805,517.719287 C498.502958,517.232423 493.594574,512.031921 493.594574,505.672881 C493.594574,499.315828 498.502958,494.113338 504.736805,493.628461 L639.168898,493.628461 C598.375656,508.975607 555.523675,517.065498 511.497259,517.719287" id="Fill-27" fill="#29162B"></path>
                        <path d="M343.143646,479.102824 L13,479.102824 C6.3607648,479.102824 0.9794272,473.721487 0.9794272,467.082252 C0.9794272,460.443016 6.3607648,455.061679 13,455.061679 L343.143646,455.061679 C336.719029,455.318028 331.584104,460.594044 331.584104,467.082252 C331.584104,473.57046 336.719029,478.846476 343.143646,479.102824 Z" id="Fill-29" fill="#9D5DA3"></path>
                        <path d="M666.937236,455.060884 C647.61569,464.925345 627.4317,472.967543 606.595908,479.104017 L507.706874,479.104017 C550.894692,478.853629 592.816663,470.602775 631.783668,455.060884 L666.937236,455.060884 Z" id="Fill-31" fill="#9D5DA3"></path>
                        <path d="M757.488,479.103222 L672.728135,479.103222 C686.86905,472.171868 701.380081,463.661485 714.485665,455.060884 L757.488,455.060884 L757.488,479.103222 Z" id="Fill-33" fill="#9D5DA3"></path>
                        <path d="M714.485665,455.060884 C701.380081,463.663473 686.86905,472.170676 672.728135,479.104017 L606.596106,479.104017 C627.429911,472.967543 647.615889,464.925345 666.937434,455.060884 C693.09756,455.060884 708.94697,455.060884 714.485665,455.060884 Z" id="Fill-37" fill="#29162B"></path>
                        <polygon id="Fill-39" fill="#9D5DA3" points="757.509507 440.232 736.589633 440.301773 757.472281 423.508228"></polygon>
                        <path d="M343.205249,416.320022 C336.566014,416.320022 331.184677,421.70136 331.184677,428.340595 C331.184677,434.981818 336.566014,440.363155 343.205249,440.363155 L343.143646,440.363155 C384.497278,440.363155 587.114392,432.064608 624.018684,416.296176 L657.542748,416.296176 C639.594357,426.162624 620.74974,434.222707 601.231461,440.387002 L172.928589,440.387002 C166.27743,440.387002 160.882182,434.993741 160.882182,428.340595 C160.882182,421.689437 166.27743,416.296176 172.928589,416.296176 L345.162641,416.296176 C344.488981,416.30015 343.817307,416.320022 343.143646,416.320022 L343.205249,416.320022 Z" id="Fill-41" fill="#9D5DA3"></path>
                        <path d="M692.656174,440.387995 L663.641067,440.387995 C677.074539,433.323499 690.056519,425.333167 702.512289,416.448396 C704.580296,416.295381 718.648875,416.295381 727.0535,416.295381 C716.718073,424.444888 703.963342,433.496386 692.890664,440.389982 C692.813163,440.389982 692.733675,440.387995 692.656174,440.387995 Z" id="Fill-44" fill="#9D5DA3"></path>
                        <path d="M692.655777,416.295381 C695.948567,416.295381 699.233409,416.354997 702.512289,416.448396 C690.056519,425.333167 677.074141,433.323698 663.640669,440.386207 L601.232653,440.386207 C620.750932,434.2239 639.595549,426.161829 657.541953,416.295381 L692.655777,416.295381 Z" id="Fill-48" fill="#29162B"></path>
                        <path d="M653.369826,401.813661 C665.994508,394.685575 678.137293,386.608402 689.714721,377.626258 C702.163833,377.625728 709.893234,377.625463 712.902924,377.625463 C703.020578,386.202218 692.068559,394.6041 681.337679,401.813661 L653.369826,401.813661 Z" id="Fill-52" fill="#9D5DA3"></path>
                        <path d="M505.750476,401.813661 C499.071496,401.813661 493.656376,396.398541 493.656376,389.719562 C493.656376,383.040583 499.071496,377.625463 505.750476,377.625463 L509.647375,377.625463 C508.327874,377.647322 507.01036,377.673156 505.688872,377.673156 C499.035727,377.673156 493.642466,383.068404 493.642466,389.719562 C493.642466,396.372708 499.035727,401.765968 505.688872,401.765968 C544.399528,401.765968 581.820492,393.42569 615.912895,377.625463 L647.125845,377.625463 C630.481058,387.545565 612.874466,395.635456 594.566392,401.813661 L505.750476,401.813661 Z" id="Fill-54" fill="#9D5DA3"></path>
                        <path d="M493.642267,389.719761 C493.642267,383.066615 499.035528,377.673354 505.688674,377.673354 C507.010162,377.673354 508.327675,377.647521 509.647176,377.625661 L615.912696,377.625661 C581.820293,393.425889 544.39933,401.766167 505.688674,401.766167 C499.035528,401.766167 493.642267,396.372906 493.642267,389.719761" id="Fill-58" fill="#29162B"></path>
                        <path d="M594.565995,401.813661 C612.874068,395.635456 630.48066,387.545565 647.125448,377.625463 L689.715118,377.625463 C678.137691,386.607607 665.995899,394.685575 653.36923,401.813661 L594.565995,401.813661 Z" id="Fill-60" fill="#29162B"></path>
                        <path d="M721.377071,401.813661 C719.115108,401.813661 705.768446,401.813396 681.337083,401.812866 C692.067963,394.603305 703.020578,386.200231 712.902924,377.625463 C715.165512,377.626258 745.818826,377.625463 748.10288,377.625463 C742.583931,382.619945 733.675328,390.682678 721.377071,401.813661 Z" id="Fill-62" fill="#29162B"></path>
                        <polygon id="Fill-62-Copy" fill="#29162B" points="736.589633 440.386207 692.890664 440.386207 727.0535 416.295381 766.596497 416.295381"></polygon>
                        <polygon id="Fill-64" fill="#29162B" points="757.488 401.813661 743.510444 401.813661 757.488 388.916653"></polygon>
                        <path d="M469.346047,328.701469 C469.346047,322.019469 474.762047,316.603469 481.444047,316.603469 C488.128047,316.603469 493.544047,322.019469 493.544047,328.701469 L493.544047,498.526531 C493.544047,499.204531 493.564047,499.880531 493.568047,500.558531 L493.568047,617.618531 C477.698047,580.476531 469.346047,540.148531 469.346047,498.526531 L469.346047,328.701469 Z" id="Fill-47" fill="#29162B" transform="translate(481.457047, 467.111000) rotate(-90.000000) translate(-481.457047, -467.111000) "></path>
                        <path d="M465.289578,455.883 L465.289578,293.945 C465.289578,287.263 470.705578,281.847 477.387578,281.847 C484.071578,281.847 489.487578,287.263 489.487578,293.945 L489.487578,455.883 C489.487578,456.561 489.507578,457.237 489.511578,457.915 L489.511578,574.975 C473.641578,537.833 465.289578,497.505 465.289578,455.883" id="Fill-47-Copy" fill="#29162B" transform="translate(477.400578, 428.411000) rotate(-90.000000) translate(-477.400578, -428.411000) "></path>
                        <path d="M418.551721,581.220348 C412.151721,581.220348 406.917721,586.160348 406.427721,592.434348 L406.427721,431.454348 C406.427721,424.760348 411.855721,419.332348 418.551721,419.332348 C425.247721,419.332348 430.675721,424.760348 430.675721,431.454348 L430.675721,592.434348 C430.185721,586.160348 424.951721,581.220348 418.551721,581.220348" id="Fill-27-Copy" fill="#9D5DA3" transform="translate(418.551721, 505.883348) rotate(-90.000000) translate(-418.551721, -505.883348) "></path>
                        <path d="M418.551721,465.220348 C412.151721,465.220348 406.917721,470.160348 406.427721,476.434348 L406.427721,315.454348 C406.427721,308.760348 411.855721,303.332348 418.551721,303.332348 C425.247721,303.332348 430.675721,308.760348 430.675721,315.454348 L430.675721,476.434348 C430.185721,470.160348 424.951721,465.220348 418.551721,465.220348" id="Fill-27-Copy-2" fill="#9D5DA3" transform="translate(418.551721, 389.883348) rotate(-90.000000) translate(-418.551721, -389.883348) "></path>
                    </g>
                </g>
            </g>
        </g>
    </g>
</svg>