<?xml version="1.0" encoding="UTF-8"?>
<svg width="1172px" height="385px" viewBox="0 0 1172 385" version="1.1" xmlns="http://www.w3.org/2000/svg" xmlns:xlink="http://www.w3.org/1999/xlink">
    <title>Group 66</title>
    <g id="Design-Copy" stroke="none" stroke-width="1" fill="none" fill-rule="evenodd">
        <g id="Research" transform="translate(-228.000000, -1774.000000)">
            <g id="By-the-numbers" transform="translate(-4.000000, 824.000000)">
                <g id="Group-2" transform="translate(0.000000, 1.000000)">
                    <g id="Group-66" transform="translate(818.000000, 1141.500000) rotate(-270.000000) translate(-818.000000, -1141.500000) translate(625.500000, 555.500000)">
                        <polygon id="Rectangle" fill="#3A8DC7" points="375.998985 1043.7919 384.5 1043.79118 384.5 1054.01871 371.83917 1065.70078 351.790825 1065.70078"></polygon>
                        <path d="M385.001356,0 L385.001356,892.546259 C374.211883,931.425071 353.491616,967.057084 324.1215,996.35758 C304.1199,1016.31058 281.1717,1032.24778 256.2615,1043.79118 L160.0065,1043.79118 C216.1935,1042.88218 268.8795,1020.64318 308.7081,980.90818 C349.3791,940.33618 371.7765,886.39558 371.7765,829.02058 L371.7765,0 L385.001356,0 Z" id="Path" fill="#9C5EA2"></path>
                        <path d="M263.60334,1078.81828 L158.24934,1078.81828 C185.41494,1078.62568 211.89834,1074.14548 236.92554,1065.69988 L290.18934,1065.69988 C281.56554,1070.57068 272.68794,1074.93748 263.60334,1078.81828" id="Fill-3" fill="#9C5EA2"></path>
                        <path d="M385.001265,931.432524 L385.001265,976.687187 C374.675658,992.527432 362.609484,1007.4042 348.90156,1021.0795 C340.71876,1029.2425 332.10216,1036.8169 323.11116,1043.7919 L284.53536,1043.7919 C302.16816,1033.2835 318.61836,1020.5269 333.52056,1005.6607 C355.37579,983.857871 372.693842,958.735081 385.001265,931.432524 Z" id="Path" fill="#9C5EA2"></path>
                        <path d="M385.000842,999.910116 L385.001451,1034.12923 C381.842372,1037.62515 378.594589,1041.06025 375.259246,1044.43181 L354.766371,1044.28376 L354.766371,1044.28376 L349.525044,1044.25696 L349.525044,1044.25696 L344.846509,1044.24288 L344.846509,1044.24288 L343.55394,1044.2419 L343.55394,1044.2419 C348.62814,1039.8391 353.57634,1035.2491 358.37874,1030.4575 C368.040918,1020.81886 376.925434,1010.61114 385.000842,999.910116 Z" id="Path" fill="#9C5EA2"></path>
                        <path d="M270.63648,1113.93196 L156.03768,1113.93196 C156.18348,1113.92656 156.32928,1113.91036 156.47688,1113.91036 L156.42108,1113.91036 C186.23088,1113.91036 215.33688,1109.36536 242.96328,1100.64076 L299.49228,1100.64076 C290.10528,1105.57636 280.47528,1110.00796 270.63648,1113.93196" id="Fill-9" fill="#9C5EA2"></path>
                        <path d="M156.42036,1135.73194 L156.47616,1135.73194 C156.32856,1135.73194 156.18456,1135.71574 156.03696,1135.71034 L158.24916,1135.71034 C157.63896,1135.71394 157.03056,1135.73194 156.42036,1135.73194" id="Fill-11" fill="#9C5EA2"></path>
                        <path d="M293.96916,1078.81828 C301.32576,1074.77368 308.52036,1070.40688 315.52236,1065.69988 C334.737429,1065.70048 346.894194,1065.63385 351.992657,1065.5 C346.743857,1069.7894 340.18776,1075.04548 334.70316,1078.95688 C331.73316,1078.87228 328.75776,1078.81828 325.77516,1078.81828 L293.96916,1078.81828 Z" id="Fill-13" fill="#9C5EA2"></path>
                        <path d="M302.47938,1113.93196 C310.48578,1109.84416 318.32838,1105.41256 325.98738,1100.64256 C332.35795,1100.5 353.1726,1100.5 365.57032,1100.5 C360.08752,1104.5914 350.47278,1110.84136 344.75958,1114.59076 C338.47038,1114.16236 332.13978,1113.93196 325.77498,1113.93196 L302.47938,1113.93196 Z" id="Fill-15" fill="#9C5EA2"></path>
                        <polygon id="Fill-17" fill="#9C5EA2" points="384.5 1065.70078 384.519481 1078.81828 356.932518 1078.81828 371.9973 1065.58258"></polygon>
                        <path d="M156.42036,1170.73114 C156.12876,1170.73114 155.84436,1170.70954 155.55816,1170.68794 L161.68176,1170.68794 C159.93036,1170.71314 158.17716,1170.73114 156.42036,1170.73114" id="Fill-19" fill="#9C5EA2"></path>
                        <path d="M289.9485,1143.83356 C285.7671,1145.59756 281.5587,1147.27336 277.3269,1148.86636 L155.5587,1148.86636 C155.8431,1148.84296 156.1293,1148.82136 156.4209,1148.82136 C187.8201,1148.82136 218.5263,1144.33756 247.8213,1135.71016 L307.7253,1135.71016 C301.8879,1138.57036 295.9695,1141.29376 289.9485,1143.83356" id="Fill-21" fill="#9C5EA2"></path>
                        <path d="M384.24474,1148.86546 L384.24474,1170.68686 L161.68176,1170.68686 C201.56076,1170.09466 240.37596,1162.76866 277.32636,1148.86546 L384.24474,1148.86546 Z" id="Fill-23" fill="#3B8DC7"></path>
                        <path d="M145.46574,1159.7767 C145.46574,1165.5367 149.91174,1170.2473 155.55834,1170.6883 L156.47634,1170.6883 C150.45174,1170.6883 145.56654,1165.8031 145.56654,1159.7767 C145.56654,1153.7503 150.45174,1148.8651 156.47634,1148.8651 L155.55834,1148.8651 C149.91174,1149.3061 145.46574,1154.0167 145.46574,1159.7767" id="Fill-25" fill="#3B8DC7"></path>
                        <path d="M161.6823,1170.68776 L155.5587,1170.68776 C149.9121,1170.24676 145.4661,1165.53616 145.4661,1159.77616 C145.4661,1154.01796 149.9121,1149.30556 155.5587,1148.86636 L277.3269,1148.86636 C240.3765,1162.76776 201.5613,1170.09556 161.6823,1170.68776" id="Fill-27" fill="#BFBCDD"></path>
                        <path d="M145.56582,1124.82088 C145.56582,1130.69788 150.21702,1135.47688 156.03642,1135.70908 L11.17962,1135.70908 C5.16582,1135.70908 0.29142,1130.83468 0.29142,1124.82088 C0.29142,1118.80708 5.16582,1113.93268 11.17962,1113.93268 L156.03642,1113.93268 C150.21702,1114.16488 145.56582,1118.94388 145.56582,1124.82088" id="Fill-29" fill="#3B8DC7"></path>
                        <path d="M302.47938,1113.93196 C284.97798,1122.86716 266.69538,1130.15176 247.82238,1135.71016 L158.24898,1135.71016 C197.36838,1135.48336 235.34118,1128.00976 270.63738,1113.93196 L302.47938,1113.93196 Z" id="Fill-31" fill="#3B8DC7"></path>
                        <path d="M384.5,1135.70944 L307.72476,1135.70944 C320.53356,1129.43104 333.67761,1121.72236 345.54861,1113.93196 L384.5,1113.93196 L384.5,1135.70944 Z" id="Fill-33" fill="#3B8DC7"></path>
                        <path d="M158.24862,1135.7098 L156.03642,1135.7098 C150.21702,1135.4776 145.56582,1130.6986 145.56582,1124.8216 C145.56582,1118.9446 150.21702,1114.1638 156.03642,1113.9316 L270.63702,1113.9316 C235.34082,1128.0094 197.36802,1135.483 158.24862,1135.7098" id="Fill-35" fill="#BFBCDD"></path>
                        <path d="M345.54861,1113.93196 C333.67761,1121.72416 320.53356,1129.42996 307.72476,1135.71016 L247.82256,1135.71016 C266.69376,1130.15176 284.97816,1122.86716 302.47956,1113.93196 C326.175326,1113.93196 340.531676,1113.93196 345.54861,1113.93196 Z" id="Fill-37" fill="#BFBCDD"></path>
                        <polygon id="Fill-39" fill="#3B8DC7" points="384.519481 1100.5 365.57032 1100.5632 384.485762 1085.35166"></polygon>
                        <path d="M156.47688,1078.8406 C150.46308,1078.8406 145.58868,1083.715 145.58868,1089.7288 C145.58868,1095.7444 150.46308,1100.6188 156.47688,1100.6188 L156.42108,1100.6188 C193.87908,1100.6188 230.17608,1093.102 263.60388,1078.819 L293.96988,1078.819 C277.71228,1087.756 260.64288,1095.0568 242.96328,1100.6404 L10.91088,1100.6404 C4.88628,1100.6404 -0.000720000021,1095.7552 -0.000720000021,1089.7288 C-0.000720000021,1083.7042 4.88628,1078.819 10.91088,1078.819 L158.24988,1078.819 C157.63968,1078.8226 157.03128,1078.8406 156.42108,1078.8406 L156.47688,1078.8406 Z" id="Fill-41" fill="#3B8DC7"></path>
                        <path d="M325.77552,1100.6413 L299.49372,1100.6413 C311.66172,1094.2423 323.42076,1087.00468 334.70316,1078.95688 C336.576355,1078.81828 349.319633,1078.81828 356.932518,1078.81828 C347.570718,1086.20008 336.01752,1094.3989 325.98792,1100.6431 C325.91772,1100.6431 325.84572,1100.6413 325.77552,1100.6413 Z" id="Fill-44" fill="#3B8DC7"></path>
                        <path d="M156.42036,1100.61826 L156.47616,1100.61826 C150.46236,1100.61826 145.58796,1095.74386 145.58796,1089.73006 C145.58796,1083.71446 150.46236,1078.84006 156.47616,1078.84006 L156.42036,1078.84006 C157.03056,1078.84006 157.63896,1078.82206 158.24916,1078.81846 L263.60316,1078.81846 C230.17536,1093.10146 193.88016,1100.61826 156.42036,1100.61826" id="Fill-46" fill="#BFBCDD"></path>
                        <path d="M325.77516,1078.81828 C328.75776,1078.81828 331.73316,1078.87228 334.70316,1078.95688 C323.42076,1087.00468 311.66136,1094.24248 299.49336,1100.63968 L242.96436,1100.63968 C260.64396,1095.05788 277.71336,1087.75528 293.96916,1078.81828 L325.77516,1078.81828 Z" id="Fill-48" fill="#BFBCDD"></path>
                        <path d="M290.19006,1065.70078 C301.62546,1059.24418 312.62436,1051.9279 323.11116,1043.7919 C334.38753,1043.79142 341.388799,1043.79118 344.114967,1043.79118 C335.163567,1051.55998 325.24326,1059.17038 315.52326,1065.70078 L290.19006,1065.70078 Z" id="Fill-52" fill="#3B8DC7"></path>
                        <path d="M156.47688,1065.70078 C150.42708,1065.70078 145.52208,1060.79578 145.52208,1054.74598 C145.52208,1048.69618 150.42708,1043.79118 156.47688,1043.79118 L160.00668,1043.79118 C158.81148,1043.81098 157.61808,1043.83438 156.42108,1043.83438 C150.39468,1043.83438 145.50948,1048.72138 145.50948,1054.74598 C145.50948,1060.77238 150.39468,1065.65758 156.42108,1065.65758 C191.48508,1065.65758 225.38088,1058.10298 256.26168,1043.79118 L284.53428,1043.79118 C269.45748,1052.77678 253.50948,1060.10458 236.92608,1065.70078 L156.47688,1065.70078 Z" id="Fill-54" fill="#3B8DC7"></path>
                        <path d="M145.5093,1054.74616 C145.5093,1048.71976 150.3945,1043.83456 156.4209,1043.83456 C157.6179,1043.83456 158.8113,1043.81116 160.0065,1043.79136 L256.2615,1043.79136 C225.3807,1058.10316 191.4849,1065.65776 156.4209,1065.65776 C150.3945,1065.65776 145.5093,1060.77256 145.5093,1054.74616" id="Fill-58" fill="#BFBCDD"></path>
                        <path d="M236.92572,1065.70078 C253.50912,1060.10458 269.45712,1052.77678 284.53392,1043.79118 L323.11152,1043.79118 C312.62472,1051.92718 301.62672,1059.24418 290.18952,1065.70078 L236.92572,1065.70078 Z" id="Fill-60" fill="#BFBCDD"></path>
                        <path d="M351.790825,1065.70078 C349.741946,1065.70078 337.652578,1065.70054 315.52272,1065.70006 C325.24272,1059.16966 335.163567,1051.55818 344.114967,1043.79118 C346.164413,1043.7919 373.930096,1043.79118 375.998985,1043.79118 C370.999937,1048.31517 362.93055,1055.61837 351.790825,1065.70078 Z" id="Fill-62" fill="#BFBCDD"></path>
                        <polygon id="Fill-64" fill="#BFBCDD" points="384.5 1065.70078 371.83917 1065.70078 384.5 1054.01871"></polygon>
                    </g>
                </g>
            </g>
        </g>
    </g>
</svg>