<svg id="Layer_1" data-name="Layer 1" xmlns="http://www.w3.org/2000/svg" xmlns:xlink="http://www.w3.org/1999/xlink" viewBox="0 0 475 566"><defs><style>.cls-1,.cls-2{fill:none;}.cls-2{clip-path:url(#clip-path);clip-rule:evenodd;}.cls-3{clip-path:url(#clip-path-4);}.cls-4{fill:#209196;}.cls-5{clip-path:url(#clip-path-5);}.cls-6{clip-path:url(#clip-path-6);}.cls-7{fill:#9b5ca1;}.cls-8{clip-path:url(#clip-path-7);}.cls-9{fill:#60ace2;}.cls-10{clip-path:url(#clip-path-8);}.cls-11{clip-path:url(#clip-path-9);}.cls-12{clip-path:url(#clip-path-10);}.cls-13{clip-path:url(#clip-path-11);}.cls-14{clip-path:url(#clip-path-12);}.cls-15{clip-path:url(#clip-path-13);}.cls-16{clip-path:url(#clip-path-14);}.cls-17{clip-path:url(#clip-path-15);}.cls-18{clip-path:url(#clip-path-16);}.cls-19{clip-path:url(#clip-path-17);}.cls-20{clip-path:url(#clip-path-18);}.cls-21{clip-path:url(#clip-path-19);}.cls-22{clip-path:url(#clip-path-20);}.cls-23{clip-path:url(#clip-path-21);}.cls-24{fill:#545454;}.cls-25{clip-path:url(#clip-path-22);}.cls-26{clip-path:url(#clip-path-23);}.cls-27{clip-path:url(#clip-path-24);}.cls-28{fill:#74ccec;}.cls-29{fill:#378dc6;}</style><clipPath id="clip-path"><rect class="cls-1" width="475" height="566"/></clipPath><clipPath id="clip-path-4"><rect class="cls-1" y="527" width="35" height="15"/></clipPath><clipPath id="clip-path-5"><rect class="cls-1" y="453" width="25" height="14"/></clipPath><clipPath id="clip-path-6"><rect class="cls-1" x="27" y="453" width="20" height="14"/></clipPath><clipPath id="clip-path-7"><rect class="cls-1" x="49" y="453" width="5" height="14"/></clipPath><clipPath id="clip-path-8"><rect class="cls-1" y="378" width="35" height="15"/></clipPath><clipPath id="clip-path-9"><rect class="cls-1" x="37" y="378" width="15" height="15"/></clipPath><clipPath id="clip-path-10"><rect class="cls-1" y="304" width="35" height="14"/></clipPath><clipPath id="clip-path-11"><rect class="cls-1" x="37" y="304" width="10" height="14"/></clipPath><clipPath id="clip-path-12"><rect class="cls-1" x="49" y="304" width="10" height="14"/></clipPath><clipPath id="clip-path-13"><rect class="cls-1" y="229" width="180" height="15"/></clipPath><clipPath id="clip-path-14"><rect class="cls-1" x="182" y="229" width="15" height="15"/></clipPath><clipPath id="clip-path-15"><rect class="cls-1" x="199" y="229" width="55" height="15"/></clipPath><clipPath id="clip-path-16"><rect class="cls-1" y="155" width="260" height="14"/></clipPath><clipPath id="clip-path-17"><rect class="cls-1" x="262" y="155" width="80" height="14"/></clipPath><clipPath id="clip-path-18"><rect class="cls-1" x="344" y="155" width="35" height="14"/></clipPath><clipPath id="clip-path-19"><rect class="cls-1" y="80" width="230" height="15"/></clipPath><clipPath id="clip-path-20"><rect class="cls-1" x="232" y="80" width="50" height="15"/></clipPath><clipPath id="clip-path-21"><rect class="cls-1" x="284" y="80" width="125" height="15"/></clipPath><clipPath id="clip-path-22"><path class="cls-2" d="M320,368a6,6,0,1,0-6-6,6,6,0,0,0,6,6Z"/></clipPath><clipPath id="clip-path-23"><path class="cls-2" d="M320,396a6,6,0,1,0-6-6,6,6,0,0,0,6,6Z"/></clipPath><clipPath id="clip-path-24"><path class="cls-2" d="M320,424a6,6,0,1,0-6-6,6,6,0,0,0,6,6Z"/></clipPath></defs><g class="cls-3"><rect class="cls-4" x="-5" y="522" width="45" height="25"/></g><g class="cls-5"><rect class="cls-4" x="-5" y="448" width="35" height="24"/></g><g class="cls-6"><rect class="cls-7" x="22" y="448" width="30" height="24"/></g><g class="cls-8"><rect class="cls-9" x="44" y="448" width="15" height="24"/></g><g class="cls-10"><rect class="cls-4" x="-5" y="373" width="45" height="25"/></g><g class="cls-11"><rect class="cls-7" x="32" y="373" width="25" height="25"/></g><g class="cls-12"><rect class="cls-4" x="-5" y="299" width="45" height="24"/></g><g class="cls-13"><rect class="cls-7" x="32" y="299" width="20" height="24"/></g><g class="cls-14"><rect class="cls-9" x="44" y="299" width="20" height="24"/></g><g class="cls-15"><rect class="cls-4" x="-5" y="224" width="190" height="25"/></g><g class="cls-16"><rect class="cls-7" x="177" y="224" width="25" height="25"/></g><g class="cls-17"><rect class="cls-9" x="194" y="224" width="65" height="25"/></g><g class="cls-18"><rect class="cls-4" x="-5" y="150" width="270" height="24"/></g><g class="cls-19"><rect class="cls-7" x="257" y="150" width="90" height="24"/></g><g class="cls-20"><rect class="cls-9" x="339" y="150" width="45" height="24"/></g><g class="cls-21"><rect class="cls-4" x="-5" y="75" width="240" height="25"/></g><g class="cls-22"><rect class="cls-7" x="227" y="75" width="60" height="25"/></g><g class="cls-23"><rect class="cls-9" x="279" y="75" width="135" height="25"/></g><path class="cls-24" d="M337.45,359.8a1.74,1.74,0,0,0-1.8-1.45,1.51,1.51,0,0,0-1.65,1.41,1.24,1.24,0,0,0,1.09,1.24l1.28.27a2.46,2.46,0,0,1,2.2,2.39,2.68,2.68,0,0,1-2.94,2.52,2.94,2.94,0,0,1-3.17-2.53l1.12-.36a1.94,1.94,0,0,0,2,1.82c1.18,0,1.75-.61,1.75-1.35a1.39,1.39,0,0,0-1.27-1.32l-1.21-.27a2.34,2.34,0,0,1-2.07-2.32,2.71,2.71,0,0,1,2.8-2.53,2.67,2.67,0,0,1,2.88,2.11Z"/><path class="cls-24" d="M345.1,364.36a2.61,2.61,0,0,1-2.59,1.82,3.08,3.08,0,0,1-.14-6.13c1.77,0,2.77,1.22,2.77,3a2.55,2.55,0,0,1,0,.36h-4.34a1.71,1.71,0,0,0,1.74,1.75,1.57,1.57,0,0,0,1.62-1.16ZM344,362.52a1.44,1.44,0,0,0-1.58-1.47,1.55,1.55,0,0,0-1.57,1.47Z"/><path class="cls-24" d="M351.6,364.36a2.6,2.6,0,0,1-2.59,1.82,3.08,3.08,0,0,1-.14-6.13c1.78,0,2.77,1.22,2.77,3a2.93,2.93,0,0,1,0,.36h-4.34a1.7,1.7,0,0,0,1.73,1.75,1.56,1.56,0,0,0,1.62-1.16Zm-1.13-1.84a1.46,1.46,0,0,0-1.59-1.47,1.55,1.55,0,0,0-1.57,1.47Z"/><path class="cls-24" d="M357.12,365.12a1.9,1.9,0,0,1-1.78,1,2.79,2.79,0,0,1-2.74-3.06,2.84,2.84,0,0,1,2.74-3,1.76,1.76,0,0,1,1.76,1v-3.73h1.12v7.61a7.65,7.65,0,0,0,.06,1.07h-1.09a4,4,0,0,1-.07-.78Zm-1.67,0c1,0,1.66-.9,1.66-2.09s-.62-2-1.65-2a1.8,1.8,0,0,0-1.71,2C353.75,364.29,354.37,365.16,355.45,365.16Z"/><path class="cls-24" d="M363.81,366.06a1.54,1.54,0,0,0,1.57,1.42c1.21,0,1.76-.63,1.76-1.88v-.82a1.91,1.91,0,0,1-1.76.94,2.63,2.63,0,0,1-2.65-2.79,2.66,2.66,0,0,1,2.65-2.81,1.83,1.83,0,0,1,1.78.92v-.81h1.11v5.34a2.64,2.64,0,0,1-2.89,2.89,2.52,2.52,0,0,1-2.66-2.15Zm3.38-3.13a1.67,1.67,0,1,0-1.64,1.85A1.66,1.66,0,0,0,367.19,362.93Z"/><path class="cls-24" d="M373.28,361.37a4.4,4.4,0,0,0-.49,0c-1,0-1.59.51-1.59,1.78V366h-1.13v-5.77h1.11v1a1.81,1.81,0,0,1,1.73-1.11,2.28,2.28,0,0,1,.37,0Z"/><path class="cls-24" d="M375.87,362.7l1.56-.23c.35,0,.44-.22.44-.43,0-.56-.37-1-1.24-1a1.22,1.22,0,0,0-1.31,1.16l-1.08-.25a2.22,2.22,0,0,1,2.36-1.87c1.73,0,2.4,1,2.4,2.11v2.89a5.89,5.89,0,0,0,.07.95H378a4.59,4.59,0,0,1-.06-.78,2.1,2.1,0,0,1-1.86,1,1.74,1.74,0,1,1-.18-3.48Zm2,.83v-.26l-1.76.26a.86.86,0,0,0-.84.86.88.88,0,0,0,.94.84A1.51,1.51,0,0,0,377.87,363.53Z"/><path class="cls-24" d="M381.88,366h-1.13v-5.77h1.11v.83a2,2,0,0,1,1.77-1,2,2,0,0,1,2.07,2.28V366h-1.13v-3.47c0-.8-.34-1.45-1.35-1.45s-1.34.71-1.34,1.59Z"/><path class="cls-24" d="M389,360.23h1.25v1H389v3c0,.53.22.79.8.79a1.93,1.93,0,0,0,.45-.05v1a2.39,2.39,0,0,1-.77.11,1.5,1.5,0,0,1-1.61-1.64v-3.17h-1.1v-1h.31a.81.81,0,0,0,.89-.89v-.93h1Z"/><path class="cls-24" d="M391.34,363.05v-1h3.25v1Z"/><path class="cls-24" d="M397.6,361.25V366h-1.16v-4.75h-1.07v-1h1.07v-1a1.83,1.83,0,0,1,1.89-2,1.48,1.48,0,0,1,.67.12v1a1.18,1.18,0,0,0-.49-.07.86.86,0,0,0-.91,1v.91H399v1Z"/><path class="cls-24" d="M402.31,366.18a2.13,2.13,0,0,1-2.16-2.31v-3.64h1.12v3.47c0,.79.36,1.48,1.31,1.48a1.31,1.31,0,0,0,1.37-1.47v-3.48h1.13v4.7a8.33,8.33,0,0,0,.06,1.07h-1.08a4.3,4.3,0,0,1-.05-.7A1.88,1.88,0,0,1,402.31,366.18Z"/><path class="cls-24" d="M408.13,366H407v-5.77h1.1v.83a2,2,0,0,1,1.78-1,2,2,0,0,1,2.06,2.28V366h-1.13v-3.47c0-.8-.33-1.45-1.34-1.45s-1.34.71-1.34,1.59Z"/><path class="cls-24" d="M417.78,365.12a1.9,1.9,0,0,1-1.78,1,2.79,2.79,0,0,1-2.74-3.06,2.84,2.84,0,0,1,2.74-3,1.76,1.76,0,0,1,1.76,1v-3.73h1.12v7.61a7.65,7.65,0,0,0,.06,1.07h-1.1a5.31,5.31,0,0,1-.06-.78Zm-1.67,0c1,0,1.66-.9,1.66-2.09s-.62-2-1.65-2a1.8,1.8,0,0,0-1.71,2C414.41,364.29,415,365.16,416.11,365.16Z"/><path class="cls-24" d="M425.82,364.36a2.6,2.6,0,0,1-2.59,1.82,3.08,3.08,0,0,1-.14-6.13c1.77,0,2.77,1.22,2.77,3a2.93,2.93,0,0,1,0,.36h-4.35a1.72,1.72,0,0,0,1.74,1.75,1.56,1.56,0,0,0,1.62-1.16Zm-1.14-1.84a1.44,1.44,0,0,0-1.58-1.47,1.55,1.55,0,0,0-1.57,1.47Z"/><path class="cls-24" d="M431.34,365.12a1.9,1.9,0,0,1-1.78,1,2.79,2.79,0,0,1-2.74-3.06,2.84,2.84,0,0,1,2.74-3,1.76,1.76,0,0,1,1.76,1v-3.73h1.12v7.61a7.65,7.65,0,0,0,.06,1.07h-1.1a5.31,5.31,0,0,1-.06-.78Zm-1.67,0c1,0,1.66-.9,1.66-2.09s-.62-2-1.65-2a1.8,1.8,0,0,0-1.71,2C428,364.29,428.59,365.16,429.67,365.16Z"/><path class="cls-24" d="M338.6,394v-3.78h-4.35V394h-1.17v-8.5h1.17v3.63h4.35V385.5h1.17V394Z"/><path class="cls-24" d="M347.24,391.11a3,3,0,1,1-2.95-3.06A2.92,2.92,0,0,1,347.24,391.11Zm-1.16,0a1.81,1.81,0,1,0-1.79,2.06A1.83,1.83,0,0,0,346.08,391.11Z"/><path class="cls-24" d="M354,387.32v.91h1.39v1H354V394h-1.16v-4.75h-2.63V394H349v-4.75H348v-1H349v-1a1.83,1.83,0,0,1,1.89-2,1.48,1.48,0,0,1,.67.12v1a1.18,1.18,0,0,0-.49-.07.86.86,0,0,0-.91,1v.91h2.63v-1a1.83,1.83,0,0,1,1.89-2,1.48,1.48,0,0,1,.67.12v1a1.18,1.18,0,0,0-.49-.07A.86.86,0,0,0,354,387.32Z"/><path class="cls-24" d="M356.59,394v-5.77h1.08V389a2,2,0,0,1,1.75-.94,1.79,1.79,0,0,1,1.72,1.09,2.09,2.09,0,0,1,1.94-1.09,2,2,0,0,1,2,2.2V394H364v-3.62a1.16,1.16,0,0,0-1.22-1.32,1.34,1.34,0,0,0-1.33,1.45V394h-1.13v-3.62a1.16,1.16,0,0,0-1.22-1.32,1.34,1.34,0,0,0-1.35,1.46V394Z"/><path class="cls-24" d="M368.26,390.7l1.56-.23c.35,0,.45-.22.45-.43,0-.56-.38-1-1.25-1a1.22,1.22,0,0,0-1.31,1.16l-1.08-.25a2.23,2.23,0,0,1,2.36-1.87c1.73,0,2.4,1,2.4,2.11v2.89a5.89,5.89,0,0,0,.07.95h-1.1a4.59,4.59,0,0,1-.06-.78,2.1,2.1,0,0,1-1.86,1,1.74,1.74,0,1,1-.18-3.48Zm2,.83v-.26l-1.77.26a.86.86,0,0,0-.84.86.88.88,0,0,0,.94.84A1.51,1.51,0,0,0,370.27,391.53Z"/><path class="cls-24" d="M374.27,394h-1.12v-5.77h1.1v.83a2,2,0,0,1,1.78-1,2,2,0,0,1,2.06,2.28V394H377v-3.47c0-.8-.34-1.45-1.34-1.45s-1.35.71-1.35,1.59Z"/><path class="cls-24" d="M382.05,385.5h1.42l2.2,3.79,2.21-3.79h1.34l-3,4.87V394h-1.18v-3.63Z"/><path class="cls-24" d="M395.33,392.36a2.61,2.61,0,0,1-2.59,1.82,3.08,3.08,0,0,1-.14-6.13c1.77,0,2.77,1.22,2.77,3a1.6,1.6,0,0,1,0,.36H391a1.72,1.72,0,0,0,1.74,1.75,1.57,1.57,0,0,0,1.62-1.16Zm-1.14-1.84a1.44,1.44,0,0,0-1.58-1.47,1.55,1.55,0,0,0-1.57,1.47Z"/><path class="cls-24" d="M401.84,392.36a2.62,2.62,0,0,1-2.59,1.82,3.08,3.08,0,0,1-.15-6.13c1.78,0,2.77,1.22,2.77,3a2.93,2.93,0,0,1,0,.36h-4.34a1.71,1.71,0,0,0,1.74,1.75,1.58,1.58,0,0,0,1.62-1.16Zm-1.14-1.84a1.46,1.46,0,0,0-1.59-1.47,1.56,1.56,0,0,0-1.57,1.47Z"/><path class="cls-24" d="M402.9,391.05v-1h3.25v1Z"/><path class="cls-24" d="M409.16,389.25V394H408v-4.75h-1.07v-1H408v-1a1.83,1.83,0,0,1,1.89-2,1.56,1.56,0,0,1,.67.12v1a1.18,1.18,0,0,0-.49-.07.86.86,0,0,0-.91,1v.91h1.39v1Z"/><path class="cls-24" d="M413.86,394.18a2.14,2.14,0,0,1-2.16-2.31v-3.64h1.13v3.47c0,.79.36,1.48,1.31,1.48a1.3,1.3,0,0,0,1.36-1.47v-3.48h1.13v4.7c0,.46,0,.87.06,1.07h-1.08a5.83,5.83,0,0,1-.05-.7A1.88,1.88,0,0,1,413.86,394.18Z"/><path class="cls-24" d="M419.68,394h-1.13v-5.77h1.11v.83a2,2,0,0,1,1.77-1,2,2,0,0,1,2.07,2.28V394h-1.13v-3.47c0-.8-.34-1.45-1.35-1.45s-1.34.71-1.34,1.59Z"/><path class="cls-24" d="M429.34,393.12a1.93,1.93,0,0,1-1.79,1,2.78,2.78,0,0,1-2.73-3.06,2.83,2.83,0,0,1,2.73-3,1.79,1.79,0,0,1,1.77,1v-3.73h1.11v7.61a9.82,9.82,0,0,0,.06,1.07H429.4a5.31,5.31,0,0,1-.06-.78Zm-1.68,0c1,0,1.67-.9,1.67-2.09s-.63-2-1.66-2-1.7.84-1.7,2S426.58,393.16,427.66,393.16Z"/><path class="cls-24" d="M437.38,392.36a2.61,2.61,0,0,1-2.59,1.82,3.08,3.08,0,0,1-.15-6.13,2.69,2.69,0,0,1,2.78,3,2.55,2.55,0,0,1,0,.36h-4.34a1.71,1.71,0,0,0,1.74,1.75,1.58,1.58,0,0,0,1.62-1.16Zm-1.14-1.84a1.44,1.44,0,0,0-1.58-1.47,1.54,1.54,0,0,0-1.57,1.47Z"/><path class="cls-24" d="M442.9,393.12a1.93,1.93,0,0,1-1.79,1,2.78,2.78,0,0,1-2.73-3.06,2.83,2.83,0,0,1,2.73-3,1.79,1.79,0,0,1,1.77,1v-3.73H444v7.61a9.82,9.82,0,0,0,.06,1.07H443a5.31,5.31,0,0,1-.06-.78Zm-1.68,0c1,0,1.67-.9,1.67-2.09s-.63-2-1.66-2-1.7.84-1.7,2S440.14,393.16,441.22,393.16Z"/><path class="cls-24" d="M332.54,417.74a4.21,4.21,0,0,1,4.22-4.42,3.6,3.6,0,0,1,3.74,2.7l-1.09.38a2.52,2.52,0,0,0-2.65-2,3.37,3.37,0,0,0,0,6.7,2.71,2.71,0,0,0,2.71-2l1,.39a3.72,3.72,0,0,1-3.76,2.73A4.18,4.18,0,0,1,332.54,417.74Z"/><path class="cls-24" d="M342,422v-8.68h1.13V422Z"/><path class="cls-24" d="M350.43,419.11a3,3,0,1,1-2.95-3.06A2.91,2.91,0,0,1,350.43,419.11Zm-1.15,0a1.82,1.82,0,1,0-1.8,2.06A1.84,1.84,0,0,0,349.28,419.11Z"/><path class="cls-24" d="M354,422.18a2.14,2.14,0,0,1-2.16-2.31v-3.64h1.13v3.47c0,.79.36,1.48,1.31,1.48a1.3,1.3,0,0,0,1.36-1.47v-3.48h1.13v4.7c0,.46,0,.87.06,1.07h-1.08a5.83,5.83,0,0,1-.05-.7A1.88,1.88,0,0,1,354,422.18Z"/><path class="cls-24" d="M362.71,421.12a1.93,1.93,0,0,1-1.79,1,2.79,2.79,0,0,1-2.74-3.06,2.84,2.84,0,0,1,2.74-3,1.76,1.76,0,0,1,1.76,1v-3.73h1.12v7.61a7.65,7.65,0,0,0,.06,1.07h-1.09a4.18,4.18,0,0,1-.06-.78Zm-1.68,0c1,0,1.66-.9,1.66-2.09s-.62-2-1.65-2a1.8,1.8,0,0,0-1.71,2C359.33,420.29,360,421.16,361,421.16Z"/><path class="cls-24" d="M368.3,417.74a4.21,4.21,0,0,1,4.22-4.42,3.6,3.6,0,0,1,3.74,2.7l-1.09.38a2.52,2.52,0,0,0-2.65-2,3.37,3.37,0,0,0,0,6.7,2.71,2.71,0,0,0,2.71-2l1,.39a3.72,3.72,0,0,1-3.76,2.73A4.18,4.18,0,0,1,368.3,417.74Z"/><path class="cls-24" d="M380.92,417.37a4.22,4.22,0,0,0-.49,0c-.95,0-1.58.51-1.58,1.78V422h-1.13v-5.77h1.1v1a1.81,1.81,0,0,1,1.73-1.11,2.15,2.15,0,0,1,.37,0Z"/><path class="cls-24" d="M387.15,420.36a2.61,2.61,0,0,1-2.59,1.82,3.08,3.08,0,0,1-.15-6.13c1.78,0,2.77,1.22,2.77,3a2.93,2.93,0,0,1,0,.36h-4.34a1.71,1.71,0,0,0,1.74,1.75,1.58,1.58,0,0,0,1.62-1.16ZM386,418.52a1.44,1.44,0,0,0-1.58-1.47,1.54,1.54,0,0,0-1.57,1.47Z"/><path class="cls-24" d="M392.67,421.12a1.93,1.93,0,0,1-1.79,1,2.78,2.78,0,0,1-2.73-3.06,2.83,2.83,0,0,1,2.73-3,1.79,1.79,0,0,1,1.77,1v-3.73h1.11v7.61a9.82,9.82,0,0,0,.06,1.07h-1.09a5.31,5.31,0,0,1-.06-.78Zm-1.68,0c1,0,1.67-.9,1.67-2.09s-.63-2-1.66-2-1.7.84-1.7,2S389.91,421.16,391,421.16Z"/><path class="cls-24" d="M396.23,413.23a.81.81,0,1,1,0,1.62.81.81,0,0,1,0-1.62Zm-.55,8.77v-5.77h1.12V422Z"/><path class="cls-24" d="M400.23,416.23h1.25v1h-1.25v3c0,.53.22.79.8.79a1.93,1.93,0,0,0,.45-.05v1a2.39,2.39,0,0,1-.77.11,1.5,1.5,0,0,1-1.61-1.64v-3.17H398v-1h.31a.81.81,0,0,0,.89-.89v-.93h1Z"/><path class="cls-24" d="M402.56,419.05v-1h3.25v1Z"/><path class="cls-24" d="M408.82,417.25V422h-1.16v-4.75h-1.07v-1h1.07v-1a1.83,1.83,0,0,1,1.89-2,1.58,1.58,0,0,1,.68.12v1a1.24,1.24,0,0,0-.5-.07.86.86,0,0,0-.91,1v.91h1.39v1Z"/><path class="cls-24" d="M413.53,422.18a2.13,2.13,0,0,1-2.16-2.31v-3.64h1.12v3.47c0,.79.36,1.48,1.31,1.48a1.31,1.31,0,0,0,1.37-1.47v-3.48h1.13v4.7a8.33,8.33,0,0,0,.06,1.07h-1.08a4.3,4.3,0,0,1,0-.7A1.88,1.88,0,0,1,413.53,422.18Z"/><path class="cls-24" d="M419.35,422h-1.13v-5.77h1.1v.83a2,2,0,0,1,1.78-1,2,2,0,0,1,2.06,2.28V422H422v-3.47c0-.8-.33-1.45-1.34-1.45s-1.34.71-1.34,1.59Z"/><path class="cls-24" d="M429,421.12a1.9,1.9,0,0,1-1.78,1,2.79,2.79,0,0,1-2.74-3.06,2.84,2.84,0,0,1,2.74-3,1.76,1.76,0,0,1,1.76,1v-3.73h1.12v7.61a7.65,7.65,0,0,0,.06,1.07h-1.1a5.31,5.31,0,0,1-.06-.78Zm-1.67,0c1,0,1.66-.9,1.66-2.09s-.62-2-1.65-2a1.8,1.8,0,0,0-1.71,2C425.63,420.29,426.25,421.16,427.33,421.16Z"/><path class="cls-24" d="M437,420.36a2.6,2.6,0,0,1-2.59,1.82,3.08,3.08,0,0,1-.14-6.13c1.77,0,2.77,1.22,2.77,3a2.93,2.93,0,0,1,0,.36h-4.35a1.72,1.72,0,0,0,1.74,1.75,1.56,1.56,0,0,0,1.62-1.16Zm-1.14-1.84a1.44,1.44,0,0,0-1.58-1.47,1.55,1.55,0,0,0-1.57,1.47Z"/><path class="cls-24" d="M442.56,421.12a1.9,1.9,0,0,1-1.78,1A2.79,2.79,0,0,1,438,419.1a2.84,2.84,0,0,1,2.74-3,1.76,1.76,0,0,1,1.76,1v-3.73h1.12v7.61c0,.55,0,1,0,1.07h-1.09a5.31,5.31,0,0,1-.06-.78Zm-1.68,0c1,0,1.67-.9,1.67-2.09s-.62-2-1.65-2a1.8,1.8,0,0,0-1.71,2C439.19,420.29,439.81,421.16,440.88,421.16Z"/><g class="cls-25"><rect class="cls-4" x="309" y="351" width="22" height="22"/></g><g class="cls-26"><rect class="cls-7" x="309" y="379" width="22" height="22"/></g><g class="cls-27"><rect class="cls-28" x="309" y="407" width="22" height="22"/></g><path class="cls-24" d="M7,107a2,2,0,0,0-2.07-1.6,1.6,1.6,0,0,0-1.77,1.44c0,.63.4,1.12,1.23,1.28l1.58.31c2.07.4,3.17,1.74,3.17,3.34,0,1.75-1.45,3.51-4.1,3.51-3,0-4.33-1.94-4.51-3.56l2.05-.54A2.27,2.27,0,0,0,5,113.28c1.18,0,1.84-.59,1.84-1.39s-.5-1.17-1.38-1.35l-1.58-.32a3.3,3.3,0,0,1-3-3.25,3.76,3.76,0,0,1,4-3.55c2.75,0,3.81,1.66,4.06,2.94Z"/><path class="cls-24" d="M12.34,111.07a2,2,0,0,0,2,2.22A1.8,1.8,0,0,0,16.16,112l1.88.62a3.68,3.68,0,0,1-3.69,2.66,4.18,4.18,0,0,1-.06-8.36,3.62,3.62,0,0,1,3.7,2.66l-1.91.64a1.71,1.71,0,0,0-1.74-1.33A2,2,0,0,0,12.34,111.07Z"/><path class="cls-24" d="M21.73,115H19.6V103.42h2.13v4.37a3,3,0,0,1,5.06,2.26v5H24.66v-4.6a1.38,1.38,0,0,0-1.46-1.56,1.47,1.47,0,0,0-1.47,1.53Z"/><path class="cls-24" d="M36.61,111.07a4.13,4.13,0,1,1-4.13-4.18A4,4,0,0,1,36.61,111.07Zm-2.13,0a2,2,0,1,0-2,2.24A2,2,0,0,0,34.48,111.07Z"/><path class="cls-24" d="M46,111.07a4.13,4.13,0,1,1-4.13-4.18A4,4,0,0,1,46,111.07Zm-2.13,0a2,2,0,1,0-2,2.24A2,2,0,0,0,43.83,111.07Z"/><path class="cls-24" d="M47.63,115V103.42h2.13V115Z"/><path class="cls-24" d="M63.65,111.07a4.13,4.13,0,1,1-4.13-4.18A4,4,0,0,1,63.65,111.07Zm-2.13,0a2,2,0,1,0-2,2.24A2,2,0,0,0,61.52,111.07Z"/><path class="cls-24" d="M67.87,106.27v.86h1.78V109H67.87V115H65.73V109H64.42v-1.83h1.31v-.89a2.71,2.71,0,0,1,2.86-2.93,3.13,3.13,0,0,1,1.06.16v1.79a2.44,2.44,0,0,0-.67-.08A1,1,0,0,0,67.87,106.27Z"/><path class="cls-24" d="M75.14,115V103.66h7.1v2.08h-4.9v2.59h4.44v2H77.34v2.63h4.9V115Z"/><path class="cls-24" d="M86.42,115H84.29v-7.88h2.06v1a2.62,2.62,0,0,1,2.27-1.19c2,0,2.85,1.4,2.85,3.13v5H89.35v-4.6a1.38,1.38,0,0,0-1.46-1.56,1.48,1.48,0,0,0-1.47,1.63Z"/><path class="cls-24" d="M95,114.93a1.77,1.77,0,0,0,1.84,1.49c1.35,0,2.1-.68,2.1-2.2v-.57a2.51,2.51,0,0,1-2.19,1,3.65,3.65,0,0,1-3.67-3.83A3.7,3.7,0,0,1,96.74,107,2.37,2.37,0,0,1,99,108.06v-.93h2v7a3.81,3.81,0,0,1-4.13,4.13,3.64,3.64,0,0,1-3.83-2.85Zm4-4.1a1.87,1.87,0,1,0-1.86,2A1.85,1.85,0,0,0,99,110.83Z"/><path class="cls-24" d="M104.24,103.23a1.31,1.31,0,1,1-1.31,1.33A1.31,1.31,0,0,1,104.24,103.23ZM103.18,115v-7.88h2.13V115Z"/><path class="cls-24" d="M109.71,115h-2.13v-7.88h2.07v1a2.61,2.61,0,0,1,2.27-1.19c2,0,2.85,1.4,2.85,3.13v5h-2.13v-4.6a1.38,1.38,0,0,0-1.46-1.56,1.48,1.48,0,0,0-1.47,1.63Z"/><path class="cls-24" d="M124,112.75a3.55,3.55,0,0,1-3.59,2.5,4.19,4.19,0,0,1-.19-8.36c2.43,0,3.89,1.56,3.89,4.08,0,.31,0,.63,0,.66h-5.64a1.92,1.92,0,0,0,2,1.79,1.73,1.73,0,0,0,1.79-1.2Zm-2-2.58a1.58,1.58,0,0,0-1.76-1.55,1.71,1.71,0,0,0-1.76,1.55Z"/><path class="cls-24" d="M132.83,112.75a3.54,3.54,0,0,1-3.58,2.5,4.19,4.19,0,0,1-.19-8.36c2.43,0,3.89,1.56,3.89,4.08,0,.31,0,.63,0,.66h-5.63a1.92,1.92,0,0,0,2,1.79,1.74,1.74,0,0,0,1.8-1.2Zm-2-2.58a1.58,1.58,0,0,0-1.76-1.55,1.7,1.7,0,0,0-1.76,1.55Z"/><path class="cls-24" d="M139.42,109.25a3,3,0,0,0-.64-.07c-1.08,0-2,.53-2,2.23V115h-2.13v-7.88h2.07v1.17a2.34,2.34,0,0,1,2.24-1.23,3.91,3.91,0,0,1,.49,0Z"/><path class="cls-24" d="M141.94,103.23a1.31,1.31,0,1,1-1.32,1.33A1.31,1.31,0,0,1,141.94,103.23ZM140.88,115v-7.88H143V115Z"/><path class="cls-24" d="M147.41,115h-2.13v-7.88h2.06v1a2.62,2.62,0,0,1,2.28-1.19c1.95,0,2.85,1.4,2.85,3.13v5h-2.13v-4.6a1.38,1.38,0,0,0-1.46-1.56,1.48,1.48,0,0,0-1.47,1.63Z"/><path class="cls-24" d="M156,114.93a1.78,1.78,0,0,0,1.84,1.49c1.35,0,2.1-.68,2.1-2.2v-.57a2.51,2.51,0,0,1-2.19,1,3.65,3.65,0,0,1-3.67-3.83,3.7,3.7,0,0,1,3.67-3.84,2.37,2.37,0,0,1,2.24,1.07v-.93H162v7a3.81,3.81,0,0,1-4.13,4.13,3.64,3.64,0,0,1-3.83-2.85Zm4-4.1a1.87,1.87,0,1,0-1.85,2A1.84,1.84,0,0,0,160,110.83Z"/><path class="cls-24" d="M7,181.36a2,2,0,0,0-2.07-1.6,1.6,1.6,0,0,0-1.77,1.44c0,.63.4,1.12,1.23,1.28l1.58.31c2.07.4,3.17,1.74,3.17,3.34,0,1.75-1.45,3.51-4.1,3.51-3,0-4.33-1.94-4.51-3.56l2.05-.54A2.27,2.27,0,0,0,5,187.67c1.18,0,1.84-.59,1.84-1.39s-.5-1.17-1.38-1.35l-1.58-.32a3.3,3.3,0,0,1-3-3.25,3.76,3.76,0,0,1,4-3.55c2.75,0,3.81,1.66,4.06,2.94Z"/><path class="cls-24" d="M12.34,185.46a2,2,0,0,0,2,2.23,1.8,1.8,0,0,0,1.81-1.33L18,187a3.68,3.68,0,0,1-3.69,2.66,4.18,4.18,0,0,1-.06-8.36,3.62,3.62,0,0,1,3.7,2.66l-1.91.64a1.71,1.71,0,0,0-1.74-1.33A2,2,0,0,0,12.34,185.46Z"/><path class="cls-24" d="M21.73,189.4H19.6V177.81h2.13v4.37a3,3,0,0,1,5.06,2.26v5H24.66v-4.6a1.38,1.38,0,0,0-1.46-1.56,1.47,1.47,0,0,0-1.47,1.53Z"/><path class="cls-24" d="M36.61,185.46a4.13,4.13,0,1,1-4.13-4.18A4,4,0,0,1,36.61,185.46Zm-2.13,0a2,2,0,1,0-2,2.24A2,2,0,0,0,34.48,185.46Z"/><path class="cls-24" d="M46,185.46a4.13,4.13,0,1,1-4.13-4.18A4,4,0,0,1,46,185.46Zm-2.13,0a2,2,0,1,0-2,2.24A2,2,0,0,0,43.83,185.46Z"/><path class="cls-24" d="M47.63,189.4V177.81h2.13V189.4Z"/><path class="cls-24" d="M63.65,185.46a4.13,4.13,0,1,1-4.13-4.18A4,4,0,0,1,63.65,185.46Zm-2.13,0a2,2,0,1,0-2,2.24A2,2,0,0,0,61.52,185.46Z"/><path class="cls-24" d="M67.87,180.66v.86h1.78v1.83H67.87v6.05H65.73v-6.05H64.42v-1.83h1.31v-.89a2.71,2.71,0,0,1,2.86-2.93,3.13,3.13,0,0,1,1.06.16v1.79a2.44,2.44,0,0,0-.67-.08A1,1,0,0,0,67.87,180.66Z"/><path class="cls-24" d="M82.29,189.4v-4.71h-5v4.71h-2.2V178.05h2.2v4.56h5v-4.56h2.23V189.4Z"/><path class="cls-24" d="M92,188.55a2.47,2.47,0,0,1-2.17,1.06,2.91,2.91,0,0,1-3-3.11v-5H89v4.55a1.4,1.4,0,0,0,1.44,1.58,1.42,1.42,0,0,0,1.49-1.55v-4.58h2.13V188a13.54,13.54,0,0,0,.08,1.43h-2A4.5,4.5,0,0,1,92,188.55Z"/><path class="cls-24" d="M96.32,189.4v-7.88h2v1a2.72,2.72,0,0,1,2.31-1.18,2.42,2.42,0,0,1,2.33,1.31,2.92,2.92,0,0,1,5.35,1.68v5.11h-2.07v-4.68a1.31,1.31,0,0,0-1.39-1.48,1.44,1.44,0,0,0-1.45,1.55v4.61h-2.12v-4.68a1.32,1.32,0,0,0-1.39-1.48,1.43,1.43,0,0,0-1.47,1.55v4.61Z"/><path class="cls-24" d="M112.37,184.87l1.93-.29c.45-.06.6-.29.6-.56,0-.56-.44-1-1.33-1a1.4,1.4,0,0,0-1.51,1.28l-1.89-.4a3.14,3.14,0,0,1,3.38-2.6c2.5,0,3.43,1.41,3.43,3v3.87a10.26,10.26,0,0,0,.09,1.25h-1.95a5.19,5.19,0,0,1-.08-1,2.62,2.62,0,0,1-2.32,1.17,2.49,2.49,0,0,1-2.71-2.37A2.44,2.44,0,0,1,112.37,184.87Zm2.53,1.34v-.35l-1.78.27a1,1,0,0,0-1,1,.93.93,0,0,0,1,.91A1.6,1.6,0,0,0,114.9,186.21Z"/><path class="cls-24" d="M121.25,189.4h-2.13v-7.88h2.06v1a2.62,2.62,0,0,1,2.28-1.19c2,0,2.85,1.4,2.85,3.13v5h-2.13v-4.6a1.38,1.38,0,0,0-1.46-1.56,1.48,1.48,0,0,0-1.47,1.63Z"/><path class="cls-24" d="M129.52,177.62a1.31,1.31,0,1,1-1.31,1.33A1.31,1.31,0,0,1,129.52,177.62Zm-1.06,11.78v-7.88h2.13v7.88Z"/><path class="cls-24" d="M135.49,181.52h1.58v1.89h-1.58v3.3c0,.69.32.91.93.91a3.25,3.25,0,0,0,.65-.06v1.76a3.13,3.13,0,0,1-1.2.19,2.28,2.28,0,0,1-2.49-2.43v-3.67H132v-1.89h.4a1.14,1.14,0,0,0,1.22-1.25v-1.1h1.92Z"/><path class="cls-24" d="M139.89,177.62a1.31,1.31,0,1,1-1.32,1.33A1.33,1.33,0,0,1,139.89,177.62Zm-1.06,11.78v-7.88H141v7.88Z"/><path class="cls-24" d="M150.29,187.14a3.55,3.55,0,0,1-3.59,2.5,4.19,4.19,0,0,1-.19-8.36c2.43,0,3.89,1.56,3.89,4.08,0,.31,0,.63,0,.66h-5.64a1.92,1.92,0,0,0,2,1.79,1.73,1.73,0,0,0,1.79-1.2Zm-2-2.58a1.58,1.58,0,0,0-1.76-1.55,1.71,1.71,0,0,0-1.76,1.55Z"/><path class="cls-24" d="M153.23,186.81a1.31,1.31,0,0,0,1.44,1.2c.71,0,1-.37,1-.79s-.24-.64-.85-.77l-1-.24a2.41,2.41,0,0,1-2.21-2.35,2.75,2.75,0,0,1,2.95-2.58c2.24,0,3,1.43,3.09,2.28l-1.78.4a1.19,1.19,0,0,0-1.29-1.06.91.91,0,0,0-1,.78c0,.39.28.63.72.71l1.12.24c1.55.32,2.33,1.26,2.33,2.42s-1,2.59-3.05,2.59c-2.37,0-3.19-1.54-3.28-2.43Z"/><path class="cls-24" d="M169.82,188.17a4.19,4.19,0,0,1-3,1.44,3.16,3.16,0,0,1-3.44-3c0-1.41.75-2.23,1.94-3.11l.08-.05-.18-.19a3.85,3.85,0,0,1-1.25-2.47,3,3,0,0,1,3.14-3,2.91,2.91,0,0,1,3.15,2.87,3.33,3.33,0,0,1-1.6,2.59l-.43.32,1.71,1.81,2.87-3V185l-1.58,1.67,2.56,2.69H171Zm-1.28-1.36-1.93-2.05-.24.17a1.82,1.82,0,0,0-.92,1.51,1.33,1.33,0,0,0,1.37,1.31A2.36,2.36,0,0,0,168.54,186.81Zm-1.92-4.89.31.34.56-.42a1.44,1.44,0,0,0,.72-1.2,1.13,1.13,0,0,0-2.26.05A1.93,1.93,0,0,0,166.62,181.92Z"/><path class="cls-24" d="M184.64,181.36a1.93,1.93,0,0,0-2.06-1.6,1.61,1.61,0,0,0-1.78,1.44c0,.63.4,1.12,1.23,1.28l1.59.31c2.06.4,3.17,1.74,3.17,3.34,0,1.75-1.46,3.51-4.1,3.51-3,0-4.34-1.94-4.52-3.56l2.05-.54a2.28,2.28,0,0,0,2.48,2.13c1.19,0,1.84-.59,1.84-1.39s-.49-1.17-1.37-1.35l-1.59-.32a3.29,3.29,0,0,1-3-3.25,3.75,3.75,0,0,1,3.95-3.55c2.75,0,3.81,1.66,4.06,2.94Z"/><path class="cls-24" d="M196.16,185.46a4.13,4.13,0,1,1-4.13-4.18A4,4,0,0,1,196.16,185.46Zm-2.13,0a2,2,0,1,0-2,2.24A2,2,0,0,0,194,185.46Z"/><path class="cls-24" d="M199.37,185.46a2,2,0,0,0,2,2.23,1.81,1.81,0,0,0,1.81-1.33l1.87.62a3.65,3.65,0,0,1-3.68,2.66,4.18,4.18,0,0,1-.06-8.36,3.6,3.6,0,0,1,3.69,2.66l-1.9.64a1.71,1.71,0,0,0-1.74-1.33A2,2,0,0,0,199.37,185.46Z"/><path class="cls-24" d="M207.69,177.62a1.31,1.31,0,1,1-1.31,1.33A1.31,1.31,0,0,1,207.69,177.62Zm-1.05,11.78v-7.88h2.13v7.88Z"/><path class="cls-24" d="M212.91,184.87l1.94-.29c.45-.06.59-.29.59-.56,0-.56-.43-1-1.33-1a1.39,1.39,0,0,0-1.5,1.28l-1.89-.4a3.13,3.13,0,0,1,3.38-2.6c2.49,0,3.42,1.41,3.42,3v3.87a8.43,8.43,0,0,0,.1,1.25h-2a6.25,6.25,0,0,1-.08-1,2.62,2.62,0,0,1-2.32,1.17,2.48,2.48,0,0,1-2.7-2.37A2.43,2.43,0,0,1,212.91,184.87Zm2.53,1.34v-.35l-1.78.27a1,1,0,0,0-1,1,.92.92,0,0,0,1,.91A1.6,1.6,0,0,0,215.44,186.21Z"/><path class="cls-24" d="M219.66,189.4V177.81h2.13V189.4Z"/><path class="cls-24" d="M233.82,181.36a1.93,1.93,0,0,0-2.06-1.6A1.61,1.61,0,0,0,230,181.2c0,.63.4,1.12,1.23,1.28l1.59.31c2.06.4,3.17,1.74,3.17,3.34,0,1.75-1.46,3.51-4.1,3.51-3,0-4.34-1.94-4.51-3.56l2-.54a2.27,2.27,0,0,0,2.48,2.13c1.18,0,1.84-.59,1.84-1.39s-.5-1.17-1.38-1.35l-1.58-.32a3.3,3.3,0,0,1-3-3.25,3.76,3.76,0,0,1,4-3.55c2.76,0,3.81,1.66,4.07,2.94Z"/><path class="cls-24" d="M239.21,185.46a2,2,0,0,0,2,2.23,1.81,1.81,0,0,0,1.81-1.33l1.87.62a3.65,3.65,0,0,1-3.68,2.66,4.18,4.18,0,0,1-.06-8.36,3.6,3.6,0,0,1,3.69,2.66l-1.9.64a1.72,1.72,0,0,0-1.75-1.33A2,2,0,0,0,239.21,185.46Z"/><path class="cls-24" d="M247.53,177.62a1.31,1.31,0,1,1-1.31,1.33A1.31,1.31,0,0,1,247.53,177.62Zm-1.05,11.78v-7.88h2.13v7.88Z"/><path class="cls-24" d="M257.94,187.14a3.55,3.55,0,0,1-3.59,2.5,4.19,4.19,0,0,1-.19-8.36c2.43,0,3.89,1.56,3.89,4.08,0,.31,0,.63,0,.66h-5.64a1.92,1.92,0,0,0,2,1.79,1.73,1.73,0,0,0,1.79-1.2Zm-2-2.58a1.58,1.58,0,0,0-1.76-1.55,1.71,1.71,0,0,0-1.76,1.55Z"/><path class="cls-24" d="M261.85,189.4h-2.13v-7.88h2.07v1a2.61,2.61,0,0,1,2.27-1.19c1.95,0,2.85,1.4,2.85,3.13v5h-2.13v-4.6a1.38,1.38,0,0,0-1.45-1.56,1.49,1.49,0,0,0-1.48,1.63Z"/><path class="cls-24" d="M270.6,185.46a2,2,0,0,0,2,2.23,1.81,1.81,0,0,0,1.81-1.33l1.87.62a3.65,3.65,0,0,1-3.68,2.66,4.18,4.18,0,0,1-.06-8.36,3.6,3.6,0,0,1,3.69,2.66l-1.9.64a1.71,1.71,0,0,0-1.74-1.33A2,2,0,0,0,270.6,185.46Z"/><path class="cls-24" d="M284.93,187.14a3.55,3.55,0,0,1-3.59,2.5,4.19,4.19,0,0,1-.19-8.36c2.43,0,3.89,1.56,3.89,4.08,0,.31,0,.63,0,.66h-5.64a1.92,1.92,0,0,0,2,1.79,1.73,1.73,0,0,0,1.79-1.2Zm-2-2.58a1.58,1.58,0,0,0-1.76-1.55,1.71,1.71,0,0,0-1.76,1.55Z"/><path class="cls-24" d="M287.87,186.81a1.31,1.31,0,0,0,1.44,1.2c.7,0,1-.37,1-.79s-.24-.64-.85-.77l-1-.24a2.41,2.41,0,0,1-2.21-2.35,2.75,2.75,0,0,1,2.95-2.58c2.24,0,3,1.43,3.09,2.28l-1.78.4a1.2,1.2,0,0,0-1.3-1.06.9.9,0,0,0-1,.78c0,.39.28.63.72.71l1.12.24c1.55.32,2.33,1.26,2.33,2.42s-1,2.59-3.05,2.59c-2.37,0-3.19-1.54-3.29-2.43Z"/><path class="cls-24" d="M7,255.77a2,2,0,0,0-2.07-1.6,1.6,1.6,0,0,0-1.77,1.44,1.31,1.31,0,0,0,1.23,1.28l1.58.3c2.07.4,3.17,1.75,3.17,3.35S7.64,264,5,264c-3,0-4.33-1.93-4.51-3.55L2.53,260A2.27,2.27,0,0,0,5,262.08c1.18,0,1.84-.6,1.84-1.4s-.5-1.16-1.38-1.34L3.89,259a3.31,3.31,0,0,1-3-3.25,3.76,3.76,0,0,1,4-3.55c2.75,0,3.81,1.66,4.06,2.94Z"/><path class="cls-24" d="M12.34,259.87a2,2,0,0,0,2,2.22,1.8,1.8,0,0,0,1.81-1.33l1.88.63A3.67,3.67,0,0,1,14.35,264a4.18,4.18,0,0,1-.06-8.35,3.62,3.62,0,0,1,3.7,2.66l-1.91.64a1.71,1.71,0,0,0-1.74-1.33A2,2,0,0,0,12.34,259.87Z"/><path class="cls-24" d="M21.73,263.8H19.6V252.22h2.13v4.37a3,3,0,0,1,5.06,2.25v5H24.66v-4.59a1.39,1.39,0,0,0-1.46-1.57,1.48,1.48,0,0,0-1.47,1.54Z"/><path class="cls-24" d="M36.61,259.87a4.13,4.13,0,1,1-4.13-4.18A4,4,0,0,1,36.61,259.87Zm-2.13,0a2,2,0,1,0-2,2.24A2,2,0,0,0,34.48,259.87Z"/><path class="cls-24" d="M46,259.87a4.13,4.13,0,1,1-4.13-4.18A4,4,0,0,1,46,259.87Zm-2.13,0a2,2,0,1,0-2,2.24A2,2,0,0,0,43.83,259.87Z"/><path class="cls-24" d="M47.63,263.8V252.22h2.13V263.8Z"/><path class="cls-24" d="M63.65,259.87a4.13,4.13,0,1,1-4.13-4.18A4,4,0,0,1,63.65,259.87Zm-2.13,0a2,2,0,1,0-2,2.24A2,2,0,0,0,61.52,259.87Z"/><path class="cls-24" d="M67.87,255.06v.87h1.78v1.82H67.87v6.05H65.73v-6.05H64.42v-1.82h1.31V255a2.72,2.72,0,0,1,2.86-2.93,3.13,3.13,0,0,1,1.06.16v1.8A2.09,2.09,0,0,0,69,254,1,1,0,0,0,67.87,255.06Z"/><path class="cls-24" d="M85.62,263.8v-8l-3.27,8H80.51l-3.26-7.89v7.89H75.14V252.46h2.91l3.41,8.19,3.33-8.19h3V263.8Z"/><path class="cls-24" d="M97.28,261.55A3.54,3.54,0,0,1,93.7,264a4.18,4.18,0,0,1-.2-8.35c2.44,0,3.89,1.55,3.89,4.08,0,.31,0,.63,0,.66H91.73a1.92,1.92,0,0,0,2,1.79,1.75,1.75,0,0,0,1.8-1.2Zm-2-2.58a1.59,1.59,0,0,0-1.76-1.55A1.69,1.69,0,0,0,91.78,259Z"/><path class="cls-24" d="M106.58,262.38c0,.53,0,1.1.06,1.42h-2a5.61,5.61,0,0,1-.08-.91,2.45,2.45,0,0,1-2.21,1.11,4.14,4.14,0,0,1-.06-8.26,2.36,2.36,0,0,1,2.22,1v-4.49h2.1Zm-4-.29a2,2,0,0,0,1.93-2.26,2,2,0,0,0-1.93-2.19,2.24,2.24,0,0,0,0,4.45Z"/><path class="cls-24" d="M109.94,252a1.32,1.32,0,1,1-1.32,1.33A1.33,1.33,0,0,1,109.94,252Zm-1.06,11.78v-7.87H111v7.87Z"/><path class="cls-24" d="M114.82,259.87a2,2,0,0,0,2,2.22,1.8,1.8,0,0,0,1.81-1.33l1.87.63a3.65,3.65,0,0,1-3.68,2.65,4.18,4.18,0,0,1-.06-8.35,3.62,3.62,0,0,1,3.7,2.66l-1.91.64a1.71,1.71,0,0,0-1.74-1.33A2,2,0,0,0,114.82,259.87Z"/><path class="cls-24" d="M123.14,252a1.32,1.32,0,1,1-1.32,1.33A1.33,1.33,0,0,1,123.14,252Zm-1.06,11.78v-7.87h2.13v7.87Z"/><path class="cls-24" d="M128.61,263.8h-2.13v-7.87h2.06v1a2.62,2.62,0,0,1,2.28-1.19c2,0,2.85,1.39,2.85,3.12v5h-2.13v-4.59a1.39,1.39,0,0,0-1.46-1.57,1.48,1.48,0,0,0-1.47,1.63Z"/><path class="cls-24" d="M142.88,261.55A3.54,3.54,0,0,1,139.3,264a4.18,4.18,0,0,1-.2-8.35c2.44,0,3.89,1.55,3.89,4.08,0,.31,0,.63,0,.66h-5.63a1.92,1.92,0,0,0,2,1.79,1.74,1.74,0,0,0,1.79-1.2Zm-2-2.58a1.59,1.59,0,0,0-1.76-1.55,1.69,1.69,0,0,0-1.76,1.55Z"/><path class="cls-24" d="M9.78,338.2l-.14-1.29a4,4,0,0,1-3.35,1.53,5.59,5.59,0,0,1-5.67-5.9,5.71,5.71,0,0,1,5.81-5.93,5.13,5.13,0,0,1,5.19,3.49l-2.11.76a3,3,0,0,0-3.08-2.18,3.89,3.89,0,0,0,0,7.75,2.85,2.85,0,0,0,3-2.21H5.91V332.3h5.66v5.9Z"/><path class="cls-24" d="M18.43,332.44a3,3,0,0,0-.64-.06c-1.08,0-2,.53-2,2.22v3.6H13.63v-7.87H15.7v1.17a2.35,2.35,0,0,1,2.24-1.24,3.89,3.89,0,0,1,.49,0Z"/><path class="cls-24" d="M21.76,333.67l1.94-.29c.45-.06.59-.28.59-.55,0-.57-.43-1-1.33-1a1.39,1.39,0,0,0-1.5,1.28l-1.89-.4A3.13,3.13,0,0,1,23,330.09c2.49,0,3.42,1.41,3.42,3V337a8.4,8.4,0,0,0,.1,1.24h-2a6.11,6.11,0,0,1-.08-.94,2.64,2.64,0,0,1-2.32,1.17,2.48,2.48,0,0,1-2.7-2.37A2.43,2.43,0,0,1,21.76,333.67ZM24.29,335v-.35l-1.78.27a1,1,0,0,0-1,1,.92.92,0,0,0,1,.91A1.6,1.6,0,0,0,24.29,335Z"/><path class="cls-24" d="M36,336.78c0,.53,0,1.1.06,1.42h-2a5.61,5.61,0,0,1-.08-.91,2.45,2.45,0,0,1-2.21,1.11,4.14,4.14,0,0,1-.06-8.26,2.36,2.36,0,0,1,2.22,1v-4.5H36Zm-4-.29A2,2,0,0,0,34,334.23,2,2,0,0,0,32,332a2.24,2.24,0,0,0,0,4.45Z"/><path class="cls-24" d="M43.41,337.35a2.48,2.48,0,0,1-2.18,1.06,2.9,2.9,0,0,1-3-3.1v-5h2.13v4.54a1.41,1.41,0,0,0,1.44,1.59,1.42,1.42,0,0,0,1.49-1.55v-4.58h2.13v6.45a13.31,13.31,0,0,0,.08,1.42h-2A5.77,5.77,0,0,1,43.41,337.35Z"/><path class="cls-24" d="M49.57,333.67l1.94-.29c.44-.06.59-.28.59-.55,0-.57-.43-1-1.33-1a1.4,1.4,0,0,0-1.51,1.28l-1.88-.4a3.12,3.12,0,0,1,3.37-2.59c2.5,0,3.43,1.41,3.43,3V337a10.24,10.24,0,0,0,.09,1.24h-2a5.07,5.07,0,0,1-.08-.94,2.64,2.64,0,0,1-2.32,1.17,2.48,2.48,0,0,1-2.7-2.37A2.43,2.43,0,0,1,49.57,333.67ZM52.1,335v-.35l-1.78.27a1,1,0,0,0-1,1,.93.93,0,0,0,1,.91A1.6,1.6,0,0,0,52.1,335Z"/><path class="cls-24" d="M58.94,330.33h1.59v1.89H58.94v3.29c0,.69.32.92.93.92a3.14,3.14,0,0,0,.66-.07v1.76a3.12,3.12,0,0,1-1.2.2,2.29,2.29,0,0,1-2.5-2.44v-3.66H55.41v-1.89h.4A1.13,1.13,0,0,0,57,329.08V328h1.92Z"/><path class="cls-24" d="M69.35,336a3.55,3.55,0,0,1-3.59,2.49,4.18,4.18,0,0,1-.19-8.35c2.43,0,3.89,1.55,3.89,4.08,0,.3,0,.62,0,.66H63.79a1.92,1.92,0,0,0,2,1.79,1.75,1.75,0,0,0,1.79-1.2Zm-2-2.58a1.58,1.58,0,0,0-1.76-1.55,1.71,1.71,0,0,0-1.76,1.55Z"/><path class="cls-24" d="M80.9,330.17a1.94,1.94,0,0,0-2.07-1.6A1.6,1.6,0,0,0,77.06,330a1.31,1.31,0,0,0,1.23,1.28l1.58.3c2.07.4,3.17,1.75,3.17,3.35s-1.45,3.5-4.1,3.5c-3,0-4.33-1.93-4.51-3.55l2-.54A2.27,2.27,0,0,0,79,336.47c1.19,0,1.84-.59,1.84-1.39,0-.65-.49-1.17-1.38-1.34l-1.58-.32a3.31,3.31,0,0,1-3-3.25,3.76,3.76,0,0,1,4-3.56c2.75,0,3.81,1.67,4.06,2.95Z"/><path class="cls-24" d="M86.29,334.27a2,2,0,0,0,2,2.22,1.8,1.8,0,0,0,1.81-1.33l1.88.63a3.67,3.67,0,0,1-3.69,2.65,4.18,4.18,0,0,1-.06-8.35,3.62,3.62,0,0,1,3.7,2.66l-1.91.63a1.71,1.71,0,0,0-1.74-1.32A2,2,0,0,0,86.29,334.27Z"/><path class="cls-24" d="M95.68,338.2H93.55V326.61h2.13V331a2.84,2.84,0,0,1,2.13-.86,2.81,2.81,0,0,1,2.93,3.12v5H98.61v-4.59A1.39,1.39,0,0,0,97.15,332a1.48,1.48,0,0,0-1.47,1.54Z"/><path class="cls-24" d="M110.56,334.27a4.13,4.13,0,1,1-4.13-4.18A4,4,0,0,1,110.56,334.27Zm-2.13,0a2,2,0,1,0-2,2.24A2,2,0,0,0,108.43,334.27Z"/><path class="cls-24" d="M119.91,334.27a4.13,4.13,0,1,1-4.13-4.18A4,4,0,0,1,119.91,334.27Zm-2.13,0a2,2,0,1,0-2,2.24A2,2,0,0,0,117.78,334.27Z"/><path class="cls-24" d="M121.58,338.2V326.61h2.13V338.2Z"/><path class="cls-24" d="M137.6,334.27a4.13,4.13,0,1,1-4.13-4.18A4,4,0,0,1,137.6,334.27Zm-2.13,0a2,2,0,1,0-2,2.24A2,2,0,0,0,135.47,334.27Z"/><path class="cls-24" d="M141.82,329.46v.87h1.78v1.82h-1.78v6.05h-2.14v-6.05h-1.31v-1.82h1.31v-.9a2.72,2.72,0,0,1,2.86-2.93,3.13,3.13,0,0,1,1.06.16v1.8a2.09,2.09,0,0,0-.67-.08A1,1,0,0,0,141.82,329.46Z"/><path class="cls-24" d="M153.17,326.85c2.21,0,3.46,1.3,3.46,3.06a2.52,2.52,0,0,1-1.65,2.43,2.69,2.69,0,0,1,2,2.69,3.18,3.18,0,0,1-3.51,3.17h-4.38V326.85Zm-.34,4.69a1.42,1.42,0,0,0,1.62-1.42c0-.86-.56-1.41-1.63-1.41h-1.56v2.83Zm.23,4.82c1.07,0,1.71-.56,1.71-1.47a1.48,1.48,0,0,0-1.68-1.52h-1.83v3Z"/><path class="cls-24" d="M163.78,337.35a2.5,2.5,0,0,1-2.18,1.06,2.89,2.89,0,0,1-3-3.1v-5h2.12v4.54a1.47,1.47,0,1,0,2.93,0v-4.58h2.13v6.45a13.31,13.31,0,0,0,.08,1.42h-2A5.77,5.77,0,0,1,163.78,337.35Z"/><path class="cls-24" d="M169.21,335.61a1.32,1.32,0,0,0,1.45,1.2c.7,0,1-.37,1-.78s-.24-.64-.85-.77l-1-.24c-1.52-.34-2.21-1.25-2.21-2.35a2.75,2.75,0,0,1,2.94-2.58c2.24,0,3,1.42,3.09,2.27l-1.77.4a1.21,1.21,0,0,0-1.3-1.06.91.91,0,0,0-1,.79c0,.38.29.62.72.7l1.12.24c1.55.32,2.34,1.27,2.34,2.42s-1,2.59-3.06,2.59c-2.37,0-3.18-1.53-3.28-2.43Z"/><path class="cls-24" d="M176.49,326.42a1.32,1.32,0,1,1-1.31,1.33A1.31,1.31,0,0,1,176.49,326.42Zm-1.05,11.78v-7.87h2.13v7.87Z"/><path class="cls-24" d="M182,338.2h-2.13v-7.87h2.06v1a2.64,2.64,0,0,1,2.28-1.18c1.95,0,2.84,1.39,2.84,3.12v5H184.9v-4.59a1.39,1.39,0,0,0-1.46-1.57,1.48,1.48,0,0,0-1.47,1.63Z"/><path class="cls-24" d="M196.24,336a3.54,3.54,0,0,1-3.58,2.49,4.18,4.18,0,0,1-.2-8.35c2.44,0,3.89,1.55,3.89,4.08,0,.3,0,.62,0,.66h-5.63a1.9,1.9,0,0,0,2,1.79,1.74,1.74,0,0,0,1.79-1.2Zm-2-2.58a1.59,1.59,0,0,0-1.76-1.55,1.71,1.71,0,0,0-1.77,1.55Z"/><path class="cls-24" d="M199.18,335.61a1.31,1.31,0,0,0,1.44,1.2c.71,0,1-.37,1-.78s-.24-.64-.85-.77l-1-.24c-1.52-.34-2.2-1.25-2.2-2.35a2.74,2.74,0,0,1,2.94-2.58c2.24,0,3,1.42,3.09,2.27l-1.78.4a1.2,1.2,0,0,0-1.29-1.06.91.91,0,0,0-1,.79c0,.38.29.62.72.7l1.12.24c1.55.32,2.34,1.27,2.34,2.42s-1,2.59-3.06,2.59c-2.37,0-3.19-1.53-3.28-2.43Z"/><path class="cls-24" d="M206.56,335.61a1.31,1.31,0,0,0,1.44,1.2c.7,0,1-.37,1-.78s-.24-.64-.85-.77l-1-.24c-1.52-.34-2.21-1.25-2.21-2.35a2.75,2.75,0,0,1,2.95-2.58c2.24,0,3,1.42,3.09,2.27l-1.78.4a1.2,1.2,0,0,0-1.3-1.06.91.91,0,0,0-1,.79c0,.38.29.62.72.7l1.13.24a2.52,2.52,0,0,1,2.33,2.42c0,1.28-1,2.59-3,2.59-2.37,0-3.19-1.53-3.29-2.43Z"/><path class="cls-24" d="M9.78,412.6l-.14-1.3a3.93,3.93,0,0,1-3.35,1.54,5.59,5.59,0,0,1-5.67-5.9A5.71,5.71,0,0,1,6.43,401a5.13,5.13,0,0,1,5.19,3.49l-2.11.75a3,3,0,0,0-3.08-2.17,3.89,3.89,0,0,0,0,7.75,2.85,2.85,0,0,0,3-2.21H5.91V406.7h5.66v5.9Z"/><path class="cls-24" d="M18.43,406.84a3,3,0,0,0-.64-.06c-1.08,0-2,.52-2,2.22v3.6H13.63v-7.87H15.7v1.16a2.34,2.34,0,0,1,2.24-1.23c.17,0,.33,0,.49,0Z"/><path class="cls-24" d="M21.76,408.07l1.94-.29c.45-.06.59-.28.59-.56,0-.56-.43-1-1.33-1a1.39,1.39,0,0,0-1.5,1.28l-1.89-.4A3.13,3.13,0,0,1,23,404.49c2.49,0,3.42,1.4,3.42,3v3.87a8.43,8.43,0,0,0,.1,1.25h-2a6.23,6.23,0,0,1-.08-.94,2.64,2.64,0,0,1-2.32,1.17,2.48,2.48,0,0,1-2.7-2.37A2.43,2.43,0,0,1,21.76,408.07Zm2.53,1.35v-.36l-1.78.28a1,1,0,0,0-1,1,.92.92,0,0,0,1,.91A1.6,1.6,0,0,0,24.29,409.42Z"/><path class="cls-24" d="M36,411.18c0,.53,0,1.1.06,1.42h-2a5.61,5.61,0,0,1-.08-.91,2.47,2.47,0,0,1-2.21,1.1,4.14,4.14,0,0,1-.06-8.26,2.34,2.34,0,0,1,2.22,1V401H36Zm-4-.29A2,2,0,0,0,34,408.63,1.94,1.94,0,0,0,32,406.44a2.24,2.24,0,0,0,0,4.45Z"/><path class="cls-24" d="M43.41,411.75a2.48,2.48,0,0,1-2.18,1.06,2.9,2.9,0,0,1-3-3.11v-5h2.13v4.54a1.41,1.41,0,0,0,1.44,1.59,1.43,1.43,0,0,0,1.49-1.56v-4.57h2.13v6.45a13.31,13.31,0,0,0,.08,1.42h-2A5.77,5.77,0,0,1,43.41,411.75Z"/><path class="cls-24" d="M49.57,408.07l1.94-.29c.44-.06.59-.28.59-.56,0-.56-.43-1-1.33-1a1.4,1.4,0,0,0-1.51,1.28l-1.88-.4a3.12,3.12,0,0,1,3.37-2.59c2.5,0,3.43,1.4,3.43,3v3.87a10.26,10.26,0,0,0,.09,1.25h-2a5.15,5.15,0,0,1-.08-.94,2.64,2.64,0,0,1-2.32,1.17,2.48,2.48,0,0,1-2.7-2.37A2.43,2.43,0,0,1,49.57,408.07Zm2.53,1.35v-.36l-1.78.28a1,1,0,0,0-1,1,.93.93,0,0,0,1,.91A1.6,1.6,0,0,0,52.1,409.42Z"/><path class="cls-24" d="M58.94,404.73h1.59v1.89H58.94v3.29c0,.69.32.92.93.92a3.14,3.14,0,0,0,.66-.07v1.76a3.18,3.18,0,0,1-1.2.19,2.28,2.28,0,0,1-2.5-2.43v-3.66H55.41v-1.89h.4A1.13,1.13,0,0,0,57,403.48v-1.11h1.92Z"/><path class="cls-24" d="M69.35,410.34a3.54,3.54,0,0,1-3.59,2.5,4.18,4.18,0,0,1-.19-8.35c2.43,0,3.89,1.55,3.89,4.08,0,.3,0,.62,0,.65H63.79a1.93,1.93,0,0,0,2,1.8,1.75,1.75,0,0,0,1.79-1.2Zm-2-2.57a1.58,1.58,0,0,0-1.76-1.56,1.71,1.71,0,0,0-1.76,1.56Z"/><path class="cls-24" d="M80.9,404.57a1.94,1.94,0,0,0-2.07-1.6,1.6,1.6,0,0,0-1.77,1.44,1.31,1.31,0,0,0,1.23,1.28l1.58.3c2.07.4,3.17,1.75,3.17,3.35s-1.45,3.5-4.1,3.5c-3,0-4.33-1.93-4.51-3.55l2-.55A2.28,2.28,0,0,0,79,410.87c1.19,0,1.84-.59,1.84-1.39s-.49-1.17-1.38-1.34l-1.58-.32a3.31,3.31,0,0,1-3-3.25,3.76,3.76,0,0,1,4-3.56c2.75,0,3.81,1.67,4.06,2.95Z"/><path class="cls-24" d="M86.29,408.66a2,2,0,0,0,2,2.23,1.8,1.8,0,0,0,1.81-1.33l1.88.62a3.67,3.67,0,0,1-3.69,2.66,4.07,4.07,0,0,1-4.14-4.18,4,4,0,0,1,4.08-4.17,3.61,3.61,0,0,1,3.7,2.65l-1.91.64a1.71,1.71,0,0,0-1.74-1.32A2,2,0,0,0,86.29,408.66Z"/><path class="cls-24" d="M95.68,412.6H93.55V401h2.13v4.37a3,3,0,0,1,5.06,2.26v5H98.61V408a1.39,1.39,0,0,0-1.46-1.57A1.48,1.48,0,0,0,95.68,408Z"/><path class="cls-24" d="M110.56,408.66a4.13,4.13,0,1,1-4.13-4.17A4,4,0,0,1,110.56,408.66Zm-2.13,0a2,2,0,1,0-2,2.25A2,2,0,0,0,108.43,408.66Z"/><path class="cls-24" d="M119.91,408.66a4.13,4.13,0,1,1-4.13-4.17A4,4,0,0,1,119.91,408.66Zm-2.13,0a2,2,0,1,0-2,2.25A2,2,0,0,0,117.78,408.66Z"/><path class="cls-24" d="M121.58,412.6V401h2.13V412.6Z"/><path class="cls-24" d="M137.6,408.66a4.13,4.13,0,1,1-4.13-4.17A4,4,0,0,1,137.6,408.66Zm-2.13,0a2,2,0,1,0-2,2.25A2,2,0,0,0,135.47,408.66Z"/><path class="cls-24" d="M141.82,403.86v.87h1.78v1.82h-1.78v6.05h-2.14v-6.05h-1.31v-1.82h1.31v-.9a2.71,2.71,0,0,1,2.86-2.93,3.13,3.13,0,0,1,1.06.16v1.79a2.44,2.44,0,0,0-.67-.08A1,1,0,0,0,141.82,403.86Z"/><path class="cls-24" d="M149.09,412.6V401.25h7.1v2.08H151.3v2.6h4.43v2H151.3v2.62h4.89v2.08Z"/><path class="cls-24" d="M165.75,411.18c0,.53,0,1.1.06,1.42h-2a4.65,4.65,0,0,1-.08-.91,2.49,2.49,0,0,1-2.21,1.1,4.14,4.14,0,0,1-.07-8.26,2.37,2.37,0,0,1,2.23,1V401h2.1Zm-4-.29a2,2,0,0,0,1.94-2.26,2,2,0,0,0-1.94-2.19,2.24,2.24,0,0,0,0,4.45Z"/><path class="cls-24" d="M173.14,411.75a2.5,2.5,0,0,1-2.18,1.06,2.9,2.9,0,0,1-3-3.11v-5h2.12v4.54a1.47,1.47,0,1,0,2.93,0v-4.57h2.13v6.45a13.31,13.31,0,0,0,.08,1.42h-2A5.77,5.77,0,0,1,173.14,411.75Z"/><path class="cls-24" d="M179,408.66a2,2,0,0,0,2,2.23,1.79,1.79,0,0,0,1.8-1.33l1.88.62a3.66,3.66,0,0,1-3.68,2.66,4.07,4.07,0,0,1-4.15-4.18,4,4,0,0,1,4.08-4.17,3.6,3.6,0,0,1,3.7,2.65l-1.91.64a1.71,1.71,0,0,0-1.74-1.32A2,2,0,0,0,179,408.66Z"/><path class="cls-24" d="M188.09,408.07l1.94-.29c.45-.06.59-.28.59-.56,0-.56-.43-1-1.33-1a1.39,1.39,0,0,0-1.5,1.28l-1.89-.4a3.14,3.14,0,0,1,3.38-2.59c2.5,0,3.42,1.4,3.42,3v3.87a8.43,8.43,0,0,0,.1,1.25h-2a5.15,5.15,0,0,1-.08-.94,2.65,2.65,0,0,1-2.32,1.17,2.49,2.49,0,0,1-2.71-2.37A2.43,2.43,0,0,1,188.09,408.07Zm2.53,1.35v-.36l-1.77.28a1,1,0,0,0-1,1,.93.93,0,0,0,1,.91A1.6,1.6,0,0,0,190.62,409.42Z"/><path class="cls-24" d="M197.47,404.73h1.59v1.89h-1.59v3.29c0,.69.32.92.93.92a3.31,3.31,0,0,0,.66-.07v1.76a3.24,3.24,0,0,1-1.21.19,2.28,2.28,0,0,1-2.49-2.43v-3.66h-1.43v-1.89h.4a1.14,1.14,0,0,0,1.22-1.25v-1.11h1.92Z"/><path class="cls-24" d="M201.87,400.82a1.32,1.32,0,1,1-1.31,1.33A1.31,1.31,0,0,1,201.87,400.82Zm-1.06,11.78v-7.87h2.13v7.87Z"/><path class="cls-24" d="M212.88,408.66a4.13,4.13,0,1,1-4.13-4.17A4,4,0,0,1,212.88,408.66Zm-2.13,0a2,2,0,1,0-2,2.25A2,2,0,0,0,210.75,408.66Z"/><path class="cls-24" d="M216.69,412.6h-2.13v-7.87h2.06v1a2.64,2.64,0,0,1,2.28-1.18c1.95,0,2.84,1.39,2.84,3.12v5h-2.12V408a1.39,1.39,0,0,0-1.46-1.57,1.48,1.48,0,0,0-1.47,1.63Z"/><path class="cls-24" d="M7,479a2,2,0,0,0-2.07-1.6,1.6,1.6,0,0,0-1.77,1.44c0,.63.4,1.12,1.23,1.28l1.58.31c2.07.4,3.17,1.74,3.17,3.34s-1.45,3.51-4.1,3.51c-3,0-4.33-1.94-4.51-3.55l2.05-.55A2.27,2.27,0,0,0,5,485.27c1.18,0,1.84-.59,1.84-1.39s-.5-1.17-1.38-1.35l-1.58-.32a3.3,3.3,0,0,1-3-3.25,3.76,3.76,0,0,1,4-3.55c2.75,0,3.81,1.67,4.06,2.95Z"/><path class="cls-24" d="M12.34,483.06a2,2,0,0,0,2,2.23A1.8,1.8,0,0,0,16.16,484l1.88.62a3.67,3.67,0,0,1-3.69,2.66,4.18,4.18,0,0,1-.06-8.36,3.62,3.62,0,0,1,3.7,2.66l-1.91.64a1.72,1.72,0,0,0-1.74-1.33A2,2,0,0,0,12.34,483.06Z"/><path class="cls-24" d="M21.73,487H19.6V475.41h2.13v4.37a2.81,2.81,0,0,1,2.13-.86A2.81,2.81,0,0,1,26.79,482v5H24.66v-4.59a1.39,1.39,0,0,0-1.46-1.57,1.47,1.47,0,0,0-1.47,1.53Z"/><path class="cls-24" d="M36.61,483.06a4.13,4.13,0,1,1-4.13-4.18A4,4,0,0,1,36.61,483.06Zm-2.13,0a2,2,0,1,0-2,2.24A2,2,0,0,0,34.48,483.06Z"/><path class="cls-24" d="M46,483.06a4.13,4.13,0,1,1-4.13-4.18A4,4,0,0,1,46,483.06Zm-2.13,0a2,2,0,1,0-2,2.24A2,2,0,0,0,43.83,483.06Z"/><path class="cls-24" d="M47.63,487V475.41h2.13V487Z"/><path class="cls-24" d="M63.65,483.06a4.13,4.13,0,1,1-4.13-4.18A4,4,0,0,1,63.65,483.06Zm-2.13,0a2,2,0,1,0-2,2.24A2,2,0,0,0,61.52,483.06Z"/><path class="cls-24" d="M67.87,478.26v.86h1.78V481H67.87V487H65.73V481H64.42v-1.83h1.31v-.89a2.71,2.71,0,0,1,2.86-2.93,3.13,3.13,0,0,1,1.06.16v1.79a2.44,2.44,0,0,0-.67-.08A1,1,0,0,0,67.87,478.26Z"/><path class="cls-24" d="M75.14,487V475.65h2.2v9.24H82.4V487Z"/><path class="cls-24" d="M85.81,482.47l1.93-.29c.45-.06.6-.29.6-.56,0-.56-.44-1-1.33-1a1.4,1.4,0,0,0-1.51,1.28l-1.88-.4a3.13,3.13,0,0,1,3.37-2.6c2.5,0,3.43,1.41,3.43,3v3.87a10.26,10.26,0,0,0,.09,1.25h-2a5.15,5.15,0,0,1-.08-.94,2.63,2.63,0,0,1-2.32,1.16,2.48,2.48,0,0,1-2.7-2.36A2.43,2.43,0,0,1,85.81,482.47Zm2.53,1.34v-.35l-1.78.27a1,1,0,0,0-1,1,.93.93,0,0,0,1,.91A1.6,1.6,0,0,0,88.34,483.81Z"/><path class="cls-24" d="M99.27,479.12,101,484.2l1.46-5.08h2.11L102.07,487H99.94l-1.84-5.38L96.29,487H94.13l-2.52-7.88h2.25l1.45,5.06L97,479.12Z"/><path class="cls-24" d="M7,553.37a2,2,0,0,0-2.07-1.6,1.6,1.6,0,0,0-1.77,1.44,1.31,1.31,0,0,0,1.23,1.28l1.58.31c2.07.4,3.17,1.74,3.17,3.34s-1.45,3.51-4.1,3.51c-3,0-4.33-1.94-4.51-3.56l2.05-.54A2.27,2.27,0,0,0,5,559.68c1.18,0,1.84-.6,1.84-1.39s-.5-1.17-1.38-1.35l-1.58-.32a3.31,3.31,0,0,1-3-3.25,3.76,3.76,0,0,1,4-3.55c2.75,0,3.81,1.66,4.06,2.94Z"/><path class="cls-24" d="M12.34,557.47a2,2,0,0,0,2,2.22,1.8,1.8,0,0,0,1.81-1.32L18,559a3.68,3.68,0,0,1-3.69,2.66,4.18,4.18,0,0,1-.06-8.36A3.62,3.62,0,0,1,18,556l-1.91.64a1.71,1.71,0,0,0-1.74-1.33A2,2,0,0,0,12.34,557.47Z"/><path class="cls-24" d="M21.73,561.41H19.6V549.82h2.13v4.37a3,3,0,0,1,5.06,2.25v5H24.66v-4.6a1.39,1.39,0,0,0-1.46-1.57,1.48,1.48,0,0,0-1.47,1.54Z"/><path class="cls-24" d="M36.61,557.47a4.13,4.13,0,1,1-4.13-4.18A4,4,0,0,1,36.61,557.47Zm-2.13,0a2,2,0,1,0-2,2.24A2,2,0,0,0,34.48,557.47Z"/><path class="cls-24" d="M46,557.47a4.13,4.13,0,1,1-4.13-4.18A4,4,0,0,1,46,557.47Zm-2.13,0a2,2,0,1,0-2,2.24A2,2,0,0,0,43.83,557.47Z"/><path class="cls-24" d="M47.63,561.41V549.82h2.13v11.59Z"/><path class="cls-24" d="M63.65,557.47a4.13,4.13,0,1,1-4.13-4.18A4,4,0,0,1,63.65,557.47Zm-2.13,0a2,2,0,1,0-2,2.24A2,2,0,0,0,61.52,557.47Z"/><path class="cls-24" d="M67.87,552.67v.86h1.78v1.83H67.87v6H65.73v-6H64.42v-1.83h1.31v-.9a2.71,2.71,0,0,1,2.86-2.92,3.13,3.13,0,0,1,1.06.16v1.79a2.44,2.44,0,0,0-.67-.08A1,1,0,0,0,67.87,552.67Z"/><path class="cls-24" d="M75.14,561.41V550.06h7.1v2.08h-4.9v2.59h4.44v2H77.34v2.63h4.9v2.08Z"/><path class="cls-24" d="M86.16,556.88l1.94-.29c.44-.07.59-.29.59-.56,0-.56-.43-1-1.33-1a1.39,1.39,0,0,0-1.5,1.28l-1.89-.4a3.13,3.13,0,0,1,3.37-2.59c2.5,0,3.43,1.41,3.43,3v3.88a8.67,8.67,0,0,0,.1,1.25h-2a6.25,6.25,0,0,1-.08-.95,2.62,2.62,0,0,1-2.32,1.17,2.48,2.48,0,0,1-2.7-2.37A2.42,2.42,0,0,1,86.16,556.88Zm2.53,1.34v-.35l-1.78.27a1,1,0,0,0-1,1,.92.92,0,0,0,1,.92A1.6,1.6,0,0,0,88.69,558.22Z"/><path class="cls-24" d="M97.71,555.64a3.91,3.91,0,0,0-.64-.06c-1.09,0-2,.53-2,2.22v3.61H92.91v-7.88H95v1.17a2.33,2.33,0,0,1,2.24-1.23,3.91,3.91,0,0,1,.49,0Z"/><path class="cls-24" d="M101.79,553.53h1.59v1.89h-1.59v3.3c0,.69.32.91.93.91a3.37,3.37,0,0,0,.66-.06v1.76a3.22,3.22,0,0,1-1.2.19,2.28,2.28,0,0,1-2.5-2.44v-3.66H98.25v-1.89h.4a1.13,1.13,0,0,0,1.22-1.25v-1.1h1.92Z"/><path class="cls-24" d="M107.26,561.41h-2.13V549.82h2.13v4.37a3,3,0,0,1,5.06,2.25v5h-2.13v-4.6a1.38,1.38,0,0,0-1.45-1.57,1.48,1.48,0,0,0-1.48,1.54Z"/><path class="cls-24" d="M115.78,558.78a1.64,1.64,0,0,1,1.58,1.84,3.28,3.28,0,0,1-2.82,3.49v-1a2,2,0,0,0,1.52-1.73.8.8,0,0,1-.41.09,1.27,1.27,0,0,1-1.33-1.32A1.37,1.37,0,0,1,115.78,558.78Z"/><path class="cls-24" d="M123.58,561.41V550.06h7.11v2.08h-4.9v2.59h4.44v2h-4.44v2.63h4.9v2.08Z"/><path class="cls-24" d="M134.86,561.41h-2.13v-7.88h2.07v1a2.61,2.61,0,0,1,2.27-1.19c2,0,2.85,1.4,2.85,3.12v5h-2.13v-4.6a1.38,1.38,0,0,0-1.45-1.57,1.49,1.49,0,0,0-1.48,1.64Z"/><path class="cls-24" d="M149.14,559.15a3.55,3.55,0,0,1-3.59,2.5,4,4,0,0,1-4.06-4.21,4,4,0,0,1,3.87-4.15c2.43,0,3.89,1.55,3.89,4.08,0,.31,0,.63,0,.66h-5.64a1.92,1.92,0,0,0,2,1.79,1.73,1.73,0,0,0,1.79-1.2Zm-2-2.58a1.58,1.58,0,0,0-1.76-1.55,1.71,1.71,0,0,0-1.76,1.55Z"/><path class="cls-24" d="M155.73,555.64a3.91,3.91,0,0,0-.64-.06c-1.09,0-2,.53-2,2.22v3.61h-2.13v-7.88H153v1.17a2.34,2.34,0,0,1,2.24-1.23,4,4,0,0,1,.5,0Z"/><path class="cls-24" d="M158.54,561.33a1.77,1.77,0,0,0,1.84,1.48c1.35,0,2.1-.67,2.1-2.19v-.57a2.51,2.51,0,0,1-2.19,1,3.64,3.64,0,0,1-3.67-3.82,3.7,3.7,0,0,1,3.67-3.84,2.37,2.37,0,0,1,2.24,1.07v-.93h2.05v7a3.81,3.81,0,0,1-4.13,4.13,3.64,3.64,0,0,1-3.83-2.85Zm4-4.1a1.87,1.87,0,1,0-1.85,2A1.83,1.83,0,0,0,162.51,557.23Z"/><path class="cls-24" d="M167.2,564.51l1.86-4.1-3.35-6.88h2.38l2.1,4.61,1.94-4.61h2.27l-4.94,11Z"/><path class="cls-24" d="M177,558.78a1.65,1.65,0,0,1,1.59,1.84,3.28,3.28,0,0,1-2.82,3.49v-1a2,2,0,0,0,1.52-1.73.84.84,0,0,1-.42.09,1.28,1.28,0,0,1-1.33-1.32A1.38,1.38,0,0,1,177,558.78Z"/><path class="cls-24" d="M186.51,556.88l1.94-.29c.45-.07.59-.29.59-.56,0-.56-.43-1-1.33-1a1.39,1.39,0,0,0-1.5,1.28l-1.89-.4a3.13,3.13,0,0,1,3.37-2.59c2.5,0,3.43,1.41,3.43,3v3.88a8.67,8.67,0,0,0,.1,1.25h-2a6.25,6.25,0,0,1-.08-.95,2.62,2.62,0,0,1-2.32,1.17,2.48,2.48,0,0,1-2.7-2.37A2.42,2.42,0,0,1,186.51,556.88Zm2.53,1.34v-.35l-1.78.27a1,1,0,0,0-1,1,.92.92,0,0,0,1,.92A1.6,1.6,0,0,0,189,558.22Z"/><path class="cls-24" d="M195.39,561.41h-2.13v-7.88h2.07v1a2.61,2.61,0,0,1,2.27-1.19c2,0,2.85,1.4,2.85,3.12v5h-2.13v-4.6a1.39,1.39,0,0,0-1.46-1.57,1.48,1.48,0,0,0-1.47,1.64Z"/><path class="cls-24" d="M210.11,560a13.45,13.45,0,0,0,.07,1.43h-2a5.76,5.76,0,0,1-.08-.92,2.45,2.45,0,0,1-2.21,1.11,4.14,4.14,0,0,1-.06-8.26,2.37,2.37,0,0,1,2.23,1v-4.5h2.09Zm-4-.29a2,2,0,0,0,1.94-2.25,2,2,0,1,0-3.89,0A2,2,0,0,0,206.11,559.69Z"/><path class="cls-24" d="M216.52,561.41V550.06h7.11v2.08h-4.9v2.59h4.44v2h-4.44v2.63h4.9v2.08Z"/><path class="cls-24" d="M227.81,561.41h-2.13v-7.88h2.06v1a2.62,2.62,0,0,1,2.27-1.19c2,0,2.85,1.4,2.85,3.12v5h-2.13v-4.6a1.38,1.38,0,0,0-1.45-1.57,1.48,1.48,0,0,0-1.47,1.64Z"/><path class="cls-24" d="M239.39,561.41h-2.13L234,553.53h2.34l2,5.28,1.88-5.28h2.24Z"/><path class="cls-24" d="M244.8,549.62a1.32,1.32,0,1,1-1.32,1.33A1.33,1.33,0,0,1,244.8,549.62Zm-1.06,11.79v-7.88h2.13v7.88Z"/><path class="cls-24" d="M252.94,555.64a3.91,3.91,0,0,0-.64-.06c-1.09,0-2,.53-2,2.22v3.61h-2.13v-7.88h2.07v1.17a2.33,2.33,0,0,1,2.24-1.23,3.91,3.91,0,0,1,.49,0Z"/><path class="cls-24" d="M262.06,557.47a4.13,4.13,0,1,1-4.13-4.18A4,4,0,0,1,262.06,557.47Zm-2.13,0a2,2,0,1,0-2,2.24A2,2,0,0,0,259.93,557.47Z"/><path class="cls-24" d="M265.87,561.41h-2.13v-7.88h2.07v1a2.61,2.61,0,0,1,2.27-1.19c1.95,0,2.85,1.4,2.85,3.12v5H268.8v-4.6a1.39,1.39,0,0,0-1.46-1.57,1.48,1.48,0,0,0-1.47,1.64Z"/><path class="cls-24" d="M273.08,561.41v-7.88h2v1a2.69,2.69,0,0,1,2.3-1.18,2.43,2.43,0,0,1,2.34,1.31,2.92,2.92,0,0,1,5.35,1.68v5.11H283v-4.68a1.32,1.32,0,0,0-1.39-1.49,1.46,1.46,0,0,0-1.46,1.56v4.61h-2.11v-4.68a1.32,1.32,0,0,0-1.39-1.49,1.45,1.45,0,0,0-1.48,1.56v4.61Z"/><path class="cls-24" d="M294.32,559.15a3.55,3.55,0,0,1-3.59,2.5,4.19,4.19,0,0,1-.19-8.36c2.43,0,3.89,1.55,3.89,4.08,0,.31,0,.63,0,.66h-5.64a1.92,1.92,0,0,0,2,1.79,1.73,1.73,0,0,0,1.79-1.2Zm-2-2.58a1.58,1.58,0,0,0-1.76-1.55,1.71,1.71,0,0,0-1.76,1.55Z"/><path class="cls-24" d="M298.24,561.41h-2.13v-7.88h2.06v1a2.62,2.62,0,0,1,2.28-1.19c1.95,0,2.84,1.4,2.84,3.12v5h-2.12v-4.6a1.39,1.39,0,0,0-1.46-1.57,1.48,1.48,0,0,0-1.47,1.64Z"/><path class="cls-24" d="M308.08,553.53h1.58v1.89h-1.58v3.3c0,.69.32.91.93.91a3.25,3.25,0,0,0,.65-.06v1.76a3.13,3.13,0,0,1-1.2.19,2.29,2.29,0,0,1-2.5-2.44v-3.66h-1.42v-1.89h.4a1.14,1.14,0,0,0,1.22-1.25v-1.1h1.92Z"/><path class="cls-24" d="M313.29,556.88l1.94-.29c.45-.07.59-.29.59-.56,0-.56-.43-1-1.33-1a1.39,1.39,0,0,0-1.5,1.28l-1.89-.4a3.13,3.13,0,0,1,3.38-2.59c2.49,0,3.42,1.41,3.42,3v3.88a8.67,8.67,0,0,0,.1,1.25h-1.95a5.19,5.19,0,0,1-.08-.95,2.63,2.63,0,0,1-2.33,1.17,2.48,2.48,0,0,1-2.7-2.37A2.42,2.42,0,0,1,313.29,556.88Zm2.53,1.34v-.35l-1.78.27a1,1,0,0,0-1,1,.92.92,0,0,0,1,.92A1.6,1.6,0,0,0,315.82,558.22Z"/><path class="cls-24" d="M320,561.41V549.82h2.13v11.59Z"/><path class="cls-24" d="M334.21,553.37a2,2,0,0,0-2.07-1.6,1.6,1.6,0,0,0-1.77,1.44,1.31,1.31,0,0,0,1.23,1.28l1.58.31c2.07.4,3.17,1.74,3.17,3.34s-1.46,3.51-4.1,3.51c-3,0-4.33-1.94-4.51-3.56l2.05-.54a2.27,2.27,0,0,0,2.48,2.13c1.18,0,1.84-.6,1.84-1.39s-.5-1.17-1.38-1.35l-1.58-.32a3.31,3.31,0,0,1-3-3.25,3.76,3.76,0,0,1,4-3.55c2.75,0,3.81,1.66,4.06,2.94Z"/><path class="cls-24" d="M339.6,557.47a2,2,0,0,0,2,2.22,1.8,1.8,0,0,0,1.81-1.32l1.87.62a3.65,3.65,0,0,1-3.68,2.66,4.18,4.18,0,0,1-.06-8.36,3.62,3.62,0,0,1,3.7,2.66l-1.91.64a1.71,1.71,0,0,0-1.74-1.33A2,2,0,0,0,339.6,557.47Z"/><path class="cls-24" d="M347.92,549.62A1.32,1.32,0,1,1,346.6,551,1.33,1.33,0,0,1,347.92,549.62Zm-1.06,11.79v-7.88H349v7.88Z"/><path class="cls-24" d="M358.32,559.15a3.55,3.55,0,0,1-3.59,2.5,4,4,0,0,1-4.06-4.21,4,4,0,0,1,3.87-4.15c2.43,0,3.89,1.55,3.89,4.08,0,.31,0,.63,0,.66h-5.64a1.92,1.92,0,0,0,2,1.79,1.73,1.73,0,0,0,1.79-1.2Zm-2-2.58a1.58,1.58,0,0,0-1.76-1.55,1.71,1.71,0,0,0-1.76,1.55Z"/><path class="cls-24" d="M362.24,561.41h-2.13v-7.88h2.06v1a2.62,2.62,0,0,1,2.28-1.19c1.95,0,2.84,1.4,2.84,3.12v5h-2.12v-4.6a1.39,1.39,0,0,0-1.46-1.57,1.48,1.48,0,0,0-1.47,1.64Z"/><path class="cls-24" d="M371,557.47a2,2,0,0,0,2,2.22,1.8,1.8,0,0,0,1.81-1.32l1.88.62a3.68,3.68,0,0,1-3.69,2.66,4.18,4.18,0,0,1-.06-8.36,3.62,3.62,0,0,1,3.7,2.66l-1.91.64a1.71,1.71,0,0,0-1.74-1.33A2,2,0,0,0,371,557.47Z"/><path class="cls-24" d="M385.31,559.15a3.55,3.55,0,0,1-3.59,2.5,4.19,4.19,0,0,1-.19-8.36c2.43,0,3.89,1.55,3.89,4.08,0,.31,0,.63,0,.66h-5.64a1.92,1.92,0,0,0,2,1.79,1.73,1.73,0,0,0,1.79-1.2Zm-2-2.58a1.6,1.6,0,0,0-1.77-1.55,1.71,1.71,0,0,0-1.76,1.55Z"/><path class="cls-24" d="M388.25,558.81a1.31,1.31,0,0,0,1.44,1.2c.71,0,1-.36,1-.78s-.24-.64-.85-.77l-1-.24c-1.52-.34-2.21-1.25-2.21-2.35a2.75,2.75,0,0,1,2.95-2.58c2.24,0,3,1.43,3.09,2.27l-1.78.4a1.19,1.19,0,0,0-1.29-1.05c-.56,0-1,.33-1,.78s.29.63.72.71l1.12.24c1.55.32,2.34,1.26,2.34,2.41s-1,2.6-3.06,2.6c-2.37,0-3.19-1.54-3.28-2.44Z"/><path class="cls-7" d="M234.18,73V67.52H232.3v-.83a1.93,1.93,0,0,0,2-1.46h1V73Z"/><path class="cls-7" d="M237.53,66.3a2.9,2.9,0,0,1,4.77,0,6,6,0,0,1,0,5.63,2.9,2.9,0,0,1-4.77,0,6.09,6.09,0,0,1,0-5.63Zm1.15,5.33a1.64,1.64,0,0,0,1.24.51,1.61,1.61,0,0,0,1.23-.51,3.6,3.6,0,0,0,.69-2.52,3.59,3.59,0,0,0-.69-2.51,1.58,1.58,0,0,0-1.23-.51,1.6,1.6,0,0,0-1.24.51,3.59,3.59,0,0,0-.68,2.51A3.6,3.6,0,0,0,238.68,71.63Z"/><path class="cls-29" d="M284.52,67.88a1.72,1.72,0,0,1,0-.31,2.52,2.52,0,0,1,2.69-2.52,2.4,2.4,0,0,1,2.63,2.39,2.83,2.83,0,0,1-1.47,2.39l-1.53,1a1.9,1.9,0,0,0-.95,1.09h4V73h-5.45a3.49,3.49,0,0,1,1.85-3.09l1.29-.84a2,2,0,0,0,1.07-1.62,1.34,1.34,0,0,0-1.46-1.37,1.44,1.44,0,0,0-1.5,1.59c0,.11,0,.23,0,.35Z"/><path class="cls-29" d="M291.89,70.55a1.69,1.69,0,0,0,1.76,1.61,1.59,1.59,0,1,0,0-3.18,2,2,0,0,0-1.41.57c-.41-.16-.76-.32-1.15-.46l1-3.86h4.11v1.08h-3.33l-.57,2.23a2.15,2.15,0,0,1,1.58-.58,2.47,2.47,0,0,1,2.64,2.58,2.67,2.67,0,0,1-2.85,2.65,2.7,2.7,0,0,1-2.88-2.3Z"/><path d="M413.54,89A2,2,0,0,1,415,87a2,2,0,0,1-1.27-1.82,2.66,2.66,0,0,1,5.23,0A2,2,0,0,1,417.7,87,2,2,0,0,1,419.18,89c0,1.25-1,2.23-2.82,2.23S413.54,90.2,413.54,89Zm4.45-.1c0-.74-.6-1.33-1.63-1.33s-1.63.59-1.63,1.33.58,1.31,1.63,1.31S418,89.58,418,88.85Zm-.19-3.58a1.45,1.45,0,0,0-2.88,0,1.45,1.45,0,0,0,2.88,0Z"/><path d="M421.9,91V85.52H420v-.83a1.93,1.93,0,0,0,2-1.46h1V91Z"/><path d="M388.73,159.36a9.23,9.23,0,0,0-3.28,6.64h-1.21a9.56,9.56,0,0,1,3.2-6.69h-4.38v-1.08h5.67Z"/><path d="M390.34,163.55a1.69,1.69,0,0,0,1.75,1.61,1.59,1.59,0,1,0,0-3.18,2,2,0,0,0-1.41.57c-.41-.16-.76-.32-1.15-.46l1-3.86h4.1v1.08H391.3l-.57,2.23a2.14,2.14,0,0,1,1.58-.58,2.47,2.47,0,0,1,2.64,2.58,2.9,2.9,0,0,1-5.73.35Z"/><path d="M259.55,237.56a1.68,1.68,0,0,0,1.75,1.61,1.59,1.59,0,1,0,0-3.18,2,2,0,0,0-1.42.56c-.41-.15-.75-.31-1.15-.45l1-3.86h4.1v1.08h-3.32l-.58,2.23a2.15,2.15,0,0,1,1.58-.58,2.46,2.46,0,0,1,2.64,2.58,2.66,2.66,0,0,1-2.85,2.65,2.7,2.7,0,0,1-2.88-2.3Z"/><path d="M265.87,233.3a2.91,2.91,0,0,1,4.77,0,6,6,0,0,1,0,5.64,2.9,2.9,0,0,1-4.77,0,6.11,6.11,0,0,1,0-5.64Zm1.15,5.34a1.63,1.63,0,0,0,1.24.5,1.61,1.61,0,0,0,1.23-.5,4.95,4.95,0,0,0,0-5,1.61,1.61,0,0,0-1.23-.5,1.63,1.63,0,0,0-1.24.5,5,5,0,0,0,0,5Z"/><path d="M65.18,315v-5.48H63.3v-.83a1.93,1.93,0,0,0,2-1.46h1V315Z"/><path d="M69.42,315v-5.48H67.54v-.83a1.93,1.93,0,0,0,2-1.46h1V315Z"/><path d="M58.18,389v-5.48H56.3v-.83a1.93,1.93,0,0,0,2-1.46h1V389Z"/><path d="M61.53,382.3a2.9,2.9,0,0,1,4.77,0,6,6,0,0,1,0,5.63,2.9,2.9,0,0,1-4.77,0,6.09,6.09,0,0,1,0-5.63Zm1.15,5.33a1.64,1.64,0,0,0,1.24.51,1.61,1.61,0,0,0,1.23-.51,4.93,4.93,0,0,0,0-5,1.58,1.58,0,0,0-1.23-.51,1.6,1.6,0,0,0-1.24.51,5,5,0,0,0,0,5Z"/><path d="M60.18,464v-5.48H58.3v-.83a1.93,1.93,0,0,0,2-1.46h1V464Z"/><path d="M63.53,457.3a2.9,2.9,0,0,1,4.77,0,6,6,0,0,1,0,5.63,2.9,2.9,0,0,1-4.77,0,6.09,6.09,0,0,1,0-5.63Zm1.15,5.33a1.64,1.64,0,0,0,1.24.51,1.61,1.61,0,0,0,1.23-.51,4.93,4.93,0,0,0,0-5,1.58,1.58,0,0,0-1.23-.51,1.6,1.6,0,0,0-1.24.51,5,5,0,0,0,0,5Z"/><path d="M44.73,531.36A9.23,9.23,0,0,0,41.45,538H40.24a9.56,9.56,0,0,1,3.2-6.69H39.06v-1.08h5.67Z"/><path class="cls-7" d="M264.18,148v-5.48H262.3v-.83a1.93,1.93,0,0,0,2-1.46h1V148Z"/><path class="cls-7" d="M272.17,141.44a2.88,2.88,0,0,0-1.39-.34,2.71,2.71,0,0,0-2.73,2.79,2.33,2.33,0,0,1,2.05-1,2.49,2.49,0,0,1,2.66,2.65,2.68,2.68,0,0,1-2.88,2.65c-1.48,0-3-1-3-3.6,0-2.89,1.74-4.53,4-4.53a3.07,3.07,0,0,1,1.68.43Zm-2.28,5.72a1.64,1.64,0,1,0,0-3.27,1.6,1.6,0,0,0-1.68,1.64A1.63,1.63,0,0,0,269.89,147.16Z"/><path class="cls-29" d="M349.73,141.36a9.23,9.23,0,0,0-3.28,6.64h-1.21a9.56,9.56,0,0,1,3.2-6.69h-4.38v-1.08h5.67Z"/><path class="cls-7" d="M184.12,217.42l2.29-2.11H182.7v-1.08H188v1.05l-2.22,2.05a2.31,2.31,0,0,1,2.4,2.37,2.56,2.56,0,0,1-2.82,2.49,2.67,2.67,0,0,1-2.89-2.44l1.16-.27a1.67,1.67,0,0,0,1.72,1.68,1.47,1.47,0,0,0,1.65-1.44,1.45,1.45,0,0,0-1.59-1.45,2.11,2.11,0,0,0-.68.12Z"/><path class="cls-29" d="M201.18,222v-5.48H199.3v-.83a1.93,1.93,0,0,0,2-1.46h1V222Z"/><path class="cls-29" d="M205.42,222v-5.48h-1.88v-.83a1.93,1.93,0,0,0,2-1.46h1V222Z"/><path class="cls-7" d="M37.52,291.88a1.72,1.72,0,0,1,0-.31,2.52,2.52,0,0,1,2.69-2.52,2.4,2.4,0,0,1,2.63,2.39,2.83,2.83,0,0,1-1.47,2.39l-1.53,1a1.9,1.9,0,0,0-1,1.09h4V297H37.42a3.49,3.49,0,0,1,1.85-3.09l1.29-.84a2,2,0,0,0,1.07-1.62,1.34,1.34,0,0,0-1.46-1.37,1.44,1.44,0,0,0-1.5,1.59c0,.11,0,.23,0,.35Z"/><path class="cls-29" d="M49.52,291.88a1.72,1.72,0,0,1,0-.31,2.52,2.52,0,0,1,2.69-2.52,2.4,2.4,0,0,1,2.63,2.39,2.83,2.83,0,0,1-1.47,2.39l-1.53,1a1.9,1.9,0,0,0-1,1.09h4V297H49.42a3.49,3.49,0,0,1,1.85-3.09l1.29-.84a2,2,0,0,0,1.07-1.62,1.34,1.34,0,0,0-1.46-1.37,1.44,1.44,0,0,0-1.5,1.59c0,.11,0,.23,0,.35Z"/><path class="cls-7" d="M39.12,367.42l2.29-2.11H37.7v-1.08H43v1l-2.22,2.05a2.31,2.31,0,0,1,2.4,2.37,2.56,2.56,0,0,1-2.82,2.49,2.67,2.67,0,0,1-2.89-2.44l1.16-.27a1.67,1.67,0,0,0,1.72,1.68A1.47,1.47,0,0,0,42,369.72a1.45,1.45,0,0,0-1.59-1.45,2.11,2.11,0,0,0-.68.12Z"/><path class="cls-7" d="M27.42,442.89l3.33-4.66h1.62v4.93H33.7v1.09H32.37V446H31.23v-1.75H27.42Zm3.81-3.53-2.73,3.8h2.73Z"/><path class="cls-29" d="M51.18,446v-5.48H49.3v-.83a1.93,1.93,0,0,0,2-1.46h1V446Z"/><path class="cls-24" d="M1.29,16.19a7,7,0,0,1,0-.78c0-3.33,2.46-6.3,6.72-6.3s6.57,2.73,6.57,6a7.08,7.08,0,0,1-3.66,6L7.05,23.54a4.76,4.76,0,0,0-2.37,2.73h10V29H1.05c.06-3.18,1.32-5.61,4.62-7.74l3.24-2.1c1.83-1.17,2.67-2.55,2.67-4.05a3.36,3.36,0,0,0-3.66-3.42c-2.55,0-3.75,1.77-3.75,4,0,.27,0,.57.06.87Z"/><path class="cls-24" d="M16.92,21.23,25.26,9.56h4V21.89h3.33v2.73H29.31V29H26.46V24.62H16.92Zm9.54-8.85-6.84,9.51h6.84Z"/><path class="cls-24" d="M34.14,21.23,42.48,9.56h4.05V21.89h3.33v2.73H46.53V29H43.68V24.62H34.14Zm9.54-8.85-6.84,9.51h6.84Z"/><path class="cls-24" d="M64,17.12V29H61.08V17.12H58.41V14.57h2.67V12.14a4.58,4.58,0,0,1,4.74-4.95,3.64,3.64,0,0,1,1.68.3V10a3.26,3.26,0,0,0-1.23-.18A2.16,2.16,0,0,0,64,12.29v2.28h3.48v2.55Z"/><path class="cls-24" d="M75.75,29.45c-3.36,0-5.4-2.52-5.4-5.79V14.57h2.82v8.67c0,2,.9,3.72,3.27,3.72s3.42-1.5,3.42-3.69v-8.7h2.82V26.33A24.28,24.28,0,0,0,82.83,29h-2.7A12.77,12.77,0,0,1,80,27.26,4.71,4.71,0,0,1,75.75,29.45Z"/><path class="cls-24" d="M90.3,29H87.48V14.57h2.76v2.07a4.94,4.94,0,0,1,4.44-2.49c3.45,0,5.16,2.49,5.16,5.7V29H97V20.33c0-2-.84-3.63-3.36-3.63-2.22,0-3.36,1.77-3.36,4Z"/><path class="cls-24" d="M114.45,26.81A4.83,4.83,0,0,1,110,29.39c-4.23,0-6.84-3.36-6.84-7.65,0-4.08,2.76-7.56,6.84-7.56,2.55,0,3.93,1.26,4.41,2.43V7.28h2.79v19a22.83,22.83,0,0,0,.15,2.67H114.6a12.09,12.09,0,0,1-.15-1.95Zm-4.2.09c2.58,0,4.17-2.25,4.17-5.22s-1.56-5-4.14-5S106,18.77,106,21.74,107.55,26.9,110.25,26.9Z"/><path class="cls-24" d="M134.55,24.89a6.54,6.54,0,0,1-6.48,4.56c-3.87,0-7.26-2.82-7.26-7.71,0-4.53,3.27-7.62,6.9-7.62,4.44,0,6.93,3.06,6.93,7.56a6.34,6.34,0,0,1-.06.9H123.72A4.28,4.28,0,0,0,128.07,27a3.93,3.93,0,0,0,4.05-2.91ZM131.7,20.3a3.64,3.64,0,0,0-4-3.69,3.88,3.88,0,0,0-3.93,3.69Z"/><path class="cls-24" d="M148.35,26.81a4.83,4.83,0,0,1-4.47,2.58c-4.23,0-6.84-3.36-6.84-7.65,0-4.08,2.76-7.56,6.84-7.56,2.55,0,3.93,1.26,4.41,2.43V7.28h2.79v19a22.83,22.83,0,0,0,.15,2.67H148.5a12.09,12.09,0,0,1-.15-1.95Zm-4.2.09c2.58,0,4.17-2.25,4.17-5.22s-1.56-5-4.14-5-4.26,2.1-4.26,5.07S141.45,26.9,144.15,26.9Z"/><path class="cls-24" d="M167.16,17.12V29h-2.91V17.12h-2.67V14.57h2.67V12.14A4.58,4.58,0,0,1,169,7.19a3.64,3.64,0,0,1,1.68.3V10a3.26,3.26,0,0,0-1.23-.18,2.16,2.16,0,0,0-2.28,2.46v2.28h3.48v2.55Z"/><path class="cls-24" d="M177.15,20.75l3.9-.57c.87-.12,1.11-.57,1.11-1.08,0-1.41-.93-2.58-3.12-2.58a3.06,3.06,0,0,0-3.27,2.91l-2.7-.63c.3-2.76,2.79-4.68,5.91-4.68,4.32,0,6,2.46,6,5.28v7.23a13.57,13.57,0,0,0,.18,2.37H182.4a10.56,10.56,0,0,1-.15-1.95,5.26,5.26,0,0,1-4.65,2.4c-2.94,0-4.83-2-4.83-4.32C172.77,22.55,174.66,21.11,177.15,20.75Zm5,2.07v-.66l-4.41.66a2.16,2.16,0,0,0-2.1,2.16,2.19,2.19,0,0,0,2.34,2.1C180.3,27.08,182.16,26,182.16,22.82Z"/><path class="cls-24" d="M191,21.77c0,3.3,2.07,5.07,4.41,5.07a3.92,3.92,0,0,0,4-3L202,25a6.63,6.63,0,0,1-6.51,4.5c-4.2,0-7.29-3.3-7.29-7.68s3.15-7.65,7.26-7.65a6.28,6.28,0,0,1,6.42,4.59l-2.55,1.08a3.78,3.78,0,0,0-3.87-3.06C193.14,16.73,191,18.41,191,21.77Z"/><path class="cls-24" d="M210.51,29.45c-3.36,0-5.4-2.52-5.4-5.79V14.57h2.82v8.67c0,2,.9,3.72,3.27,3.72s3.42-1.5,3.42-3.69v-8.7h2.82V26.33a24.28,24.28,0,0,0,.15,2.67h-2.7a12.77,12.77,0,0,1-.12-1.74A4.71,4.71,0,0,1,210.51,29.45Z"/><path class="cls-24" d="M222.24,29V7.28h2.82V29Z"/><path class="cls-24" d="M233.64,14.57h3.12v2.55h-3.12v7.5c0,1.32.54,2,2,2a5.71,5.71,0,0,0,1.11-.12v2.4a6.17,6.17,0,0,1-1.92.27,3.75,3.75,0,0,1-4-4.11V17.12h-2.76V14.57h.78a2,2,0,0,0,2.22-2.22V10h2.58Z"/><path class="cls-24" d="M241,35l3.6-7.62-6.21-12.84h3.24l4.5,10,4.32-10h3L244.11,35Z"/><path class="cls-24" d="M267.48,14.57h3.12v2.55h-3.12v7.5c0,1.32.54,2,2,2a5.71,5.71,0,0,0,1.11-.12v2.4a6.17,6.17,0,0,1-1.92.27,3.75,3.75,0,0,1-4-4.11V17.12H261.9V14.57h.78a2,2,0,0,0,2.22-2.22V10h2.58Z"/><path class="cls-24" d="M286.92,24.89a6.54,6.54,0,0,1-6.48,4.56c-3.87,0-7.26-2.82-7.26-7.71,0-4.53,3.27-7.62,6.9-7.62,4.44,0,6.93,3.06,6.93,7.56a6.34,6.34,0,0,1-.06.9H276.09A4.28,4.28,0,0,0,280.44,27a3.93,3.93,0,0,0,4.05-2.91Zm-2.85-4.59a3.64,3.64,0,0,0-4-3.69,3.88,3.88,0,0,0-3.93,3.69Z"/><path class="cls-24" d="M294.09,20.75l3.9-.57c.87-.12,1.11-.57,1.11-1.08,0-1.41-.93-2.58-3.12-2.58a3.06,3.06,0,0,0-3.27,2.91L290,18.8c.3-2.76,2.79-4.68,5.91-4.68,4.32,0,6,2.46,6,5.28v7.23A13.57,13.57,0,0,0,302.1,29h-2.76a10.56,10.56,0,0,1-.15-1.95,5.26,5.26,0,0,1-4.65,2.4c-2.94,0-4.83-2-4.83-4.32C289.71,22.55,291.6,21.11,294.09,20.75Zm5,2.07v-.66l-4.41.66a2.16,2.16,0,0,0-2.1,2.16,2.19,2.19,0,0,0,2.34,2.1C297.24,27.08,299.1,26,299.1,22.82Z"/><path class="cls-24" d="M306.3,29V14.57H309v1.92a5,5,0,0,1,4.38-2.34,4.51,4.51,0,0,1,4.32,2.73,5.18,5.18,0,0,1,4.83-2.73c2.52,0,5,1.71,5,5.49V29h-2.79V19.94c0-1.89-.93-3.3-3.06-3.3a3.36,3.36,0,0,0-3.33,3.63V29h-2.82V19.94c0-1.86-.9-3.3-3.06-3.3a3.35,3.35,0,0,0-3.36,3.66V29Z"/><path class="cls-24" d="M339.51,29V14.57h2.7v1.92a5,5,0,0,1,4.38-2.34,4.51,4.51,0,0,1,4.32,2.73,5.18,5.18,0,0,1,4.83-2.73c2.52,0,5,1.71,5,5.49V29h-2.79V19.94c0-1.89-.93-3.3-3.06-3.3a3.36,3.36,0,0,0-3.33,3.63V29h-2.82V19.94c0-1.86-.9-3.3-3.06-3.3a3.35,3.35,0,0,0-3.36,3.66V29Z"/><path class="cls-24" d="M377.79,24.89a6.54,6.54,0,0,1-6.48,4.56c-3.87,0-7.26-2.82-7.26-7.71,0-4.53,3.27-7.62,6.9-7.62,4.44,0,6.93,3.06,6.93,7.56a6.34,6.34,0,0,1-.06.9H367A4.28,4.28,0,0,0,371.31,27a3.93,3.93,0,0,0,4.05-2.91Zm-2.85-4.59a3.64,3.64,0,0,0-4-3.69,3.88,3.88,0,0,0-3.93,3.69Z"/><path class="cls-24" d="M381.48,29V14.57h2.7v1.92a5,5,0,0,1,4.38-2.34,4.51,4.51,0,0,1,4.32,2.73,5.18,5.18,0,0,1,4.83-2.73c2.52,0,5,1.71,5,5.49V29H399.9V19.94c0-1.89-.93-3.3-3.06-3.3a3.36,3.36,0,0,0-3.33,3.63V29h-2.82V19.94c0-1.86-.9-3.3-3.06-3.3a3.35,3.35,0,0,0-3.36,3.66V29Z"/><path class="cls-24" d="M407.19,29V7.28H410v9.33a5.26,5.26,0,0,1,4.77-2.46c4.38,0,6.63,3.36,6.63,7.56s-2.43,7.68-6.72,7.68A5.15,5.15,0,0,1,410,26.9V29Zm7.05-12.36c-2.49,0-4.29,1.95-4.29,5.07s1.8,5.16,4.29,5.16,4.26-2,4.26-5.16S416.85,16.64,414.24,16.64Z"/><path class="cls-24" d="M437.54,24.89a6.54,6.54,0,0,1-6.48,4.56c-3.86,0-7.26-2.82-7.26-7.71,0-4.53,3.28-7.62,6.91-7.62,4.43,0,6.92,3.06,6.92,7.56a6.34,6.34,0,0,1-.06.9H426.71A4.29,4.29,0,0,0,431.06,27a3.93,3.93,0,0,0,4.05-2.91Zm-2.85-4.59a3.63,3.63,0,0,0-4-3.69,3.89,3.89,0,0,0-3.93,3.69Z"/><path class="cls-24" d="M449.24,17.42a8.8,8.8,0,0,0-1.23-.09c-2.37,0-4,1.26-4,4.44V29h-2.82V14.57H444v2.52a4.5,4.5,0,0,1,4.31-2.76,5.31,5.31,0,0,1,.93.09Z"/><path class="cls-24" d="M453.44,24.35a3.08,3.08,0,0,0,3.36,2.7c1.59,0,2.46-.9,2.46-1.92s-.66-1.59-1.86-1.86l-2.46-.54a4.1,4.1,0,0,1-3.6-4.05c0-2.46,2.31-4.56,5.13-4.56,4,0,5.19,2.58,5.49,3.87l-2.49.93a2.8,2.8,0,0,0-3-2.4,2.18,2.18,0,0,0-2.4,1.92c0,.87.54,1.5,1.65,1.74l2.34.51c2.61.57,4,2.16,4,4.29s-1.71,4.47-5.28,4.47c-4,0-5.64-2.55-5.88-4.2Z"/><path class="cls-4" d="M.42,69.89l3.33-4.66H5.37v4.93H6.7v1.09H5.37V73H4.23V71.25H.42Zm3.81-3.53L1.5,70.16H4.23Z"/><path class="cls-4" d="M12.82,66.44a2.85,2.85,0,0,0-1.39-.34A2.71,2.71,0,0,0,8.7,68.89a2.33,2.33,0,0,1,2.05-1,2.49,2.49,0,0,1,2.66,2.65,2.68,2.68,0,0,1-2.88,2.65c-1.48,0-3-1-3-3.6,0-2.89,1.74-4.53,4-4.53a3.05,3.05,0,0,1,1.67.43Zm-2.27,5.72a1.64,1.64,0,1,0,0-3.27,1.6,1.6,0,0,0-1.68,1.64A1.62,1.62,0,0,0,10.55,72.16Z"/><path class="cls-4" d="M1.55,145.15a1.68,1.68,0,0,0,1.75,1.61,1.59,1.59,0,1,0,0-3.18,2,2,0,0,0-1.42.57l-1.15-.46,1-3.86h4.1v1.08H2.51l-.58,2.23a2.19,2.19,0,0,1,1.58-.58,2.47,2.47,0,0,1,2.64,2.58,2.66,2.66,0,0,1-2.85,2.65,2.7,2.7,0,0,1-2.88-2.3Z"/><path class="cls-4" d="M7.09,142.48c0-.11,0-.22,0-.31a2.51,2.51,0,0,1,2.69-2.52A2.4,2.4,0,0,1,12.39,142a2.83,2.83,0,0,1-1.46,2.4l-1.54,1a1.88,1.88,0,0,0-.94,1.09h4v1.09H7a3.48,3.48,0,0,1,1.84-3.09l1.3-.84a2,2,0,0,0,1.07-1.62,1.34,1.34,0,0,0-1.47-1.37,1.44,1.44,0,0,0-1.5,1.6,2.14,2.14,0,0,0,0,.34Z"/><path class="cls-4" d="M2.12,217.62l2.29-2.11H.7v-1.08H6v1.06l-2.22,2a2.31,2.31,0,0,1,2.4,2.36,2.56,2.56,0,0,1-2.82,2.5A2.68,2.68,0,0,1,.44,220l1.16-.27a1.67,1.67,0,0,0,1.72,1.68A1.47,1.47,0,0,0,5,219.92a1.45,1.45,0,0,0-1.59-1.45,2.11,2.11,0,0,0-.68.12Z"/><path class="cls-4" d="M12.57,215.64a2.89,2.89,0,0,0-1.39-.33,2.7,2.7,0,0,0-2.73,2.78,2.33,2.33,0,0,1,2.05-1,2.49,2.49,0,0,1,2.66,2.65,2.68,2.68,0,0,1-2.88,2.65c-1.49,0-3-1-3-3.59,0-2.9,1.74-4.54,4-4.54a3.07,3.07,0,0,1,1.68.43Zm-2.28,5.72a1.64,1.64,0,1,0,0-3.27,1.6,1.6,0,0,0-1.68,1.64A1.63,1.63,0,0,0,10.29,221.36Z"/><path class="cls-4" d="M5.73,290.16a9.26,9.26,0,0,0-3.28,6.64H1.24a9.56,9.56,0,0,1,3.2-6.69H.06V289H5.73Z"/><path class="cls-4" d="M5.73,364.76a9.26,9.26,0,0,0-3.28,6.65H1.24a9.57,9.57,0,0,1,3.2-6.7H.06v-1.08H5.73Z"/><path class="cls-4" d="M1.55,443.55a1.68,1.68,0,0,0,1.75,1.61,1.59,1.59,0,1,0,0-3.18,2,2,0,0,0-1.42.57c-.41-.16-.75-.32-1.15-.46l1-3.86h4.1v1.08H2.51l-.58,2.23A2.15,2.15,0,0,1,3.51,441a2.46,2.46,0,0,1,2.64,2.58,2.66,2.66,0,0,1-2.85,2.65,2.7,2.7,0,0,1-2.88-2.3Z"/><path class="cls-4" d="M5.73,514a9.23,9.23,0,0,0-3.28,6.64H1.24a9.56,9.56,0,0,1,3.2-6.69H.06v-1.08H5.73Z"/></svg>