<svg id="Layer_1" data-name="Layer 1" xmlns="http://www.w3.org/2000/svg" xmlns:xlink="http://www.w3.org/1999/xlink" viewBox="0 0 477 674"><defs><style>.cls-1,.cls-2{fill:none;}.cls-2{clip-path:url(#clip-path);clip-rule:evenodd;}.cls-3{fill:#545454;}.cls-4{clip-path:url(#clip-path-4);}.cls-5{fill:#9b5ca1;}.cls-6{clip-path:url(#clip-path-5);}.cls-7{clip-path:url(#clip-path-6);}.cls-8{fill:#209196;}.cls-9{clip-path:url(#clip-path-7);}.cls-10{clip-path:url(#clip-path-8);}.cls-11{clip-path:url(#clip-path-9);}.cls-12{clip-path:url(#clip-path-10);}.cls-13{clip-path:url(#clip-path-11);}.cls-14{clip-path:url(#clip-path-12);}.cls-15{fill:#60ace2;}.cls-16{clip-path:url(#clip-path-13);}.cls-17{clip-path:url(#clip-path-14);}.cls-18{clip-path:url(#clip-path-15);}.cls-19{clip-path:url(#clip-path-16);}.cls-20{clip-path:url(#clip-path-17);}.cls-21{clip-path:url(#clip-path-18);}.cls-22{clip-path:url(#clip-path-19);}.cls-23{fill:#74ccec;}.cls-24{fill:#378dc6;}.cls-25{fill:#d3d3d3;}</style><clipPath id="clip-path"><rect class="cls-1" width="477" height="674"/></clipPath><clipPath id="clip-path-4"><rect class="cls-1" x="1" y="492" width="8" height="15"/></clipPath><clipPath id="clip-path-5"><rect class="cls-1" x="1" y="634" width="8" height="15"/></clipPath><clipPath id="clip-path-6"><rect class="cls-1" x="1" y="418" width="13" height="15"/></clipPath><clipPath id="clip-path-7"><rect class="cls-1" x="16" y="418" width="8" height="15"/></clipPath><clipPath id="clip-path-8"><rect class="cls-1" x="1" y="345" width="70" height="15"/></clipPath><clipPath id="clip-path-9"><rect class="cls-1" x="73" y="345" width="14" height="15"/></clipPath><clipPath id="clip-path-10"><rect class="cls-1" x="1" y="270" width="153" height="15"/></clipPath><clipPath id="clip-path-11"><rect class="cls-1" x="156" y="270" width="8" height="15"/></clipPath><clipPath id="clip-path-12"><rect class="cls-1" x="166" y="270" width="8" height="15"/></clipPath><clipPath id="clip-path-13"><rect class="cls-1" x="1" y="195" width="235" height="15"/></clipPath><clipPath id="clip-path-14"><rect class="cls-1" x="238" y="195.4" width="37" height="15"/></clipPath><clipPath id="clip-path-15"><rect class="cls-1" x="1" y="121" width="68" height="15"/></clipPath><clipPath id="clip-path-16"><rect class="cls-1" x="71" y="121" width="377" height="15"/></clipPath><clipPath id="clip-path-17"><path class="cls-2" d="M325,282a6,6,0,1,0-6-6,6,6,0,0,0,6,6Z"/></clipPath><clipPath id="clip-path-18"><path class="cls-2" d="M325,310a6,6,0,1,0-6-6,6,6,0,0,0,6,6Z"/></clipPath><clipPath id="clip-path-19"><path class="cls-2" d="M325,338a6,6,0,1,0-6-6,6,6,0,0,0,6,6Z"/></clipPath></defs><path class="cls-3" d="M3,154v-6.95H.5v-1.49a2.64,2.64,0,0,0,2.78-1.95H5.19V154Z"/><path class="cls-3" d="M18.93,152.58A13.45,13.45,0,0,0,19,154H17a5.73,5.73,0,0,1-.08-.91,2.47,2.47,0,0,1-2.21,1.1,4.14,4.14,0,0,1-.06-8.26,2.34,2.34,0,0,1,2.22,1v-4.5h2.1Zm-4-.29A2,2,0,0,0,16.87,150a2,2,0,0,0-1.94-2.19,2.24,2.24,0,0,0,0,4.44Z"/><path class="cls-3" d="M28.29,151.75a3.55,3.55,0,0,1-3.58,2.5,4.19,4.19,0,0,1-.2-8.36c2.44,0,3.89,1.56,3.89,4.08,0,.31,0,.63,0,.66H22.74a1.91,1.91,0,0,0,2,1.79,1.73,1.73,0,0,0,1.79-1.2Zm-2-2.58a1.59,1.59,0,0,0-1.76-1.55,1.71,1.71,0,0,0-1.77,1.55Z"/><path class="cls-3" d="M30.08,157.05V146.13h2.06v1A2.77,2.77,0,0,1,34.56,146c2.31,0,3.64,1.76,3.64,4.09s-1.49,4.15-3.72,4.15a2.75,2.75,0,0,1-2.27-1v3.81Zm4.07-9.19a2.23,2.23,0,1,0,2,2.21A2,2,0,0,0,34.15,147.86Z"/><path class="cls-3" d="M41.74,149.48l1.94-.29c.45-.06.59-.29.59-.56,0-.56-.43-1-1.33-1a1.39,1.39,0,0,0-1.5,1.28l-1.89-.4a3.14,3.14,0,0,1,3.38-2.6c2.5,0,3.42,1.41,3.42,3v3.87a8.43,8.43,0,0,0,.1,1.25h-2a5.19,5.19,0,0,1-.08-.95,2.62,2.62,0,0,1-2.32,1.17,2.49,2.49,0,0,1-2.71-2.37A2.42,2.42,0,0,1,41.74,149.48Zm2.53,1.34v-.35l-1.77.27a1,1,0,0,0-1,1,.93.93,0,0,0,1,.92A1.6,1.6,0,0,0,44.27,150.82Z"/><path class="cls-3" d="M53.3,148.25a3.12,3.12,0,0,0-.64-.07c-1.09,0-2,.53-2,2.23V154H48.5v-7.88h2.06v1.17a2.34,2.34,0,0,1,2.24-1.23,4,4,0,0,1,.5,0Z"/><path class="cls-3" d="M57.38,146.13H59V148H57.38v3.3c0,.69.32.91.93.91a3.25,3.25,0,0,0,.65-.06v1.76a3.13,3.13,0,0,1-1.2.19,2.28,2.28,0,0,1-2.5-2.43V148H53.84v-1.89h.4a1.14,1.14,0,0,0,1.22-1.25v-1.1h1.92Z"/><path class="cls-3" d="M60.72,154v-7.88h2v1a2.7,2.7,0,0,1,2.31-1.18,2.42,2.42,0,0,1,2.33,1.31,2.92,2.92,0,0,1,5.35,1.68V154H70.68v-4.68a1.31,1.31,0,0,0-1.4-1.48,1.44,1.44,0,0,0-1.45,1.55V154H65.71v-4.68a1.32,1.32,0,0,0-1.39-1.48,1.43,1.43,0,0,0-1.47,1.55V154Z"/><path class="cls-3" d="M82,151.75a3.54,3.54,0,0,1-3.58,2.5,4.19,4.19,0,0,1-.19-8.36c2.43,0,3.89,1.56,3.89,4.08,0,.31,0,.63,0,.66H76.4a1.92,1.92,0,0,0,2,1.79,1.74,1.74,0,0,0,1.8-1.2Zm-2-2.58a1.58,1.58,0,0,0-1.76-1.55,1.7,1.7,0,0,0-1.76,1.55Z"/><path class="cls-3" d="M85.87,154H83.74v-7.88h2.07v1a2.61,2.61,0,0,1,2.27-1.19c2,0,2.85,1.4,2.85,3.13v5H88.8v-4.6a1.38,1.38,0,0,0-1.46-1.56,1.48,1.48,0,0,0-1.47,1.63Z"/><path class="cls-3" d="M95.71,146.13H97.3V148H95.71v3.3c0,.69.32.91.93.91a3.37,3.37,0,0,0,.66-.06v1.76a3.22,3.22,0,0,1-1.2.19,2.28,2.28,0,0,1-2.5-2.43V148H92.17v-1.89h.4a1.13,1.13,0,0,0,1.22-1.25v-1.1h1.92Z"/><path class="cls-3" d="M.67,222a4,4,0,0,1-.08-.72,3.51,3.51,0,0,1,3.8-3.47,3.43,3.43,0,0,1,3.74,3.35,3.7,3.7,0,0,1-2,3.21l-2,1.22a2.11,2.11,0,0,0-.89.94h5v1.91H.51A4.75,4.75,0,0,1,3,224l1.71-1a2,2,0,0,0,1.24-1.79,1.43,1.43,0,0,0-1.57-1.43,1.57,1.57,0,0,0-1.65,1.73,2.25,2.25,0,0,0,.08.58Z"/><path class="cls-3" d="M21.28,227a13.45,13.45,0,0,0,.07,1.43h-2a5.73,5.73,0,0,1-.08-.91,2.46,2.46,0,0,1-2.2,1.1,4.14,4.14,0,0,1-.07-8.26,2.37,2.37,0,0,1,2.23,1v-4.5h2.09Zm-4-.28a2,2,0,0,0,1.94-2.26,2,2,0,0,0-1.94-2.19,2,2,0,0,0-2,2.2A2,2,0,0,0,17.28,226.69Z"/><path class="cls-3" d="M30.64,226.14a3.55,3.55,0,0,1-3.58,2.5,4.19,4.19,0,0,1-.19-8.36c2.43,0,3.88,1.56,3.88,4.08,0,.31,0,.63,0,.66H25.09a1.92,1.92,0,0,0,2,1.79,1.74,1.74,0,0,0,1.8-1.2Zm-2-2.58A1.59,1.59,0,0,0,26.9,222a1.7,1.7,0,0,0-1.76,1.55Z"/><path class="cls-3" d="M32.43,231.44V220.52H34.5v1a2.76,2.76,0,0,1,2.41-1.13c2.31,0,3.64,1.76,3.64,4.09s-1.49,4.15-3.72,4.15a2.78,2.78,0,0,1-2.27-1v3.81Zm4.07-9.19a2.24,2.24,0,1,0,2,2.21A2,2,0,0,0,36.5,222.25Z"/><path class="cls-3" d="M44.1,223.87l1.93-.29c.45-.06.6-.29.6-.56,0-.56-.44-1-1.33-1a1.4,1.4,0,0,0-1.51,1.28l-1.89-.4a3.14,3.14,0,0,1,3.38-2.6c2.5,0,3.43,1.41,3.43,3v3.87a8.58,8.58,0,0,0,.09,1.25H46.85a5.19,5.19,0,0,1-.08-1,2.62,2.62,0,0,1-2.32,1.17,2.49,2.49,0,0,1-2.71-2.37A2.43,2.43,0,0,1,44.1,223.87Zm2.53,1.34v-.35l-1.78.27a1,1,0,0,0-1,1,.93.93,0,0,0,1,.91A1.6,1.6,0,0,0,46.63,225.21Z"/><path class="cls-3" d="M55.65,222.64a3.12,3.12,0,0,0-.64-.07c-1.09,0-2,.53-2,2.23v3.6H50.85v-7.88h2.06v1.17a2.34,2.34,0,0,1,2.24-1.23c.18,0,.34,0,.5,0Z"/><path class="cls-3" d="M59.73,220.52h1.58v1.89H59.73v3.3c0,.69.32.91.93.91a3.25,3.25,0,0,0,.65-.06v1.76a3.13,3.13,0,0,1-1.2.19,2.28,2.28,0,0,1-2.49-2.43v-3.67H56.19v-1.89h.4a1.14,1.14,0,0,0,1.22-1.25v-1.1h1.92Z"/><path class="cls-3" d="M63.07,228.4v-7.88h2v1a2.73,2.73,0,0,1,2.31-1.18,2.44,2.44,0,0,1,2.34,1.31,2.91,2.91,0,0,1,5.34,1.68v5.11H73v-4.68a1.31,1.31,0,0,0-1.4-1.48,1.44,1.44,0,0,0-1.45,1.55v4.61H68.07v-4.68a1.32,1.32,0,0,0-1.4-1.48,1.43,1.43,0,0,0-1.47,1.55v4.61Z"/><path class="cls-3" d="M84.31,226.14a3.55,3.55,0,0,1-3.59,2.5,4.19,4.19,0,0,1-.19-8.36c2.43,0,3.89,1.56,3.89,4.08,0,.31,0,.63,0,.66H78.75a1.92,1.92,0,0,0,2,1.79,1.73,1.73,0,0,0,1.79-1.2Zm-2-2.58A1.58,1.58,0,0,0,80.56,222a1.71,1.71,0,0,0-1.76,1.55Z"/><path class="cls-3" d="M88.22,228.4H86.1v-7.88h2.06v1a2.61,2.61,0,0,1,2.27-1.19c2,0,2.85,1.4,2.85,3.13v5H91.15v-4.6a1.38,1.38,0,0,0-1.45-1.56,1.49,1.49,0,0,0-1.48,1.63Z"/><path class="cls-3" d="M98.06,220.52h1.59v1.89H98.06v3.3c0,.69.32.91.93.91a3.28,3.28,0,0,0,.66-.06v1.76a3.18,3.18,0,0,1-1.2.19,2.28,2.28,0,0,1-2.5-2.43v-3.67H94.53v-1.89h.4a1.13,1.13,0,0,0,1.21-1.25v-1.1h1.92Z"/><path class="cls-3" d="M102.56,225.81A1.31,1.31,0,0,0,104,227c.7,0,1-.37,1-.79s-.24-.64-.85-.77l-1-.24a2.41,2.41,0,0,1-2.21-2.35,2.75,2.75,0,0,1,3-2.58c2.24,0,3,1.43,3.09,2.28l-1.78.4a1.2,1.2,0,0,0-1.3-1.06.9.9,0,0,0-1,.78c0,.39.28.63.72.71l1.12.24c1.55.32,2.33,1.26,2.33,2.42s-1,2.59-3,2.59c-2.37,0-3.19-1.54-3.29-2.43Z"/><path class="cls-3" d="M2.45,296.66l2.72-2.34H.62v-1.9H8v1.77l-2.69,2.24a3.1,3.1,0,0,1,3,3.17c0,1.8-1.47,3.44-4,3.44a3.73,3.73,0,0,1-4-3.31l2.13-.41a1.82,1.82,0,0,0,1.89,1.82,1.6,1.6,0,0,0,1.76-1.57A1.53,1.53,0,0,0,4.37,298a2.53,2.53,0,0,0-.94.16Z"/><path class="cls-3" d="M21.38,301.38c0,.53,0,1.1.06,1.42h-2a5.61,5.61,0,0,1-.08-.91A2.45,2.45,0,0,1,17.12,303a4.14,4.14,0,0,1-.06-8.26,2.36,2.36,0,0,1,2.22,1v-4.49h2.1Zm-4-.29a2,2,0,0,0,1.93-2.26,2,2,0,0,0-1.93-2.19,2.24,2.24,0,0,0,0,4.45Z"/><path class="cls-3" d="M30.74,300.55A3.55,3.55,0,0,1,27.15,303a4.18,4.18,0,0,1-.19-8.35c2.43,0,3.89,1.55,3.89,4.08,0,.31,0,.63,0,.66H25.19a1.9,1.9,0,0,0,2,1.79A1.74,1.74,0,0,0,29,300Zm-2-2.58A1.58,1.58,0,0,0,27,296.42,1.71,1.71,0,0,0,25.23,298Z"/><path class="cls-3" d="M32.53,305.85V294.93h2.06v1A2.76,2.76,0,0,1,37,294.75c2.3,0,3.63,1.76,3.63,4.1S39.15,303,36.93,303a2.78,2.78,0,0,1-2.27-1v3.81Zm4.06-9.19a2.23,2.23,0,1,0,2,2.21A2,2,0,0,0,36.59,296.66Z"/><path class="cls-3" d="M44.19,298.27l1.94-.28c.45-.07.59-.29.59-.56,0-.56-.43-1-1.33-1a1.39,1.39,0,0,0-1.5,1.28l-1.89-.4a3.13,3.13,0,0,1,3.38-2.59c2.49,0,3.42,1.41,3.42,3v3.88a8.4,8.4,0,0,0,.1,1.24H47a5.07,5.07,0,0,1-.08-.94A2.66,2.66,0,0,1,44.54,303a2.48,2.48,0,0,1-2.7-2.37A2.43,2.43,0,0,1,44.19,298.27Zm2.53,1.35v-.35l-1.77.27a1,1,0,0,0-1,1,.91.91,0,0,0,1,.91A1.6,1.6,0,0,0,46.72,299.62Z"/><path class="cls-3" d="M55.75,297a3,3,0,0,0-.64-.06c-1.09,0-2,.53-2,2.22v3.6H50.94v-7.87H53v1.17a2.34,2.34,0,0,1,2.24-1.23,4,4,0,0,1,.5,0Z"/><path class="cls-3" d="M59.83,294.93h1.58v1.89H59.83v3.3c0,.68.32.91.92.91a2.58,2.58,0,0,0,.66-.07v1.76a3.12,3.12,0,0,1-1.2.2,2.29,2.29,0,0,1-2.5-2.44v-3.66H56.29v-1.89h.4a1.13,1.13,0,0,0,1.21-1.25v-1.1h1.93Z"/><path class="cls-3" d="M63.17,302.8v-7.87h2v1a2.7,2.7,0,0,1,2.31-1.18A2.42,2.42,0,0,1,69.84,296a2.92,2.92,0,0,1,5.35,1.68v5.1H73.12v-4.67a1.31,1.31,0,0,0-1.39-1.49,1.45,1.45,0,0,0-1.46,1.55v4.61H68.16v-4.67a1.32,1.32,0,0,0-1.39-1.49,1.44,1.44,0,0,0-1.47,1.55v4.61Z"/><path class="cls-3" d="M84.4,300.55A3.54,3.54,0,0,1,80.82,303a4.18,4.18,0,0,1-.2-8.35c2.44,0,3.89,1.55,3.89,4.08,0,.31,0,.63,0,.66H78.85a1.92,1.92,0,0,0,2,1.79,1.75,1.75,0,0,0,1.8-1.2Zm-2-2.58a1.59,1.59,0,0,0-1.76-1.55A1.69,1.69,0,0,0,78.9,298Z"/><path class="cls-3" d="M88.32,302.8H86.19v-7.87h2.07v1a2.61,2.61,0,0,1,2.27-1.19c2,0,2.85,1.39,2.85,3.12v5H91.25v-4.59a1.39,1.39,0,0,0-1.46-1.57,1.48,1.48,0,0,0-1.47,1.63Z"/><path class="cls-3" d="M98.16,294.93h1.58v1.89H98.16v3.3c0,.68.32.91.93.91a2.55,2.55,0,0,0,.65-.07v1.76a3.07,3.07,0,0,1-1.2.2,2.28,2.28,0,0,1-2.49-2.44v-3.66H94.62v-1.89H95a1.14,1.14,0,0,0,1.22-1.25v-1.1h1.92Z"/><path class="cls-3" d="M102.66,300.21a1.3,1.3,0,0,0,1.44,1.2c.7,0,1-.37,1-.78s-.24-.64-.85-.77l-1-.24c-1.52-.34-2.21-1.25-2.21-2.35a2.75,2.75,0,0,1,2.94-2.58c2.24,0,3,1.42,3.09,2.27l-1.77.4a1.2,1.2,0,0,0-1.3-1.05c-.56,0-1,.33-1,.78s.29.62.72.7l1.12.24c1.55.32,2.34,1.27,2.34,2.42s-1,2.59-3.06,2.59c-2.37,0-3.18-1.53-3.28-2.43Z"/><path class="cls-3" d="M.51,372.67l4.37-5.86H7.6v6.28H9.32V375H7.6v2.22H5.43V375H.51Zm4.92-3.55-3,4h3Z"/><path class="cls-3" d="M22.15,375.78c0,.53,0,1.1.06,1.42h-2a5.61,5.61,0,0,1-.08-.91,2.45,2.45,0,0,1-2.21,1.11,4.14,4.14,0,0,1-.06-8.26,2.36,2.36,0,0,1,2.22,1v-4.5h2.1Zm-4-.29a2,2,0,0,0,1.93-2.26A2,2,0,0,0,18.15,371a2.24,2.24,0,0,0,0,4.45Z"/><path class="cls-3" d="M31.51,375a3.55,3.55,0,0,1-3.59,2.49,4.18,4.18,0,0,1-.19-8.35c2.43,0,3.89,1.55,3.89,4.08,0,.3,0,.62,0,.66H26a1.92,1.92,0,0,0,2,1.79,1.75,1.75,0,0,0,1.79-1.2Zm-2-2.58a1.58,1.58,0,0,0-1.76-1.55A1.71,1.71,0,0,0,26,372.37Z"/><path class="cls-3" d="M33.3,380.24V369.33h2.06v1a2.75,2.75,0,0,1,2.42-1.14c2.3,0,3.63,1.76,3.63,4.1s-1.49,4.15-3.71,4.15a2.79,2.79,0,0,1-2.28-1v3.81Zm4.06-9.18a2.23,2.23,0,1,0,2,2.21A2,2,0,0,0,37.36,371.06Z"/><path class="cls-3" d="M45,372.67l1.94-.29c.45-.06.59-.28.59-.55,0-.57-.43-1-1.33-1a1.39,1.39,0,0,0-1.5,1.28l-1.89-.4a3.13,3.13,0,0,1,3.38-2.59c2.49,0,3.42,1.41,3.42,3V376a8.4,8.4,0,0,0,.1,1.24h-2a6.11,6.11,0,0,1-.08-.94,2.64,2.64,0,0,1-2.32,1.17,2.48,2.48,0,0,1-2.7-2.37A2.43,2.43,0,0,1,45,372.67ZM47.49,374v-.35l-1.78.27a1,1,0,0,0-1,1,.92.92,0,0,0,1,.91A1.6,1.6,0,0,0,47.49,374Z"/><path class="cls-3" d="M56.51,371.44a3,3,0,0,0-.64-.06c-1.09,0-2,.53-2,2.22v3.6H51.71v-7.87h2.07v1.17A2.35,2.35,0,0,1,56,369.26a3.89,3.89,0,0,1,.49,0Z"/><path class="cls-3" d="M60.59,369.33h1.59v1.89H60.59v3.29c0,.69.32.92.93.92a3.22,3.22,0,0,0,.66-.07v1.76a3.12,3.12,0,0,1-1.2.2,2.29,2.29,0,0,1-2.5-2.44v-3.66H57.06v-1.89h.4a1.13,1.13,0,0,0,1.21-1.25V367h1.92Z"/><path class="cls-3" d="M63.94,377.2v-7.87h2v1a2.7,2.7,0,0,1,2.3-1.19,2.44,2.44,0,0,1,2.34,1.32A2.91,2.91,0,0,1,76,372.1v5.1H73.89v-4.67A1.31,1.31,0,0,0,72.5,371,1.45,1.45,0,0,0,71,372.59v4.61H68.93v-4.67A1.32,1.32,0,0,0,67.54,371a1.45,1.45,0,0,0-1.48,1.55v4.61Z"/><path class="cls-3" d="M85.17,375a3.55,3.55,0,0,1-3.59,2.49,4.18,4.18,0,0,1-.19-8.35c2.44,0,3.89,1.55,3.89,4.08,0,.3,0,.62,0,.66H79.62a1.9,1.9,0,0,0,2,1.79,1.74,1.74,0,0,0,1.79-1.2Zm-2-2.58a1.59,1.59,0,0,0-1.77-1.55,1.71,1.71,0,0,0-1.76,1.55Z"/><path class="cls-3" d="M89.09,377.2H87v-7.87H89v1a2.64,2.64,0,0,1,2.28-1.18c2,0,2.85,1.39,2.85,3.12v5H92v-4.59A1.39,1.39,0,0,0,90.56,371a1.48,1.48,0,0,0-1.47,1.63Z"/><path class="cls-3" d="M98.93,369.33h1.58v1.89H98.93v3.29c0,.69.32.92.93.92a3.11,3.11,0,0,0,.65-.07v1.76a3.07,3.07,0,0,1-1.2.2,2.29,2.29,0,0,1-2.5-2.44v-3.66H95.39v-1.89h.4A1.14,1.14,0,0,0,97,368.08V367h1.92Z"/><path class="cls-3" d="M103.42,374.61a1.32,1.32,0,0,0,1.44,1.2c.71,0,1-.37,1-.78s-.24-.64-.84-.77l-1-.24c-1.53-.34-2.21-1.25-2.21-2.35a2.75,2.75,0,0,1,2.94-2.58c2.24,0,3,1.42,3.09,2.27l-1.78.4a1.2,1.2,0,0,0-1.29-1.06.91.91,0,0,0-1,.79c0,.38.29.62.72.7l1.12.24c1.55.32,2.34,1.27,2.34,2.42s-1,2.59-3.06,2.59c-2.37,0-3.19-1.53-3.28-2.43Z"/><path class="cls-3" d="M2.53,448.22A1.82,1.82,0,0,0,4.42,450a1.72,1.72,0,1,0,0-3.44,2.15,2.15,0,0,0-1.6.7l-2-.69L2,441.21H7.84v1.91H3.49L3,445.41a2.83,2.83,0,0,1,1.87-.64,3.27,3.27,0,0,1,3.55,3.47,3.67,3.67,0,0,1-4,3.62,3.76,3.76,0,0,1-4-3.17Z"/><path class="cls-3" d="M21.46,450.18c0,.53,0,1.1.06,1.42h-2a5.61,5.61,0,0,1-.08-.91,2.47,2.47,0,0,1-2.21,1.1,4.14,4.14,0,0,1-.06-8.26,2.34,2.34,0,0,1,2.22,1V440h2.1Zm-4-.29a2,2,0,0,0,1.93-2.26,1.94,1.94,0,0,0-1.93-2.19,2.24,2.24,0,0,0,0,4.45Z"/><path class="cls-3" d="M30.82,449.34a3.54,3.54,0,0,1-3.59,2.5,4.18,4.18,0,0,1-.19-8.35c2.43,0,3.89,1.55,3.89,4.08,0,.3,0,.62,0,.65H25.26a1.93,1.93,0,0,0,2,1.8,1.74,1.74,0,0,0,1.79-1.2Zm-2-2.57a1.58,1.58,0,0,0-1.76-1.56,1.71,1.71,0,0,0-1.76,1.56Z"/><path class="cls-3" d="M32.61,454.64V443.73h2.06v1a2.76,2.76,0,0,1,2.42-1.14c2.31,0,3.63,1.76,3.63,4.1s-1.49,4.14-3.71,4.14a2.75,2.75,0,0,1-2.27-1v3.81Zm4.06-9.18a2,2,0,0,0-2,2.2,2,2,0,1,0,3.92,0A2,2,0,0,0,36.67,445.46Z"/><path class="cls-3" d="M44.27,447.07l1.94-.29c.45-.06.59-.28.59-.56,0-.56-.43-1-1.33-1a1.39,1.39,0,0,0-1.5,1.28l-1.89-.4a3.13,3.13,0,0,1,3.38-2.59c2.49,0,3.42,1.4,3.42,3v3.87a8.43,8.43,0,0,0,.1,1.25H47a5.15,5.15,0,0,1-.08-.94,2.66,2.66,0,0,1-2.33,1.17,2.48,2.48,0,0,1-2.7-2.37A2.43,2.43,0,0,1,44.27,447.07Zm2.53,1.35v-.36l-1.77.28a1,1,0,0,0-1,1,.92.92,0,0,0,1,.91A1.6,1.6,0,0,0,46.8,448.42Z"/><path class="cls-3" d="M55.83,445.84a3,3,0,0,0-.64-.06c-1.09,0-2,.52-2,2.22v3.6H51v-7.87h2.07v1.16a2.34,2.34,0,0,1,2.24-1.23c.18,0,.34,0,.5,0Z"/><path class="cls-3" d="M59.9,443.73h1.59v1.89H59.9v3.29c0,.69.32.92.93.92a3.14,3.14,0,0,0,.66-.07v1.76a3.18,3.18,0,0,1-1.2.19,2.28,2.28,0,0,1-2.5-2.43v-3.66H56.37v-1.89h.4A1.13,1.13,0,0,0,58,442.48v-1.11H59.9Z"/><path class="cls-3" d="M63.25,451.6v-7.87h2v1a2.7,2.7,0,0,1,2.3-1.19,2.45,2.45,0,0,1,2.34,1.31,2.92,2.92,0,0,1,5.35,1.69v5.1H73.2v-4.67a1.31,1.31,0,0,0-1.39-1.49A1.45,1.45,0,0,0,70.35,447v4.61H68.24v-4.67a1.32,1.32,0,0,0-1.39-1.49A1.44,1.44,0,0,0,65.38,447v4.61Z"/><path class="cls-3" d="M84.48,449.34a3.54,3.54,0,0,1-3.58,2.5,4.18,4.18,0,0,1-.2-8.35c2.44,0,3.89,1.55,3.89,4.08,0,.3,0,.62,0,.65H78.93a1.93,1.93,0,0,0,2,1.8,1.76,1.76,0,0,0,1.8-1.2Zm-2-2.57a1.59,1.59,0,0,0-1.76-1.56A1.7,1.7,0,0,0,79,446.77Z"/><path class="cls-3" d="M88.4,451.6H86.27v-7.87h2.07v1a2.62,2.62,0,0,1,2.27-1.18c2,0,2.85,1.39,2.85,3.12v5H91.33V447a1.39,1.39,0,0,0-1.46-1.57,1.48,1.48,0,0,0-1.47,1.63Z"/><path class="cls-3" d="M98.24,443.73h1.58v1.89H98.24v3.29c0,.69.32.92.93.92a3.11,3.11,0,0,0,.65-.07v1.76a3.13,3.13,0,0,1-1.2.19,2.28,2.28,0,0,1-2.49-2.43v-3.66H94.7v-1.89h.4a1.14,1.14,0,0,0,1.22-1.25v-1.11h1.92Z"/><path class="cls-3" d="M102.74,449a1.31,1.31,0,0,0,1.44,1.2c.7,0,1-.37,1-.79s-.24-.64-.85-.76l-1-.24c-1.52-.34-2.21-1.25-2.21-2.36a2.74,2.74,0,0,1,2.94-2.57c2.24,0,3,1.42,3.09,2.27l-1.77.4a1.21,1.21,0,0,0-1.3-1.06.91.91,0,0,0-1,.79c0,.38.29.62.72.7l1.12.24c1.55.32,2.34,1.27,2.34,2.42s-1,2.59-3.06,2.59c-2.37,0-3.18-1.54-3.28-2.43Z"/><path class="cls-3" d="M8,517.64a4.42,4.42,0,0,0-1.71-.36,3.25,3.25,0,0,0-3.44,3,2.94,2.94,0,0,1,2.46-1.15,3.33,3.33,0,0,1,3.59,3.49,3.74,3.74,0,0,1-4,3.65c-2.27,0-4.21-1.63-4.21-4.77,0-3.73,2.34-6.1,5.76-6.1a4.56,4.56,0,0,1,2.18.48Zm-3.13,6.74a1.74,1.74,0,1,0,0-3.47A1.72,1.72,0,0,0,3,522.64,1.75,1.75,0,0,0,4.87,524.38Z"/><path class="cls-3" d="M21.91,524.58c0,.52,0,1.1.06,1.42h-2a5.61,5.61,0,0,1-.08-.91,2.47,2.47,0,0,1-2.21,1.1,4.14,4.14,0,0,1-.06-8.26,2.34,2.34,0,0,1,2.22,1v-4.5h2.1Zm-4-.29A2,2,0,0,0,19.84,522a2,2,0,0,0-1.93-2.19,2.24,2.24,0,0,0,0,4.45Z"/><path class="cls-3" d="M31.27,523.74a3.55,3.55,0,0,1-3.59,2.5,4.19,4.19,0,0,1-.19-8.36c2.43,0,3.89,1.56,3.89,4.09,0,.3,0,.62,0,.65H25.71a1.93,1.93,0,0,0,2,1.8,1.74,1.74,0,0,0,1.79-1.21Zm-2-2.57a1.58,1.58,0,0,0-1.76-1.56,1.71,1.71,0,0,0-1.76,1.56Z"/><path class="cls-3" d="M33.06,529V518.12h2.06v1A2.77,2.77,0,0,1,37.54,518c2.3,0,3.63,1.76,3.63,4.1s-1.49,4.14-3.71,4.14a2.78,2.78,0,0,1-2.28-1V529Zm4.06-9.19a2.24,2.24,0,1,0,2,2.21A2,2,0,0,0,37.12,519.85Z"/><path class="cls-3" d="M44.72,521.47l1.94-.29c.45-.06.59-.29.59-.56,0-.56-.43-1-1.33-1a1.39,1.39,0,0,0-1.5,1.28l-1.89-.4a3.14,3.14,0,0,1,3.38-2.6c2.49,0,3.42,1.41,3.42,3v3.87a8.43,8.43,0,0,0,.1,1.25h-2a6.23,6.23,0,0,1-.08-.94,2.63,2.63,0,0,1-2.32,1.16,2.48,2.48,0,0,1-2.7-2.36A2.43,2.43,0,0,1,44.72,521.47Zm2.53,1.34v-.35l-1.78.27a1,1,0,0,0-1,1,.92.92,0,0,0,1,.91A1.6,1.6,0,0,0,47.25,522.81Z"/><path class="cls-3" d="M56.27,520.24a3,3,0,0,0-.64-.07c-1.09,0-2,.53-2,2.23V526H51.47v-7.88h2.07v1.17a2.33,2.33,0,0,1,2.24-1.23c.17,0,.33,0,.49,0Z"/><path class="cls-3" d="M60.35,518.12h1.59V520H60.35v3.3c0,.69.32.91.93.91a3.37,3.37,0,0,0,.66-.06v1.76a3.18,3.18,0,0,1-1.2.19,2.28,2.28,0,0,1-2.5-2.43V520H56.81v-1.89h.4a1.13,1.13,0,0,0,1.22-1.24v-1.11h1.92Z"/><path class="cls-3" d="M63.69,526v-7.88h2v1A2.72,2.72,0,0,1,68,517.9a2.45,2.45,0,0,1,2.34,1.31,2.92,2.92,0,0,1,5.35,1.68V526H73.65v-4.67a1.32,1.32,0,0,0-1.39-1.49,1.45,1.45,0,0,0-1.46,1.55V526H68.69v-4.67a1.32,1.32,0,0,0-1.39-1.49,1.45,1.45,0,0,0-1.48,1.55V526Z"/><path class="cls-3" d="M84.93,523.74a3.55,3.55,0,0,1-3.59,2.5,4.19,4.19,0,0,1-.19-8.36c2.43,0,3.89,1.56,3.89,4.09,0,.3,0,.62,0,.65H79.38a1.91,1.91,0,0,0,2,1.8,1.73,1.73,0,0,0,1.79-1.21Zm-2-2.57a1.58,1.58,0,0,0-1.76-1.56,1.71,1.71,0,0,0-1.76,1.56Z"/><path class="cls-3" d="M88.85,526H86.72v-7.88h2.06v1a2.64,2.64,0,0,1,2.28-1.18c2,0,2.85,1.39,2.85,3.12v5H91.78v-4.59a1.39,1.39,0,0,0-1.46-1.57,1.48,1.48,0,0,0-1.47,1.63Z"/><path class="cls-3" d="M98.69,518.12h1.58V520H98.69v3.3c0,.69.32.91.93.91a3.25,3.25,0,0,0,.65-.06v1.76a3.13,3.13,0,0,1-1.2.19,2.28,2.28,0,0,1-2.49-2.43V520H95.15v-1.89h.4a1.13,1.13,0,0,0,1.22-1.24v-1.11h1.92Z"/><path class="cls-3" d="M103.18,523.41a1.32,1.32,0,0,0,1.44,1.2c.71,0,1-.37,1-.79s-.24-.64-.84-.77l-1-.24c-1.53-.33-2.21-1.24-2.21-2.35a2.75,2.75,0,0,1,2.94-2.58c2.24,0,3,1.43,3.09,2.28l-1.78.4a1.19,1.19,0,0,0-1.29-1.06.91.91,0,0,0-1,.79c0,.38.29.62.72.7l1.12.24c1.55.32,2.34,1.26,2.34,2.42s-1,2.59-3.06,2.59c-2.37,0-3.19-1.54-3.28-2.43Z"/><path class="cls-3" d="M3,669.7v-6.94H.5v-1.49a2.65,2.65,0,0,0,2.78-2H5.19V669.7Z"/><path class="cls-3" d="M9.33,669.7v-6.94H6.83v-1.49a2.67,2.67,0,0,0,2.79-2h1.9V669.7Z"/><path class="cls-3" d="M25.27,668.28c0,.53,0,1.1.06,1.42h-2a5.61,5.61,0,0,1-.08-.91A2.45,2.45,0,0,1,21,669.9a4.14,4.14,0,0,1-.06-8.26,2.36,2.36,0,0,1,2.22,1v-4.5h2.1Zm-4-.29a2,2,0,0,0,1.93-2.26,2,2,0,0,0-1.93-2.19,2.24,2.24,0,0,0,0,4.45Z"/><path class="cls-3" d="M34.63,667.45A3.55,3.55,0,0,1,31,669.94a4.18,4.18,0,0,1-.19-8.35c2.43,0,3.89,1.55,3.89,4.08,0,.3,0,.62,0,.66H29.07a1.92,1.92,0,0,0,2,1.79,1.75,1.75,0,0,0,1.79-1.2Zm-2-2.58a1.58,1.58,0,0,0-1.76-1.55,1.71,1.71,0,0,0-1.76,1.55Z"/><path class="cls-3" d="M36.42,672.74V661.83h2.06v1a2.75,2.75,0,0,1,2.42-1.14c2.3,0,3.63,1.76,3.63,4.1S43,669.9,40.82,669.9a2.79,2.79,0,0,1-2.28-1v3.81Zm4.06-9.18a2.23,2.23,0,1,0,2,2.21A2,2,0,0,0,40.48,663.56Z"/><path class="cls-3" d="M48.08,665.17l1.94-.29c.45-.06.59-.28.59-.55,0-.57-.43-1-1.33-1a1.39,1.39,0,0,0-1.5,1.28l-1.89-.4a3.13,3.13,0,0,1,3.38-2.59c2.49,0,3.42,1.41,3.42,3v3.88a8.4,8.4,0,0,0,.1,1.24h-2a6.11,6.11,0,0,1-.08-.94,2.64,2.64,0,0,1-2.32,1.17,2.48,2.48,0,0,1-2.7-2.37A2.43,2.43,0,0,1,48.08,665.17Zm2.53,1.35v-.35l-1.78.27a1,1,0,0,0-1,1,.92.92,0,0,0,1,.91A1.6,1.6,0,0,0,50.61,666.52Z"/><path class="cls-3" d="M59.63,663.94a3,3,0,0,0-.64-.06c-1.09,0-2,.53-2,2.22v3.6H54.83v-7.87H56.9V663a2.35,2.35,0,0,1,2.24-1.24,3.89,3.89,0,0,1,.49,0Z"/><path class="cls-3" d="M63.71,661.83H65.3v1.89H63.71V667c0,.69.32.92.93.92a3.14,3.14,0,0,0,.66-.07v1.76a3.12,3.12,0,0,1-1.2.2,2.29,2.29,0,0,1-2.5-2.44v-3.66H60.18v-1.89h.4a1.13,1.13,0,0,0,1.21-1.25v-1.11h1.92Z"/><path class="cls-3" d="M67.06,669.7v-7.87h2v1a2.7,2.7,0,0,1,2.3-1.19,2.44,2.44,0,0,1,2.34,1.32,2.91,2.91,0,0,1,5.35,1.68v5.1H77V665a1.31,1.31,0,0,0-1.39-1.49,1.45,1.45,0,0,0-1.46,1.55v4.61H72.05V665a1.32,1.32,0,0,0-1.39-1.49,1.45,1.45,0,0,0-1.48,1.55v4.61Z"/><path class="cls-3" d="M88.29,667.45a3.55,3.55,0,0,1-3.59,2.49,4.18,4.18,0,0,1-.19-8.35c2.44,0,3.89,1.55,3.89,4.08,0,.3,0,.62,0,.66H82.74a1.9,1.9,0,0,0,2,1.79,1.74,1.74,0,0,0,1.79-1.2Zm-2-2.58a1.59,1.59,0,0,0-1.77-1.55,1.71,1.71,0,0,0-1.76,1.55Z"/><path class="cls-3" d="M92.21,669.7H90.08v-7.87h2.06v1a2.64,2.64,0,0,1,2.28-1.18c2,0,2.85,1.39,2.85,3.12v5H95.14v-4.59a1.39,1.39,0,0,0-1.46-1.57,1.48,1.48,0,0,0-1.47,1.63Z"/><path class="cls-3" d="M102.05,661.83h1.58v1.89h-1.58V667c0,.69.32.92.93.92a3.11,3.11,0,0,0,.65-.07v1.76a3.07,3.07,0,0,1-1.2.2,2.28,2.28,0,0,1-2.49-2.44v-3.66H98.51v-1.89h.4a1.14,1.14,0,0,0,1.22-1.25v-1.11h1.92Z"/><path class="cls-3" d="M106.54,667.11a1.32,1.32,0,0,0,1.44,1.2c.71,0,1-.37,1-.78s-.24-.64-.84-.77l-1-.24c-1.53-.34-2.21-1.25-2.21-2.35a2.75,2.75,0,0,1,2.94-2.58c2.24,0,3,1.42,3.09,2.27l-1.78.4a1.2,1.2,0,0,0-1.29-1.06.91.91,0,0,0-1,.79c0,.38.29.62.72.7l1.12.24c1.55.32,2.34,1.27,2.34,2.42s-1,2.59-3.06,2.59c-2.37,0-3.19-1.53-3.28-2.43Z"/><g class="cls-4"><rect class="cls-5" x="-4" y="487" width="18" height="25"/></g><g class="cls-6"><rect class="cls-5" x="-4" y="629" width="18" height="25"/></g><g class="cls-7"><rect class="cls-8" x="-4" y="413" width="23" height="25"/></g><g class="cls-9"><rect class="cls-5" x="11" y="413" width="18" height="25"/></g><g class="cls-10"><rect class="cls-8" x="-4" y="340" width="80" height="25"/></g><g class="cls-11"><rect class="cls-5" x="68" y="340" width="24" height="25"/></g><g class="cls-12"><rect class="cls-8" x="-4" y="265" width="163" height="25"/></g><g class="cls-13"><rect class="cls-5" x="151" y="265" width="18" height="25"/></g><g class="cls-14"><rect class="cls-15" x="161" y="265" width="18" height="25"/></g><g class="cls-16"><rect class="cls-8" x="-4" y="190" width="245" height="25"/></g><g class="cls-17"><rect class="cls-15" x="233" y="190.4" width="47" height="25"/></g><g class="cls-18"><rect class="cls-8" x="-4" y="116" width="78" height="25"/></g><g class="cls-19"><rect class="cls-15" x="66" y="116" width="387" height="25"/></g><path class="cls-3" d="M342.45,273.8a1.74,1.74,0,0,0-1.8-1.45,1.51,1.51,0,0,0-1.65,1.41,1.24,1.24,0,0,0,1.09,1.24l1.28.27a2.46,2.46,0,0,1,2.2,2.39,2.68,2.68,0,0,1-2.94,2.52,2.94,2.94,0,0,1-3.17-2.53l1.12-.36a1.94,1.94,0,0,0,2,1.82c1.18,0,1.75-.61,1.75-1.35a1.39,1.39,0,0,0-1.27-1.32l-1.21-.27a2.34,2.34,0,0,1-2.07-2.32,2.71,2.71,0,0,1,2.8-2.53,2.67,2.67,0,0,1,2.88,2.11Z"/><path class="cls-3" d="M350.1,278.36a2.61,2.61,0,0,1-2.59,1.82,3.08,3.08,0,0,1-.14-6.13c1.77,0,2.77,1.22,2.77,3a2.55,2.55,0,0,1,0,.36h-4.34a1.71,1.71,0,0,0,1.74,1.75,1.57,1.57,0,0,0,1.62-1.16ZM349,276.52a1.44,1.44,0,0,0-1.58-1.47,1.55,1.55,0,0,0-1.57,1.47Z"/><path class="cls-3" d="M356.6,278.36a2.6,2.6,0,0,1-2.59,1.82,3.08,3.08,0,0,1-.14-6.13c1.78,0,2.77,1.22,2.77,3a2.93,2.93,0,0,1,0,.36h-4.34a1.7,1.7,0,0,0,1.73,1.75,1.56,1.56,0,0,0,1.62-1.16Zm-1.13-1.84a1.46,1.46,0,0,0-1.59-1.47,1.55,1.55,0,0,0-1.57,1.47Z"/><path class="cls-3" d="M362.12,279.12a1.9,1.9,0,0,1-1.78,1,2.79,2.79,0,0,1-2.74-3.06,2.84,2.84,0,0,1,2.74-3,1.76,1.76,0,0,1,1.76,1v-3.73h1.12v7.61a7.65,7.65,0,0,0,.06,1.07h-1.09a4,4,0,0,1-.07-.78Zm-1.67,0c1,0,1.66-.9,1.66-2.09s-.62-2-1.65-2a1.8,1.8,0,0,0-1.71,2C358.75,278.29,359.37,279.16,360.45,279.16Z"/><path class="cls-3" d="M368.81,280.06a1.54,1.54,0,0,0,1.57,1.42c1.21,0,1.76-.63,1.76-1.88v-.82a1.91,1.91,0,0,1-1.76.94,2.63,2.63,0,0,1-2.65-2.79,2.66,2.66,0,0,1,2.65-2.81,1.84,1.84,0,0,1,1.78.91v-.8h1.11v5.34a2.64,2.64,0,0,1-2.89,2.89,2.52,2.52,0,0,1-2.66-2.15Zm3.38-3.13a1.67,1.67,0,1,0-1.64,1.85A1.66,1.66,0,0,0,372.19,276.93Z"/><path class="cls-3" d="M378.28,275.37a4.4,4.4,0,0,0-.49,0c-1,0-1.59.51-1.59,1.78V280h-1.13v-5.77h1.11v1a1.8,1.8,0,0,1,1.73-1.1,2.58,2.58,0,0,1,.37,0Z"/><path class="cls-3" d="M380.87,276.7l1.56-.23c.35,0,.44-.22.44-.43,0-.56-.37-1-1.24-1a1.22,1.22,0,0,0-1.31,1.16l-1.08-.25a2.22,2.22,0,0,1,2.36-1.87c1.73,0,2.4,1,2.4,2.11v2.89a5.89,5.89,0,0,0,.07.95H383a4.59,4.59,0,0,1-.06-.78,2.1,2.1,0,0,1-1.86,1,1.74,1.74,0,1,1-.18-3.48Zm2,.83v-.26l-1.76.26a.86.86,0,0,0-.84.86.88.88,0,0,0,.94.84A1.51,1.51,0,0,0,382.87,277.53Z"/><path class="cls-3" d="M386.88,280h-1.13v-5.77h1.11v.83a2,2,0,0,1,1.77-1,2,2,0,0,1,2.07,2.28V280h-1.13v-3.47c0-.8-.34-1.45-1.35-1.45s-1.34.71-1.34,1.59Z"/><path class="cls-3" d="M394,274.23h1.25v1H394v3c0,.53.22.79.8.79a1.93,1.93,0,0,0,.45-.05v1a2.39,2.39,0,0,1-.77.11,1.5,1.5,0,0,1-1.61-1.64v-3.17h-1.1v-1h.31a.81.81,0,0,0,.89-.89v-.93h1Z"/><path class="cls-3" d="M396.34,277.05v-1h3.25v1Z"/><path class="cls-3" d="M402.6,275.25V280h-1.16v-4.75h-1.07v-1h1.07v-1a1.83,1.83,0,0,1,1.89-2,1.34,1.34,0,0,1,.67.12v1a1.18,1.18,0,0,0-.49-.07.86.86,0,0,0-.91,1v.91H404v1Z"/><path class="cls-3" d="M407.31,280.18a2.13,2.13,0,0,1-2.16-2.31v-3.64h1.12v3.47c0,.79.36,1.48,1.31,1.48a1.31,1.31,0,0,0,1.37-1.47v-3.48h1.13v4.7a8.33,8.33,0,0,0,.06,1.07h-1.08a4.3,4.3,0,0,1-.05-.7A1.88,1.88,0,0,1,407.31,280.18Z"/><path class="cls-3" d="M413.13,280H412v-5.77h1.1v.83a2,2,0,0,1,1.78-1,2,2,0,0,1,2.06,2.28V280h-1.13v-3.47c0-.8-.33-1.45-1.34-1.45s-1.34.71-1.34,1.59Z"/><path class="cls-3" d="M422.78,279.12a1.9,1.9,0,0,1-1.78,1,2.79,2.79,0,0,1-2.74-3.06,2.84,2.84,0,0,1,2.74-3,1.76,1.76,0,0,1,1.76,1v-3.73h1.12v7.61a7.65,7.65,0,0,0,.06,1.07h-1.1a5.31,5.31,0,0,1-.06-.78Zm-1.67,0c1,0,1.66-.9,1.66-2.09s-.62-2-1.65-2a1.8,1.8,0,0,0-1.71,2C419.41,278.29,420,279.16,421.11,279.16Z"/><path class="cls-3" d="M430.82,278.36a2.6,2.6,0,0,1-2.59,1.82,3.08,3.08,0,0,1-.14-6.13c1.77,0,2.77,1.22,2.77,3a2.93,2.93,0,0,1,0,.36h-4.35a1.72,1.72,0,0,0,1.74,1.75,1.56,1.56,0,0,0,1.62-1.16Zm-1.14-1.84a1.44,1.44,0,0,0-1.58-1.47,1.55,1.55,0,0,0-1.57,1.47Z"/><path class="cls-3" d="M436.34,279.12a1.9,1.9,0,0,1-1.78,1,2.79,2.79,0,0,1-2.74-3.06,2.84,2.84,0,0,1,2.74-3,1.76,1.76,0,0,1,1.76,1v-3.73h1.12v7.61a7.65,7.65,0,0,0,.06,1.07h-1.1a5.31,5.31,0,0,1-.06-.78Zm-1.67,0c1,0,1.66-.9,1.66-2.09s-.62-2-1.65-2a1.8,1.8,0,0,0-1.71,2C433,278.29,433.59,279.16,434.67,279.16Z"/><path class="cls-3" d="M343.6,308v-3.78h-4.35V308h-1.17v-8.5h1.17v3.63h4.35V299.5h1.17V308Z"/><path class="cls-3" d="M352.24,305.11a3,3,0,1,1-2.95-3.06A2.92,2.92,0,0,1,352.24,305.11Zm-1.16,0a1.81,1.81,0,1,0-1.79,2.06A1.83,1.83,0,0,0,351.08,305.11Z"/><path class="cls-3" d="M359,301.32v.91h1.39v1H359V308h-1.16v-4.75h-2.63V308H354v-4.75H353v-1H354v-1a1.83,1.83,0,0,1,1.89-2,1.34,1.34,0,0,1,.67.12v1a1.18,1.18,0,0,0-.49-.07.86.86,0,0,0-.91,1v.91h2.63v-1a1.83,1.83,0,0,1,1.89-2,1.34,1.34,0,0,1,.67.12v1a1.18,1.18,0,0,0-.49-.07A.86.86,0,0,0,359,301.32Z"/><path class="cls-3" d="M361.59,308v-5.77h1.08V303a2,2,0,0,1,1.75-.94,1.79,1.79,0,0,1,1.72,1.09,2.09,2.09,0,0,1,1.94-1.09,2,2,0,0,1,2,2.2V308H369v-3.62a1.16,1.16,0,0,0-1.22-1.32,1.34,1.34,0,0,0-1.33,1.45V308h-1.13v-3.62a1.16,1.16,0,0,0-1.22-1.32,1.34,1.34,0,0,0-1.35,1.46V308Z"/><path class="cls-3" d="M373.26,304.7l1.56-.23c.35,0,.45-.22.45-.43,0-.56-.38-1-1.25-1a1.22,1.22,0,0,0-1.31,1.16l-1.08-.25a2.23,2.23,0,0,1,2.36-1.87c1.73,0,2.4,1,2.4,2.11v2.89a5.89,5.89,0,0,0,.07.95h-1.1a4.59,4.59,0,0,1-.06-.78,2.1,2.1,0,0,1-1.86,1,1.74,1.74,0,1,1-.18-3.48Zm2,.83v-.26l-1.77.26a.86.86,0,0,0-.84.86.88.88,0,0,0,.94.84A1.51,1.51,0,0,0,375.27,305.53Z"/><path class="cls-3" d="M379.27,308h-1.12v-5.77h1.1v.83a2,2,0,0,1,1.78-1,2,2,0,0,1,2.06,2.28V308H382v-3.47c0-.8-.34-1.45-1.34-1.45s-1.35.71-1.35,1.59Z"/><path class="cls-3" d="M387.05,299.5h1.42l2.2,3.79,2.21-3.79h1.34l-3,4.87V308h-1.18v-3.63Z"/><path class="cls-3" d="M400.33,306.36a2.61,2.61,0,0,1-2.59,1.82,3.08,3.08,0,0,1-.14-6.13c1.77,0,2.77,1.22,2.77,3a1.6,1.6,0,0,1,0,.36H396a1.72,1.72,0,0,0,1.74,1.75,1.57,1.57,0,0,0,1.62-1.16Zm-1.14-1.84a1.44,1.44,0,0,0-1.58-1.47,1.55,1.55,0,0,0-1.57,1.47Z"/><path class="cls-3" d="M406.84,306.36a2.62,2.62,0,0,1-2.59,1.82,3.08,3.08,0,0,1-.15-6.13c1.78,0,2.77,1.22,2.77,3a2.93,2.93,0,0,1,0,.36h-4.34a1.71,1.71,0,0,0,1.74,1.75,1.58,1.58,0,0,0,1.62-1.16Zm-1.14-1.84a1.46,1.46,0,0,0-1.59-1.47,1.56,1.56,0,0,0-1.57,1.47Z"/><path class="cls-3" d="M407.9,305.05v-1h3.25v1Z"/><path class="cls-3" d="M414.16,303.25V308H413v-4.75h-1.07v-1H413v-1a1.83,1.83,0,0,1,1.89-2,1.41,1.41,0,0,1,.67.12v1a1.18,1.18,0,0,0-.49-.07.86.86,0,0,0-.91,1v.91h1.39v1Z"/><path class="cls-3" d="M418.86,308.18a2.14,2.14,0,0,1-2.16-2.31v-3.64h1.13v3.47c0,.79.36,1.48,1.31,1.48a1.3,1.3,0,0,0,1.36-1.47v-3.48h1.13v4.7c0,.46,0,.87.06,1.07h-1.08a5.83,5.83,0,0,1-.05-.7A1.88,1.88,0,0,1,418.86,308.18Z"/><path class="cls-3" d="M424.68,308h-1.13v-5.77h1.11v.83a2,2,0,0,1,1.77-1,2,2,0,0,1,2.07,2.28V308h-1.13v-3.47c0-.8-.34-1.45-1.35-1.45s-1.34.71-1.34,1.59Z"/><path class="cls-3" d="M434.34,307.12a1.93,1.93,0,0,1-1.79,1,2.78,2.78,0,0,1-2.73-3.06,2.83,2.83,0,0,1,2.73-3,1.79,1.79,0,0,1,1.77,1v-3.73h1.11v7.61a9.82,9.82,0,0,0,.06,1.07H434.4a5.31,5.31,0,0,1-.06-.78Zm-1.68,0c1,0,1.67-.9,1.67-2.09s-.63-2-1.66-2-1.7.84-1.7,2S431.58,307.16,432.66,307.16Z"/><path class="cls-3" d="M442.38,306.36a2.61,2.61,0,0,1-2.59,1.82,3.08,3.08,0,0,1-.15-6.13,2.69,2.69,0,0,1,2.78,3,2.55,2.55,0,0,1,0,.36h-4.34a1.71,1.71,0,0,0,1.74,1.75,1.58,1.58,0,0,0,1.62-1.16Zm-1.14-1.84a1.44,1.44,0,0,0-1.58-1.47,1.54,1.54,0,0,0-1.57,1.47Z"/><path class="cls-3" d="M447.9,307.12a1.93,1.93,0,0,1-1.79,1,2.78,2.78,0,0,1-2.73-3.06,2.83,2.83,0,0,1,2.73-3,1.79,1.79,0,0,1,1.77,1v-3.73H449v7.61a9.82,9.82,0,0,0,.06,1.07H448a5.31,5.31,0,0,1-.06-.78Zm-1.68,0c1,0,1.67-.9,1.67-2.09s-.63-2-1.66-2-1.7.84-1.7,2S445.14,307.16,446.22,307.16Z"/><path class="cls-3" d="M337.54,331.74a4.21,4.21,0,0,1,4.22-4.42,3.6,3.6,0,0,1,3.74,2.7l-1.09.38a2.52,2.52,0,0,0-2.65-2,3.37,3.37,0,0,0,0,6.7,2.7,2.7,0,0,0,2.71-2l1,.39a3.72,3.72,0,0,1-3.76,2.73A4.18,4.18,0,0,1,337.54,331.74Z"/><path class="cls-3" d="M347,336v-8.68h1.13V336Z"/><path class="cls-3" d="M355.43,333.11a3,3,0,1,1-2.95-3.06A2.91,2.91,0,0,1,355.43,333.11Zm-1.15,0a1.82,1.82,0,1,0-1.8,2.06A1.84,1.84,0,0,0,354.28,333.11Z"/><path class="cls-3" d="M359,336.18a2.14,2.14,0,0,1-2.16-2.31v-3.64h1.13v3.47c0,.79.36,1.48,1.31,1.48a1.3,1.3,0,0,0,1.36-1.47v-3.48h1.13v4.7c0,.46,0,.87.06,1.07h-1.08a5.83,5.83,0,0,1-.05-.7A1.88,1.88,0,0,1,359,336.18Z"/><path class="cls-3" d="M367.71,335.12a1.93,1.93,0,0,1-1.79,1,2.79,2.79,0,0,1-2.74-3.06,2.84,2.84,0,0,1,2.74-3,1.76,1.76,0,0,1,1.76,1v-3.73h1.12v7.61a7.65,7.65,0,0,0,.06,1.07h-1.09a4.18,4.18,0,0,1-.06-.78Zm-1.68,0c1,0,1.66-.9,1.66-2.09s-.62-2-1.65-2a1.8,1.8,0,0,0-1.71,2C364.33,334.29,365,335.16,366,335.16Z"/><path class="cls-3" d="M373.3,331.74a4.21,4.21,0,0,1,4.22-4.42,3.6,3.6,0,0,1,3.74,2.7l-1.09.38a2.52,2.52,0,0,0-2.65-2,3.37,3.37,0,0,0,0,6.7,2.7,2.7,0,0,0,2.71-2l1,.39a3.72,3.72,0,0,1-3.76,2.73A4.18,4.18,0,0,1,373.3,331.74Z"/><path class="cls-3" d="M385.92,331.37a4.22,4.22,0,0,0-.49,0c-.95,0-1.58.51-1.58,1.78V336h-1.13v-5.77h1.1v1a1.8,1.8,0,0,1,1.73-1.1,2.45,2.45,0,0,1,.37,0Z"/><path class="cls-3" d="M392.15,334.36a2.61,2.61,0,0,1-2.59,1.82,3.08,3.08,0,0,1-.15-6.13c1.78,0,2.77,1.22,2.77,3a2.93,2.93,0,0,1,0,.36h-4.34a1.71,1.71,0,0,0,1.74,1.75,1.58,1.58,0,0,0,1.62-1.16ZM391,332.52a1.44,1.44,0,0,0-1.58-1.47,1.54,1.54,0,0,0-1.57,1.47Z"/><path class="cls-3" d="M397.67,335.12a1.93,1.93,0,0,1-1.79,1,2.78,2.78,0,0,1-2.73-3.06,2.83,2.83,0,0,1,2.73-3,1.79,1.79,0,0,1,1.77,1v-3.73h1.11v7.61a9.82,9.82,0,0,0,.06,1.07h-1.09a5.31,5.31,0,0,1-.06-.78Zm-1.68,0c1,0,1.67-.9,1.67-2.09s-.63-2-1.66-2-1.7.84-1.7,2S394.91,335.16,396,335.16Z"/><path class="cls-3" d="M401.23,327.23a.81.81,0,1,1,0,1.62.81.81,0,0,1,0-1.62Zm-.55,8.77v-5.77h1.12V336Z"/><path class="cls-3" d="M405.23,330.23h1.25v1h-1.25v3c0,.53.22.79.8.79a1.93,1.93,0,0,0,.45-.05v1a2.39,2.39,0,0,1-.77.11,1.5,1.5,0,0,1-1.61-1.64v-3.17H403v-1h.31a.81.81,0,0,0,.89-.89v-.93h1Z"/><path class="cls-3" d="M407.56,333.05v-1h3.25v1Z"/><path class="cls-3" d="M413.82,331.25V336h-1.16v-4.75h-1.07v-1h1.07v-1a1.83,1.83,0,0,1,1.89-2,1.43,1.43,0,0,1,.68.12v1a1.24,1.24,0,0,0-.5-.07.86.86,0,0,0-.91,1v.91h1.39v1Z"/><path class="cls-3" d="M418.53,336.18a2.13,2.13,0,0,1-2.16-2.31v-3.64h1.12v3.47c0,.79.36,1.48,1.31,1.48a1.31,1.31,0,0,0,1.37-1.47v-3.48h1.13v4.7a8.33,8.33,0,0,0,.06,1.07h-1.08a4.3,4.3,0,0,1,0-.7A1.88,1.88,0,0,1,418.53,336.18Z"/><path class="cls-3" d="M424.35,336h-1.13v-5.77h1.1v.83a2,2,0,0,1,1.78-1,2,2,0,0,1,2.06,2.28V336H427v-3.47c0-.8-.33-1.45-1.34-1.45s-1.34.71-1.34,1.59Z"/><path class="cls-3" d="M434,335.12a1.9,1.9,0,0,1-1.78,1,2.79,2.79,0,0,1-2.74-3.06,2.84,2.84,0,0,1,2.74-3,1.76,1.76,0,0,1,1.76,1v-3.73h1.12v7.61a7.65,7.65,0,0,0,.06,1.07h-1.1a5.31,5.31,0,0,1-.06-.78Zm-1.67,0c1,0,1.66-.9,1.66-2.09s-.62-2-1.65-2a1.8,1.8,0,0,0-1.71,2C430.63,334.29,431.25,335.16,432.33,335.16Z"/><path class="cls-3" d="M442,334.36a2.6,2.6,0,0,1-2.59,1.82,3.08,3.08,0,0,1-.14-6.13c1.77,0,2.77,1.22,2.77,3a2.93,2.93,0,0,1,0,.36h-4.35a1.72,1.72,0,0,0,1.74,1.75,1.56,1.56,0,0,0,1.62-1.16Zm-1.14-1.84a1.44,1.44,0,0,0-1.58-1.47,1.55,1.55,0,0,0-1.57,1.47Z"/><path class="cls-3" d="M447.56,335.12a1.9,1.9,0,0,1-1.78,1A2.79,2.79,0,0,1,443,333.1a2.84,2.84,0,0,1,2.74-3,1.76,1.76,0,0,1,1.76,1v-3.73h1.12v7.61c0,.55,0,1,0,1.07h-1.09a5.31,5.31,0,0,1-.06-.78Zm-1.68,0c1,0,1.67-.9,1.67-2.09s-.62-2-1.65-2a1.8,1.8,0,0,0-1.71,2C444.19,334.29,444.81,335.16,445.88,335.16Z"/><g class="cls-20"><rect class="cls-8" x="314" y="265" width="22" height="22"/></g><g class="cls-21"><rect class="cls-5" x="314" y="293" width="22" height="22"/></g><g class="cls-22"><rect class="cls-23" x="314" y="321" width="22" height="22"/></g><path class="cls-8" d="M3.18,114v-5.48H1.3v-.83a1.93,1.93,0,0,0,2-1.46h1V114Z"/><path class="cls-8" d="M7.42,114v-5.48H5.54v-.83a1.93,1.93,0,0,0,2-1.46h1V114Z"/><path class="cls-8" d="M3.12,184l2.29-2.11H1.7v-1.08H7v1l-2.22,2.05a2.31,2.31,0,0,1,2.4,2.37,2.56,2.56,0,0,1-2.82,2.49,2.67,2.67,0,0,1-2.89-2.45l1.16-.26a1.67,1.67,0,0,0,1.72,1.68A1.47,1.47,0,0,0,6,186.33a1.45,1.45,0,0,0-1.59-1.45,2.11,2.11,0,0,0-.68.12Z"/><path class="cls-8" d="M8.18,186.56a2,2,0,0,1,1.47-1.92,2,2,0,0,1-1.27-1.82A2.34,2.34,0,0,1,11,180.66a2.35,2.35,0,0,1,2.62,2.16,2,2,0,0,1-1.27,1.82,2,2,0,0,1,1.47,1.92c0,1.25-1,2.23-2.82,2.23S8.18,187.81,8.18,186.56Zm4.44-.1c0-.74-.59-1.33-1.63-1.33s-1.63.59-1.63,1.33.59,1.31,1.63,1.31S12.62,187.19,12.62,186.46Zm-.19-3.58A1.3,1.3,0,0,0,11,181.63a1.3,1.3,0,0,0-1.44,1.25A1.32,1.32,0,0,0,11,184.15,1.32,1.32,0,0,0,12.43,182.88Z"/><path class="cls-8" d="M1.52,258.08a1.67,1.67,0,0,1,0-.31,2.52,2.52,0,0,1,2.69-2.52,2.4,2.4,0,0,1,2.63,2.39A2.84,2.84,0,0,1,5.35,260l-1.53,1a1.9,1.9,0,0,0-.95,1.09h4v1.09H1.42a3.49,3.49,0,0,1,1.85-3.09l1.29-.84a2,2,0,0,0,1.07-1.62,1.34,1.34,0,0,0-1.46-1.37,1.44,1.44,0,0,0-1.5,1.6c0,.11,0,.23,0,.35Z"/><path class="cls-8" d="M8.9,260.76a1.67,1.67,0,0,0,1.75,1.6,1.59,1.59,0,1,0,0-3.17,2,2,0,0,0-1.41.56l-1.15-.46,1-3.86h4.11v1.08H9.85l-.57,2.23a2.19,2.19,0,0,1,1.58-.57,2.46,2.46,0,0,1,2.64,2.57,2.67,2.67,0,0,1-2.85,2.66,2.7,2.7,0,0,1-2.88-2.31Z"/><path class="cls-8" d="M3.18,337.8v-5.48H1.3v-.82a2,2,0,0,0,2-1.47h1v7.77Z"/><path class="cls-8" d="M7.42,337.8v-5.48H5.54v-.82a2,2,0,0,0,2-1.47h1v7.77Z"/><path class="cls-24" d="M76.94,107.45a2.92,2.92,0,0,0-1.39-.34,2.72,2.72,0,0,0-2.74,2.78,2.35,2.35,0,0,1,2-1,2.49,2.49,0,0,1,2.66,2.65,2.68,2.68,0,0,1-2.87,2.65c-1.49,0-3-1-3-3.6,0-2.89,1.74-4.53,4-4.53a3.07,3.07,0,0,1,1.68.43Zm-2.28,5.72A1.64,1.64,0,1,0,73,111.54,1.63,1.63,0,0,0,74.66,113.17Z"/><path class="cls-24" d="M80.14,114v-5.48H78.26v-.83a1.93,1.93,0,0,0,2-1.46h1V114Z"/><path class="cls-24" d="M243.94,183.44a2.92,2.92,0,0,0-1.39-.34,2.72,2.72,0,0,0-2.74,2.79,2.33,2.33,0,0,1,2.05-1,2.49,2.49,0,0,1,2.66,2.65,2.68,2.68,0,0,1-2.87,2.65c-1.49,0-3-1-3-3.6,0-2.89,1.74-4.53,4-4.53a3.07,3.07,0,0,1,1.68.43Zm-2.28,5.72a1.64,1.64,0,1,0-1.68-1.63A1.63,1.63,0,0,0,241.66,189.16Z"/><path class="cls-5" d="M3.18,485v-5.48H1.3v-.83a1.93,1.93,0,0,0,2-1.46h1V485Z"/><path class="cls-5" d="M3.18,628v-5.48H1.3v-.83a1.93,1.93,0,0,0,2-1.46h1V628Z"/><path class="cls-3" d="M6.64,20.31V29H3.7V7.74h7.74A6.2,6.2,0,0,1,18,14c0,3.6-2.64,6.27-6.57,6.27Zm4.26-2.64c2.55,0,4.11-1.41,4.11-3.6s-1.56-3.69-4.11-3.69H6.64v7.29Z"/><path class="cls-3" d="M29.32,17.43a8.8,8.8,0,0,0-1.23-.09c-2.37,0-4,1.26-4,4.44V29H21.31V14.58h2.76V17.1a4.52,4.52,0,0,1,4.32-2.76,5.31,5.31,0,0,1,.93.09Z"/><path class="cls-3" d="M45.88,21.78c0,4.41-3.06,7.68-7.38,7.68s-7.38-3.27-7.38-7.68a7.38,7.38,0,1,1,14.76,0Zm-2.88,0c0-3.33-2.1-5.13-4.5-5.13S34,18.45,34,21.78s2.1,5.16,4.5,5.16S43,25.14,43,21.78Z"/><path class="cls-3" d="M49.48,14.58H52.3V30.69c0,2.61-1.5,4.47-4,4.47A4.77,4.77,0,0,1,46.63,35V32.58a4.59,4.59,0,0,0,.9.09c1.47,0,1.95-.78,1.95-2.1ZM50.86,7a2,2,0,1,1-2,2A2,2,0,0,1,50.86,7Z"/><path class="cls-3" d="M69.67,24.9a6.54,6.54,0,0,1-6.48,4.56c-3.87,0-7.26-2.82-7.26-7.71,0-4.53,3.27-7.62,6.9-7.62,4.44,0,6.93,3.06,6.93,7.56a6.34,6.34,0,0,1-.06.9H58.84A4.28,4.28,0,0,0,63.19,27a3.93,3.93,0,0,0,4-2.91Zm-2.85-4.59a3.64,3.64,0,0,0-4-3.69,3.88,3.88,0,0,0-3.93,3.69Z"/><path class="cls-3" d="M75,21.78c0,3.3,2.07,5.07,4.41,5.07a3.92,3.92,0,0,0,4-3L86,25a6.63,6.63,0,0,1-6.51,4.5c-4.2,0-7.29-3.3-7.29-7.68s3.15-7.65,7.26-7.65a6.28,6.28,0,0,1,6.42,4.59L83.29,19.8a3.78,3.78,0,0,0-3.87-3.06C77.14,16.74,75,18.42,75,21.78Z"/><path class="cls-3" d="M93,14.58h3.12v2.55H93v7.5c0,1.32.54,2,2,2a5.71,5.71,0,0,0,1.11-.12v2.4a6.17,6.17,0,0,1-1.92.27,3.75,3.75,0,0,1-4-4.11V17.13H87.46V14.58h.78a2,2,0,0,0,2.22-2.22V10H93Z"/><path class="cls-3" d="M101.11,24.36a3.08,3.08,0,0,0,3.36,2.7c1.59,0,2.46-.9,2.46-1.92s-.66-1.59-1.86-1.86l-2.46-.54a4.1,4.1,0,0,1-3.6-4c0-2.46,2.31-4.56,5.13-4.56,4,0,5.19,2.58,5.49,3.87l-2.49.93a2.8,2.8,0,0,0-3-2.4,2.18,2.18,0,0,0-2.4,1.92c0,.87.54,1.5,1.65,1.74l2.34.51c2.61.57,4,2.16,4,4.29s-1.71,4.47-5.28,4.47c-4,0-5.64-2.55-5.88-4.2Z"/><path class="cls-3" d="M122.17,24.36a3.08,3.08,0,0,0,3.36,2.7c1.59,0,2.46-.9,2.46-1.92s-.66-1.59-1.86-1.86l-2.46-.54a4.1,4.1,0,0,1-3.6-4c0-2.46,2.31-4.56,5.13-4.56,4,0,5.19,2.58,5.49,3.87l-2.49.93a2.8,2.8,0,0,0-3-2.4,2.18,2.18,0,0,0-2.4,1.92c0,.87.54,1.5,1.65,1.74l2.34.51c2.61.57,4,2.16,4,4.29s-1.71,4.47-5.28,4.47c-4,0-5.64-2.55-5.88-4.2Z"/><path class="cls-3" d="M134.53,34.71V14.58h2.73v2.25a5.32,5.32,0,0,1,4.83-2.58c4.32,0,6.63,3.33,6.63,7.53S146.23,29.4,142,29.4a5.37,5.37,0,0,1-4.68-2.34v7.65Zm7.05-18c-2.58,0-4.29,2.16-4.29,5s1.71,5.1,4.29,5.1,4.26-2.13,4.26-5.1S144.22,16.74,141.58,16.74Z"/><path class="cls-3" d="M155.8,20.76l3.9-.57c.87-.12,1.11-.57,1.11-1.08,0-1.41-.93-2.58-3.12-2.58a3.06,3.06,0,0,0-3.27,2.91l-2.7-.63c.3-2.76,2.79-4.68,5.91-4.68,4.32,0,6,2.46,6,5.28v7.23a13.57,13.57,0,0,0,.18,2.37h-2.76a10.56,10.56,0,0,1-.15-2,5.26,5.26,0,0,1-4.65,2.4c-2.94,0-4.83-2-4.83-4.32C151.42,22.56,153.31,21.12,155.8,20.76Zm5,2.07v-.66l-4.41.66A2.16,2.16,0,0,0,154.3,25a2.19,2.19,0,0,0,2.34,2.1C159,27.09,160.81,26,160.81,22.83Z"/><path class="cls-3" d="M170.83,29H168V14.58h2.76v2.07a4.94,4.94,0,0,1,4.44-2.49c3.45,0,5.16,2.49,5.16,5.7V29h-2.82V20.34c0-2-.84-3.63-3.36-3.63-2.22,0-3.36,1.77-3.36,4Z"/><path class="cls-3" d="M187.69,29h-2.82V14.58h2.76v2.07a4.94,4.94,0,0,1,4.44-2.49c3.45,0,5.16,2.49,5.16,5.7V29h-2.82V20.34c0-2-.84-3.63-3.36-3.63-2.22,0-3.36,1.77-3.36,4Z"/><path class="cls-3" d="M203.11,7.08a2,2,0,1,1-2,2A2,2,0,0,1,203.11,7.08ZM201.73,29V14.58h2.79V29Z"/><path class="cls-3" d="M212.14,29h-2.82V14.58h2.76v2.07a4.94,4.94,0,0,1,4.44-2.49c3.45,0,5.16,2.49,5.16,5.7V29h-2.82V20.34c0-2-.84-3.63-3.36-3.63-2.22,0-3.36,1.77-3.36,4Z"/><path class="cls-3" d="M227.86,29.16a3.84,3.84,0,0,0,3.93,3.54c3,0,4.41-1.56,4.41-4.68V26a4.81,4.81,0,0,1-4.41,2.37c-3.84,0-6.63-2.91-6.63-7,0-3.9,2.67-7,6.63-7,2.22,0,3.72.84,4.44,2.28v-2H239V27.93c0,3.66-1.8,7.23-7.23,7.23-3.6,0-6.3-2.28-6.66-5.37Zm8.46-7.83c0-2.79-1.68-4.62-4.11-4.62S228,18.54,228,21.33,229.66,26,232.21,26,236.32,24.12,236.32,21.33Z"/><path class="cls-3" d="M251,29V14.58h2.7V16.5a5,5,0,0,1,4.38-2.34,4.51,4.51,0,0,1,4.32,2.73,5.18,5.18,0,0,1,4.83-2.73c2.52,0,5,1.71,5,5.49V29h-2.79V20c0-1.89-.93-3.3-3.06-3.3a3.36,3.36,0,0,0-3.33,3.63V29h-2.82V20c0-1.86-.9-3.3-3.06-3.3a3.35,3.35,0,0,0-3.36,3.66V29Z"/><path class="cls-3" d="M282,29.46c-3.36,0-5.4-2.52-5.4-5.79V14.58h2.82v8.67c0,2,.9,3.72,3.27,3.72s3.42-1.5,3.42-3.69v-8.7h2.82V26.34a24.28,24.28,0,0,0,.15,2.67h-2.7a12.77,12.77,0,0,1-.12-1.74A4.71,4.71,0,0,1,282,29.46Z"/><path class="cls-3" d="M293.71,29V7.29h2.82V29Z"/><path class="cls-3" d="M305.11,14.58h3.12v2.55h-3.12v7.5c0,1.32.54,2,2,2a5.71,5.71,0,0,0,1.11-.12v2.4a6.17,6.17,0,0,1-1.92.27,3.75,3.75,0,0,1-4-4.11V17.13h-2.76V14.58h.78a2,2,0,0,0,2.22-2.22V10h2.58Z"/><path class="cls-3" d="M313.36,7.08a2,2,0,1,1-2,2A2,2,0,0,1,313.36,7.08ZM312,29V14.58h2.79V29Z"/><path class="cls-3" d="M319.57,34.71V14.58h2.73v2.25a5.32,5.32,0,0,1,4.83-2.58c4.32,0,6.62,3.33,6.62,7.53S331.27,29.4,327,29.4a5.37,5.37,0,0,1-4.68-2.34v7.65Zm7.05-18c-2.58,0-4.29,2.16-4.29,5s1.71,5.1,4.29,5.1,4.26-2.13,4.26-5.1S329.26,16.74,326.62,16.74Z"/><path class="cls-3" d="M337.36,29V7.29h2.81V29Z"/><path class="cls-3" d="M357.54,24.9a6.54,6.54,0,0,1-6.48,4.56c-3.86,0-7.26-2.82-7.26-7.71,0-4.53,3.28-7.62,6.91-7.62,4.43,0,6.92,3.06,6.92,7.56a6.34,6.34,0,0,1-.06.9H346.71A4.29,4.29,0,0,0,351.06,27a3.93,3.93,0,0,0,4.05-2.91Zm-2.85-4.59a3.63,3.63,0,0,0-4-3.69,3.89,3.89,0,0,0-3.93,3.69Z"/><path class="cls-3" d="M13.51,62.81A4.83,4.83,0,0,1,9,65.39C4.81,65.39,2.2,62,2.2,57.74,2.2,53.66,5,50.18,9,50.18c2.55,0,3.93,1.26,4.41,2.43V43.28h2.79v19A22.83,22.83,0,0,0,16.39,65H13.66a12.09,12.09,0,0,1-.15-2Zm-4.2.09c2.58,0,4.17-2.25,4.17-5.22s-1.56-5-4.14-5-4.26,2.1-4.26,5.07S6.61,62.9,9.31,62.9Z"/><path class="cls-3" d="M33.61,60.89a6.54,6.54,0,0,1-6.48,4.56c-3.87,0-7.26-2.82-7.26-7.71,0-4.53,3.27-7.62,6.9-7.62,4.44,0,6.93,3.06,6.93,7.56a6.34,6.34,0,0,1-.06.9H22.78A4.28,4.28,0,0,0,27.13,63a3.93,3.93,0,0,0,4.05-2.91ZM30.76,56.3a3.64,3.64,0,0,0-4-3.69,3.88,3.88,0,0,0-3.93,3.69Z"/><path class="cls-3" d="M37.3,70.7V50.57H40v2.25a5.32,5.32,0,0,1,4.83-2.58c4.32,0,6.63,3.33,6.63,7.53S49,65.39,44.77,65.39a5.37,5.37,0,0,1-4.68-2.34V70.7Zm7.05-18c-2.58,0-4.29,2.16-4.29,5s1.71,5.1,4.29,5.1,4.26-2.13,4.26-5.1S47,52.73,44.35,52.73Z"/><path class="cls-3" d="M58.57,56.75l3.9-.57c.87-.12,1.11-.57,1.11-1.08,0-1.41-.93-2.58-3.12-2.58a3.06,3.06,0,0,0-3.27,2.91l-2.7-.63c.3-2.76,2.79-4.68,5.91-4.68,4.32,0,6,2.46,6,5.28v7.23A13.57,13.57,0,0,0,66.58,65H63.82a10.56,10.56,0,0,1-.15-2A5.26,5.26,0,0,1,59,65.45c-2.94,0-4.83-2-4.83-4.32C54.19,58.55,56.08,57.11,58.57,56.75Zm5,2.07v-.66l-4.41.66A2.16,2.16,0,0,0,57.07,61a2.19,2.19,0,0,0,2.34,2.1C61.72,63.08,63.58,62,63.58,58.82Z"/><path class="cls-3" d="M78.79,53.42a8.8,8.8,0,0,0-1.23-.09c-2.37,0-4,1.26-4,4.44V65H70.78V50.57h2.76v2.52a4.52,4.52,0,0,1,4.32-2.76,5.31,5.31,0,0,1,.93.09Z"/><path class="cls-3" d="M85.57,50.57h3.12v2.55H85.57v7.5c0,1.32.54,2,2,2a5.71,5.71,0,0,0,1.11-.12v2.4a6.17,6.17,0,0,1-1.92.27,3.75,3.75,0,0,1-4-4.11V53.12H80V50.57h.78A2,2,0,0,0,83,48.35V46h2.58Z"/><path class="cls-3" d="M92.44,65V50.57h2.7v1.92a5,5,0,0,1,4.38-2.34,4.51,4.51,0,0,1,4.32,2.73,5.18,5.18,0,0,1,4.83-2.73c2.52,0,5,1.71,5,5.49V65h-2.79V55.94c0-1.89-.93-3.3-3.06-3.3a3.36,3.36,0,0,0-3.33,3.63V65h-2.82V55.94c0-1.86-.9-3.3-3.06-3.3a3.35,3.35,0,0,0-3.36,3.66V65Z"/><path class="cls-3" d="M130.72,60.89a6.54,6.54,0,0,1-6.48,4.56c-3.87,0-7.26-2.82-7.26-7.71,0-4.53,3.27-7.62,6.9-7.62,4.44,0,6.93,3.06,6.93,7.56a6.34,6.34,0,0,1-.06.9H119.89A4.28,4.28,0,0,0,124.24,63a3.93,3.93,0,0,0,4-2.91Zm-2.85-4.59a3.64,3.64,0,0,0-4-3.69A3.88,3.88,0,0,0,120,56.3Z"/><path class="cls-3" d="M137.23,65h-2.82V50.57h2.76v2.07a4.94,4.94,0,0,1,4.44-2.49c3.45,0,5.16,2.49,5.16,5.7V65H144V56.33c0-2-.84-3.63-3.36-3.63-2.22,0-3.36,1.77-3.36,4Z"/><path class="cls-3" d="M155.05,50.57h3.12v2.55h-3.12v7.5c0,1.32.54,2,2,2a5.71,5.71,0,0,0,1.11-.12v2.4a6.17,6.17,0,0,1-1.92.27,3.75,3.75,0,0,1-4-4.11V53.12h-2.76V50.57h.78a2,2,0,0,0,2.22-2.22V46h2.58Z"/><path class="cls-3" d="M163.12,60.35a3.08,3.08,0,0,0,3.36,2.7c1.59,0,2.46-.9,2.46-1.92s-.66-1.59-1.86-1.86l-2.46-.54a4.1,4.1,0,0,1-3.6-4c0-2.46,2.31-4.56,5.13-4.56,4,0,5.19,2.58,5.49,3.87l-2.49.93a2.8,2.8,0,0,0-3-2.4,2.18,2.18,0,0,0-2.4,1.92c0,.87.54,1.5,1.65,1.74l2.34.51c2.61.57,4,2.16,4,4.29s-1.71,4.47-5.28,4.47c-4,0-5.64-2.55-5.88-4.2Z"/><rect class="cls-25" x="1.95" y="532.83" width="0.95" height="79.81"/></svg>