<?xml version="1.0" encoding="UTF-8"?>
<svg width="420px" height="48px" viewBox="0 0 420 48" version="1.1" xmlns="http://www.w3.org/2000/svg" xmlns:xlink="http://www.w3.org/1999/xlink">
    <title>Logos</title>
    <defs>
        <polygon id="path-1" points="0.428544 0 15.108864 0 15.108864 28.496256 0.428544 28.496256"></polygon>
        <polygon id="path-3" points="0.801216 0.05856 20.40768 0.05856 20.40768 28.76064 0.801216 28.76064"></polygon>
    </defs>
    <g id="Design-Copy" stroke="none" stroke-width="1" fill="none" fill-rule="evenodd">
        <g id="Home" transform="translate(-213.000000, -41.000000)">
            <g id="Hero" transform="translate(0.000000, -1.000000)">
                <g id="Logos" transform="translate(213.000000, 42.000000)">
                    <g id="Logos/KO-Horiz">
                        <polygon id="Fill-1" fill="#D5A4CB" points="96.8209615 47.2181 98.1121154 47.2181 98.1121154 0.75035 96.8209615 0.75035"></polygon>
                        <polygon id="Fill-2" fill="#D5A4CB" points="64.3965577 0.75105 45.4134808 47.2188 46.7046346 47.2188 65.6894423 0.75105"></polygon>
                        <polygon id="Fill-3" fill="#D5A4CB" points="32.0209615 47.2181 33.3311538 47.2181 33.3311538 0.75035 32.0209615 0.75035"></polygon>
                        <polygon id="Fill-4" fill="#D5A4CB" points="4.48096154 47.2181 5.77384615 47.2181 5.77384615 0.75035 4.48096154 0.75035"></polygon>
                        <polygon id="Fill-5" fill="#D5A4CB" points="66.9184615 6.78645 83.4317308 47.2202 84.7228846 47.2202 67.5640385 5.20445"></polygon>
                        <polygon id="Fill-6" fill="#D5A4CB" points="9.60057692 24.6571 28.1959615 24.6571 28.1959615 23.3726 9.60057692 23.3726"></polygon>
                        <polygon id="Fill-7" fill="#D5A4CB" points="56.6626154 32.33295 56.0741538 33.63495 74.0810769 33.63495 73.4891538 32.33295"></polygon>
                        <path d="M101.303654,47.2181 L102.594808,47.2181 L102.594808,0.75035 L101.303654,0.75035 L101.303654,47.2181 Z M92.34,47.2181 L93.6311538,47.2181 L93.6311538,0.75035 L92.34,0.75035 L92.34,47.2181 Z M68.8759615,0.75035 L49.8963462,47.2181 L51.2065385,47.2181 L54.8948077,38.1636 L75.24,38.1636 L78.9490385,47.2181 L80.2384615,47.2181 L65.7588462,11.6336 L69.5942308,2.2606 L87.9109615,47.2181 L89.2038462,47.2181 L70.2415385,0.75035 L68.8759615,0.75035 Z M65.115,13.2716 L71.0878846,27.87885 L59.1923077,27.87885 L65.115,13.2716 Z M58.6021154,29.1826 L71.6071154,29.1826 L74.7225,36.91585 L55.4296154,36.91585 L58.6021154,29.1826 Z M59.9123077,0.75035 L40.9309615,47.2181 L42.2221154,47.2181 L61.2034615,0.75035 L59.9123077,0.75035 Z M36.5053846,47.2181 L37.8155769,47.2181 L37.8155769,0.75035 L36.5053846,0.75035 L36.5053846,47.2181 Z M27.54,0.75035 L27.54,18.78585 L10.2565385,18.78585 L10.2565385,0.75035 L8.96538462,0.75035 L8.96538462,47.2181 L10.2565385,47.2181 L10.2565385,29.1826 L27.54,29.1826 L27.54,47.2181 L28.8501923,47.2181 L28.8501923,0.75035 L27.54,0.75035 Z M10.2565385,27.87885 L27.5382692,27.87885 L27.5382692,20.14735 L10.2565385,20.14735 L10.2565385,27.87885 Z M5.55111512e-17,47.2181 L1.28942308,47.2181 L1.28942308,0.75035 L5.55111512e-17,0.75035 L5.55111512e-17,47.2181 Z" id="Fill-8" fill="#75CEEE"></path>
                        <polygon id="Fill-9" fill="#F6F0F6" points="121.323635 27.571725 121.323635 23.872225 117.116135 23.872225 117.116135 27.571725 115.977288 27.571725 115.977288 19.239975 117.116135 19.239975 117.116135 22.801225 121.323635 22.801225 121.323635 19.239975 122.462481 19.239975 122.462481 27.571725"></polygon>
                        <path d="M126.473712,27.7476 C125.172173,27.7476 124.381212,26.76235 124.381212,25.4796 L124.381212,21.92185 L125.475058,21.92185 L125.475058,25.3151 C125.475058,26.0921 125.822942,26.77285 126.74025,26.77285 C127.624673,26.77285 128.066019,26.18485 128.066019,25.32735 L128.066019,21.92185 L129.159865,21.92185 L129.159865,26.52785 C129.159865,26.9741 129.19275,27.37135 129.216981,27.57085 L128.169865,27.57085 C128.147365,27.44135 128.124865,27.12635 128.124865,26.89185 C127.821981,27.47985 127.124481,27.7476 126.473712,27.7476" id="Fill-10" fill="#F6F0F6"></path>
                        <path d="M131.020442,27.571725 L131.020442,21.920975 L132.065827,21.920975 L132.065827,22.671725 C132.415442,22.050475 133.111212,21.756475 133.761981,21.756475 C134.459481,21.756475 135.134481,22.095975 135.437365,22.823975 C135.878712,22.013725 136.598712,21.756475 137.308327,21.756475 C138.28275,21.756475 139.238135,22.426725 139.238135,23.905475 L139.238135,27.571725 L138.156404,27.571725 L138.156404,24.024475 C138.156404,23.284225 137.796404,22.729475 136.970827,22.729475 C136.204096,22.729475 135.679673,23.341975 135.679673,24.153975 L135.679673,27.571725 L134.589288,27.571725 L134.589288,24.024475 C134.589288,23.296475 134.237942,22.729475 133.401981,22.729475 C132.624865,22.729475 132.100442,23.317475 132.100442,24.166225 L132.100442,27.571725 L131.020442,27.571725 Z" id="Fill-12" fill="#F6F0F6"></path>
                        <path d="M144.271558,25.15165 L144.271558,24.89265 L142.563288,25.15165 C142.097712,25.22165 141.749827,25.4929 141.749827,25.9969 C141.749827,26.4204 142.097712,26.82115 142.655019,26.82115 C143.551558,26.82115 144.271558,26.3854 144.271558,25.15165 M142.331365,24.3414 L143.842327,24.1174 C144.178096,24.07015 144.271558,23.89515 144.271558,23.6939 C144.271558,23.14265 143.911558,22.68415 143.063481,22.68415 C142.295019,22.68415 141.865788,23.1654 141.794827,23.8234 L140.749442,23.57665 C140.865404,22.49515 141.831173,21.7444 143.03925,21.7444 C144.714635,21.7444 145.365404,22.70865 145.365404,23.81115 L145.365404,26.6444 C145.365404,27.1379 145.410404,27.4319 145.434635,27.5719 L144.365019,27.5719 C144.342519,27.4319 144.307904,27.22015 144.307904,26.8089 C144.062135,27.2079 143.504827,27.74865 142.504442,27.74865 C141.365596,27.74865 140.633481,26.9489 140.633481,26.0564 C140.633481,25.0449 141.365596,24.4814 142.331365,24.3414" id="Fill-14" fill="#F6F0F6"></path>
                        <path d="M148.154019,27.571725 L147.061904,27.571725 L147.061904,21.920975 L148.131519,21.920975 L148.131519,22.729475 C148.53825,22.025975 149.199404,21.756475 149.848442,21.756475 C151.188058,21.756475 151.850942,22.729475 151.850942,23.987725 L151.850942,27.571725 L150.758827,27.571725 L150.758827,24.178475 C150.758827,23.387475 150.431712,22.753975 149.457288,22.753975 C148.597096,22.753975 148.154019,23.448725 148.154019,24.306225 L148.154019,27.571725 Z" id="Fill-16" fill="#F6F0F6"></path>
                        <polygon id="Fill-18" fill="#F6F0F6" points="153.186923 24.6816 156.335192 24.6816 156.335192 23.71735 153.186923 23.71735"></polygon>
                        <path d="M157.385942,23.400075 C157.385942,20.615825 159.431712,19.063575 161.47575,19.063575 C163.358827,19.063575 164.684596,20.097825 165.103442,21.707825 L164.045942,22.084075 C163.730942,20.827575 162.82575,20.124075 161.47575,20.124075 C159.976904,20.124075 158.547288,21.228325 158.547288,23.400075 C158.547288,25.573575 159.976904,26.691825 161.47575,26.691825 C162.882865,26.691825 163.767288,25.834325 164.103058,24.693325 L165.115558,25.069575 C164.672481,26.634075 163.370942,27.747075 161.47575,27.747075 C159.350365,27.747075 157.385942,26.186075 157.385942,23.400075" id="Fill-20" fill="#F6F0F6"></path>
                        <path d="M170.043923,24.1657 C170.019692,23.3537 169.498731,22.7202 168.510462,22.7202 C167.591423,22.7202 167.034115,23.43595 166.987385,24.1657 L170.043923,24.1657 Z M171.148154,25.9612 C170.834885,26.9622 169.936615,27.7497 168.638538,27.7497 C167.137962,27.7497 165.824308,26.64545 165.824308,24.72745 C165.824308,22.95645 167.092962,21.7437 168.494885,21.7437 C170.218731,21.7437 171.182769,22.9442 171.182769,24.70645 C171.182769,24.84645 171.168923,24.9882 171.160269,25.0582 L166.952769,25.0582 C166.977,26.0697 167.697,26.7732 168.638538,26.7732 C169.545462,26.7732 169.998923,26.26745 170.206615,25.63395 L171.148154,25.9612 Z" id="Fill-21" fill="#F6F0F6"></path>
                        <path d="M173.671096,27.571725 L172.578981,27.571725 L172.578981,21.920975 L173.648596,21.920975 L173.648596,22.729475 C174.055327,22.025975 174.716481,21.756475 175.365519,21.756475 C176.705135,21.756475 177.368019,22.729475 177.368019,23.987725 L177.368019,27.571725 L176.275904,27.571725 L176.275904,24.178475 C176.275904,23.387475 175.948788,22.753975 174.974365,22.753975 C174.114173,22.753975 173.671096,23.448725 173.671096,24.306225 L173.671096,27.571725 Z" id="Fill-22" fill="#F6F0F6"></path>
                        <path d="M180.577212,21.9201 L181.785288,21.9201 L181.785288,22.9176 L180.577212,22.9176 L180.577212,25.85585 C180.577212,26.3721 180.786635,26.6311 181.356058,26.6311 C181.494519,26.6311 181.693558,26.6101 181.785288,26.5856 L181.785288,27.52535 C181.693558,27.5621 181.413173,27.6321 181.042788,27.6321 C180.089135,27.6321 179.483365,27.0441 179.483365,26.0221 L179.483365,22.9176 L178.415481,22.9176 L178.415481,21.9201 L178.716635,21.9201 C179.320673,21.9201 179.576827,21.54385 179.576827,21.0521 L179.576827,20.13335 L180.577212,20.13335 L180.577212,21.9201 Z" id="Fill-23" fill="#F6F0F6"></path>
                        <path d="M186.947654,24.1657 C186.923423,23.3537 186.400731,22.7202 185.412462,22.7202 C184.495154,22.7202 183.937846,23.43595 183.889385,24.1657 L186.947654,24.1657 Z M188.051885,25.9612 C187.736885,26.9622 186.840346,27.7497 185.542269,27.7497 C184.041692,27.7497 182.728038,26.64545 182.728038,24.72745 C182.728038,22.95645 183.994962,21.7437 185.398615,21.7437 C187.122462,21.7437 188.0865,22.9442 188.0865,24.70645 C188.0865,24.84645 188.074385,24.9882 188.064,25.0582 L183.8565,25.0582 C183.879,26.0697 184.600731,26.7732 185.542269,26.7732 C186.447462,26.7732 186.900923,26.26745 187.110346,25.63395 L188.051885,25.9612 Z" id="Fill-24" fill="#F6F0F6"></path>
                        <path d="M192.584423,23.036075 C192.423462,23.011575 192.260769,23.001075 192.110192,23.001075 C191.189423,23.001075 190.575,23.496325 190.575,24.742325 L190.575,27.573825 L189.482885,27.573825 L189.482885,21.919575 L190.550769,21.919575 L190.550769,22.908325 C190.959231,22.038575 191.655,21.828575 192.224423,21.828575 C192.376731,21.828575 192.527308,21.849575 192.584423,21.861825 L192.584423,23.036075 Z" id="Fill-25" fill="#F6F0F6"></path>
                        <path d="M197.4555,24.1657 C197.433,23.3537 196.910308,22.7202 195.922038,22.7202 C195.003,22.7202 194.445692,23.43595 194.398962,24.1657 L197.4555,24.1657 Z M198.559731,25.9612 C198.246462,26.9622 197.348192,27.7497 196.050115,27.7497 C194.549538,27.7497 193.235885,26.64545 193.235885,24.72745 C193.235885,22.95645 194.504538,21.7437 195.909923,21.7437 C197.630308,21.7437 198.594346,22.9442 198.594346,24.70645 C198.594346,24.84645 198.5805,24.9882 198.571846,25.0582 L194.364346,25.0582 C194.388577,26.0697 195.108577,26.7732 196.050115,26.7732 C196.957038,26.7732 197.4105,26.26745 197.619923,25.63395 L198.559731,25.9612 Z" id="Fill-26" fill="#F6F0F6"></path>
                        <path d="M202.281058,26.749575 C203.279712,26.749575 203.897596,25.869325 203.897596,24.705575 C203.897596,23.541825 203.291827,22.742075 202.293173,22.742075 C201.292788,22.742075 200.642019,23.566325 200.642019,24.728325 C200.642019,25.892075 201.235673,26.749575 202.281058,26.749575 L202.281058,26.749575 Z M203.904519,26.712825 C203.639712,27.255325 203.047788,27.724325 202.17375,27.724325 C200.536442,27.724325 199.525673,26.408325 199.525673,24.728325 C199.525673,23.130575 200.595288,21.767325 202.17375,21.767325 C203.16375,21.767325 203.698558,22.260825 203.885481,22.719325 L203.885481,19.065325 L204.965481,19.065325 L204.965481,26.527325 C204.965481,27.066325 205.012212,27.479325 205.022596,27.572075 L203.966827,27.572075 C203.942596,27.442575 203.904519,27.150325 203.904519,26.809075 L203.904519,26.712825 Z" id="Fill-27" fill="#F6F0F6"></path>
                        <path d="M120.008769,7.862 C119.951654,7.4735 119.636654,6.8155 118.638,6.8155 C117.952615,6.8155 117.511269,7.25125 117.511269,7.70975 C117.511269,8.1105 117.753577,8.4045 118.323,8.50775 L119.428962,8.7195 C120.997038,9.0135 121.8105,10.0355 121.8105,11.22375 C121.8105,12.5275 120.7305,13.85575 118.766077,13.85575 C116.488385,13.85575 115.5105,12.36125 115.394538,11.187 L117.080308,10.77575 C117.151269,11.54225 117.661846,12.209 118.788577,12.209 C119.510308,12.209 119.951654,11.85725 119.951654,11.33925 C119.951654,10.9175 119.614154,10.61125 119.067231,10.508 L117.942231,10.29625 C116.5455,10.02325 115.697423,9.0835 115.697423,7.84975 C115.697423,6.2765 117.069923,5.17225 118.650115,5.17225 C120.706269,5.17225 121.486846,6.41825 121.659923,7.39125 L120.008769,7.862 Z" id="Fill-28" fill="#F6F0F6"></path>
                        <path d="M125.217865,7.839775 L126.344596,7.839775 L126.344596,9.402525 L125.217865,9.402525 L125.217865,11.588275 C125.217865,12.069525 125.470558,12.197275 125.856519,12.197275 C126.043442,12.197275 126.216519,12.164025 126.322096,12.141275 L126.322096,13.621775 C126.252865,13.655025 125.962096,13.782775 125.401327,13.782775 C124.207096,13.782775 123.47325,13.067025 123.47325,11.903275 L123.47325,9.402525 L122.450365,9.402525 L122.450365,7.839775 L122.741135,7.839775 C123.346904,7.839775 123.635942,7.428525 123.635942,6.886025 L123.635942,6.133525 L125.217865,6.133525 L125.217865,7.839775 Z" id="Fill-29" fill="#F6F0F6"></path>
                        <path d="M130.785404,11.38755 L130.785404,11.12855 L129.693288,11.3053 C129.321173,11.36305 129.042519,11.5398 129.042519,11.95105 C129.042519,12.2573 129.239827,12.5513 129.727904,12.5513 C130.250596,12.5513 130.785404,12.2923 130.785404,11.38755 M129.007904,10.30605 L130.366558,10.0943 C130.678096,10.04705 130.785404,9.8948 130.785404,9.6953 C130.785404,9.35405 130.494635,9.06005 129.937327,9.06005 C129.321173,9.06005 128.983673,9.48355 128.947327,9.9193 L127.415596,9.6008 C127.484827,8.76605 128.251558,7.66355 129.949442,7.66355 C131.820404,7.66355 132.505788,8.72055 132.505788,9.9193 L132.505788,12.77355 C132.505788,13.23205 132.562904,13.62055 132.575019,13.6783 L130.982712,13.6783 C130.970596,13.63105 130.925596,13.42105 130.925596,13.0203 C130.622712,13.5138 130.065404,13.8428 129.298673,13.8428 C128.030019,13.8428 127.297904,12.99755 127.297904,12.0683 C127.297904,11.03405 128.05425,10.4478 129.007904,10.30605" id="Fill-30" fill="#F6F0F6"></path>
                        <path d="M135.761365,13.6776 L133.99425,13.6776 L133.99425,7.83785 L135.70425,7.83785 L135.70425,8.50985 C136.015788,7.9551 136.727135,7.6856 137.319058,7.6856 C138.771173,7.6856 139.421942,8.7321 139.421942,10.01135 L139.421942,13.6776 L137.656558,13.6776 L137.656558,10.3176 C137.656558,9.7436 137.353673,9.30785 136.715019,9.30785 C136.133481,9.30785 135.761365,9.7436 135.761365,10.32985 L135.761365,13.6776 Z" id="Fill-31" fill="#F6F0F6"></path>
                        <path d="M142.94475,9.341975 L142.94475,13.680225 L141.177635,13.680225 L141.177635,9.341975 L140.260327,9.341975 L140.260327,7.840475 L141.177635,7.840475 L141.177635,7.334725 C141.177635,5.994225 141.978981,5.077225 143.387827,5.077225 C143.747827,5.077225 144.061096,5.126225 144.223788,5.208475 L144.223788,6.664475 C144.132058,6.639975 143.97975,6.606725 143.701096,6.606725 C143.387827,6.606725 142.94475,6.746725 142.94475,7.394225 L142.94475,7.840475 L144.201288,7.840475 L144.201288,9.341975 L142.94475,9.341975 Z" id="Fill-32" fill="#F6F0F6"></path>
                        <path d="M149.002442,10.751775 C149.002442,9.766525 148.374173,9.308025 147.699173,9.308025 C147.038019,9.308025 146.397635,9.766525 146.397635,10.751775 C146.397635,11.730025 147.038019,12.211275 147.699173,12.211275 C148.374173,12.211275 149.002442,11.738775 149.002442,10.751775 M150.769558,10.751775 C150.769558,12.561275 149.431673,13.854525 147.699173,13.854525 C145.980519,13.854525 144.63225,12.561275 144.63225,10.751775 C144.63225,8.944025 145.980519,7.661275 147.699173,7.661275 C149.431673,7.661275 150.769558,8.944025 150.769558,10.751775" id="Fill-33" fill="#F6F0F6"></path>
                        <path d="M155.582481,9.601675 C155.385173,9.554425 155.19825,9.542175 155.025173,9.542175 C154.315558,9.542175 153.675173,9.965675 153.675173,11.129425 L153.675173,13.679175 L151.909788,13.679175 L151.909788,7.839425 L153.616327,7.839425 L153.616327,8.625175 C153.919212,7.967175 154.653058,7.779925 155.115173,7.779925 C155.291712,7.779925 155.466519,7.804425 155.582481,7.839425 L155.582481,9.601675 Z" id="Fill-34" fill="#F6F0F6"></path>
                        <path d="M159.243404,12.209525 C159.928788,12.209525 160.544942,11.716025 160.544942,10.751775 C160.544942,9.777025 159.928788,9.308025 159.243404,9.308025 C158.558019,9.308025 157.941865,9.777025 157.941865,10.751775 C157.941865,11.716025 158.558019,12.209525 159.243404,12.209525 L159.243404,12.209525 Z M162.265327,12.633025 C162.265327,13.161525 162.301673,13.550025 162.312058,13.677775 L160.615904,13.677775 C160.603788,13.607775 160.569173,13.348775 160.569173,13.114275 C160.300904,13.515025 159.719365,13.809025 159.023596,13.809025 C157.396673,13.809025 156.164365,12.538525 156.164365,10.741275 C156.164365,9.001775 157.325712,7.698025 158.96475,7.698025 C159.953019,7.698025 160.38225,8.074275 160.522442,8.296525 L160.522442,5.172775 L162.265327,5.172775 L162.265327,12.633025 Z" id="Fill-35" fill="#F6F0F6"></path>
                        <path d="M166.766538,10.669875 L166.766538,5.346375 L168.602885,5.346375 L168.602885,10.517625 C168.602885,11.527375 169.160192,12.033125 170.0325,12.033125 C170.904808,12.033125 171.462115,11.527375 171.462115,10.517625 L171.462115,5.346375 L173.295,5.346375 L173.295,10.669875 C173.295,12.761125 171.846346,13.865375 170.0325,13.865375 C168.218654,13.865375 166.766538,12.761125 166.766538,10.669875" id="Fill-36" fill="#F6F0F6"></path>
                        <path d="M176.612019,13.6776 L174.844904,13.6776 L174.844904,7.83785 L176.553173,7.83785 L176.553173,8.50985 C176.866442,7.9551 177.577788,7.6856 178.167981,7.6856 C179.621827,7.6856 180.272596,8.7321 180.272596,10.01135 L180.272596,13.6776 L178.507212,13.6776 L178.507212,10.3176 C178.507212,9.7436 178.204327,9.30785 177.565673,9.30785 C176.984135,9.30785 176.612019,9.7436 176.612019,10.32985 L176.612019,13.6776 Z" id="Fill-37" fill="#F6F0F6"></path>
                        <path d="M181.761923,13.6776 L183.529038,13.6776 L183.529038,7.83785 L181.761923,7.83785 L181.761923,13.6776 Z M182.634231,5.00635 C183.215769,5.00635 183.679615,5.4771 183.679615,6.0546 C183.679615,6.63035 183.215769,7.09935 182.634231,7.09935 C182.076923,7.09935 181.611346,6.63035 181.611346,6.0546 C181.611346,5.4771 182.076923,5.00635 182.634231,5.00635 L182.634231,5.00635 Z" id="Fill-38" fill="#F6F0F6"></path>
                        <polygon id="Fill-39" fill="#F6F0F6" points="188.561769 13.6776 186.784269 13.6776 184.414846 7.83785 186.330808 7.83785 187.665231 11.4691 188.897538 7.83785 190.759846 7.83785"></polygon>
                        <path d="M195.129865,10.05965 C195.105635,9.6134 194.806212,9.07265 193.968519,9.07265 C193.222558,9.07265 192.852173,9.6239 192.817558,10.05965 L195.129865,10.05965 Z M196.734288,11.99865 C196.455635,13.0084 195.536596,13.8554 194.072365,13.8554 C192.480058,13.8554 191.060827,12.7039 191.060827,10.74215 C191.060827,8.8609 192.445442,7.66215 193.942558,7.66215 C195.735635,7.66215 196.838135,8.77865 196.838135,10.65815 C196.838135,10.9049 196.815635,11.17615 196.803519,11.21115 L192.782942,11.21115 C192.817558,11.86915 193.409481,12.3399 194.094865,12.3399 C194.733519,12.3399 195.093519,12.03365 195.257942,11.57515 L196.734288,11.99865 Z" id="Fill-40" fill="#F6F0F6"></path>
                        <path d="M201.650712,9.601675 C201.453404,9.554425 201.266481,9.542175 201.093404,9.542175 C200.38725,9.542175 199.743404,9.965675 199.743404,11.129425 L199.743404,13.679175 L197.978019,13.679175 L197.978019,7.839425 L199.686288,7.839425 L199.686288,8.625175 C199.989173,7.967175 200.721288,7.779925 201.185135,7.779925 C201.359942,7.779925 201.536481,7.804425 201.650712,7.839425 L201.650712,9.601675 Z" id="Fill-41" fill="#F6F0F6"></path>
                        <path d="M203.790462,11.75155 C203.814692,12.1523 204.093346,12.53905 204.697385,12.53905 C205.150846,12.53905 205.370654,12.2923 205.370654,12.0333 C205.370654,11.8233 205.232192,11.6448 204.802962,11.55205 L204.140077,11.3998 C202.907769,11.12855 202.419692,10.4233 202.419692,9.6008 C202.419692,8.53155 203.349115,7.66355 204.638538,7.66355 C206.313923,7.66355 206.893731,8.72055 206.952577,9.4013 L205.486615,9.67255 C205.441615,9.28405 205.195846,8.95505 204.662769,8.95505 C204.327,8.95505 204.036231,9.15455 204.036231,9.4608 C204.036231,9.70755 204.233538,9.8493 204.487962,9.8948 L205.256423,10.04705 C206.452385,10.2938 207.033923,11.02355 207.033923,11.88105 C207.033923,12.88205 206.277577,13.85505 204.732,13.85505 C202.919885,13.85505 202.338346,12.66855 202.291615,12.02105 L203.790462,11.75155 Z" id="Fill-42" fill="#F6F0F6"></path>
                        <path d="M208.185577,13.6776 L209.952692,13.6776 L209.952692,7.83785 L208.185577,7.83785 L208.185577,13.6776 Z M209.057885,5.00635 C209.639423,5.00635 210.103269,5.4771 210.103269,6.0546 C210.103269,6.63035 209.639423,7.09935 209.057885,7.09935 C208.498846,7.09935 208.035,6.63035 208.035,6.0546 C208.035,5.4771 208.498846,5.00635 209.057885,5.00635 L209.057885,5.00635 Z" id="Fill-43" fill="#F6F0F6"></path>
                        <path d="M213.613962,7.839775 L214.740692,7.839775 L214.740692,9.402525 L213.613962,9.402525 L213.613962,11.588275 C213.613962,12.069525 213.866654,12.197275 214.252615,12.197275 C214.439538,12.197275 214.612615,12.164025 214.718192,12.141275 L214.718192,13.621775 C214.648962,13.655025 214.358192,13.782775 213.799154,13.782775 C212.603192,13.782775 211.871077,13.067025 211.871077,11.903275 L211.871077,9.402525 L210.846462,9.402525 L210.846462,7.839775 L211.137231,7.839775 C211.743,7.839775 212.033769,7.428525 212.033769,6.886025 L212.033769,6.133525 L213.613962,6.133525 L213.613962,7.839775 Z" id="Fill-44" fill="#F6F0F6"></path>
                        <polygon id="Fill-45" fill="#F6F0F6" points="216.566654 15.9232 217.880308 12.8922 215.448577 7.8382 217.426846 7.8382 218.833962 10.96545 220.111269 7.8382 221.982231 7.8382 218.4255 15.9232"></polygon>
                        <path d="M117.708404,38.240775 L120.545135,38.240775 L119.113788,34.504525 L117.708404,38.240775 Z M120.950135,39.310025 L117.301673,39.310025 L116.429365,41.635775 L115.209173,41.635775 L118.48725,33.305775 L119.800904,33.305775 L123.080712,41.635775 L121.846673,41.635775 L120.950135,39.310025 Z" id="Fill-46" fill="#F6F0F6"></path>
                        <path d="M127.171904,37.101 C127.007481,37.07825 126.846519,37.066 126.694212,37.066 C125.775173,37.066 125.16075,37.5595 125.16075,38.8055 L125.16075,41.637 L124.066904,41.637 L124.066904,35.9845 L125.136519,35.9845 L125.136519,36.9715 C125.544981,36.10175 126.24075,35.89175 126.810173,35.89175 C126.96075,35.89175 127.113058,35.9145 127.171904,35.92675 L127.171904,37.101 Z" id="Fill-47" fill="#F6F0F6"></path>
                        <path d="M130.089115,35.985025 L131.297192,35.985025 L131.297192,36.984275 L130.089115,36.984275 L130.089115,39.920775 C130.089115,40.437025 130.298538,40.696025 130.867962,40.696025 C131.006423,40.696025 131.205462,40.673275 131.297192,40.650525 L131.297192,41.590275 C131.205462,41.625275 130.925077,41.695275 130.554692,41.695275 C129.601038,41.695275 128.995269,41.107275 128.995269,40.085275 L128.995269,36.984275 L127.927385,36.984275 L127.927385,35.985025 L128.228538,35.985025 C128.832577,35.985025 129.088731,35.608775 129.088731,35.115275 L129.088731,34.198275 L130.089115,34.198275 L130.089115,35.985025 Z" id="Fill-48" fill="#F6F0F6"></path>
                        <path d="M132.751731,41.6356 L133.833462,41.6356 L133.833462,35.98485 L132.751731,35.98485 L132.751731,41.6356 Z M133.284808,33.0466 C133.727885,33.0466 134.075769,33.40185 134.075769,33.84635 C134.075769,34.28035 133.727885,34.63385 133.284808,34.63385 C132.855577,34.63385 132.505962,34.28035 132.505962,33.84635 C132.505962,33.40185 132.855577,33.0466 133.284808,33.0466 L133.284808,33.0466 Z" id="Fill-49" fill="#F6F0F6"></path>
                        <path d="M140.306365,33.025075 C140.747712,33.025075 141.097327,33.375075 141.097327,33.823075 C141.097327,34.257075 140.747712,34.608825 140.306365,34.608825 C139.877135,34.608825 139.527519,34.257075 139.527519,33.823075 C139.527519,33.375075 139.877135,33.025075 140.306365,33.025075 M138.51675,33.210575 L138.51675,34.199325 C138.459635,34.174825 138.319442,34.129325 138.037327,34.129325 C137.656558,34.129325 137.156365,34.302575 137.156365,35.081325 L137.156365,35.984325 L140.849827,35.984325 L140.849827,41.636825 L139.768096,41.636825 L139.768096,36.985325 L137.156365,36.985325 L137.156365,41.636825 L136.029635,41.636825 L136.029635,36.985325 L134.994635,36.985325 L134.994635,35.984325 L136.029635,35.984325 L136.029635,35.032325 C136.029635,33.777575 136.855212,33.095075 137.865981,33.095075 C138.238096,33.095075 138.468288,33.177325 138.51675,33.210575" id="Fill-50" fill="#F6F0F6"></path>
                        <path d="M143.363942,38.8048 C143.363942,40.09805 144.167019,40.79105 145.072212,40.79105 C146.119327,40.79105 146.501827,40.07355 146.631635,39.6273 L147.593942,40.0508 C147.327404,40.86105 146.526058,41.81305 145.072212,41.81305 C143.445288,41.81305 142.245865,40.5198 142.245865,38.8048 C142.245865,37.04255 143.469519,35.8088 145.058365,35.8088 C146.548558,35.8088 147.315288,36.74855 147.548942,37.60605 L146.560673,38.02955 C146.422212,37.47655 146.01375,36.8308 145.058365,36.8308 C144.179135,36.8308 143.363942,37.4888 143.363942,38.8048" id="Fill-51" fill="#F6F0F6"></path>
                        <path d="M148.873846,41.6356 L149.955577,41.6356 L149.955577,35.98485 L148.873846,35.98485 L148.873846,41.6356 Z M149.410385,33.0466 C149.851731,33.0466 150.199615,33.40185 150.199615,33.84635 C150.199615,34.28035 149.851731,34.63385 149.410385,34.63385 C148.979423,34.63385 148.629808,34.28035 148.629808,33.84635 C148.629808,33.40185 148.979423,33.0466 149.410385,33.0466 L149.410385,33.0466 Z" id="Fill-52" fill="#F6F0F6"></path>
                        <path d="M155.105827,39.21675 L155.105827,38.9595 L153.397558,39.21675 C152.931981,39.2885 152.582365,39.55625 152.582365,40.06025 C152.582365,40.4855 152.931981,40.8845 153.489288,40.8845 C154.385827,40.8845 155.105827,40.44875 155.105827,39.21675 M153.163904,38.40475 L154.674865,38.18075 C155.012365,38.13525 155.105827,37.9585 155.105827,37.759 C155.105827,37.20775 154.745827,36.74925 153.896019,36.74925 C153.129288,36.74925 152.698327,37.22875 152.629096,37.88675 L151.583712,37.6435 C151.699673,36.56025 152.665442,35.8095 153.873519,35.8095 C155.547173,35.8095 156.197942,36.77375 156.197942,37.87625 L156.197942,40.7095 C156.197942,41.203 156.244673,41.497 156.267173,41.637 L155.199288,41.637 C155.175058,41.497 155.140442,41.28525 155.140442,40.87225 C154.896404,41.273 154.339096,41.812 153.338712,41.812 C152.199865,41.812 151.464288,41.01225 151.464288,40.1215 C151.464288,39.10825 152.199865,38.54475 153.163904,38.40475" id="Fill-53" fill="#F6F0F6"></path>
                        <polygon id="Fill-54" fill="#F6F0F6" points="157.896346 41.6356 158.988462 41.6356 158.988462 33.12885 157.896346 33.12885"></polygon>
                        <polygon id="Fill-55" fill="#F6F0F6" points="163.870962 41.63735 165.034038 41.63735 165.034038 33.3056 163.870962 33.3056"></polygon>
                        <path d="M168.101827,41.63665 L167.009712,41.63665 L167.009712,35.9859 L168.079327,35.9859 L168.079327,36.79615 C168.486058,36.0909 169.147212,35.81965 169.79625,35.81965 C171.135865,35.81965 171.79875,36.79615 171.79875,38.05265 L171.79875,41.63665 L170.706635,41.63665 L170.706635,38.2434 C170.706635,37.45415 170.379519,36.8189 169.403365,36.8189 C168.544904,36.8189 168.101827,37.5119 168.101827,38.3694 L168.101827,41.63665 Z" id="Fill-56" fill="#F6F0F6"></path>
                        <path d="M175.007942,35.985025 L176.216019,35.985025 L176.216019,36.984275 L175.007942,36.984275 L175.007942,39.920775 C175.007942,40.437025 175.215635,40.696025 175.786788,40.696025 C175.92525,40.696025 176.124288,40.673275 176.216019,40.650525 L176.216019,41.590275 C176.124288,41.625275 175.843904,41.695275 175.473519,41.695275 C174.519865,41.695275 173.914096,41.107275 173.914096,40.085275 L173.914096,36.984275 L172.846212,36.984275 L172.846212,35.985025 L173.147365,35.985025 C173.751404,35.985025 174.007558,35.608775 174.007558,35.115275 L174.007558,34.198275 L175.007942,34.198275 L175.007942,35.985025 Z" id="Fill-57" fill="#F6F0F6"></path>
                        <path d="M181.378385,38.228875 C181.354154,37.418625 180.831462,36.783375 179.843192,36.783375 C178.925885,36.783375 178.366846,37.500875 178.320115,38.228875 L181.378385,38.228875 Z M182.482615,40.026125 C182.167615,41.025375 181.272808,41.812875 179.973,41.812875 C178.472423,41.812875 177.158769,40.708625 177.158769,38.792375 C177.158769,37.019625 178.425692,35.808625 179.829346,35.808625 C181.553192,35.808625 182.517231,37.007375 182.517231,38.769625 C182.517231,38.911375 182.505115,39.051375 182.494731,39.121375 L178.287231,39.121375 C178.309731,40.132875 179.031462,40.838125 179.973,40.838125 C180.878192,40.838125 181.331654,40.332375 181.541077,39.697125 L182.482615,40.026125 Z" id="Fill-58" fill="#F6F0F6"></path>
                        <polygon id="Fill-59" fill="#F6F0F6" points="183.911538 41.6356 185.005385 41.6356 185.005385 33.12885 183.911538 33.12885"></polygon>
                        <polygon id="Fill-60" fill="#F6F0F6" points="186.864231 41.6356 187.958077 41.6356 187.958077 33.12885 186.864231 33.12885"></polygon>
                        <path d="M189.816923,41.6356 L190.898654,41.6356 L190.898654,35.98485 L189.816923,35.98485 L189.816923,41.6356 Z M190.353462,33.0466 C190.794808,33.0466 191.142692,33.40185 191.142692,33.84635 C191.142692,34.28035 190.794808,34.63385 190.353462,34.63385 C189.9225,34.63385 189.574615,34.28035 189.574615,33.84635 C189.574615,33.40185 189.9225,33.0466 190.353462,33.0466 L190.353462,33.0466 Z" id="Fill-61" fill="#F6F0F6"></path>
                        <path d="M196.68825,38.62875 C196.68825,37.535 196.037481,36.81925 195.095942,36.81925 C194.128442,36.81925 193.479404,37.535 193.479404,38.62875 C193.479404,39.733 194.107673,40.43825 195.095942,40.43825 C196.037481,40.43825 196.68825,39.7225 196.68825,38.62875 L196.68825,38.62875 Z M193.408442,41.69475 C193.489788,42.48225 194.083442,43.08075 194.931519,43.08075 C196.106712,43.08075 196.641519,42.47 196.641519,41.2485 L196.641519,40.43825 C196.37325,40.9545 195.769212,41.36575 194.931519,41.36575 C193.444788,41.36575 192.364788,40.2265 192.364788,38.62875 C192.364788,37.101 193.398058,35.8795 194.931519,35.8795 C195.791712,35.8795 196.37325,36.2085 196.651904,36.772 L196.651904,35.9845 L197.733635,35.9845 L197.733635,41.2135 C197.733635,42.64675 197.036135,44.045 194.931519,44.045 C193.53825,44.045 192.491135,43.1525 192.352673,41.9415 L193.408442,41.69475 Z" id="Fill-62" fill="#F6F0F6"></path>
                        <path d="M203.244577,38.228875 C203.220346,37.418625 202.697654,36.783375 201.709385,36.783375 C200.792077,36.783375 200.234769,37.500875 200.186308,38.228875 L203.244577,38.228875 Z M204.348808,40.026125 C204.033808,41.025375 203.139,41.812875 201.839192,41.812875 C200.338615,41.812875 199.024962,40.708625 199.024962,38.792375 C199.024962,37.019625 200.291885,35.808625 201.697269,35.808625 C203.419385,35.808625 204.383423,37.007375 204.383423,38.769625 C204.383423,38.911375 204.371308,39.051375 204.362654,39.121375 L200.153423,39.121375 C200.177654,40.132875 200.897654,40.838125 201.839192,40.838125 C202.744385,40.838125 203.197846,40.332375 203.407269,39.697125 L204.348808,40.026125 Z" id="Fill-63" fill="#F6F0F6"></path>
                        <path d="M206.87175,41.63665 L205.779635,41.63665 L205.779635,35.9859 L206.847519,35.9859 L206.847519,36.79615 C207.255981,36.0909 207.917135,35.81965 208.567904,35.81965 C209.905788,35.81965 210.568673,36.79615 210.568673,38.05265 L210.568673,41.63665 L209.474827,41.63665 L209.474827,38.2434 C209.474827,37.45415 209.149442,36.8189 208.173288,36.8189 C207.313096,36.8189 206.87175,37.5119 206.87175,38.3694 L206.87175,41.63665 Z" id="Fill-64" fill="#F6F0F6"></path>
                        <path d="M212.963192,38.8048 C212.963192,40.09805 213.764538,40.79105 214.671462,40.79105 C215.718577,40.79105 216.101077,40.07355 216.229154,39.6273 L217.193192,40.0508 C216.926654,40.86105 216.123577,41.81305 214.671462,41.81305 C213.044538,41.81305 211.845115,40.5198 211.845115,38.8048 C211.845115,37.04255 213.068769,35.8088 214.657615,35.8088 C216.147808,35.8088 216.914538,36.74855 217.148192,37.60605 L216.159923,38.02955 C216.021462,37.47655 215.613,36.8308 214.657615,36.8308 C213.776654,36.8308 212.963192,37.4888 212.963192,38.8048" id="Fill-65" fill="#F6F0F6"></path>
                        <path d="M222.181615,38.228875 C222.157385,37.418625 221.636423,36.783375 220.646423,36.783375 C219.729115,36.783375 219.171808,37.500875 219.123346,38.228875 L222.181615,38.228875 Z M223.285846,40.026125 C222.972577,41.025375 222.074308,41.812875 220.776231,41.812875 C219.275654,41.812875 217.962,40.708625 217.962,38.792375 C217.962,37.019625 219.228923,35.808625 220.636038,35.808625 C222.356423,35.808625 223.320462,37.007375 223.320462,38.769625 C223.320462,38.911375 223.308346,39.051375 223.297962,39.121375 L219.090462,39.121375 C219.114692,40.132875 219.834692,40.838125 220.776231,40.838125 C221.681423,40.838125 222.134885,40.332375 222.344308,39.697125 L223.285846,40.026125 Z" id="Fill-66" fill="#F6F0F6"></path>
                    </g>
                    <g id="Group-19" transform="translate(281.000000, 14.000000)">
                        <path d="M36.30624,28.655808 C31.40448,28.655808 31.02624,24.936768 31.02624,23.792448 C31.02624,22.450368 31.3872,20.077248 34.51104,18.929088 C37.7328,17.744448 38.424,17.606208 40.6416,16.911168 L40.6416,16.337088 C40.6416,15.261888 40.6416,14.998848 40.42848,14.332608 C40.00032,13.053888 38.77344,12.251328 37.11072,12.251328 C34.66464,12.251328 33.66048,14.119488 33.6528,14.138688 L33.45888,14.503488 L32.55072,13.963968 L32.64096,13.683648 C33.08256,12.278208 34.85856,9.885888 38.7408,9.885888 C41.26176,9.885888 42.90528,10.603968 43.92288,12.147648 C44.68128,13.372608 44.7408,15.067968 44.7408,16.840128 C44.7408,18.395328 44.7024,20.131008 44.66976,21.528768 C44.64672,22.488768 44.62752,23.322048 44.62752,23.828928 C44.62752,25.105728 44.83104,26.098368 45.89472,26.098368 C46.15968,26.098368 46.34016,26.042688 46.48608,25.917888 L46.77792,25.668288 L47.37504,26.347968 L47.17536,26.605248 C46.19808,27.784128 45.26496,28.617408 43.60416,28.617408 C42.16608,28.617408 41.1696,27.935808 40.8336,26.785728 C40.03488,27.620928 38.58144,28.655808 36.30624,28.655808 L36.30624,28.655808 Z M40.6416,19.146048 C38.232,19.869888 37.41408,20.271168 36.66912,20.647488 C35.63232,21.173568 35.09088,22.239168 35.09088,23.489088 C35.09088,24.466368 35.44032,26.109888 37.7904,26.109888 C38.56608,26.109888 39.67392,25.965888 40.6416,25.272768 L40.6416,19.146048 Z" id="Fill-1" fill="#FEFEFE"></path>
                        <path d="M6.35904,28.609152 C4.0128,28.609152 2.2272,28.351872 0.3936,27.756672 L0.12864,27.668352 L0.12864,26.353152 C0.12864,24.604032 0.09024,23.916672 0.05376,23.359872 L0,22.449792 L1.06752,22.453632 L1.09056,22.831872 C1.13472,23.649792 1.40928,24.450432 1.90848,25.014912 C2.67648,25.884672 4.44864,26.408832 6.09216,26.408832 C9.54048,26.408832 11.14368,25.105152 11.14368,22.301952 C11.14368,19.903872 9.66144,18.903552 7.6128,17.523072 L7.28448,17.294592 L5.12064,15.854592 C2.11392,13.861632 0.58368,12.266112 0.58368,9.080832 C0.58368,7.521792 1.17312,2.431872 8.75328,2.431872 C11.86368,2.431872 14.26176,2.838912 14.36352,2.854272 L14.68992,2.911872 L14.6784,3.234432 C14.6784,3.242112 14.65152,4.230912 14.65152,5.302272 C14.65152,6.147072 14.63808,6.882432 14.66688,7.640832 L14.6976,8.207232 L13.77792,8.207232 L13.7568,7.852032 C13.68768,6.890112 13.40736,6.196992 12.87936,5.667072 C12.14976,4.937472 10.53696,4.593792 8.82816,4.593792 C4.81152,4.593792 4.34304,6.659712 4.34304,8.207232 C4.34304,10.338432 5.43744,11.060352 7.824,12.638592 L10.56192,14.452992 C12.89664,16.010112 15.09696,17.478912 15.09696,21.349632 C15.09696,27.902592 8.9856,28.609152 6.35904,28.609152" id="Fill-3" fill="#FEFEFE"></path>
                        <path d="M24.31776,28.723584 C21.52032,28.723584 19.97088,27.723264 19.28352,25.492224 C18.99744,24.603264 18.99744,22.854144 18.99744,21.807744 C18.99744,18.918144 19.02432,16.598784 19.05504,13.912704 L19.0704,12.653184 L16.68192,12.653184 L16.68192,11.942784 L16.91616,11.846784 C18.02784,11.387904 18.45024,11.076864 18.94176,10.694784 C20.67936,9.346944 21.88704,7.071744 21.90624,7.037184 L22.31328,6.347904 L23.10048,6.347904 L23.10048,10.412544 L29.25984,10.412544 L29.25984,12.653184 L23.10048,12.653184 L23.10048,22.147584 C23.10048,24.983424 23.6304,26.603904 26.31648,26.603904 C27.56256,26.603904 28.52256,26.121984 28.53024,26.112384 L28.90272,25.920384 L29.21952,26.655744 L29.064,26.832384 C28.99872,26.903424 27.6048,28.723584 24.31776,28.723584" id="Fill-5" fill="#FEFEFE"></path>
                        <path d="M48.91776,28.49664 L48.91776,27.6384 L49.2672,27.61152 C49.57056,27.58656 50.33472,27.4656 50.8704,26.86272 C51.42912,26.23872 51.46176,24.69696 51.46176,21.61728 L51.46176,16.45056 C51.46176,14.22528 51.42912,13.27104 51.10656,12.7872 C50.736,12.25536 49.91808,12.19968 49.48416,12.16704 C49.42848,12.16512 49.37856,12.15936 49.3344,12.15552 L48.9888,12.12096 L48.9888,11.088 L49.39776,11.1168 C49.4688,11.1264 49.55904,11.1264 49.67616,11.1264 C50.23488,11.1264 51.552,11.05344 52.944,10.78272 C54.00576,10.61568 54.62592,10.24512 54.85056,10.13952 L55.056,10.04544 L55.41312,10.25664 L55.41312,11.6928 C56.32512,11.01696 58.16064,9.9552 60.6528,9.9552 C63.91488,9.9552 66.04224,11.47968 66.64896,14.24256 C66.82176,14.92992 66.88512,16.59264 66.88512,17.47968 L66.88512,22.75776 C66.88512,25.73952 67.00224,26.57856 67.56288,27.10272 C67.8432,27.36192 68.44032,27.57696 68.96064,27.6096 L69.31776,27.63456 L69.31776,28.47936 L68.42112,28.43136 C67.12128,28.368 66.00384,28.30464 64.83264,28.30464 C63.49824,28.30464 62.34048,28.30464 60.72768,28.45632 L60.31104,28.49664 L60.31104,27.65952 L60.63552,27.61536 C61.33632,27.50784 61.824,27.30816 62.13504,26.99904 C62.72064,26.41344 62.75136,25.02144 62.79744,23.81952 C62.8032,23.62176 62.81088,23.4144 62.8224,23.19552 C62.85696,22.5216 62.85696,21.09888 62.85696,20.06016 C62.85696,18.70656 62.85696,17.30688 62.70912,15.92448 C62.4384,13.58592 61.2192,12.4992 58.87104,12.4992 C57.25632,12.4992 56.2464,12.86784 55.48416,13.25952 L55.48416,22.75776 C55.48416,25.73952 55.60512,26.57856 56.16384,27.10272 C56.44992,27.36192 57.03744,27.57696 57.56352,27.6096 L57.9168,27.63456 L57.9168,28.47936 L56.9568,28.42944 C55.70304,28.36416 54.61824,28.30464 53.47776,28.30464 C52.17024,28.30464 50.94528,28.30464 49.32672,28.45632 L48.91776,28.49664 Z" id="Fill-7" fill="#FEFEFE"></path>
                        <g id="Group-11" transform="translate(71.040000, 0.000384)">
                            <mask id="mask-2" fill="white">
                                <use xlink:href="#path-1"></use>
                            </mask>
                            <g id="Clip-10"></g>
                            <path d="M0.428544,28.496256 L0.428544,27.620736 L0.781824,27.591936 C1.089024,27.570816 1.855104,27.451776 2.388864,26.848896 C2.949504,26.222976 2.976384,24.696576 2.976384,21.616896 L2.976384,12.652416 L0.620544,12.652416 L0.620544,11.638656 L0.856704,11.540736 C1.881984,11.116416 2.511744,10.782336 2.976384,10.419456 C2.980224,8.818176 3.028224,6.750336 3.247104,5.627136 C3.961344,1.894656 6.399744,-0.000384 10.500864,-0.000384 C12.261504,-0.000384 13.939584,0.587136 14.914944,1.378176 L15.053184,1.491456 L15.108864,1.875456 L13.315584,4.369536 L12.883584,4.375296 L12.787584,4.146816 C12.100224,2.614656 11.103744,2.015616 9.740544,2.015616 C9.174144,2.015616 8.398464,2.184576 7.918464,2.664576 C7.135104,3.444096 7.004544,4.611456 7.004544,6.915456 L7.004544,10.411776 L11.030784,10.411776 L11.030784,12.652416 L7.004544,12.652416 L7.004544,22.680576 C7.004544,25.067136 7.083264,26.228736 7.394304,26.697216 C7.901184,27.457536 9.435264,27.515136 9.890304,27.515136 L10.272384,27.515136 L10.272384,28.478976 L9.871104,28.455936 C7.881984,28.352256 6.399744,28.304256 5.330304,28.304256 C3.988224,28.304256 2.463744,28.304256 0.845184,28.455936 L0.428544,28.496256 Z" id="Fill-9" fill="#FEFEFE" mask="url(#mask-2)"></path>
                        </g>
                        <path d="M92.264448,28.800384 C86.748288,28.800384 83.451648,25.363584 83.451648,19.607424 C83.451648,15.135744 85.857408,9.915264 92.646528,9.915264 C98.166528,9.915264 101.463168,13.355904 101.463168,19.108224 C101.463168,23.581824 99.053568,28.800384 92.264448,28.800384 M92.492928,12.004224 C91.425408,12.004224 90.563328,12.280704 89.933568,12.827904 C88.480128,14.043264 87.744768,16.260864 87.744768,19.411584 C87.744768,20.630784 87.971328,26.711424 92.421888,26.711424 C93.483648,26.711424 94.347648,26.433024 94.985088,25.889664 C96.434688,24.674304 97.170048,22.454784 97.170048,19.304064 C97.170048,18.084864 96.943488,12.004224 92.492928,12.004224" id="Fill-12" fill="#FEFEFE"></path>
                        <path d="M103.206528,28.49664 L103.206528,27.5808 L103.559808,27.55392 C103.865088,27.5328 104.636928,27.41376 105.166848,26.80704 C105.727488,26.18304 105.750528,24.69696 105.750528,21.61728 L105.750528,16.45056 C105.750528,14.22528 105.721728,13.27104 105.403008,12.7872 C105.030528,12.25536 104.216448,12.19968 103.778688,12.16704 C103.726848,12.16512 103.673088,12.15936 103.636608,12.15552 L103.285248,12.12096 L103.285248,11.02464 L103.673088,11.03232 C103.740288,11.03808 103.857408,11.04192 103.968768,11.04192 C104.531328,11.04192 105.848448,10.97088 107.238528,10.69824 C108.115968,10.55232 108.870528,10.32768 109.173888,10.18368 L109.385088,10.0896 L109.703808,10.25664 L109.703808,11.8272 C110.569728,11.0112 111.944448,10.14336 113.885568,10.14336 C115.148928,10.14336 116.170368,10.48128 116.913408,11.15136 L117.036288,11.26656 L117.036288,11.83488 L115.513728,14.62464 L114.780288,14.62464 L114.668928,14.45184 C114.244608,13.7856 113.397888,12.99648 111.756288,12.99648 C111.005568,12.99648 110.356608,13.1808 109.782528,13.57056 L109.782528,22.68096 C109.782528,25.06752 109.861248,26.19456 110.172288,26.66112 C110.684928,27.4176 112.213248,27.47712 112.668288,27.47712 L113.046528,27.47712 L113.046528,28.47936 L112.649088,28.45632 C110.659968,28.35264 109.173888,28.30464 108.108288,28.30464 C106.766208,28.30464 105.241728,28.30464 103.625088,28.45632 L103.206528,28.49664 Z" id="Fill-14" fill="#FEFEFE"></path>
                        <g id="Group-18" transform="translate(117.120000, 0.000384)">
                            <mask id="mask-4" fill="white">
                                <use xlink:href="#path-3"></use>
                            </mask>
                            <g id="Clip-17"></g>
                            <path d="M14.511936,28.74912 L14.028096,28.58592 L14.028096,27.06336 C13.131456,27.72768 11.351616,28.76064 8.976576,28.76064 C4.011456,28.76064 0.801216,25.31808 0.801216,19.98432 C0.801216,18.216 1.148736,16.53408 1.790016,15.11904 C3.302976,11.83584 6.451776,9.95424 10.416576,9.95424 C11.870016,9.95424 13.173696,10.13472 13.949376,10.30176 L13.949376,6.45984 C13.949376,4.20576 13.918656,3.00384 13.596096,2.51808 C13.229376,1.99392 12.436416,1.93056 12.008256,1.89984 C11.952576,1.89792 11.902656,1.89408 11.862336,1.88832 L11.520576,1.85376 L11.599296,1.04352 L11.981376,1.04352 C12.067776,1.04352 14.158656,0.87072 15.855936,0.53664 C16.568256,0.42144 17.272896,0.26016 17.643456,0.12576 L17.822016,0.05856 L18.134976,0.24288 L18.119616,0.42144 C17.998656,1.91136 17.979456,5.09664 17.979456,7.4832 L17.979456,22.22496 C17.979456,24.4272 18.010176,25.7904 18.328896,26.23008 C18.703296,26.76768 19.492416,26.85792 19.918656,26.89056 C19.976256,26.89248 20.028096,26.89632 20.068416,26.90208 L20.408256,26.91552 L20.408256,27.88704 L20.031936,27.88704 C19.626816,27.88704 18.048576,27.9984 16.520256,28.25952 C15.642816,28.4016 14.995776,28.53024 14.677056,28.67616 L14.511936,28.74912 Z M10.337856,12.12 C6.814656,12.12 5.096256,14.53152 5.096256,19.49088 C5.096256,21.50112 5.664576,26.17632 10.913856,26.17632 L11.082816,26.17632 C11.720256,26.17632 12.910656,26.08032 13.949376,25.43904 L13.949376,13.3296 C13.653696,13.03776 12.555456,12.12 10.337856,12.12 L10.337856,12.12 Z" id="Fill-16" fill="#FEFEFE" mask="url(#mask-4)"></path>
                        </g>
                    </g>
                </g>
            </g>
        </g>
    </g>
</svg>