<?xml version="1.0" encoding="UTF-8"?>
<svg width="272px" height="103px" viewBox="0 0 272 103" version="1.1" xmlns="http://www.w3.org/2000/svg" xmlns:xlink="http://www.w3.org/1999/xlink">
    <title>DEL Logo</title>
    <defs>
        <polygon id="path-1" points="0 0.162690457 79.8079945 0.162690457 79.8079945 83.9997423 0 83.9997423"></polygon>
    </defs>
    <g id="Design-Copy" stroke="none" stroke-width="1" fill="none" fill-rule="evenodd">
        <g id="Home" transform="translate(-814.000000, -5948.000000)">
            <g id="Digital-Economy-Lab" transform="translate(0.000000, 5015.000000)">
                <g id="DEL-Logo" transform="translate(814.000000, 933.000000)">
                    <g id="Group-3" transform="translate(0.000000, 19.000000)">
                        <mask id="mask-2" fill="white">
                            <use xlink:href="#path-1"></use>
                        </mask>
                        <g id="Clip-2"></g>
                        <path d="M53.6747164,82.7775937 L66.6665852,48.6115781 L79.6943066,14.3512656 C80.0355689,13.4494687 79.5827656,12.44275 78.6811426,12.1000937 C78.3624541,11.9792344 78.0304869,11.9579844 77.7184377,12.0217344 L77.7171098,12.0164219 L57.5149131,16.0313437 L57.3024541,16.0725156 C56.5482246,16.0804844 55.2801098,14.8386875 55.2947164,13.5238437 L55.2960443,13.5012656 L55.5536508,1.95454687 C55.5748967,0.98634375 54.8087164,0.185484375 53.8407,0.162690457 C53.4914705,0.15759375 53.1648148,0.2505625 52.8872902,0.4205625 L1.01542131,27.3044687 C0.297044262,27.6365 -0.129201639,28.4293906 0.0341262295,29.2382187 C0.105831148,29.5941562 0.281109836,29.9022812 0.521454098,30.1386875 L50.7334869,83.4469687 C51.3921098,84.150875 52.4982246,84.1880625 53.203323,83.5266562 L53.212618,83.5186875 L53.2179295,83.513375 L53.223241,83.5080625 L53.2338639,83.4974375 L53.2444869,83.4868125 L53.2524541,83.4788437 L53.2551098,83.4761875 L53.263077,83.4682187 L53.2670607,83.4642344 L53.2737,83.4562656 L53.2829951,83.4469687 L53.293618,83.4350156 L53.2989295,83.4310312 L53.304241,83.4243906 L53.3135361,83.4137656 L53.3215033,83.4044687 L53.3281426,83.3978281 L53.3321262,83.3938437 L53.3414213,83.3818906 L53.3507164,83.3699375 L53.3573557,83.3632969 L53.3693066,83.3500156 L53.3706344,83.3460312 L53.3772738,83.3380625 L53.385241,83.3287656 L53.3945361,83.3154844 L53.3985197,83.3101719 L53.4038311,83.3035312 L53.4131262,83.2929062 L53.4210934,83.2822812 L53.4264049,83.2756406 L53.4290607,83.2703281 L53.4449951,83.24775 L53.4503066,83.2397812 L53.4609295,83.2251719 L53.4688967,83.2118906 L53.4755361,83.2025937 L53.4821754,83.1893125 L53.486159,83.184 L53.4901426,83.1773594 L53.4981098,83.1654062 L53.506077,83.1534531 L53.5100607,83.1468125 L53.5127164,83.1415 L53.5193557,83.130875 L53.527323,83.1175937 L53.5313066,83.109625 L53.5392738,83.0923594 L53.5459131,83.0817344 L53.5525525,83.0711094 L53.5591918,83.0565 L53.5618475,83.0511875 L53.5658311,83.0445469 L53.5724705,83.0312656 L53.5791098,83.0206406 L53.5817656,83.014 L53.5857492,83.0073594 L53.5910607,82.9954062 L53.5950443,82.982125 L53.5990279,82.9728281 L53.6069951,82.9582187 L53.6123066,82.9449375 L53.617618,82.9343125 L53.6242574,82.918375 L53.6255852,82.9157187 L53.6295689,82.90775 L53.6335525,82.8944687 L53.6388639,82.8811875 L53.6415197,82.8745469 L53.6441754,82.8679062 L53.648159,82.8559531 L53.6521426,82.844 L53.6547984,82.8347031 L53.6627656,82.8161094 L53.6654213,82.8054844 L53.6694049,82.7935312 L53.6747164,82.7775937 Z M54.0770607,68.1004844 C54.0558148,69.1829063 55.1765361,68.9504844 55.876323,67.172125 L63.4040115,47.3737656 L74.1385033,19.1431406 C74.6869131,17.702125 73.9366672,16.3381406 72.0059459,16.7193125 L58.2784377,19.4459531 C57.0461754,19.6757188 55.1367,21.0768906 55.1008475,22.2350156 L54.0770607,68.1004844 Z M48.9475033,17.7326719 L48.9899951,17.7260313 C50.7587164,17.3740781 51.7347,16.0154063 51.7532902,15.2105625 L51.9248911,7.5393125 C51.9391918,6.88189063 51.4332738,5.1115 49.8305361,5.94157813 L49.7787492,5.96814063 L18.1661754,22.3532188 L18.1582082,22.3572031 C17.1795689,22.865875 17.2433066,24.024 18.8433885,23.7132188 L39.5607984,19.5986875 L48.9475033,17.7326719 Z M51.582179,22.8565781 L50.4320607,74.3997812 C50.3962082,75.9324375 49.1971426,76.7067344 48.039241,75.4901719 L36.4283557,63.1625156 L28.153077,54.3782969 L8.99591311,34.0380625 L7.67999508,32.6422031 C5.61648689,30.4494687 7.55384754,29.5224375 9.05832295,29.2249375 L40.2512902,23.0279062 L50.0589295,21.0795469 C51.0229623,20.8975937 51.5939459,22.3425937 51.582179,22.8565781 L51.582179,22.8565781 Z" id="Fill-1" fill="#398DC7" mask="url(#mask-2)"></path>
                    </g>
                    <path d="M111.156043,37.1667343 C114.712581,37.1667343 117.616261,35.1233266 117.616261,30.5166618 C117.616261,25.9099971 114.712581,23.8332657 111.156043,23.8332657 L108.154501,23.8332657 L108.154501,37.1667343 L111.156043,37.1667343 Z M103,42 L103,19 L111.385281,19 C118.333467,19 123,23.4120545 123,30.5166618 C123,37.6212692 118.333467,42 111.351766,42 L103,42 Z" id="Fill-4" fill="#FFFFFF"></path>
                    <polygon id="Fill-6" fill="#FFFFFF" points="126 42 131 42 131 19 126 19"></polygon>
                    <path d="M152.742749,41.5129545 L152.413287,39.1751362 C151.389649,40.6362727 149.178319,42 145.845732,42 C139.345968,42 134,37.2910041 134,30.0160125 C134,22.7743801 139.576456,18 146.175195,18 C152.875619,18 155.976362,21.8976982 157,25.1121984 L151.983494,26.8335372 C151.621493,25.4044257 150.069087,22.806405 146.175195,22.806405 C143.008017,22.806405 139.279533,24.8853553 139.279533,30.0160125 C139.279533,34.8224174 142.513145,37.323029 146.308064,37.323029 C150.169418,37.323029 151.785546,34.8557767 152.082469,33.5560992 L145.053938,33.5560992 L145.053938,29.2047148 L156.966105,29.2047148 L156.966105,41.5129545 L152.742749,41.5129545 Z" id="Fill-8" fill="#FFFFFF"></path>
                    <polygon id="Fill-9" fill="#FFFFFF" points="161 42 166 42 166 19 161 19"></polygon>
                    <polygon id="Fill-10" fill="#FFFFFF" points="182.006215 23.8982962 182.006215 42 176.960981 42 176.960981 23.8982962 170 23.8982962 170 19 189 19 189 23.8982962"></polygon>
                    <path d="M195.665535,32.6573747 L201.207401,32.6573747 L198.467572,24.7090119 L195.665535,32.6573747 Z M202.816884,37.3280209 L193.989872,37.3280209 L192.347298,42 L187,42 L195.600679,19 L201.495943,19 L210,42 L204.460781,42 L202.816884,37.3280209 Z" id="Fill-11" fill="#FFFFFF"></path>
                    <polygon id="Fill-12" fill="#FFFFFF" points="213 42 213 19 218.108474 19 218.108474 37.1014199 228 37.1014199 228 42"></polygon>
                    <polygon id="Fill-13" fill="#FFFFFF" points="103 72 103 49 117.967129 49 117.967129 53.8332657 108.266161 53.8332657 108.266161 58.2119965 117.067294 58.2119965 117.067294 62.7213561 108.266161 62.7213561 108.266161 67.1334106 118 67.1334106 118 72"></polygon>
                    <path d="M120,61.0480374 C120,53.8704548 125.481233,49 131.941019,49 C138.89008,49 141.957105,53.4487935 142.706434,56.7607028 L137.845845,58.2872234 C137.486595,56.696653 136.018767,54.0012232 131.941019,54.0012232 C128.841823,54.0012232 125.351206,56.2096075 125.351206,61.0480374 C125.351206,65.3673969 128.548257,67.8680085 132.006702,67.8680085 C136.018767,67.8680085 137.617962,65.2046036 138.073727,63.5486489 L143,64.9444012 C142.25067,68.1282108 139.183646,73 132.006702,73 C125.351206,73 120,68.2242856 120,61.0480374" id="Fill-14" fill="#FFFFFF"></path>
                    <path d="M157.016057,67.9333926 C160.207404,67.9333926 163.659679,65.7903925 163.659679,60.9839875 C163.659679,56.1762482 160.207404,54.0012232 157.016057,54.0012232 C153.792596,54.0012232 150.340321,56.1762482 150.340321,60.9839875 C150.340321,65.7903925 153.792596,67.9333926 157.016057,67.9333926 M157.016057,49 C163.496432,49 169,53.7089959 169,61.0160125 C169,68.2910041 163.496432,73 157.016057,73 C150.503568,73 145,68.2910041 145,61.0160125 C145,53.7089959 150.503568,49 157.016057,49" id="Fill-15" fill="#FFFFFF"></path>
                    <polygon id="Fill-16" fill="#FFFFFF" points="186.578442 72 177.098719 56.8830484 177.098719 72 172 72 172 49 178.233991 49 186.870598 62.9812808 186.870598 49 192 49 192 72"></polygon>
                    <path d="M207.016057,67.9333926 C210.207404,67.9333926 213.659679,65.7903925 213.659679,60.9839875 C213.659679,56.1762482 210.207404,54.0012232 207.016057,54.0012232 C203.792596,54.0012232 200.340321,56.1762482 200.340321,60.9839875 C200.340321,65.7903925 203.792596,67.9333926 207.016057,67.9333926 M207.016057,49 C213.496432,49 219,53.7089959 219,61.0160125 C219,68.2910041 213.496432,73 207.016057,73 C200.503568,73 195,68.2910041 195,61.0160125 C195,53.7089959 200.503568,49 207.016057,49" id="Fill-17" fill="#FFFFFF"></path>
                    <polygon id="Fill-18" fill="#FFFFFF" points="242.981733 72 242.981733 56.7524196 236.992273 72 232.848079 72 226.857289 56.9470298 226.857289 72 222 72 222 49 228.670624 49 234.9847 64.5381629 240.97416 49 248 49 248 72"></polygon>
                    <polygon id="Fill-19" fill="#FFFFFF" points="251 49 256.949031 49 261.612321 57.5308606 266.339039 49 272 49 263.992197 62.39745 263.992197 72 258.910018 72 258.910018 62.39745"></polygon>
                    <polygon id="Fill-20" fill="#FFFFFF" points="103 102 103 79 108.107598 79 108.107598 97.1017038 118 97.1017038 118 102"></polygon>
                    <path d="M128.665036,92.6565832 L134.206583,92.6565832 L131.468236,84.708681 L128.665036,92.6565832 Z M135.815974,97.3282916 L126.990793,97.3282916 L125.34699,102 L120,102 L128.601508,79 L134.495109,79 L143,102 L137.459777,102 L135.815974,97.3282916 Z" id="Fill-21" fill="#FFFFFF"></path>
                    <path d="M152.967648,97.8147891 C154.889356,97.8147891 156.055322,96.7764835 156.055322,95.1210593 C156.055322,93.5322786 154.921708,92.4299954 152.967648,92.4299954 L149.85021,92.4299954 L149.85021,97.8147891 L152.967648,97.8147891 Z M152.558719,88.2127955 C154.290197,88.2127955 155.423811,87.2717895 155.423811,85.7149977 C155.423811,84.2235165 154.449369,83.2491887 152.496603,83.2491887 L149.85021,83.2491887 L149.85021,88.2127955 L152.558719,88.2127955 Z M153.345519,79 C157.754448,79 160.306373,81.6270862 160.306373,85.1631896 C160.306373,87.5316991 158.858298,89.4776889 157.031058,90.0934747 C159.04594,90.5799722 161,92.495306 161,95.4782684 C161,99.2409597 158.226787,102 154.008088,102 L145,102 L145,79 L153.345519,79 Z" id="Fill-22" fill="#FFFFFF"></path>
                    <path d="M109.525672,3.08165181 C109.400544,2.32285312 108.725944,1.28015016 107.17273,1.28015016 C105.918735,1.28015016 105.022441,2.05443454 105.022441,3.03648522 C105.022441,3.7952839 105.510711,4.37599718 106.450527,4.56956828 L108.113907,4.91154388 C109.964978,5.29868606 111,6.40075082 111,7.87447208 C111,9.51079305 109.525672,11 107.157769,11 C104.474328,11 103.204012,9.36238855 103,7.85898639 L104.474328,7.4124824 C104.584495,8.58939465 105.463108,9.67468325 107.141448,9.67468325 C108.678341,9.67468325 109.431826,8.91588456 109.431826,7.99319568 C109.431826,7.234397 108.882353,6.57883623 107.768446,6.35558423 L106.183951,6.02909432 C104.599456,5.70131394 103.470588,4.71926326 103.470588,3.14101361 C103.470588,1.48920695 105.086365,0 107.141448,0 C109.652159,0 110.654539,1.47372126 110.906154,2.61966213 L109.525672,3.08165181 Z" id="Fill-23" fill="#FFFFFF"></path>
                    <polygon id="Fill-24" fill="#FFFFFF" points="117.271487 1.41232575 117.271487 11 115.728513 11 115.728513 1.41232575 112 1.41232575 112 0 121 0 121 1.41232575"></polygon>
                    <path d="M123.174949,6.51632628 L126.778945,6.51632628 L124.962859,1.58334352 L123.174949,6.51632628 Z M127.297643,7.92882475 L122.658811,7.92882475 L121.549693,11 L120,11 L124.164959,0 L125.83376,0 L130,11 L128.433658,11 L127.297643,7.92882475 Z" id="Fill-25" fill="#FFFFFF"></path>
                    <polygon id="Fill-26" fill="#FFFFFF" points="139.424833 11 133.513606 2.03240401 133.513606 11 132 11 132 0 134.023494 0 139.487732 8.44032771 139.487732 0 141 0 141 11"></polygon>
                    <polygon id="Fill-27" fill="#FFFFFF" points="144 11 144 0 151 0 151 1.41232575 145.592317 1.41232575 145.592317 4.94852042 150.495977 4.94852042 150.495977 6.37698704 145.592317 6.37698704 145.592317 11"></polygon>
                    <path d="M157.50067,9.66033087 C159.539642,9.66033087 161.455365,8.24580547 161.455365,5.49290156 C161.455365,2.73870703 159.539642,1.33966913 157.50067,1.33966913 C155.461698,1.33966913 153.544635,2.73870703 153.544635,5.49290156 C153.544635,8.24580547 155.461698,9.66033087 157.50067,9.66033087 M157.50067,0 C160.251005,0 163,1.96433181 163,5.49290156 C163,9.02018069 160.251005,11 157.50067,11 C154.748995,11 152,9.02018069 152,5.49290156 C152,1.96433181 154.748995,0 157.50067,0" id="Fill-28" fill="#FFFFFF"></path>
                    <path d="M168.600931,5.13548545 C169.758195,5.13548545 170.539316,4.40645635 170.539316,3.2739056 C170.539316,2.1104182 169.758195,1.36524823 168.600931,1.36524823 L166.4331,1.36524823 L166.4331,5.13548545 L168.600931,5.13548545 Z M167.963998,6.50073368 L166.4331,6.50073368 L166.4331,11 L165,11 L165,0 L168.861723,0 C170.798854,0 172,1.45940328 172,3.2739056 C172,4.85571044 171.059645,6.08241624 169.512449,6.39178283 L171.956117,11 L170.307362,11 L167.963998,6.50073368 Z" id="Fill-29" fill="#FFFFFF"></path>
                    <path d="M177.738441,9.65072765 C179.755039,9.65072765 181.446206,8.28531246 181.446206,5.52354164 C181.446206,2.74562798 179.784381,1.34927235 177.769117,1.34927235 L175.508447,1.34927235 L175.508447,9.65072765 L177.738441,9.65072765 Z M174,11 L174,0 L177.815797,0 C180.584618,0 183,1.90889079 183,5.52354164 C183,9.12339489 180.553942,11 177.785122,11 L174,11 Z" id="Fill-30" fill="#FFFFFF"></path>
                </g>
            </g>
        </g>
    </g>
</svg>