<?xml version="1.0" encoding="UTF-8"?>
<svg width="254px" height="98px" viewBox="0 0 254 98" version="1.1" xmlns="http://www.w3.org/2000/svg" xmlns:xlink="http://www.w3.org/1999/xlink">
    <title>Group 17</title>
    <g id="Design-Copy" stroke="none" stroke-width="1" fill="none" fill-rule="evenodd">
        <g id="Home" transform="translate(-310.000000, -1832.000000)" fill="#000000">
            <g id="Letter-Section" transform="translate(25.000000, 829.000000)">
                <g id="Body-block" transform="translate(285.000000, 145.000000)">
                    <g id="Group-17" transform="translate(0.000000, 858.000000)">
                        <path d="M118.168008,18.480336 C118.477128,18.416076 118.547268,18.418596 118.597668,18.388356 C118.797168,18.268656 118.993728,18.143916 119.185248,18.012456 C122.798088,15.532356 125.984208,12.596556 128.524368,9.017736 C129.322788,7.892556 129.938088,6.624156 130.527348,5.369616 C130.861248,4.658556 131.156928,3.872736 130.968768,2.883636 C130.452168,3.191076 129.967488,3.372516 129.625188,3.701796 C128.145108,5.128956 126.578508,6.495216 125.282808,8.079036 C123.481008,10.281516 121.714908,12.529776 120.307068,15.027936 C119.676648,16.146396 118.956348,17.214456 118.168008,18.480336 M112.560588,65.418276 C113.322048,65.023896 114.018828,64.726536 114.649248,64.325436 C117.081048,62.777736 119.476308,61.173756 121.916088,59.639076 C123.143748,58.866276 124.158048,57.889356 125.076588,56.787276 C125.415528,56.380716 125.805708,56.016996 126.156408,55.619256 C126.945588,54.722976 127.698648,53.816616 128.101428,52.648176 C128.428608,51.698556 128.205588,51.058896 127.108128,51.001356 C125.892648,50.937936 124.657008,50.961876 123.451188,51.113916 C122.689308,51.209676 121.947588,51.567936 121.231068,51.886296 C120.723288,52.111836 120.276828,52.473456 119.795508,52.762416 C119.284368,53.069436 118.724928,53.310096 118.255368,53.669196 C115.108308,56.073276 113.263668,59.278296 112.578228,63.149856 C112.455588,63.842856 112.560588,64.575756 112.560588,65.418276 M115.339728,21.916356 C112.745388,23.316636 110.327448,24.707676 107.833068,25.945416 C104.788908,27.455736 101.604888,28.603176 98.211288,29.066016 C96.923568,29.241576 95.624508,29.369256 94.354008,29.013936 C92.880228,28.601076 91.846188,27.726216 91.511868,26.139456 C91.280868,25.045356 91.275828,23.974356 91.527828,22.888236 C91.609308,22.537536 91.758828,22.325016 92.129688,22.414056 C92.496768,22.502256 92.553048,22.780716 92.478708,23.116296 C92.275008,24.036516 92.285088,24.952116 92.482908,25.878216 C92.732808,27.047076 93.476628,27.706056 94.576608,28.031136 C95.724468,28.370916 96.886608,28.223496 98.038248,28.082376 C100.327668,27.801396 102.510408,27.106716 104.641908,26.254116 C108.448788,24.731196 112.000728,22.726116 115.444308,20.516496 C115.993668,20.164116 116.392248,19.722696 116.719428,19.162836 C118.060488,16.870476 119.326368,14.524356 120.819888,12.334056 C122.256708,10.227756 123.883788,8.241576 125.536908,6.295716 C126.541548,5.113416 127.730148,4.080216 128.885988,3.035676 C129.344208,2.621556 129.905748,2.276316 130.479048,2.043636 C131.437908,1.654716 132.100668,2.093196 132.038928,3.123876 C131.988108,3.968916 131.794908,4.832856 131.505528,5.630856 C130.596648,8.134896 129.028788,10.243296 127.259328,12.192516 C126.079128,13.492836 124.852728,14.768376 123.522168,15.910776 C122.090388,17.140536 120.576288,18.300996 118.980708,19.306056 C117.602268,20.173776 116.603928,21.199836 116.035668,22.754676 C115.618188,23.897076 114.945348,24.953376 114.329208,26.015136 C112.175868,29.727936 110.442948,33.647376 108.626868,37.526076 C106.881768,41.252736 105.205968,45.012996 103.415928,48.718236 C100.901808,53.922456 98.351988,59.110296 95.733708,64.262856 C94.427088,66.834516 92.934408,69.311676 91.527828,71.832516 C91.483308,71.912316 91.455588,72.000936 91.371588,72.200436 C98.597268,71.574216 105.226128,69.357876 111.503448,65.923956 C111.503448,65.663136 111.514368,65.403156 111.501768,65.144436 C111.320748,61.384596 112.842408,58.236276 115.057488,55.352556 C116.184768,53.884236 117.577908,52.719576 119.269248,51.923676 C119.683788,51.728376 120.046248,51.424296 120.445248,51.191196 C120.843408,50.958516 121.237368,50.696436 121.667448,50.542716 C123.680928,49.823676 125.749008,49.666596 127.834728,50.145396 C128.993508,50.411256 129.460548,51.189936 129.154368,52.372236 C128.957808,53.131596 128.710428,53.944296 128.251368,54.557916 C126.600768,56.765856 124.812408,58.837296 122.514168,60.450936 C119.464128,62.591676 116.356128,64.621536 113.041068,66.327996 C112.956648,66.371676 112.891548,66.453156 112.756728,66.569076 C113.411508,68.849256 114.617328,70.587216 117.043248,71.344476 C119.050008,71.971116 121.000488,71.911476 123.016908,71.407896 C125.780508,70.717416 128.341248,69.592236 130.799508,68.180196 C134.410248,66.105816 137.722788,63.626136 140.971908,61.031376 C142.725828,59.631096 144.598608,58.334556 146.689368,57.429036 C147.141708,57.232896 147.652008,56.917896 148.077888,57.356796 C148.461768,57.752016 148.477308,58.288776 148.284948,58.833936 C147.391188,61.367376 146.397888,63.856716 145.335708,66.327156 C144.515028,68.235216 143.541468,70.107156 143.150868,72.189516 C142.925748,73.389456 142.710288,74.576796 142.878708,75.807816 C142.906428,76.013196 142.752708,76.363476 142.582188,76.451256 C142.250388,76.622196 142.030728,76.359276 141.929088,76.042596 C141.848868,75.791016 141.719508,75.526416 141.736728,75.276516 C141.891288,73.016076 142.333548,70.822416 143.235288,68.725776 C144.607848,65.531256 146.092548,62.380416 147.132468,59.051916 C147.197148,58.844016 147.230748,58.626036 147.318108,58.239216 C145.938408,58.873416 144.770808,59.535756 143.684268,60.342156 C140.832888,62.458116 138.043668,64.663536 135.121308,66.676176 C131.219928,69.362916 127.093848,71.635536 122.375568,72.599016 C119.621208,73.161396 117.013008,72.783816 114.627408,71.280216 C113.372448,70.488936 112.699608,69.207096 112.144368,67.873596 C112.030548,67.600176 111.948228,67.313736 111.830208,66.970176 C110.602968,67.533396 109.388328,68.048736 108.211068,68.638836 C103.127808,71.186976 97.700568,72.488556 92.088108,73.126116 C90.508908,73.305456 90.511428,73.289496 89.755848,74.759496 C87.921288,78.329496 86.205588,81.964176 83.953128,85.283436 C84.602448,85.923516 84.625548,85.935696 84.247968,86.648436 C83.393268,88.261236 82.506648,89.857236 81.648168,91.468356 C81.450768,91.838796 81.212628,92.073576 80.785488,91.887516 C80.383968,91.712796 80.287368,91.367136 80.418408,90.972756 C80.690988,90.155856 80.926188,89.320476 81.276468,88.537176 C82.213068,86.444316 83.327748,84.448056 84.520968,82.485396 C85.622208,80.673936 86.557548,78.760416 87.545808,76.881336 C88.148088,75.735996 88.712568,74.570916 89.328708,73.344936 C89.109048,73.266816 88.911228,73.152996 88.702908,73.129056 C85.940568,72.814896 83.751948,71.390676 81.991728,69.377196 C80.753988,67.961796 79.761948,66.326736 78.714048,64.754256 C78.194088,63.973056 78.311688,63.681576 79.163868,63.305256 C79.706928,63.065856 80.276028,62.866356 80.852688,62.734056 C81.040008,62.690796 81.289068,62.916336 81.509988,63.019236 C81.381468,63.222936 81.299148,63.519876 81.114768,63.611436 C80.646048,63.844536 80.131548,63.986076 79.527588,64.202376 C80.041668,64.968456 80.551128,65.651796 80.979528,66.382176 C81.919488,67.985316 83.189988,69.281016 84.626808,70.429296 C86.051028,71.568336 87.725568,72.038736 89.503008,72.241176 C89.998608,72.297876 90.233388,72.010596 90.442968,71.656956 C91.355628,70.115136 92.334648,68.607756 93.160368,67.020996 C95.367888,62.777736 97.568268,58.529016 99.660708,54.228216 C101.896368,49.632996 103.987128,44.967636 106.175748,40.349316 C108.194688,36.087996 110.238828,31.838436 112.315308,27.605256 C113.016288,26.176416 113.857968,24.817296 114.620688,23.418276 C114.869328,22.961736 115.071768,22.479576 115.339728,21.916356" id="Fill-1"></path>
                        <path d="M39.242028,55.54983 C40.120668,54.81651 41.062728,54.14661 41.864508,53.33727 C43.542828,51.64383 45.164868,49.89243 46.775568,48.13389 C47.629428,47.20191 48.520668,46.27581 48.931428,44.82891 C45.330768,48.19437 41.745648,51.34101 39.242028,55.54983 M12.574968,70.20447 C11.007948,73.80513 9.414048,77.34699 7.930608,80.93421 C7.298508,82.46259 6.871368,84.07791 6.394668,85.66677 C5.622708,88.23927 4.877208,90.81975 4.139688,93.40233 C3.804948,94.57371 3.435348,95.74551 3.836448,96.99249 C3.877188,97.12017 3.650388,97.45743 3.499188,97.49313 C3.282468,97.54437 2.898168,97.48389 2.805768,97.33521 C2.649948,97.08321 2.616348,96.72369 2.618868,96.41037 C2.634828,94.49097 3.299268,92.70681 3.820068,90.89535 C4.662588,87.96375 5.461008,85.01619 6.405168,82.11693 C6.978888,80.35545 7.767648,78.66075 8.503488,76.95513 C9.344328,75.00675 10.235568,73.07979 11.100768,71.14191 C11.234328,70.84203 11.347308,70.53333 11.490948,70.17633 C11.232228,70.08939 11.023908,69.98355 10.804668,69.95121 C7.936908,69.52827 5.537448,68.21451 3.527328,66.15357 C3.341268,65.96331 3.168228,65.75499 2.960328,65.59287 C1.571808,64.50885 0.901068,62.94015 0.123648,61.44117 C-0.033852,61.13835 -0.082572,60.86577 0.230748,60.65703 C0.569268,60.43191 0.787668,60.64905 0.967428,60.91533 C1.040508,61.02453 1.106028,61.14213 1.156008,61.26351 C2.203908,63.82761 4.232088,65.58027 6.329568,67.19433 C7.924308,68.42073 9.880668,68.93313 11.970168,69.07551 C12.687528,67.51227 13.389768,65.97843 14.095788,64.44627 C14.331828,63.93387 14.542668,63.40635 14.824908,62.91999 C16.083228,60.75195 16.845948,58.37853 17.745168,56.05761 C18.559968,53.95509 19.528908,51.91263 20.364708,49.81809 C21.236628,47.63325 22.007748,45.40851 22.864128,43.21737 C24.011568,40.28241 25.203948,37.36509 26.366508,34.43601 C26.793648,33.35829 27.170808,32.26041 27.604668,31.18563 C28.845348,28.11333 30.119628,25.05405 31.348128,21.97671 C31.938228,20.49873 32.448108,18.98883 33.006708,17.49825 C33.646368,15.79179 34.300728,14.09121 34.945008,12.38643 C35.000028,12.24027 35.026488,12.08319 34.905948,11.83581 C34.522908,12.34611 34.154568,12.86775 33.754308,13.36419 C32.839128,14.49777 31.964268,15.67083 30.970128,16.73217 C29.767248,18.01653 28.529928,19.28787 27.175008,20.40423 C25.952808,21.41139 24.567228,22.22535 23.228268,23.08425 C20.617128,24.75921 17.677128,25.12839 14.657748,25.24977 C12.756408,25.32621 10.888248,25.15905 9.027228,24.83061 C8.443428,24.72771 7.877688,24.52191 7.303548,24.36273 C6.896988,24.24975 6.474888,24.17205 6.090588,24.00741 C5.886888,23.92047 5.601288,23.66721 5.616828,23.51559 C5.636148,23.32365 5.899908,23.05485 6.101928,23.00823 C6.370728,22.94565 6.718908,22.99143 6.968388,23.11827 C8.519448,23.90577 10.200288,24.07167 11.890368,24.20397 C14.827428,24.43329 17.723328,24.20649 20.538168,23.31021 C21.223608,23.09223 21.871668,22.72557 22.498728,22.36101 C24.278688,21.32655 26.052348,20.28915 27.486228,18.75951 C28.961268,17.18619 30.595908,15.75315 31.982748,14.10885 C33.562788,12.23523 34.960548,10.20663 36.410388,8.22549 C37.465848,6.78363 38.029068,5.12337 38.465448,3.40809 C38.644368,2.70333 38.875788,2.00655 39.148788,1.33245 C39.467988,0.54369 39.959388,0.27153 40.486908,0.49581 C41.045928,0.73395 41.239548,1.27365 40.921608,2.01747 C40.400388,3.23589 39.929148,4.49547 39.239928,5.61687 C38.015628,7.60893 37.226028,9.79209 36.223488,11.87991 C34.779948,14.88543 33.974388,18.11943 32.743368,21.19803 C32.128068,22.73775 31.414908,24.23883 30.803808,25.78023 C29.790768,28.33593 28.829388,30.91263 27.834828,33.47589 C27.415248,34.55739 26.961648,35.62587 26.531568,36.70317 C25.485768,39.32229 24.426108,41.93637 23.407188,44.56641 C22.725528,46.32579 22.226148,48.16581 21.430248,49.86933 C19.839708,53.27217 18.574668,56.79765 17.212608,60.28827 C16.839648,61.24419 16.326408,62.14551 15.886668,63.07581 C14.979048,64.99437 14.077308,66.91587 13.177248,68.83821 C13.152468,68.89071 13.173888,68.96547 13.173888,69.07551 C14.244468,69.08937 15.272208,68.89491 16.294068,68.62863 C21.318948,67.31865 26.014128,65.24343 30.348948,62.40507 C32.288088,61.13583 34.111728,59.68095 35.917728,58.22397 C36.490188,57.76239 36.867348,57.03999 37.280208,56.40243 C39.179868,53.46663 41.291628,50.69967 43.796088,48.25233 C45.386628,46.69833 47.020428,45.18801 48.665988,43.69239 C49.021308,43.36983 49.486668,43.12245 49.944468,42.97125 C50.445948,42.80619 50.731548,43.08465 50.650908,43.60251 C50.595888,43.95657 50.466528,44.31189 50.306928,44.63529 C49.526148,46.21533 48.600048,47.69163 47.366088,48.97725 C45.941448,50.46153 44.584428,52.01049 43.190868,53.52501 C42.921648,53.81775 42.637308,54.10335 42.328608,54.35325 C40.755708,55.62543 39.185328,56.90181 37.586808,58.14165 C36.709428,58.82247 36.235668,59.77965 35.757288,60.71331 C34.258308,63.63861 33.519948,66.73065 33.887028,70.04109 C34.097868,71.94537 35.353248,73.08315 37.262988,73.13103 C39.630528,73.19109 41.669628,72.25449 43.577268,71.02053 C44.854068,70.19481 46.022088,69.19815 47.222448,68.25693 C48.137208,67.53999 49.000728,66.75543 49.933128,66.06327 C52.085208,64.46517 53.776548,62.40423 55.614888,60.49197 C56.441868,59.63181 57.259188,58.74855 57.966048,57.79095 C58.652328,56.86107 59.190768,55.82199 59.796828,54.83289 C59.916948,54.63675 60.010188,54.38727 60.187008,54.27261 C60.351228,54.16635 60.666228,54.11847 60.812808,54.20961 C60.951408,54.29529 61.039608,54.61197 61.001808,54.79635 C60.950988,55.04163 60.752748,55.25499 60.623808,55.48515 C59.502408,57.48015 58.232748,59.40879 57.295728,61.48737 C55.702668,65.02251 54.256188,68.62989 53.307408,72.40863 C53.267508,72.56739 53.241048,72.72909 53.195688,72.95085 C53.401068,73.00545 53.584188,73.03107 53.745048,73.10541 C53.854668,73.15581 53.970588,73.25787 54.017208,73.36539 C54.156228,73.68795 53.572008,74.54601 53.141088,74.68041 C52.739148,74.80599 52.411968,74.62665 52.285128,74.09409 C52.190208,73.69425 52.129308,73.23855 52.223808,72.84963 C52.552248,71.50017 52.883628,70.14357 53.346468,68.83653 C54.109188,66.67983 54.976068,64.56009 55.797588,62.42439 C55.867308,62.24295 55.925268,62.05689 56.047068,61.70451 C55.821948,61.84017 55.713588,61.87545 55.648488,61.94853 C53.654328,64.18839 51.465708,66.21321 49.071288,68.02341 C47.537448,69.18303 46.077108,70.44051 44.538648,71.59341 C42.950628,72.78369 41.126148,73.54221 39.210108,73.97481 C37.751028,74.30367 36.245328,74.33727 34.873188,73.47585 C33.689628,72.73287 33.052488,71.65683 32.908008,70.29771 C32.586708,67.26825 32.988648,64.34295 34.263768,61.55625 C34.372968,61.31811 34.462008,61.07115 34.455288,60.68937 C33.847548,61.09887 33.189408,61.45125 32.642988,61.93005 C31.230528,63.16779 29.630748,64.11531 27.991068,64.98807 C24.999408,66.57987 21.952728,68.05911 18.667908,68.97261 C17.676708,69.24855 16.702308,69.59967 15.697668,69.80379 C14.695968,70.00749 13.665288,70.07091 12.574968,70.20447" id="Fill-3"></path>
                        <path d="M179.314506,59.821608 C177.784866,59.294508 176.085546,59.679228 174.786066,60.047148 C174.441246,60.145008 174.092226,60.309648 173.808306,60.525948 C171.124086,62.566728 169.194186,65.158128 168.168126,68.387928 C168.069846,68.697888 168.027006,69.035988 168.021436,69.361908 C168.015246,69.750408 168.280686,69.926388 168.618786,69.774348 C169.096746,69.559308 169.566726,69.301848 169.990086,68.993988 C173.174946,66.679788 175.842366,63.822948 178.436286,60.891768 C178.716426,60.575088 178.973466,60.238668 179.314506,59.821608 M194.486586,41.647368 C194.813766,41.554128 194.965806,41.518848 195.112386,41.468028 C199.103226,40.079508 202.942446,38.341968 206.699766,36.417948 C210.184086,34.633368 213.358866,32.432988 216.043506,29.552628 C218.659686,26.746188 220.784046,23.665068 221.717286,19.879608 C222.058326,18.495708 222.511086,17.129448 222.381306,15.669108 C222.313266,14.899668 221.990286,14.601468 221.237226,14.656908 C221.072586,14.669088 220.905426,14.684208 220.744986,14.720328 C218.842386,15.144108 217.049826,15.849708 215.508846,17.049228 C214.097226,18.147108 212.743146,19.323108 211.413006,20.518848 C210.426426,21.405048 209.457066,22.324428 208.585986,23.321928 C203.779506,28.828548 199.302306,34.593888 195.161106,40.617948 C194.963286,40.905648 194.777646,41.202168 194.486586,41.647368 M181.537146,58.933308 C183.592206,59.569188 185.584266,60.181968 187.574226,60.801888 C188.809866,61.186608 190.069446,61.512948 191.271066,61.986288 C193.555866,62.885928 195.965826,63.151788 198.356046,63.544068 C202.277166,64.187508 206.231886,64.221528 210.185346,64.128708 C212.707866,64.069068 215.242146,63.890148 217.630686,62.973708 C220.294746,61.951848 222.972246,60.942168 225.427146,59.457888 C226.423386,58.856028 227.333526,58.159248 227.877846,57.052968 C228.101286,56.598108 228.558246,56.249088 228.940026,55.883688 C229.175226,55.658568 229.473846,55.611108 229.740966,55.868568 C229.998426,56.117208 229.851426,56.357028 229.695186,56.579628 C229.352046,57.068928 229.031586,57.579648 228.644346,58.032828 C227.163006,59.767848 226.257066,61.758648 225.891246,64.003968 C225.595986,65.820888 225.695946,67.630668 226.606086,69.229188 C227.495646,70.792428 228.824106,71.953728 230.701086,72.293508 C231.125286,72.370368 231.558726,72.435888 231.964446,72.573648 C233.675106,73.154928 235.376526,72.941148 237.070386,72.534588 C239.892786,71.857128 242.566506,70.747908 245.209986,69.581148 C247.351566,68.635728 249.180246,67.180008 251.005986,65.738568 C251.500746,65.348388 251.995506,64.957788 252.482706,64.558368 C252.790566,64.305948 253.140006,64.105608 253.431066,64.491588 C253.688526,64.833468 253.395786,65.092608 253.127826,65.317308 C249.855606,68.065368 246.415386,70.535808 242.292246,71.880648 C240.557646,72.446388 238.841946,73.086888 237.079206,73.546368 C235.407186,73.982328 233.687706,74.163348 231.977046,73.604328 C231.537726,73.460688 231.074046,73.386348 230.618766,73.296888 C227.644326,72.711828 225.334746,70.319508 224.899206,67.172868 C224.595966,64.984248 225.001266,62.955648 225.656886,60.921588 C225.685026,60.832968 225.696366,60.739308 225.745506,60.505368 C225.440586,60.648168 225.223026,60.755268 225.001686,60.853968 C222.849606,61.813668 220.722726,62.836368 218.536206,63.711648 C216.684006,64.453368 214.736046,64.886808 212.720466,64.946868 C211.028286,64.996848 209.337366,65.092608 207.645186,65.139228 C203.813106,65.243808 200.024286,64.820868 196.240506,64.250928 C193.758726,63.877128 191.412186,63.070728 189.038346,62.320608 C186.541446,61.531848 184.019346,60.820368 181.517406,60.045888 C180.834906,59.834628 180.422046,60.087888 179.982726,60.581808 C178.329186,62.441988 176.709246,64.340388 174.940206,66.086328 C173.504226,67.502988 171.888066,68.740308 170.317686,70.015428 C169.914486,70.342608 169.401666,70.563528 168.906906,70.743708 C167.913606,71.105328 167.029086,70.547568 167.038668,69.495888 C167.045466,68.784828 167.203386,68.042268 167.452446,67.372788 C168.591906,64.309728 170.501226,61.795608 173.099346,59.818248 C173.540766,59.482248 174.067866,59.197908 174.599586,59.053848 C175.877646,58.709028 177.165366,58.474248 178.524486,58.616208 C180.439266,58.815708 180.019686,59.182368 181.326726,57.463308 C183.837906,54.161268 186.310866,50.831088 188.803566,47.515188 C189.678426,46.351368 190.564206,45.195528 191.535666,43.916628 C191.274426,43.916628 191.164386,43.895208 191.066106,43.919988 C188.844306,44.476068 186.627126,45.048948 184.401966,45.590328 C183.824466,45.731028 183.224706,45.777648 182.633766,45.863748 C182.262066,45.917928 181.926066,45.822588 181.887426,45.410988 C181.852566,45.038448 182.179326,44.960328 182.491806,44.893128 C184.795506,44.397108 187.102146,43.915368 189.394926,43.373568 C190.362606,43.145088 191.316006,42.827148 192.240006,42.460068 C192.607086,42.313908 192.939306,41.970348 193.180806,41.638968 C194.802006,39.410868 196.389606,37.158828 197.997786,34.920648 C201.177606,30.496368 204.587166,26.244288 208.254606,22.226568 C210.661206,19.589808 213.247146,17.067708 216.419406,15.286488 C217.938546,14.433468 219.559326,13.865628 221.290566,13.649748 C222.462366,13.503588 223.308246,14.266308 223.380066,15.457848 C223.465326,16.869468 223.180986,18.223548 222.844146,19.584768 C222.198186,22.192548 221.146926,24.615108 219.595866,26.802468 C218.849946,27.854988 218.015826,28.851648 217.155246,29.814288 C214.377786,32.922708 211.041306,35.294028 207.349086,37.202928 C203.036526,39.433128 198.594606,41.354628 194.002746,42.924588 C193.535286,43.084188 193.189206,43.313088 192.901926,43.703688 C189.966126,47.684448 187.028646,51.663948 184.074366,55.630848 C183.341466,56.615328 182.543466,57.551928 181.781166,58.514568 C181.686246,58.634268 181.624926,58.780428 181.537146,58.933308" id="Fill-6"></path>
                        <path d="M84.628908,54.203898 C82.172328,54.062778 79.896348,54.233718 77.701848,53.587338 C76.883688,53.346258 76.105848,52.967418 75.305748,52.661238 C74.811828,52.472238 74.309088,52.307598 73.814748,52.120278 C73.533348,52.013178 73.200288,51.885078 73.278408,51.512118 C73.364928,51.099258 73.711848,51.036678 74.064648,51.155118 C74.628288,51.344958 75.221328,51.496578 75.730788,51.788478 C77.336448,52.706598 79.096248,53.001858 80.890068,53.066118 C82.944288,53.139618 85.003128,53.092158 87.059868,53.078298 C87.688608,53.074518 88.316508,53.005218 88.945248,52.975398 C89.279148,52.959438 89.558868,53.071158 89.576088,53.450418 C89.593308,53.830938 89.334588,53.949378 88.991028,53.967018 C87.468108,54.045558 85.945608,54.132078 84.628908,54.203898" id="Fill-9"></path>
                        <path d="M64.234296,33.952674 C64.278816,34.142094 64.310316,34.442814 64.419936,34.712034 C64.856316,35.783034 65.315376,36.845214 65.770236,37.908654 C65.861376,38.122014 65.959656,38.333274 66.072636,38.535294 C66.235596,38.825934 66.170916,39.103974 65.885736,39.185034 C65.695896,39.238794 65.323356,39.137994 65.237676,38.988474 C64.808856,38.242554 64.410276,37.473954 64.073856,36.682674 C63.763056,35.951874 63.507276,35.192094 63.303576,34.425174 C63.217476,34.101354 63.262416,33.703194 63.372036,33.381474 C63.433356,33.201294 63.755076,32.991714 63.949956,33.000954 C64.301076,33.016914 64.437156,33.293274 64.300656,33.651114 C64.277136,33.712014 64.271256,33.779634 64.234296,33.952674" id="Fill-11"></path>
                        <path d="M148.77261,42.319242 C148.95069,41.605662 149.10609,41.039502 149.23083,40.466202 C149.32617,40.028142 149.67099,39.893322 150.02295,39.840402 C150.20523,39.812682 150.50721,39.928602 150.59079,40.073922 C150.67269,40.215882 150.61557,40.598922 150.49797,40.666542 C149.97927,40.964742 149.97885,41.460762 149.90199,41.939142 C149.88141,42.068502 149.86377,42.198702 149.84529,42.328482 C149.79531,42.677502 149.67393,43.053402 149.26317,42.938322 C149.04393,42.876582 148.91205,42.506982 148.77261,42.319242" id="Fill-13"></path>
                        <path d="M238.169862,40.776414 C238.093002,40.899054 238.022022,41.150634 237.895182,41.183394 C237.712482,41.230434 237.463422,41.160294 237.291642,41.058234 C237.174462,40.988934 237.114402,40.786494 237.073242,40.631934 C236.917002,40.045194 236.640222,39.544974 236.173602,39.138834 C235.913622,38.912874 235.741002,38.581494 236.048022,38.285394 C236.345802,37.998534 236.641062,38.191734 236.921202,38.405514 C237.685602,38.990154 237.869562,39.871734 238.169862,40.776414" id="Fill-15"></path>
                    </g>
                </g>
            </g>
        </g>
    </g>
</svg>