<?xml version="1.0" encoding="UTF-8"?>
<svg width="260px" height="133px" viewBox="0 0 260 133" version="1.1" xmlns="http://www.w3.org/2000/svg" xmlns:xlink="http://www.w3.org/1999/xlink">
    <title>Group 11</title>
    <defs>
        <polygon id="path-1" points="0.243471938 0.763175782 135.875 0.763175782 135.875 131.9993 0.243471938 131.9993"></polygon>
        <polygon id="path-3" points="0 0.250095161 144.44969 0.250095161 144.44969 121.40572 0 121.40572"></polygon>
    </defs>
    <g id="Design-Copy" stroke="none" stroke-width="1" fill="none" fill-rule="evenodd">
        <g id="Home" transform="translate(-592.000000, -1829.000000)">
            <g id="Letter-Section" transform="translate(25.000000, 829.000000)">
                <g id="Body-block" transform="translate(285.000000, 145.000000)">
                    <g id="Group-11" transform="translate(282.000000, 855.000000)">
                        <g id="Group-3" transform="translate(124.000000, 0.237000)">
                            <mask id="mask-2" fill="white">
                                <use xlink:href="#path-1"></use>
                            </mask>
                            <g id="Clip-2"></g>
                            <path d="M4.3598,63.1143 C5.7788,62.7293 7.5118,63.1553 8.5888,61.6793 C8.6968,61.5303 8.5258,60.9703 8.3248,60.8323 C6.8208,59.7923 5.3098,60.4413 3.8428,60.9603 C3.1148,61.2183 2.0208,61.4383 2.3458,62.5383 C2.6198,63.4633 3.6388,62.9063 4.3598,63.1143 M9.5898,71.0483 C12.2918,68.6013 14.0638,65.9883 15.8418,63.3863 C16.0498,63.0833 15.8458,62.7503 15.5158,62.5753 C14.4878,62.0333 10.2328,63.9203 10.0998,65.0823 C9.9038,66.7993 9.2988,68.4753 9.5898,71.0483 M135.7378,7.8293 C135.4878,7.1313 135.4548,7.0553 135.4338,6.9773 C135.0438,5.4493 135.9138,3.1403 133.8678,2.6273 C131.8418,2.1183 130.4338,3.9503 129.1718,5.3483 C124.1748,10.8843 120.3698,17.2443 116.7308,23.7013 C112.0988,31.9233 106.6968,39.5753 100.3518,46.5663 C99.7288,47.2533 98.7988,47.8343 98.9038,49.5623 C112.3178,41.2343 124.9478,32.6583 132.1788,17.5113 C131.8338,20.0933 129.9098,23.4923 127.0298,27.4743 C121.5128,35.1003 114.0418,40.5453 106.5518,45.9713 C100.6258,50.2653 94.1988,53.8753 88.8338,58.9393 C88.2458,59.4933 87.5578,59.9443 87.1458,60.8453 C91.2578,59.3943 95.4438,59.7693 99.4998,59.1803 C100.2698,59.0693 101.1878,58.4063 101.7888,59.3323 C102.3618,60.2163 101.8638,61.1383 101.3568,61.9003 C98.8708,65.6443 96.3568,69.3703 93.8278,73.0853 C86.7518,83.4793 79.6838,93.8783 72.5708,104.2453 C67.6718,111.3863 63.0798,118.7233 58.4068,126.0103 C57.0058,128.1973 55.2738,130.1713 53.3398,131.9993 C55.9128,127.8493 58.4708,123.6903 61.0568,119.5473 C71.8658,102.2323 83.7448,85.6303 94.9728,68.5953 C95.9338,67.1383 96.8098,65.6233 97.7098,64.1263 C98.4668,62.8663 98.3588,62.1933 96.6298,62.0993 C92.5768,61.8823 88.9158,62.8693 85.4958,65.0533 C83.0118,66.6393 82.8118,66.5313 81.7078,63.7083 C81.1938,62.3943 80.3478,62.2393 79.1298,62.5083 C74.8188,63.4603 70.4468,64.1723 66.1938,65.3253 C59.7268,67.0803 53.0828,67.6033 46.5088,68.6303 C44.3768,68.9633 42.2858,69.5563 40.1628,69.9603 C38.3388,70.3083 36.5888,70.5363 36.4888,67.7723 C36.4318,66.2053 35.4948,66.9063 34.7798,67.3473 C31.8748,69.1403 29.0198,71.0243 26.0468,72.6973 C24.6018,73.5113 22.8398,74.9173 21.2858,73.2593 C19.8898,71.7723 20.5298,69.7933 21.2228,68.0733 C21.8238,66.5833 23.0128,65.4853 24.0598,64.3003 C24.6258,63.6603 25.1278,62.9253 24.6558,62.0523 C24.2478,61.2953 23.4138,61.3233 22.6668,61.2583 C20.5868,61.0773 18.9988,61.8273 17.6988,63.5113 C14.6468,67.4623 11.4918,71.3343 8.3758,75.2363 C7.9748,75.7383 7.6288,76.5493 6.8328,76.1273 C6.0088,75.6923 6.5168,74.9143 6.7488,74.3533 C7.7318,71.9583 8.6128,69.5303 9.0908,66.9853 C9.5578,64.5053 9.1708,64.2073 6.7608,64.7773 C5.6328,65.0433 4.4668,65.1533 3.3148,65.3083 C1.9588,65.4913 1.0448,64.7403 0.4828,63.6673 C-0.0942,62.5673 0.4618,61.5743 1.1998,60.7083 C3.3848,58.1423 7.4528,58.1193 9.6438,60.6773 C10.0298,61.1283 10.3808,61.7403 11.0238,61.5723 C14.7678,60.5983 18.6308,60.6193 21.3488,56.6183 C28.8098,45.6383 35.4328,34.2183 41.3508,22.3563 C43.7288,17.5903 46.2048,12.8513 49.5368,8.6583 C50.7608,7.1183 51.8558,5.2013 54.8348,5.1193 C52.0508,7.7973 49.6818,10.1633 47.8258,13.0203 C43.9588,18.9713 41.0398,25.4223 37.6848,31.6423 C33.1368,40.0763 28.4238,48.4083 22.8918,56.2513 C22.3828,56.9723 21.4578,57.7353 21.8708,58.6653 C22.3018,59.6383 23.5008,59.4753 24.3438,59.3393 C26.2438,59.0303 27.7358,60.3373 29.5828,60.4853 C30.8858,60.5893 31.1868,62.9583 30.9508,64.2603 C30.7618,65.2973 29.2908,65.8383 28.0868,65.0473 C27.3468,64.5623 26.7628,64.7853 26.2988,65.2613 C25.0828,66.5093 23.9088,67.8043 22.7968,69.1453 C22.3668,69.6613 22.1908,70.3853 22.7398,70.9763 C23.2388,71.5123 23.8468,71.2353 24.3548,70.9663 C32.0008,66.9203 39.8028,63.1413 45.9608,56.7933 C57.1128,45.2943 65.9128,32.0823 74.1728,18.4603 C76.1158,15.2573 78.1898,12.1323 80.2728,9.0163 C80.8858,8.0983 81.6138,6.5193 82.8238,7.1383 C84.2778,7.8823 83.4998,9.4353 83.0228,10.9133 C82.2448,8.3473 81.3318,9.3433 80.5488,10.5903 C77.8518,14.8923 75.2578,19.2603 72.5208,23.5363 C67.7648,30.9663 62.9158,38.3353 57.5348,45.3383 C57.1888,45.7873 56.9518,46.3213 56.8568,47.0003 C59.6148,45.5453 61.2128,42.8033 63.9198,41.2303 C61.2708,44.0943 58.6788,47.0153 55.9628,49.8133 C51.0908,54.8303 45.3178,58.8993 40.7258,64.2173 C40.3458,64.6563 39.9318,65.0723 39.6028,65.5473 C39.2798,66.0133 38.8178,66.5313 39.1398,67.1343 C39.5278,67.8593 40.2538,67.7413 40.9178,67.6053 C50.6078,65.6123 60.6028,65.5473 70.1898,62.7843 C74.6438,61.5023 79.1948,60.4913 83.8188,59.7753 C86.5208,59.3563 88.4308,56.8673 90.4038,54.9943 C101.5948,44.3723 110.9808,32.3403 118.3038,18.7333 C121.2808,13.2013 124.9118,8.1373 129.2478,3.5983 C130.6068,2.1753 132.2268,0.1523 134.2408,0.9393 C136.3428,1.7613 135.6438,4.3893 135.8668,6.3103 C135.9028,6.6243 135.8178,6.9513 135.7378,7.8293" id="Fill-1" fill="#231F20" mask="url(#mask-2)"></path>
                        </g>
                        <g id="Group-6" transform="translate(0.000000, 6.237000)">
                            <mask id="mask-4" fill="white">
                                <use xlink:href="#path-3"></use>
                            </mask>
                            <g id="Clip-5"></g>
                            <path d="M97.5858,34.5777 C99.0428,34.4897 99.7048,33.6047 100.4088,32.8207 C100.7278,32.4647 101.1008,31.9667 100.6848,31.5047 C100.2328,31.0047 99.7528,31.4247 99.3878,31.7317 C98.5608,32.4267 97.8268,33.2047 97.5858,34.5777 M96.8168,38.5247 C93.5028,38.9907 84.8118,50.2637 84.5328,54.4597 C88.9528,49.1787 93.1738,44.2457 96.8168,38.5247 M138.2788,2.9257 C138.0128,2.9767 137.6058,3.0577 137.1968,3.1347 C127.0668,5.0477 116.9258,6.9017 106.8098,8.8877 C92.6908,11.6597 78.4278,13.7607 64.5238,17.5447 C54.1028,20.3817 44.2598,24.5787 35.4398,30.9607 C31.2928,33.9627 29.2808,37.8387 30.1118,43.0107 C30.7088,46.7257 31.7318,50.3297 33.1688,53.7947 C36.3588,61.4797 41.6378,67.6537 47.4408,73.4727 C49.0488,75.0837 50.1008,75.0257 51.7848,73.5867 C60.6368,66.0137 69.5958,58.5657 78.5028,51.0557 C85.3558,45.2777 92.6688,39.9657 97.5148,32.1537 C98.3358,30.8307 99.2548,29.4807 100.8578,28.9007 C101.4588,28.6827 102.2838,28.1087 102.5918,28.9757 C103.4218,31.3077 104.4388,30.0337 105.4908,29.2697 C114.1728,22.9677 122.8618,16.6737 131.5408,10.3647 C133.9618,8.6037 136.3638,6.8127 138.7568,5.0117 C139.2868,4.6137 139.8338,4.1287 139.4958,3.3447 C139.3038,2.8997 138.8498,2.8947 138.2788,2.9257 M69.4798,71.3497 C66.0258,72.8667 63.5148,74.7737 60.8578,76.4367 C60.0058,76.9717 58.9978,78.1447 58.0348,77.0147 C57.1688,75.9967 57.7508,74.8087 58.7018,73.9357 C61.0578,71.7697 63.0868,69.0487 66.8988,69.4907 C67.7198,69.5867 68.3908,68.8427 69.1138,68.4327 C76.0238,64.5157 79.7188,57.7857 83.9168,51.5107 C84.9418,49.9757 86.4828,48.6677 86.6608,46.4207 C85.3278,46.4427 84.5928,47.3057 83.8258,47.9517 C73.2498,56.8527 62.7018,65.7887 52.1348,74.7007 C50.9818,75.6737 50.2328,76.5697 51.6468,77.9517 C52.2198,78.5127 52.8758,79.5017 52.0358,80.1317 C50.9148,80.9727 50.7028,79.6117 50.3788,78.9897 C49.2718,76.8617 48.1558,78.2557 47.2368,79.0287 C42.1398,83.3197 37.0858,87.6607 32.0438,92.0177 C24.3568,98.6627 16.8228,105.4787 9.5358,112.5607 C6.9678,115.0567 4.5028,117.6557 1.9858,120.2017 C1.4998,120.6937 1.0368,121.8487 0.3268,121.2257 C-0.5372,120.4687 0.5228,119.7507 1.0778,119.2177 C5.6438,114.8367 10.1878,110.4317 14.8298,106.1327 C25.2158,96.5117 35.8818,87.2047 46.7118,78.0877 C48.3698,76.6917 47.8598,75.6727 46.6118,74.4027 C41.8658,69.5767 37.4648,64.4857 34.4178,58.3537 C31.8368,53.1607 30.1308,47.7317 29.4748,41.9547 C28.9068,36.9537 30.9828,33.1487 34.7928,30.2717 C41.9008,24.9017 49.8978,21.1217 58.2958,18.3367 C70.8908,14.1597 83.9898,12.0927 96.9958,9.6567 C111.1458,7.0047 125.2648,4.1877 139.3948,1.4307 C140.3738,1.2397 141.3208,0.8877 142.2998,0.7097 C142.9668,0.5887 143.8078,-0.2363 144.3038,0.6697 C144.7938,1.5637 143.9448,2.2307 143.3038,2.7327 C140.6828,4.7857 138.0998,6.9007 135.3648,8.7937 C124.1378,16.5627 113.2548,24.8047 102.2818,32.9187 C98.7308,35.5457 97.0818,39.7827 94.4788,43.2197 C89.1488,50.2577 83.8528,57.3127 77.6108,63.5957 C75.1848,66.0367 73.4438,68.9927 71.5908,71.8587 C71.3598,72.2157 71.0558,72.6077 71.3268,72.9887 C71.6998,73.5127 72.2308,73.2457 72.6698,73.0177 C76.3798,71.0947 80.4198,71.3427 84.4008,71.2417 C85.8368,71.2057 87.2278,71.1067 88.4568,70.2567 C88.8568,69.9797 89.3298,69.5617 89.7538,70.1157 C90.1618,70.6477 89.9568,71.2577 89.5418,71.7097 C88.6648,72.6667 87.5408,73.2177 86.2558,73.3117 C84.5958,73.4347 82.9148,73.6307 81.2678,73.4937 C77.8038,73.2047 74.6708,73.9887 71.7668,75.8517 C71.3528,76.1177 70.8728,76.2917 70.4088,76.4697 C69.7938,76.7057 69.1228,77.0817 68.5208,76.5857 C67.8288,76.0157 68.0718,75.1827 68.2628,74.4847 C68.5008,73.6207 68.9038,72.8027 69.4798,71.3497" id="Fill-4" fill="#231F20" mask="url(#mask-4)"></path>
                        </g>
                        <path d="M125.3915,72.1975 C124.7995,72.6235 124.2575,73.1555 123.6095,73.4595 C117.1715,76.4795 110.3625,77.9875 103.2825,77.6405 C97.4175,77.3535 95.1575,72.3435 98.6055,67.5395 C101.4405,63.5885 105.7175,61.3375 109.7325,58.8265 C117.3485,54.0635 125.1335,49.5695 132.5285,44.4565 C134.1835,43.3125 135.6645,41.9775 136.9195,40.4075 C138.3555,38.6115 138.5165,36.7975 136.8535,35.0215 C136.0005,34.1105 135.1215,33.2215 134.3025,32.2815 C130.6125,28.0475 131.4365,22.0355 136.0175,18.7655 C142.9445,13.8215 150.5055,10.3375 158.7995,8.4055 C162.9155,7.4465 165.4485,9.5085 164.9355,13.5405 C164.3335,10.3735 162.7495,9.2485 159.1715,9.9845 C150.8475,11.6945 143.0525,14.6905 136.3565,20.1085 C132.1325,23.5265 131.8025,26.8335 135.2415,30.9895 C135.3475,31.1185 135.4645,31.2375 135.5825,31.3545 C141.5495,37.2795 140.2305,40.3935 134.0755,44.7735 C126.2965,50.3075 117.9875,55.0935 109.9365,60.2475 C105.9625,62.7915 101.6415,64.9295 99.0585,69.1825 C97.2945,72.0855 98.0515,74.3175 101.2315,75.4455 C103.5775,76.2775 105.9915,76.1625 108.3955,75.8585 C113.8535,75.1695 119.2725,74.3055 124.3195,71.9345 C124.5965,71.8045 124.9315,71.8015 125.2395,71.7395 C125.2905,71.8915 125.3405,72.0455 125.3915,72.1975" id="Fill-7" fill="#231F20"></path>
                        <path d="M160.1625,19.5056 C158.5075,23.1066 156.8955,26.6136 155.2845,30.1206 C155.5055,30.2336 155.7255,30.3456 155.9465,30.4586 C158.6325,28.5716 159.7005,25.3706 161.7655,22.9566 C161.1085,25.3736 159.5885,27.3136 158.2485,29.3436 C156.0025,32.7476 153.5695,36.0136 150.7635,38.9826 C150.3865,39.3806 149.9745,40.0236 149.3145,39.6046 C148.5655,39.1276 148.8515,38.3856 149.2245,37.8416 C153.0045,32.3306 155.7285,26.2566 158.6685,20.2966 C158.8805,19.8666 159.1505,19.4036 160.1625,19.5056" id="Fill-9" fill="#231F20"></path>
                    </g>
                </g>
            </g>
        </g>
    </g>
</svg>