<svg width="272" height="103" viewBox="0 0 272 103" fill="none" xmlns="http://www.w3.org/2000/svg">
<g id="DEL Logo">
<path id="Fill 1" fill-rule="evenodd" clip-rule="evenodd" d="M53.6754 101.778L66.6672 67.6115L79.6949 33.3512C80.0362 32.4494 79.5834 31.4427 78.6818 31.1C78.3631 30.9791 78.0311 30.9579 77.7191 31.0216L77.7178 31.0163L57.5156 35.0313L57.3031 35.0724C56.5489 35.0804 55.2808 33.8386 55.2954 32.5238L55.2967 32.5012L55.5543 20.9545C55.5755 19.9863 54.8094 19.1854 53.8413 19.1628C53.4921 19.1575 53.1655 19.2505 52.8879 19.4205L1.01606 46.3044C0.297688 46.6364 -0.128558 47.4293 0.0347697 48.2381C0.106475 48.5941 0.281753 48.9022 0.522098 49.1386L50.7341 102.447C51.3928 103.151 52.4989 103.188 53.204 102.527L53.2133 102.519L53.2186 102.513L53.2239 102.508L53.2345 102.497L53.2451 102.487L53.2531 102.479L53.2558 102.476L53.2637 102.468L53.2677 102.464L53.2743 102.456L53.2836 102.447L53.2943 102.435L53.2996 102.431L53.3049 102.424L53.3142 102.414L53.3221 102.404L53.3288 102.398L53.3328 102.394L53.3421 102.382L53.3514 102.37L53.358 102.363L53.3699 102.35L53.3713 102.346L53.3779 102.338L53.3859 102.329L53.3952 102.315L53.3992 102.31L53.4045 102.303L53.4138 102.293L53.4217 102.282L53.427 102.276L53.4297 102.27L53.4456 102.248L53.451 102.24L53.4616 102.225L53.4695 102.212L53.4762 102.202L53.4828 102.189L53.4868 102.184L53.4908 102.177L53.4988 102.165L53.5067 102.153L53.5107 102.147L53.5134 102.141L53.52 102.131L53.528 102.118L53.532 102.11L53.5399 102.092L53.5466 102.082L53.5532 102.071L53.5598 102.056L53.5625 102.051L53.5665 102.044L53.5731 102.031L53.5798 102.021L53.5824 102.014L53.5864 102.007L53.5917 101.995L53.5957 101.982L53.5997 101.973L53.6076 101.958L53.6129 101.945L53.6183 101.934L53.6249 101.918L53.6262 101.916L53.6302 101.908L53.6342 101.894L53.6395 101.881L53.6422 101.874L53.6448 101.868L53.6488 101.856L53.6528 101.844L53.6554 101.835L53.6634 101.816L53.6661 101.805L53.67 101.793L53.6754 101.778ZM54.0777 87.1004C54.0565 88.1828 55.1772 87.9504 55.877 86.172L63.4047 66.3737L74.1391 38.143C74.6876 36.702 73.9373 35.338 72.0066 35.7192L58.2791 38.4459C57.0468 38.6756 55.1373 40.0768 55.1015 41.2349L54.0777 87.1004ZM48.9481 36.7326L48.9906 36.7259C50.7594 36.374 51.7353 35.0153 51.7539 34.2105L51.9252 26.5392C51.9398 25.8818 51.4339 24.1114 49.8312 24.9415L49.7794 24.968L18.1668 41.3531L18.1589 41.3571C17.1802 41.8658 17.2439 43.0239 18.844 42.7131L39.5614 38.5986L48.9481 36.7326ZM51.5826 41.8565L50.4327 93.3997C50.3969 94.9323 49.1978 95.7066 48.0399 94.4901L36.429 82.1624L28.1537 73.3782L8.99656 53.038L7.68064 51.6421C5.61713 49.4494 7.55449 48.5223 9.05897 48.2248L40.2519 42.0278L50.0596 40.0795C51.0236 39.8975 51.5946 41.3425 51.5826 41.8565Z" fill="#398DC7"/>
<path id="Fill 4" fill-rule="evenodd" clip-rule="evenodd" d="M111.157 37.1667C114.714 37.1667 117.617 35.1233 117.617 30.5167C117.617 25.91 114.714 23.8333 111.157 23.8333H108.155V37.1667H111.157ZM103.001 42V19H111.386C118.334 19 123.001 23.4121 123.001 30.5167C123.001 37.6213 118.334 42 111.353 42H103.001Z" fill="white"/>
<path id="Fill 6" fill-rule="evenodd" clip-rule="evenodd" d="M126.001 42H131.001V19H126.001V42Z" fill="white"/>
<path id="Fill 8" fill-rule="evenodd" clip-rule="evenodd" d="M152.744 41.513L152.414 39.1751C151.391 40.6363 149.179 42 145.847 42C139.347 42 134.001 37.291 134.001 30.016C134.001 22.7744 139.577 18 146.176 18C152.877 18 155.977 21.8977 157.001 25.1122L151.984 26.8335C151.622 25.4044 150.07 22.8064 146.176 22.8064C143.009 22.8064 139.281 24.8854 139.281 30.016C139.281 34.8224 142.514 37.323 146.309 37.323C150.17 37.323 151.787 34.8558 152.083 33.5561H145.055V29.2047H156.967V41.513H152.744Z" fill="white"/>
<path id="Fill 9" fill-rule="evenodd" clip-rule="evenodd" d="M161.001 42H166.001V19H161.001V42Z" fill="white"/>
<path id="Fill 10" fill-rule="evenodd" clip-rule="evenodd" d="M182.007 23.8983V42H176.962V23.8983H170.001V19H189.001V23.8983H182.007Z" fill="white"/>
<path id="Fill 11" fill-rule="evenodd" clip-rule="evenodd" d="M195.667 32.6574H201.208L198.469 24.709L195.667 32.6574ZM202.818 37.328H193.991L192.348 42H187.001L195.602 19H201.497L210.001 42H204.462L202.818 37.328Z" fill="white"/>
<path id="Fill 12" fill-rule="evenodd" clip-rule="evenodd" d="M213.001 42V19H218.109V37.1014H228.001V42H213.001Z" fill="white"/>
<path id="Fill 13" fill-rule="evenodd" clip-rule="evenodd" d="M103.001 72V49H117.968V53.8333H108.267V58.212H117.068V62.7214H108.267V67.1334H118.001V72H103.001Z" fill="white"/>
<path id="Fill 14" fill-rule="evenodd" clip-rule="evenodd" d="M120.001 61.048C120.001 53.8705 125.482 49 131.942 49C138.891 49 141.958 53.4488 142.707 56.7607L137.847 58.2872C137.488 56.6967 136.02 54.0012 131.942 54.0012C128.843 54.0012 125.352 56.2096 125.352 61.048C125.352 65.3674 128.549 67.868 132.008 67.868C136.02 67.868 137.619 65.2046 138.075 63.5486L143.001 64.9444C142.252 68.1282 139.185 73 132.008 73C125.352 73 120.001 68.2243 120.001 61.048Z" fill="white"/>
<path id="Fill 15" fill-rule="evenodd" clip-rule="evenodd" d="M157.017 67.9334C160.208 67.9334 163.661 65.7904 163.661 60.984C163.661 56.1762 160.208 54.0012 157.017 54.0012C153.794 54.0012 150.341 56.1762 150.341 60.984C150.341 65.7904 153.794 67.9334 157.017 67.9334ZM157.017 49C163.497 49 169.001 53.709 169.001 61.016C169.001 68.291 163.497 73 157.017 73C150.505 73 145.001 68.291 145.001 61.016C145.001 53.709 150.505 49 157.017 49Z" fill="white"/>
<path id="Fill 16" fill-rule="evenodd" clip-rule="evenodd" d="M186.579 72L177.1 56.883V72H172.001V49H178.235L186.872 62.9813V49H192.001V72H186.579Z" fill="white"/>
<path id="Fill 17" fill-rule="evenodd" clip-rule="evenodd" d="M207.017 67.9334C210.208 67.9334 213.661 65.7904 213.661 60.984C213.661 56.1762 210.208 54.0012 207.017 54.0012C203.794 54.0012 200.341 56.1762 200.341 60.984C200.341 65.7904 203.794 67.9334 207.017 67.9334ZM207.017 49C213.497 49 219.001 53.709 219.001 61.016C219.001 68.291 213.497 73 207.017 73C200.505 73 195.001 68.291 195.001 61.016C195.001 53.709 200.505 49 207.017 49Z" fill="white"/>
<path id="Fill 18" fill-rule="evenodd" clip-rule="evenodd" d="M242.983 72V56.7524L236.993 72H232.849L226.858 56.947V72H222.001V49H228.672L234.986 64.5382L240.975 49H248.001V72H242.983Z" fill="white"/>
<path id="Fill 19" fill-rule="evenodd" clip-rule="evenodd" d="M251.001 49H256.95L261.613 57.5309L266.34 49H272.001L263.993 62.3975V72H258.911V62.3975L251.001 49Z" fill="white"/>
<path id="Fill 20" fill-rule="evenodd" clip-rule="evenodd" d="M103.001 102V79H108.109V97.1017H118.001V102H103.001Z" fill="white"/>
<path id="Fill 21" fill-rule="evenodd" clip-rule="evenodd" d="M128.666 92.6566H134.208L131.469 84.7087L128.666 92.6566ZM135.817 97.3283H126.992L125.348 102H120.001L128.602 79H134.496L143.001 102H137.461L135.817 97.3283Z" fill="white"/>
<path id="Fill 22" fill-rule="evenodd" clip-rule="evenodd" d="M152.969 97.8148C154.89 97.8148 156.056 96.7765 156.056 95.1211C156.056 93.5323 154.923 92.43 152.969 92.43H149.851V97.8148H152.969ZM152.56 88.2128C154.291 88.2128 155.425 87.2718 155.425 85.715C155.425 84.2235 154.45 83.2492 152.498 83.2492H149.851V88.2128H152.56ZM153.346 79C157.755 79 160.307 81.6271 160.307 85.1632C160.307 87.5317 158.859 89.4777 157.032 90.0935C159.047 90.58 161.001 92.4953 161.001 95.4783C161.001 99.241 158.228 102 154.009 102H145.001V79H153.346Z" fill="white"/>
<path id="Fill 23" fill-rule="evenodd" clip-rule="evenodd" d="M109.527 3.08165C109.402 2.32285 108.727 1.28015 107.174 1.28015C105.92 1.28015 105.023 2.05443 105.023 3.03649C105.023 3.79528 105.512 4.376 106.452 4.56957L108.115 4.91154C109.966 5.29869 111.001 6.40075 111.001 7.87447C111.001 9.51079 109.527 11 107.159 11C104.475 11 103.205 9.36239 103.001 7.85899L104.475 7.41248C104.585 8.58939 105.464 9.67468 107.142 9.67468C108.679 9.67468 109.433 8.91588 109.433 7.9932C109.433 7.2344 108.883 6.57884 107.769 6.35558L106.185 6.02909C104.6 5.70131 103.472 4.71926 103.472 3.14101C103.472 1.48921 105.087 0 107.142 0C109.653 0 110.656 1.47372 110.907 2.61966L109.527 3.08165Z" fill="white"/>
<path id="Fill 24" fill-rule="evenodd" clip-rule="evenodd" d="M117.272 1.41233V11H115.729V1.41233H112.001V0H121.001V1.41233H117.272Z" fill="white"/>
<path id="Fill 25" fill-rule="evenodd" clip-rule="evenodd" d="M123.176 6.51633H126.78L124.964 1.58334L123.176 6.51633ZM127.299 7.92882H122.66L121.551 11H120.001L124.166 0H125.835L130.001 11H128.435L127.299 7.92882Z" fill="white"/>
<path id="Fill 26" fill-rule="evenodd" clip-rule="evenodd" d="M139.426 11L133.515 2.0324V11H132.001V0H134.024L139.489 8.44033V0H141.001V11H139.426Z" fill="white"/>
<path id="Fill 27" fill-rule="evenodd" clip-rule="evenodd" d="M144.001 11V0H151.001V1.41233H145.593V4.94852H150.497V6.37699H145.593V11H144.001Z" fill="white"/>
<path id="Fill 28" fill-rule="evenodd" clip-rule="evenodd" d="M157.502 9.66033C159.541 9.66033 161.456 8.24581 161.456 5.4929C161.456 2.73871 159.541 1.33967 157.502 1.33967C155.463 1.33967 153.546 2.73871 153.546 5.4929C153.546 8.24581 155.463 9.66033 157.502 9.66033ZM157.502 0C160.252 0 163.001 1.96433 163.001 5.4929C163.001 9.02018 160.252 11 157.502 11C154.75 11 152.001 9.02018 152.001 5.4929C152.001 1.96433 154.75 0 157.502 0Z" fill="white"/>
<path id="Fill 29" fill-rule="evenodd" clip-rule="evenodd" d="M168.602 5.13549C169.759 5.13549 170.54 4.40646 170.54 3.27391C170.54 2.11042 169.759 1.36525 168.602 1.36525H166.434V5.13549H168.602ZM167.965 6.50073H166.434V11H165.001V0H168.863C170.8 0 172.001 1.4594 172.001 3.27391C172.001 4.85571 171.061 6.08242 169.513 6.39178L171.957 11H170.308L167.965 6.50073Z" fill="white"/>
<path id="Fill 30" fill-rule="evenodd" clip-rule="evenodd" d="M177.739 9.65073C179.756 9.65073 181.447 8.28531 181.447 5.52354C181.447 2.74563 179.785 1.34927 177.77 1.34927H175.509V9.65073H177.739ZM174.001 11V0H177.817C180.586 0 183.001 1.90889 183.001 5.52354C183.001 9.12339 180.555 11 177.786 11H174.001Z" fill="white"/>
</g>
</svg>
