<svg width="169" height="163" viewBox="0 0 169 163" fill="none" xmlns="http://www.w3.org/2000/svg">
<path fill-rule="evenodd" clip-rule="evenodd" d="M82.1062 0.00231934L15.6807 162.602H20.1987L86.6302 0.00231934H82.1062Z" fill="#813879"/>
<path fill-rule="evenodd" clip-rule="evenodd" d="M90.9346 21.1214L148.718 162.607H153.236L93.1936 15.5857L90.9346 21.1214Z" fill="#813879"/>
<path fill-rule="evenodd" clip-rule="evenodd" d="M55.0445 110.514L52.9854 115.07H115.995L113.924 110.514H55.0445Z" fill="#813879"/>
<path fill-rule="evenodd" clip-rule="evenodd" d="M31.3691 162.6L97.7826 0H102.561L168.914 162.6H164.39L100.296 5.28466L86.8751 38.0826L137.542 162.6H133.03L120.052 130.916H48.8597L35.9538 162.6H31.3691ZM84.6231 43.8143L105.523 94.9279H63.8984L84.6231 43.8143ZM61.8346 99.4894H107.342L118.243 126.55H50.7334L61.8346 99.4894Z" fill="#266D9E"/>
<path fill-rule="evenodd" clip-rule="evenodd" d="M66.4195 0L0 162.6H4.518L70.9375 0H66.4195Z" fill="#266D9E"/>
</svg>
